<?xml version="1.0" standalone="no"?>
<!DOCTYPE svg PUBLIC "-//W3C//DTD SVG 1.1//EN" "http://www.w3.org/Graphics/SVG/1.1/DTD/svg11.dtd" >
<svg xmlns="http://www.w3.org/2000/svg">
<metadata>
This is a custom SVG webfont generated by Font Squirrel.
Copyright   : C Copyright PJL 1996
</metadata>
<defs>
<font id="DuvallSmallCapsOutlineNormal" horiz-adv-x="410" >
<font-face units-per-em="1000" ascent="800" descent="-200" />
<missing-glyph horiz-adv-x="500" />
<glyph unicode=" "  horiz-adv-x="500" />
<glyph unicode="&#x09;" horiz-adv-x="500" />
<glyph unicode="&#xa0;" horiz-adv-x="500" />
<glyph unicode="!" horiz-adv-x="273" d="M125 207q-39 0 -66.5 -26t-27.5 -64t27.5 -65t66.5 -27t66 27t27 65t-27 64t-66 26zM67 711q-20 0 -20 -15q0 -5 4 -17q3 -10 3 -15q2 -42 5 -83q8 -151 8 -223q0 -12 -2 -39t-2 -38q0 -21 4.5 -32t15.5 -11q4 0 7 1q21 7 39 7q8 0 27 -5q16 -5 22 -5q15 0 15 19 q0 9 -1 15q-2 10 -2 30q0 13 2 42l1 21q5 189 39 386q1 4 5 17q5 17 5 22t-3 5q-8 0 -21 -13q-37 -32 -74.5 -50.5t-76.5 -18.5zM125 226q7 0 19 -2q-7 3 -15 3q-13 0 -25 -3h2q12 2 19 2zM67 730q35 0 69 16.5t70 47.5q18 18 33 18q10 0 15.5 -9t5.5 -15q0 -7 -5 -25 q-4 -13 -4 -17q-34 -194 -40 -384q-2 -42 -2 -62q0 -18 1 -28q1 -6 1 -17q0 -16 -10.5 -27t-22.5 -11q-5 0 -15 2q32 -12 53 -40.5t21 -61.5q0 -43 -34 -77t-78 -34q-45 0 -78.5 33.5t-33.5 77.5q0 33 21.5 62t54.5 41h-6q-21 0 -29.5 18t-8.5 43q0 14 2 39q1 29 1 38 q0 73 -8 221q-4 55 -5 84l-2 7q-4 17 -4 26q0 12 10.5 23t27.5 11zM67 735q-19 0 -31 -12.5t-12 -26.5q0 -8 4 -24q2 -8 2 -10q2 -31 5 -93q9 -142 9 -211q0 -11 -2 -38t-2 -39q0 -23 7 -41t24 -23q-28 -16 -45.5 -43t-17.5 -57q0 -22 9.5 -43t26 -37.5t37.5 -26t44 -9.5 t44 9.5t37.5 26t26 37.5t9.5 43q0 29 -15.5 54.5t-41.5 41.5q12 3 21.5 14.5t9.5 27.5q0 11 -1 18q-2 9 -2 27q0 14 2 40q1 15 1 22q6 189 40 383q0 4 4 16q5 19 5 27q0 7 -7 18t-19 11q-7 0 -17.5 -5.5t-18.5 -13.5q-34 -30 -67.5 -46.5t-68.5 -16.5z" />
<glyph unicode="&#x22;" horiz-adv-x="287" d="M90 570q14 0 24.5 14.5t12.5 35.5h1v87q0 10 -2 10t-6 -3l-2 -2q-16 -13 -32 -13q-9 1 -16 4t-12 10q-3 4 -5 4q-3 -1 -3 -15v-82h2q2 -22 13 -36t25 -14zM198 571q14 0 25 14t13 36h1v87q0 9 -2 9q-3 0 -8 -4q-16 -13 -32 -13q-19 2 -28 13q-2 4 -5 4t-3 -14v-82h2 q2 -21 12.5 -35.5t24.5 -14.5zM198 555q-16 0 -30.5 14.5t-20.5 35.5h-3h-3q-6 -22 -20.5 -36.5t-30.5 -14.5q-17 0 -31.5 14.5t-20.5 36.5h-4v97q0 8 4 17.5t13 12.5q12 0 20 -10q5 -6 17 -7q7 0 20 9v0q8 8 18 8q8 0 12 -6t6 -14q2 8 5.5 13.5t10.5 7.5q12 0 20 -10 q3 -5 15 -7h2q9 0 20 9q11 8 18 8q8 0 13 -8.5t5 -16.5v-103h-3q-6 -21 -20.5 -35.5t-31.5 -14.5zM198 551q17 0 32 14.5t23 35.5h4v107q0 10 -5.5 19.5t-16.5 9.5t-20 -9q-11 -8 -17 -8h-2q-10 1 -13 5q-10 12 -24 12q-10 -3 -15 -13q-7 12 -18 12q-9 0 -20 -8 q-11 -9 -17 -9q-11 1 -15 5q-9 12 -24 12q-11 -3 -15.5 -14t-4.5 -20v-101h5q8 -21 23 -36t32 -15t32 15t22 36q7 -21 22 -35.5t32 -14.5z" />
<glyph unicode="$" horiz-adv-x="807" d="M355 314v-279q-60 3 -101.5 45.5t-41.5 111.5q0 7 2 24q2 20 2 27q0 11 -5 11t-11 -5q-7 -8 -25 -25q-61 -61 -96.5 -112t-35.5 -114q0 -13 16 -13q11 0 44 8q41 11 58 11q49 -3 132 -21q39 -8 62 -12v-110q0 -9 9.5 -13.5t22.5 -4.5q16 0 27.5 5t11.5 14v115 q72 7 130.5 21.5t106 41.5t74.5 70.5t27 105.5q0 60 -23 100t-63 64t-84 37t-115 29q-30 7 -45 10v182q25 -7 43 -21.5t42 -39.5q24 -26 43.5 -41t47.5 -22q13 -3 17 -3q8 0 20 10q35 33 60 75t25 88q0 13 -11 13q-9 0 -36 -14q-19 -9 -32 -14t-25 -5h-3h-3q-98 15 -188 33 v77q0 8 -24 8q-17 0 -32.5 -5t-15.5 -13v-62q-60 -7 -111 -20.5t-92 -37t-65 -59t-24 -84.5q0 -47 20.5 -78.5t55.5 -50.5t73.5 -29t100.5 -22q32 -6 35 -7zM362 476q-34 6 -54 26t-24 55q4 40 21 60.5t57 26.5v-168zM426 35v253q54 -4 82 -37.5t28 -91.5q0 -53 -27.5 -89 t-70.5 -36q-3 0 -6 1h-6zM231 192q0 -56 29 -91t76 -44v241l-13 2q-62 12 -105.5 23.5t-81.5 32t-61.5 56.5t-23.5 89q0 52 24.5 90.5t66 64t92 40.5t109.5 23v45q0 17 22.5 27t44.5 10q15 0 29 -6.5t14 -20.5v-61q93 -18 172 -30q10 0 22.5 5t30.5 13q29 15 41 16 q13 0 22.5 -10t9.5 -23q0 -51 -27.5 -97.5t-63.5 -79.5q-17 -15 -32 -15q-7 0 -21 4h-2q-35 9 -57 25.5t-49 45.5q-29 30 -46 41v-138l28 -6q73 -16 120 -30t89 -39.5t67.5 -69.5t25.5 -109t-28 -111.5t-75 -75.5t-106 -45t-129 -24v-98q0 -18 -19 -28t-39 -10 q-18 0 -34.5 9.5t-16.5 27.5v94q-18 3 -52 10q-80 17 -124 20q-13 0 -49 -9q-38 -10 -52 -10q-12 0 -23.5 8.5t-11.5 23.5q0 37 13 71.5t33.5 64.5t41.5 52.5t53 53.5l23 23q11 10 23 10q13 0 19 -10.5t6 -19.5q0 -10 -3 -31q-2 -15 -2 -20zM303 557q4 -41 40 -56v119 q-20 -7 -29 -21t-11 -42zM517 159q0 94 -72 107v-212q33 3 52.5 31.5t19.5 73.5zM236 192q0 6 2 20q2 21 2 31q0 11 -6.5 23t-22.5 12q-12 0 -26 -11l-23 -23q-30 -29 -52.5 -53t-43.5 -54.5t-34 -65.5t-13 -73q0 -16 13.5 -26.5t26.5 -10.5q14 0 52 10q35 9 49 9 q46 -3 128 -20q33 -7 44 -9v-90q0 -20 18 -31t37 -11q21 0 42 11.5t21 31.5v93q70 8 128.5 24.5t106 46t75.5 77t28 113.5t-25.5 110t-68 70.5t-88.5 40.5t-120 31l-29 6v125q14 -10 39 -37q27 -27 50 -44.5t58 -26.5h1q15 -4 23 -4q17 0 35 16q37 34 65 81.5t28 99.5 q0 14 -11.5 25.5t-26.5 11.5q-12 -1 -43 -16q-17 -8 -28.5 -12.5t-20.5 -4.5q-102 16 -169 29v57q0 16 -15.5 24t-31.5 8q-24 0 -48 -11t-24 -31v-41q-58 -8 -109 -23.5t-92.5 -41.5t-66 -65t-24.5 -92q0 -54 23.5 -90t62 -57.5t80.5 -33t107 -23.5l13 -3v-231 q-45 10 -70.5 42.5t-25.5 86.5zM308 557q2 25 8.5 37t21.5 19v-103q-26 13 -30 47zM513 159q0 -42 -17 -68t-46 -31v201q63 -16 63 -102z" />
<glyph unicode="&#x26;" horiz-adv-x="580" d="M525 242q-7 0 -19 -13q-6 -8 -10 -11q-48 -37 -86.5 -48.5t-70.5 -11.5q-38 0 -69 15t-52.5 40t-33 54.5t-11.5 57.5q0 27 10.5 54.5t29.5 50t45 36t55 13.5q63 0 63 20q0 12 -22 24t-50 13q-57 0 -89 -22q-10 -6 -13 -6q-2 0 -3 5t-2 15q-1 5 -1 7q0 23 13 44.5t34 38 t46.5 26t49.5 9.5q32 0 49.5 -20t28.5 -57q7 -14 21 -14q8 0 19.5 7.5t22.5 23t18.5 41t7.5 58.5q0 20 -6 38t-19 18h-1q-8 0 -19.5 -6.5t-24.5 -16.5q-9 -7 -41 -11t-65 -4q-45 0 -87 -19t-75.5 -51t-52.5 -72t-19 -80q0 -11 6 -30q4 -11 4 -15q0 -17 -11 -31q-5 -6 -6 -6 q-10 -12 -17.5 -23t-14.5 -29t-11.5 -47t-4.5 -68q0 -105 64.5 -164t179.5 -59q36 0 72 12.5t67 33t55.5 46t38.5 51.5q9 16 15 33.5t6 32.5q0 17 -14 17zM525 261q13 0 23 -12t10 -24q0 -18 -7 -38t-17 -37q-15 -27 -40.5 -54t-59.5 -49.5t-72 -35.5t-77 -13 q-120 0 -191.5 65t-71.5 176q0 42 5 72t12.5 49.5t15.5 31.5t18 24q5 5 7 8q7 8 7 18q0 2 -2 9q-7 20 -8 36q0 43 21 86t57 78.5t82 56.5t93 21q34 0 61 3t33 8q17 12 31 19t25 7h1q23 0 33.5 -25t10.5 -49q0 -36 -9.5 -64.5t-23.5 -47t-29 -27.5t-25 -9q-12 0 -22.5 7 t-16.5 18q-10 35 -22.5 50t-37.5 15q-22 0 -44.5 -8t-40.5 -21.5t-28.5 -31t-10.5 -36.5v-1q36 19 90 19q32 -1 60.5 -18.5t28.5 -37.5q0 -22 -21.5 -30.5t-59.5 -8.5q-26 0 -48.5 -11.5t-39.5 -31.5q-34 -40 -34 -92q0 -26 10 -52t29 -48t47 -35t62 -13q30 0 65.5 10.5 t79.5 45.5q2 1 6 6q7 10 15 16t20 6zM525 265q-15 0 -24 -7.5t-16 -17.5q-2 -3 -3 -4q-44 -33 -79 -43.5t-64 -10.5q-33 0 -60 12.5t-46 34.5q-37 42 -37 96q0 51 33.5 90.5t83.5 39.5q39 0 62.5 9.5t23.5 34.5q0 22 -30.5 41t-63.5 20q-55 0 -88 -20q1 17 11.5 33t28.5 29 q37 27 82 27q23 0 34 -14t21 -48q7 -11 19 -19.5t25 -8.5q11 0 27 9.5t30.5 28.5t24.5 48.5t10 66.5q0 10 -2.5 23.5t-8 26t-15 21t-23.5 8.5h-1q-12 0 -26 -7t-31 -19l-1 -1q-6 -5 -33 -8t-59 -3q-48 0 -94.5 -21t-83.5 -57.5t-58.5 -80t-21.5 -87.5q1 -18 8 -39q2 -5 2 -6 q0 -8 -6 -15l-5 -6q-12 -13 -19.5 -24.5t-15.5 -32t-13 -51.5t-5 -74q0 -112 72.5 -179t194.5 -67q39 0 78.5 13.5t73.5 36t60 50t41 55.5q10 17 17 38t7 39q0 13 -11 26.5t-26 13.5z" />
<glyph unicode="'" horiz-adv-x="149" d="M75 572q14 0 24.5 14t13.5 36v87q0 9 -2 9q-3 0 -8 -4q-16 -13 -31 -13q-20 2 -29 13q-2 4 -4 4q-4 0 -4 -14l2 -82q2 -22 13 -36t25 -14zM75 556q-17 0 -31.5 14.5t-19.5 35.5l1 -1l-5 99q0 8 3.5 17.5t12.5 12.5q12 0 20 -10q4 -5 15 -7h2q9 0 21 9q11 8 17 8 q9 0 13.5 -8t4.5 -17l-3 -103q-6 -21 -20 -35.5t-31 -14.5zM75 552q17 0 32 14.5t22 35.5l4 107q0 10 -5.5 19.5t-16.5 9.5q-5 0 -10 -2.5t-10 -6.5q-10 -8 -17 -8q-11 0 -15 5q-9 12 -24 12q-11 -4 -15 -14.5t-4 -19.5l4 -102q8 -21 23 -35.5t32 -14.5z" />
<glyph unicode="," horiz-adv-x="246" d="M124 173q-35 0 -59.5 -24t-24.5 -58q0 -32 21 -57t51 -25q19 0 19 -7q-1 -8 -12 -21t-22 -21q-11 -7 -11 -15q0 -10 23 -10q12 0 22 4q33 17 54 55t21 80q0 38 -23 68.5t-59 30.5zM124 190q42 0 70.5 -36.5t28.5 -79.5q0 -45 -24 -88t-60 -62q-16 -6 -30 -6t-27 6.5 t-13 20.5q0 5 5 14t13 14q12 10 19 20q-34 3 -58.5 33t-24.5 65q0 39 30.5 69t70.5 30zM124 194q-41 0 -73 -31t-32 -72q0 -34 23 -64t56 -37q-7 -9 -14 -13q-9 -7 -14.5 -16.5t-5.5 -15.5q0 -16 15 -23.5t30 -7.5q7 0 16 1.5t16 4.5q37 19 61.5 63.5t24.5 90.5 q0 44 -29.5 82t-73.5 38z" />
<glyph unicode="-" d="M213 310q-47 0 -83 4q-8 2 -14 2q-2 0 -3 -4t-1 -6q-1 -1 -4 -8q-4 -7 -5 -9q-3 -4 -3 -7q0 -4 6 -4q4 0 7 1q29 4 86 4q28 0 82 -4q2 0 6 -1q2 -1 4 -1q3 0 7 10q1 4 5 12q4 5 5 9q2 4 2 6q0 3 -4 3q-3 0 -10 -2l-2 -1q-25 -4 -81 -4zM213 322q54 0 79 4q1 0 4 1 q6 2 10 2q5 0 10.5 -4.5t5.5 -10.5q0 -3 -2 -9q-1 -1 -1 -2q-2 -4 -6 -10q-4 -7 -4 -9q-6 -19 -18 -19q-4 0 -9 2h-2q-54 4 -81 4q-56 0 -84 -4h-9q-6 0 -12 4.5t-6 10.5q0 3 3 10q0 2 1 3l5 8q3 5 4 7v3q1 5 3.5 9t10.5 6q3 0 10 -1l7 -1q35 -4 81 -4zM213 324q-38 0 -81 5 l-7 1t-10 1q-10 -2 -13 -6.5t-4 -10.5v-2q-3 -7 -8 -16q-5 -5 -5 -14q0 -8 7 -13t14 -5h9q28 4 84 4q27 0 81 -4q4 -2 11 -2q16 0 21 22q1 1 3 4q4 7 7 14l1 4q2 5 2 8q0 7 -7 12.5t-12 5.5q-4 0 -12 -2q-1 -1 -2 -1q-25 -5 -79 -5z" />
<glyph unicode="." horiz-adv-x="248" d="M124 174q-33 0 -56 -22.5t-23 -53.5q0 -32 23 -55t56 -23t56 23t23 55q0 31 -23 53.5t-56 22.5zM124 190q37 0 66 -28t29 -64q0 -37 -29 -65.5t-66 -28.5t-66 28.5t-29 65.5q0 36 29 64t66 28zM124 194q-39 0 -69 -29t-30 -67t30 -68t69 -30t69 30t30 68t-30 67t-69 29z " />
<glyph unicode="0" horiz-adv-x="585" d="M310 582q-18 0 -41.5 -7.5t-46 -19.5t-37.5 -26t-18 -27q-2 -9 -4.5 -11.5t-12.5 -4.5q-21 -6 -40 -28t-34 -54.5t-23 -67.5t-8 -65q0 -57 18 -105t51 -83t76.5 -54t93.5 -19q49 0 95.5 22.5t82.5 63t57 92.5t21 109q0 58 -17 109.5t-48.5 91.5t-73.5 62t-91 22zM447 283 q0 -122 -131 -122q-36 0 -66.5 18.5t-52.5 48.5t-33.5 64.5t-11.5 65.5q0 16 3 16q2 0 8 -8q12 -16 20 -17q5 0 14 17q6 12 13 22.5t19 20t32.5 16t49.5 6.5q62 0 99 -42.5t37 -105.5zM310 600q52 0 97.5 -24t79.5 -66.5t52.5 -97.5t18.5 -115t-22.5 -115.5t-61.5 -98 t-88.5 -67t-101.5 -24.5t-99 20.5t-83 58t-56 89t-20 111.5q0 32 9 69.5t25.5 72.5t38.5 59.5t47 30.5q2 1 4 1v2q4 16 21 33t42 31t51 22t46 8zM429 283q0 57 -31.5 93.5t-86.5 36.5q-38 0 -57.5 -14.5t-36.5 -39.5q-9 -15 -16.5 -22t-18.5 -7q-5 0 -9 2q4 -27 15.5 -54.5 t30.5 -49.5t43.5 -35.5t53.5 -13.5q59 0 86 25t27 79zM310 605q-20 0 -47 -8.5t-52.5 -22.5t-43.5 -31.5t-22 -34.5h-1q-25 -7 -47.5 -32t-39 -60t-26 -73.5t-9.5 -71.5q0 -61 20.5 -113t57 -90.5t84 -59.5t100.5 -21t103 25t90 68.5t63 100t23 116.5q0 61 -19 117t-53.5 99 t-81 67.5t-99.5 24.5zM424 283q0 -53 -25 -76t-83 -23q-52 0 -89 42.5t-48 99.5h3q13 0 21 7.5t19 23.5q18 24 36 37.5t53 13.5q54 0 83.5 -34.5t29.5 -90.5z" />
<glyph unicode="1" horiz-adv-x="386" d="M273 570q-21 0 -43.5 -9.5t-56.5 -27.5q-35 -18 -59 -28t-46 -10q-30 0 -30 -18q0 -9 27 -28q18 -14 28.5 -25t10.5 -24v-287q0 -18 -9 -27.5t-26 -18.5q-16 -8 -23.5 -15.5t-7.5 -20.5q0 -8 18 -8h276q16 0 16 15q0 9 -5.5 14.5t-17.5 13.5q-17 10 -26 20t-9 29v443 q0 6 -5.5 9t-11.5 3zM273 588q10 0 22.5 -7t12.5 -23v-443q0 -9 5.5 -14.5t18.5 -13.5q16 -10 25 -20t9 -29q0 -13 -10 -23t-24 -10h-276q-13 0 -24.5 7.5t-11.5 18.5q0 25 11 37t31 22q12 6 17.5 10.5t5.5 12.5v287q0 9 -27 30q-18 13 -28 24t-10 23q0 19 14 28t34 9 q19 0 40 8.5t53 25.5q37 20 62 30t50 10zM273 593q-26 0 -51.5 -10.5t-63.5 -30.5q-33 -18 -52.5 -26t-37.5 -8q-22 0 -37.5 -10t-15.5 -31q0 -14 11 -25.5t30 -25.5q24 -18 24 -26v-287q0 -9 -20 -18q-21 -9 -33 -22t-12 -42q0 -13 13.5 -22t27.5 -9h276q16 0 27.5 11.5 t11.5 26.5q0 21 -9.5 32t-27.5 22q-11 6 -16 11t-5 12v443q0 18 -14.5 26.5t-25.5 8.5z" />
<glyph unicode="2" horiz-adv-x="576" d="M531 399q0 46 -18.5 79t-52 53t-77.5 29t-97 9q-21 0 -54.5 -4t-69 -15t-60.5 -31t-25 -51q0 -15 18 -32t40 -17q21 0 35 11t30 34q19 25 35 37.5t42 12.5q19 0 32.5 -11t22.5 -29t12.5 -38.5t3.5 -40.5q0 -48 -18 -85.5t-48 -65.5t-63 -48t-86 -47q-30 -16 -47 -25 q-3 -2 -11 -6q-15 -7 -22.5 -13.5t-7.5 -17.5v-47q0 -11 7.5 -14t18.5 -3h424q22 0 22 24v62q0 26 5 69q3 35 3 50q0 13 -3.5 20.5t-12.5 7.5q-11 0 -20 -8.5t-21 -26.5q-17 -25 -33 -38.5t-41 -13.5h-90q-20 0 -20 6q0 4 12 11t25 12q41 20 76.5 40.5t66 45t49 54 t18.5 61.5zM549 399q0 -34 -18.5 -65.5t-48.5 -58t-65 -48t-76 -40.5h53q17 0 28.5 10.5t26.5 32.5t28 33.5t32 11.5t26.5 -15t7.5 -32q0 -16 -4 -53q-4 -42 -4 -66v-62q0 -16 -11.5 -29t-28.5 -13h-424q-15 0 -29.5 6.5t-14.5 28.5v47q0 20 11.5 30.5t30.5 19.5q7 3 8 4 q11 6 45 24q51 26 84 45.5t61 45t45 60t17 79.5q0 41 -12.5 70.5t-39.5 29.5q-17 0 -28.5 -9.5t-26.5 -30.5q-20 -27 -38 -41t-49 -14q-29 0 -53 24t-24 44q0 37 27.5 61t67 36.5t75.5 17t58 4.5q54 0 101 -10t83.5 -32.5t57.5 -58.5t21 -87zM554 399q0 51 -21.5 88.5 t-59 60.5t-85 33.5t-102.5 10.5q-21 0 -58 -4.5t-77.5 -17.5t-68.5 -38.5t-28 -63.5q0 -9 7 -22t18 -24q26 -26 56 -26q33 0 52 14.5t39 42.5q15 19 25.5 28.5t25.5 9.5q24 0 36 -28.5t12 -67.5q0 -44 -16.5 -77.5t-44.5 -59t-60.5 -44.5t-82.5 -45q-35 -18 -46 -24l-8 -4 q-20 -9 -32.5 -20.5t-12.5 -33.5v-47q0 -14 6 -22.5t14 -12t15.5 -4.5t13.5 -1h424q18 0 31.5 15t13.5 32v62q0 22 4 65q4 37 4 54q0 18 -9 34.5t-30 16.5q-11 0 -20 -3q31 29 48 59t17 64zM394 192h-34q52 26 98 59q-6 -7 -16 -21q-14 -19 -24 -28.5t-24 -9.5z" />
<glyph unicode="3" horiz-adv-x="520" d="M482 447q0 57 -45.5 89t-114.5 32q-42 0 -88.5 -9t-87 -25.5t-65 -39t-24.5 -47.5q0 -34 16 -46.5t47 -12.5q27 0 40.5 15t26.5 45q11 25 21.5 37.5t29.5 12.5q35 0 52.5 -28t17.5 -70q0 -68 -36.5 -114.5t-98.5 -84.5q-8 -5 -10 -9.5t-2 -12.5q0 -16 20 -16 q63 0 92 -30.5t29 -84.5q0 -109 -63.5 -174t-173.5 -91q-2 -1 -7 -1q-10 -2 -15 -5.5t-5 -12.5t17 -9q6 0 16 2h3q74 18 143 51t124.5 79.5t88 105.5t32.5 126q0 56 -24.5 89t-71.5 45h-1q-18 5 -18 10q0 9 8.5 16.5t29.5 20.5q22 13 36.5 23.5t28.5 27.5t23 41t9 55z M501 447q0 -40 -11 -69t-27.5 -47t-33.5 -28.5t-38 -21.5q-15 -7 -19 -10q51 -13 80 -52t29 -100q0 -70 -34 -132.5t-92 -111.5t-129.5 -83t-146.5 -52q-11 -4 -24 -4t-24.5 8t-11.5 20q0 21 10.5 27.5t26.5 8.5q4 1 5 1q106 25 164 84.5t58 162.5q0 49 -23 72.5t-78 23.5 q-13 0 -26.5 9.5t-13.5 25.5q0 11 4 20.5t18 17.5q59 36 92 78t33 105q0 38 -12 58.5t-39 20.5q-10 0 -16 -8.5t-13 -27.5q-13 -35 -31 -54.5t-58 -19.5q-35 0 -58.5 18t-23.5 60q0 30 27 56t70.5 45t93 29t93.5 10q74 0 126.5 -37.5t52.5 -102.5zM506 447q0 67 -54.5 106 t-129.5 39q-44 0 -94.5 -10t-95 -29.5t-72 -46.5t-27.5 -59q0 -43 25.5 -63t61.5 -20q24 0 40.5 7t26.5 18.5t15.5 23t11.5 28.5t11 25t13 8q25 0 36 -18.5t11 -55.5q0 -61 -32 -102t-92 -77q-16 -10 -20 -20.5t-4 -21.5q0 -18 15 -29t30 -11q54 0 75 -22t21 -69 q0 -101 -56.5 -159t-161.5 -83q-1 0 -5 -1q-17 -2 -29 -10t-12 -31q0 -14 13.5 -23.5t27.5 -9.5q15 0 24 4q75 17 147.5 51.5t131.5 84.5t93.5 113.5t34.5 134.5q0 59 -27 98t-75 55q4 2 9 5q22 10 39 20.5t34 29.5t28.5 49t11.5 71z" />
<glyph unicode="4" horiz-adv-x="606" d="M61 20h183q12 0 12 -15v-46q0 -20 -9.5 -31t-27.5 -23q-13 -8 -19.5 -15t-6.5 -17q0 -22 14 -22h272q20 0 20 22q0 13 -8 20t-24 14q-19 9 -28.5 18.5t-9.5 27.5v51q0 8 2.5 11.5t13.5 3.5q41 0 59.5 -13t30.5 -32q8 -13 13 -13q16 0 16 28v151q-3 14 -16 14h-115 q-10 0 -10 13v5q6 69 6 215v166q0 7 -4.5 12.5t-10.5 5.5q-2 0 -6 -1l-2 -1q-17 -8 -56 -28q-58 -30 -99.5 -46t-90.5 -21q-28 -3 -30 -20q0 -14 21 -14q7 0 14 7q8 7 17 7q6 0 6 -4q0 -2 -4 -8t-5 -9q-33 -112 -65 -206.5t-69 -181.5q-3 -6 -3 -10q0 -15 19 -15zM265 172 q0 -18 -17 -18h-41q-27 0 -37 11t-10 48q0 13 7.5 50t19 76.5t23.5 67t21 27.5q7 0 13 -18.5t10.5 -46t7.5 -55.5t3 -45v-97zM61 1q-17 0 -27.5 11t-10.5 23q0 10 5 17q34 81 63 166.5t65 202.5h-5q-13 0 -26 9.5t-13 25.5q1 15 15 25t31 12q47 5 87 20t97 45q41 20 58 28 q6 3 14 3q13 0 23.5 -11.5t10.5 -24.5v-166q0 -146 -6 -214h106q13 0 22.5 -9.5t12.5 -21.5v-153q0 -17 -9.5 -31.5t-25.5 -14.5q-10 0 -17 5t-17 17q-13 16 -27 25t-39 10v-47q0 -8 6 -12.5t19 -9.5q21 -10 33 -21.5t12 -36.5q0 -16 -10.5 -28t-28.5 -12h-272 q-15 0 -24 12.5t-9 27.5q0 19 9.5 30.5t27.5 23.5q13 8 19.5 15t6.5 17v42h-176zM179 213q0 -30 3.5 -35t24.5 -5h39v96q0 15 -2 41t-4.5 49t-5 40t-3.5 17q-4 0 -12.5 -25.5t-17.5 -63t-15.5 -70t-6.5 -44.5zM61 -4h172v-37q0 -8 -6 -14t-18 -14q-19 -12 -29 -24t-10 -34 q0 -16 10 -30.5t27 -14.5h272q20 0 32 13.5t12 31.5q0 29 -13 41.5t-36 21.5q-11 4 -16.5 7.5t-5.5 9.5v42q21 -2 33 -10.5t25 -23.5q10 -12 18 -17.5t20 -5.5q18 0 28.5 16.5t10.5 34.5v153q-2 13 -13.5 24t-25.5 11h-101q5 68 5 210v166q0 14 -12 27.5t-26 13.5 q-10 0 -16 -3q-19 -9 -55 -27q-58 -30 -98.5 -46t-87.5 -21q-18 -2 -33.5 -13.5t-16.5 -27.5q0 -17 14 -27.5t28 -11.5q-68 -225 -125 -363q-2 -2 -3.5 -8t-1.5 -11q0 -13 12 -26t30 -13zM184 213q0 12 6.5 45t14.5 67t15.5 60t10.5 26q0 -5 3 -43q4 -41 5.5 -62.5 t1.5 -36.5v-92h-34q-2 0 -9 -1t-9 -1q-5 0 -5 10v9v19z" />
<glyph unicode="5" horiz-adv-x="483" d="M432 177q0 92 -52.5 141.5t-138.5 49.5q-14 0 -40 -8q-24 -7 -35 -7q-3 0 -3 22q0 17 2 41.5t6 46.5t9.5 37t12.5 15q25 -1 45 -11.5t47 -30.5q22 -17 39 -27t38 -14h3q9 -2 12 -2q35 0 51.5 30t16.5 73q0 23 -12 23q-5 0 -20 -5q-26 -10 -43 -10q-36 3 -101 15 q-71 13 -112 16h-6q-22 0 -22 -12q0 -78 -7.5 -160.5t-21.5 -158.5q-1 -5 -1 -14q0 -17 13 -17q7 0 19 5q19 6 33 6q53 0 81 -26t28 -70t-12.5 -86t-40 -79.5t-72 -67.5t-105.5 -48q-5 -2 -5 -5q0 -9 18 -9q56 0 121.5 36.5t123.5 94t94.5 116.5t36.5 100zM451 177 q0 -44 -38 -106.5t-99 -122.5t-130 -98.5t-128 -38.5q-11 0 -24 8.5t-13 19.5q0 7 6 13.5t12 8.5q59 18 101 46t67.5 63t37 74t11.5 81q0 39 -21 58t-69 19q-9 0 -23 -5q-18 -5 -29 -5q-13 0 -22.5 10.5t-9.5 24.5q0 11 1 17q14 76 21.5 157.5t7.5 158.5q0 17 12 24t29 7h7 q43 -3 119 -17q62 -12 95 -15q10 0 31 8q20 7 30 7q12 0 21.5 -11.5t9.5 -29.5q0 -21 -4.5 -42t-15 -39t-27.5 -29t-40 -11q-8 0 -18 2q-26 5 -45.5 16t-45.5 30q-24 18 -40 26.5t-36 9.5l-2 -13t-4 -33.5t-3 -40.5t-1 -34q2 1 5 2q32 10 54 10q92 0 151 -55.5t59 -154.5z M455 177q0 101 -60.5 158t-153.5 57q-20 0 -49 -8l-5 -2q0 14 1 27.5t3 44.5q2 27 2 33q0 3 -1 5q18 -1 34 -9.5t39 -25.5q26 -20 46 -31t47 -17q10 -2 19 -2q25 0 42.5 11.5t28.5 30.5t16 40.5t5 43.5q0 20 -11.5 33t-24.5 13q-11 0 -32 -8q-20 -7 -29 -7q-32 3 -95 15 q-76 14 -119 17h-7q-17 0 -31 -8.5t-14 -27.5q0 -76 -8 -155.5t-22 -159.5v-18q0 -14 11 -27t25 -13q13 0 31 6q14 4 21 4q46 0 66 -17.5t20 -54.5q0 -41 -11.5 -79.5t-36.5 -73t-66.5 -62t-100.5 -44.5q-7 -4 -14 -11.5t-7 -15.5q0 -13 15 -23t27 -10q59 0 129 39t132 100 t100 124.5t38 107.5z" />
<glyph unicode="6" horiz-adv-x="592" d="M449 249q0 -118 -110 -118q-37 0 -64 15.5t-44 43t-25 61.5t-8 72q0 149 78 258t224 158q4 1 4 4q0 4 -10 10t-21 6q-95 0 -175.5 -39t-138 -104t-88 -143t-30.5 -153q0 -67 14.5 -122.5t45 -96t78 -62.5t112.5 -22q126 0 193 81t67 209q0 84 -45 139.5t-129 55.5 q-51 0 -84 -20.5t-55 -54.5q-18 -29 -18 -52q0 -32 19 -32q9 0 32 12q29 14 43 14q61 0 98 -33t37 -87zM430 249q0 48 -30.5 74.5t-85.5 26.5q-8 0 -30 -11q-30 -15 -45 -15q-12 0 -22 8v-9q0 -77 29.5 -125t92.5 -48q48 0 69.5 24t21.5 75zM506 721q-107 -36 -176 -104 t-96 -162q23 30 58 48t85 18q92 0 142.5 -62t50.5 -152q0 -64 -17.5 -120t-53 -98.5t-88 -66.5t-120.5 -24t-119 24.5t-84.5 68t-49.5 102t-16 127.5q0 77 32.5 158.5t92.5 149.5t144 109t182 41q16 0 33 -12t17 -23q0 -7 -5.5 -13t-11.5 -9zM426 249q0 -50 -20.5 -72 t-66.5 -22q-61 0 -89 46t-28 121q6 -3 17 -3t22 4.5t26 12.5q20 10 27 10q54 0 83 -25.5t29 -71.5zM508 716q7 4 13 11.5t6 15.5q0 12 -18 26t-36 14q-100 0 -184.5 -41.5t-145 -110.5t-93 -151t-32.5 -160q0 -69 16 -128.5t50 -104t86 -69.5t121 -25t122.5 24.5t89 68 t53.5 100.5t18 121q0 91 -51.5 154.5t-145.5 63.5q-43 0 -76 -13.5t-56 -36.5q30 84 96.5 146t166.5 95z" />
<glyph unicode="7" horiz-adv-x="541" d="M417 461q-101 -149 -174.5 -297t-124.5 -318q0 -1 -1 -6q-1 -6 -1 -9q0 -11 20 -11q26 0 49.5 4.5t57.5 13.5q43 11 64 14q19 1 20 18q13 183 57.5 340.5t116.5 313.5q1 2 1 5q-1 7 -10 11t-22 4q-29 2 -84 6q-96 7 -148 7q-18 0 -52 -4q-29 -3 -44 -3q-12 0 -18.5 3.5 t-14.5 11.5q-12 11 -23 11q-21 0 -34 -28t-13 -86q0 -38 31 -58t78 -20q33 0 58.5 12t62.5 37t65 38.5t64 15.5q23 0 23 -14q0 -7 -4 -12zM101 -148q50 170 124 318.5t174 297.5q-31 -2 -56.5 -14t-59.5 -35q-39 -27 -68 -40t-67 -13q-52 0 -90 25t-38 71q0 63 18.5 97.5 t46.5 35.5q18 0 27.5 -5t17.5 -13q7 -8 12 -8q13 0 41 3q35 4 55 4q51 0 149 -7q55 -5 84 -6q17 -1 32.5 -9t16.5 -24q0 -9 -2 -15q-71 -155 -115 -310t-57 -336q-1 -16 -11.5 -24.5t-24.5 -11.5q-20 -3 -62 -14q-71 -18 -112 -18q-17 0 -28 8.5t-11 21.5q0 5 4 21zM96 -148 q-4 -14 -4 -21q0 -14 13 -24.5t31 -10.5q28 0 53 4.5t60 13.5q42 11 61 14q16 3 28 13t13 28q13 180 56.5 334.5t114.5 309.5q3 7 3 17q-1 18 -18 27.5t-36 10.5q-27 1 -79 5q-101 7 -154 7q-20 0 -56 -3q-27 -3 -40 -3q-3 0 -7 6q-7 8 -17.5 14t-32.5 6q-30 -1 -49.5 -37.5 t-19.5 -100.5q0 -48 40 -74.5t92 -26.5q40 0 70 13.5t70 40.5q32 22 53.5 33t48.5 15q-99 -148 -171.5 -295t-122.5 -316z" />
<glyph unicode="8" horiz-adv-x="575" d="M292 727q-7 0 -26 5q-17 5 -25 5q-12 0 -19 -5.5t-7 -19.5q0 -8 3 -20q0 -1 1 -2q2 -7 2 -9q0 -8 -4.5 -11t-18.5 -6q-43 -6 -70 -44.5t-27 -82.5q0 -95 48 -128q7 -4 19 -11q16 -8 17 -12q0 -8 -25 -16q-54 -18 -86.5 -67t-32.5 -109q0 -47 18.5 -81t52 -55.5t78 -31.5 t97.5 -10q38 0 81.5 18t81.5 50t61 74.5t23 88.5q0 66 -33 121.5t-88 78.5q-12 6 -16 10t-4 7q0 1 6 4q10 5 17 10q30 24 46.5 58.5t16.5 77.5q0 28 -13 52t-33.5 40.5t-44.5 25t-46 8.5q-7 0 -24 -6q-18 -7 -26 -7zM342 125q-30 0 -57.5 5.5t-50.5 19.5t-37 38.5t-14 61.5 q0 45 21.5 72t42.5 27q33 -7 64.5 -23.5t55.5 -38.5t38 -47.5t14 -51.5q0 -11 -2 -21t-9.5 -20t-23.5 -16t-42 -6zM288 611q44 0 68.5 -14t24.5 -41q0 -29 -10 -50t-29 -21q-15 0 -38 12t-45 31t-37 42.5t-15 45.5q0 10 4.5 22t10.5 12q5 0 17 -12q13 -13 24 -20t25 -7z M292 746q4 0 16 4q22 8 34 8q24 0 51 -10t50.5 -29t38.5 -46t15 -59q0 -46 -18.5 -85.5t-51.5 -65.5h-2q57 -27 92.5 -87t35.5 -129q0 -49 -25 -95t-66 -81t-88 -54.5t-87 -19.5q-54 0 -101.5 11.5t-84.5 35t-58 61.5t-21 89q0 64 35 117.5t92 74.5q-2 2 -3 2q-5 3 -7 5 q-57 38 -57 144q0 49 31.5 94t81.5 52q5 1 6 1v1q-1 1 -1 2q-4 12 -4 25q0 23 14.5 33.5t31.5 10.5q10 0 30 -6q15 -4 20 -4zM342 144q37 0 47.5 11.5t10.5 32.5q0 23 -12.5 45.5t-34 42t-50.5 33.5t-60 21q-13 0 -27 -20.5t-14 -59.5q0 -31 11.5 -52.5t31 -33t44 -16 t53.5 -4.5zM288 592q-23 0 -37 10t-24 23q-1 0 -1 1v-10q0 -19 13 -39t32.5 -36.5t39 -26.5t31.5 -10q20 0 20 52q0 19 -17 27.5t-57 8.5zM292 751q-4 0 -18 3q-21 5 -32 6q-19 0 -35 -11.5t-16 -36.5q0 -12 3 -24q-26 -4 -47.5 -19t-37 -37t-23.5 -47t-8 -48 q0 -107 58 -148l1 -1q0 -1 1 -1q-54 -24 -87 -78t-33 -115q0 -52 21.5 -90.5t59 -63.5t85.5 -36.5t103 -11.5q41 0 88.5 20t89.5 56t67.5 82.5t25.5 96.5q0 67 -34 127.5t-90 88.5q32 27 50 66.5t18 84.5q0 33 -15.5 60.5t-40 47.5t-52.5 30.5t-52 10.5q-14 0 -35 -8 q-12 -4 -15 -4zM201 689q-1 -2 -2 -2zM342 149q-28 0 -52 4.5t-43 15.5t-30 31t-11 50q0 37 12 56t24 19q64 -13 108.5 -52.5t44.5 -84.5q0 -20 -9 -29.5t-44 -9.5zM288 587q39 0 54 -7t15 -24q0 -47 -15 -47q-11 0 -29.5 9t-37 25t-31 34t-13.5 36q10 -11 24 -18.5t33 -7.5 z" />
<glyph unicode="9" horiz-adv-x="592" d="M143 338q0 118 110 118q37 0 64 -15.5t44 -43t25 -61.5t8 -72q0 -149 -78 -258t-224 -158q-4 -1 -4 -4q0 -4 10 -10t21 -6q95 0 175.5 39t138 104t88 143t30.5 153q0 68 -14.5 123t-45 95.5t-78 62.5t-112.5 22q-126 0 -193 -81t-67 -209q0 -84 45 -139.5t129 -55.5 q51 0 84.5 20.5t54.5 54.5q18 29 18 52q0 32 -19 32q-9 0 -32 -11q-29 -15 -43 -15q-61 0 -98 33t-37 87zM162 338q0 -48 30.5 -74.5t85.5 -26.5q8 0 30 11q30 15 45 15q12 0 22 -8v9q0 77 -29.5 125t-92.5 48q-48 0 -69.5 -24t-21.5 -75zM86 -134q107 36 176 104t96 162 q-23 -30 -58 -48t-85 -18q-92 0 -142.5 62t-50.5 152q0 64 17.5 120t53 98.5t88 66.5t120.5 24t119 -24t84.5 -68t49.5 -102.5t16 -127.5q0 -77 -32.5 -158.5t-92.5 -149.5t-143.5 -109t-182.5 -41q-16 0 -33 12t-17 23q0 7 5.5 13t11.5 9zM166 338q0 50 20.5 72t66.5 22 q61 0 89 -46t28 -122q-8 4 -17 4q-11 0 -22 -4.5t-26 -11.5q-20 -11 -27 -11q-54 0 -83 25.5t-29 71.5zM84 -129q-7 -4 -13 -11.5t-6 -15.5q0 -12 18 -26t36 -14q100 0 184.5 41.5t145 110.5t93 151t32.5 160q0 69 -16 128.5t-50 104t-86 69.5t-121 25q-68 0 -121.5 -24.5 t-89.5 -68t-54 -100.5t-18 -121q0 -91 51.5 -154.5t145.5 -63.5q43 0 76 13.5t56 36.5q-29 -85 -96 -146.5t-167 -94.5z" />
<glyph unicode=":" horiz-adv-x="248" d="M124 199q-37 0 -63.5 -25.5t-26.5 -61.5t26.5 -62.5t63.5 -26.5q38 0 64 26.5t26 62.5t-26 61.5t-64 25.5zM124 480q-37 0 -63.5 -25.5t-26.5 -61.5t26.5 -62.5t63.5 -26.5q38 0 64 26.5t26 62.5t-26 61.5t-64 25.5zM124 217q43 0 75.5 -32t32.5 -73q0 -42 -32.5 -74.5 t-75.5 -32.5t-75.5 32.5t-32.5 74.5q0 41 32.5 73t75.5 32zM124 498q43 0 75.5 -32t32.5 -73t-32.5 -74t-75.5 -33q-42 0 -75 33t-33 74t32.5 73t75.5 32zM124 222q-44 0 -78.5 -33.5t-34.5 -76.5t34.5 -77.5t78.5 -34.5t78.5 34.5t34.5 77.5t-34.5 76.5t-78.5 33.5z M124 503q-44 0 -78.5 -33.5t-34.5 -76.5t34.5 -77.5t78.5 -34.5t78.5 34.5t34.5 77.5t-34.5 76.5t-78.5 33.5z" />
<glyph unicode=";" horiz-adv-x="248" d="M124 480q-38 0 -64.5 -26t-26.5 -63q0 -36 26.5 -63t64.5 -27t64.5 27t26.5 63q0 37 -26.5 63t-64.5 26zM124 194q-38 0 -64.5 -25.5t-26.5 -62.5q0 -35 23 -62.5t55 -27.5q20 0 20 -7q-1 -8 -12.5 -22.5t-24.5 -23.5q-11 -9 -11 -17q0 -10 24 -10q17 0 25 5q35 18 58 59 t23 87q0 42 -25 74.5t-64 32.5zM124 498q44 0 77 -32t33 -75q0 -42 -33 -75t-77 -33q-43 0 -76.5 33t-33.5 75q0 43 33 75t77 32zM124 213q46 0 77 -40t31 -86q0 -49 -26 -96t-65 -67q-13 -6 -34 -6q-14 0 -28.5 6.5t-14.5 21.5q0 16 19 32q12 7 22 21q-37 3 -64 35.5 t-27 71.5q0 42 33.5 74.5t76.5 32.5zM124 503q-45 0 -79.5 -34t-34.5 -78t34.5 -78.5t79.5 -34.5t79.5 34.5t34.5 78.5t-34.5 78t-79.5 34zM124 217q-45 0 -79.5 -33.5t-34.5 -77.5q0 -38 25 -70.5t61 -39.5q-4 -6 -15 -15q-9 -7 -15.5 -17.5t-6.5 -17.5q0 -17 16 -25t32 -8 q8 0 18.5 2t16.5 4q41 21 67.5 69.5t26.5 98.5q0 22 -8 45t-23 42.5t-36 31t-45 11.5z" />
<glyph unicode="?" horiz-adv-x="531" d="M279 206q-38 0 -65.5 -26t-27.5 -64q0 -37 27.5 -64.5t65.5 -27.5q39 0 66 27.5t27 64.5q0 38 -27 64t-66 26zM218 280q0 -21 4.5 -32t15.5 -11q8 0 22 4q16 4 24 4t26 -5q16 -5 23 -5q14 0 14 19q0 8 -1 22q-2 14 -2 22v20q0 27 3 43q4 28 20 42t47 29q38 17 57 38 t19 68q-1 111 -77 158q-53 35 -130 35q-112 0 -172.5 -49.5t-69.5 -141.5q0 -29 16 -43.5t43 -14.5q29 0 51 22t22 50q0 19 -6 43q0 1 -1 4v4q0 12 10.5 23.5t28 21t37 14.5t35.5 5q46 0 70 -31t24 -68q0 -24 -16 -44.5t-48 -50.5q-37 -34 -57 -59.5t-27 -59.5 q-4 -19 -4 -57q-1 -13 -1 -19zM279 225q6 0 18 -2h2q-9 3 -15 3q-5 0 -11 -2h2q3 1 4 1zM199 280q0 7 1 19q0 40 4 61q8 40 31 69t61 64q29 25 42.5 42t13.5 35q0 33 -18 56.5t-57 23.5q-33 0 -63 -15t-30 -33q8 -23 8 -48q0 -34 -28.5 -62.5t-63.5 -28.5q-32 0 -55 21 t-23 58q10 98 76.5 152.5t184.5 54.5q83 0 141 -37q84 -54 85 -174q0 -33 -7.5 -56t-20 -37t-26.5 -21.5t-35 -16.5q-26 -10 -39 -20t-16 -29q-2 -15 -2 -40v-20q0 -6 1 -19q1 -17 1 -25q0 -16 -10 -27t-22 -11q-7 0 -15 2q31 -12 52 -40.5t21 -61.5q0 -43 -34 -76.5 t-78 -33.5t-77.5 33.5t-33.5 76.5q0 34 21.5 62.5t53.5 40.5h-5q-21 0 -30 18t-9 43zM195 280q0 -23 7 -41t24 -23q-29 -16 -46 -42.5t-17 -57.5q0 -44 35.5 -79.5t80.5 -35.5q46 0 81 35.5t35 79.5q0 29 -15.5 54.5t-40.5 41.5q12 3 21.5 14.5t9.5 27.5q0 8 -2 25 q-1 13 -1 19v20q0 25 3 39q3 17 15 26t37 18q21 9 35 16.5t27.5 22t21.5 38.5t8 60q-1 122 -88 178q-57 38 -143 38q-119 0 -187 -56.5t-78 -155.5q0 -38 24 -60.5t58 -22.5q37 0 67 30t30 65q0 26 -8 49q0 16 28.5 29t59.5 13q37 0 54 -21.5t17 -53.5q0 -16 -12.5 -31.5 t-40.5 -40.5q-40 -35 -63.5 -65t-32.5 -72q-3 -21 -3 -59q-1 -15 -1 -22z" />
<glyph unicode="A" horiz-adv-x="909" d="M549 643q-10 24 -10 39q0 3 1 17v19q0 21 -31 21q-19 0 -47 -7.5t-57.5 -19t-53 -22t-31.5 -15.5l-3 -2q-16 -9 -16 -19q0 -8 5.5 -15.5t17.5 -19.5q13 -12 19 -19q-21 -52 -47.5 -112t-55 -122t-57.5 -124t-55 -116q-8 -18 -19.5 -28t-28.5 -21q-15 -10 -22 -17t-7 -19 q0 -18 21 -18h160q18 0 18 15q0 13 -5.5 19t-17.5 12q-13 7 -20 14.5t-7 24.5t10 28.5t38 21.5l218 80q11 4 16 4q14 0 20 -15l41 -101q0 -1 1 -1q4 -12 4 -18q0 -10 -5.5 -16.5t-17.5 -14.5q-13 -9 -19.5 -16.5t-6.5 -20.5q0 -6 8.5 -9t20.5 -4.5t21 -2t18 -0.5h272 q19 0 19 15q0 23 -14 34t-42 22q-17 6 -25.5 11t-11.5 12zM290 296q-8 0 -8 7q0 4 7 18q2 4 4 9l74 163q8 18 15 18q6 0 12 -15l48 -118q3 -7 3 -12q0 -12 -16 -18l-117 -46q-15 -6 -22 -6zM782 125q2 -5 23 -11q32 -10 51.5 -25.5t19.5 -50.5q0 -15 -11.5 -24t-25.5 -9 h-272q-10 0 -22.5 0.5t-27.5 4t-26 10.5t-11 19q0 25 10.5 37t26.5 20q12 7 12 11q0 3 -3 10l-1 2l-41 102v1l-1 1h1h-2q-3 0 -9 -2l-219 -81q-25 -9 -30.5 -14t-5.5 -18q0 -8 15 -14q17 -6 26.5 -17t9.5 -39q0 -12 -10.5 -22.5t-26.5 -10.5h-160q-16 0 -27.5 10.5 t-11.5 25.5q0 21 10 32.5t30 24.5q15 9 24 16.5t14 19.5q24 51 50.5 106.5t57 121t57.5 126.5t46 108l-9 9q-15 14 -23 25t-8 24q0 14 7 21.5t18 13.5l3 2q8 5 32 16t55 22.5t61 19.5t51 8q20 0 35 -10t15 -29v-20q-1 -14 -1 -16q0 -14 9 -33zM309 323v-2l113 45q2 1 4 1 q0 2 -2 5l-43 107zM571 651q-8 18 -8 31q0 2 1 16v20q0 21 -17.5 32.5t-37.5 11.5q-21 0 -52 -8t-61.5 -20t-55 -23.5t-32.5 -16.5q-11 -4 -20.5 -13t-9.5 -27q0 -15 8 -26t23 -26l7 -7q-22 -53 -48.5 -112.5t-57 -126t-58 -125t-45.5 -95.5q-5 -10 -13.5 -17t-22.5 -16 q-21 -14 -32 -26.5t-11 -35.5q0 -16 13.5 -28.5t30.5 -12.5h160q17 0 29.5 12t12.5 26q0 33 -11 45t-28 17q-12 3 -12 8q0 11 4.5 15t28.5 12l219 81q1 2 2 3q0 2 1 2l1 -1v-1l42 -102q1 -3 2 -7q1 -2 1 -3q0 -2 -8 -6q-17 -7 -28.5 -20t-11.5 -42q0 -13 11.5 -21.5 t27.5 -12t29 -4.5t23 -1h272q15 0 28.5 10.5t13.5 27.5q0 20 -7 34.5t-18.5 23t-22 13t-26.5 9.5q-19 5 -20 9zM381 466l39 -95l-101 -41z" />
<glyph unicode="B" horiz-adv-x="833" d="M364 471v86q0 15 2 26t7 24q7 23 7 40q0 9 -15 14t-44 9q-31 5 -41 9q1 2 14 4t28 2q45 0 85.5 -9.5t71 -26t48 -38.5t17.5 -45q0 -59 -39 -96.5t-107 -37.5q-22 0 -28 10t-6 29zM175 115q0 -18 -9 -27.5t-26 -19.5q-15 -8 -22.5 -15t-7.5 -21q0 -9 16 -9h418 q43 0 85.5 13t78 37.5t56 60t20.5 78.5q0 41 -11.5 71.5t-32 50.5t-45.5 33.5t-61 26.5q-11 4 -34 9q-22 4 -22 7q0 4 7.5 5.5t19.5 3.5h4q24 4 48.5 16.5t44 30t31 38t11.5 40.5q0 43 -30.5 79t-84 62t-120.5 39.5t-137 13.5q-90 0 -169.5 -23.5t-132.5 -63.5 q-21 -16 -21 -32q0 -7 7.5 -9.5t23.5 -4.5q19 -2 34 -5.5t29 -14.5t23 -32t9 -55v-383zM573 208q0 -30 -15 -56t-41.5 -44.5t-61 -29t-73.5 -10.5q-8 0 -13 13.5t-5 35.5v213q0 27 4 42t19 15q35 0 67.5 -9.5t59.5 -31t43 -56t16 -82.5zM383 471q0 -13 2.5 -17t12.5 -4 q63 0 95 31t32 85q0 30 -36 56t-93 37q3 -6 3 -12q0 -17 -2.5 -28.5t-6.5 -24.5q-7 -21 -7 -37v-86zM156 498q0 23 -6.5 38.5t-17.5 24.5t-23 13t-31 8q-24 6 -36 13t-12 24q0 13 8 25.5t20 21.5q56 41 138.5 65.5t175.5 24.5q72 0 142 -14.5t126.5 -42.5t89.5 -67.5 t33 -87.5q0 -39 -35 -77.5t-82 -56.5q34 -13 61 -28t49 -37.5t34.5 -55t12.5 -77.5q0 -47 -22.5 -85.5t-61 -65.5t-84.5 -41.5t-91 -14.5h-418q-13 0 -24 8.5t-11 18.5q0 26 11 38t31 21q12 6 17.5 11t5.5 13v383zM554 208q0 44 -14 75t-37.5 50t-53 27t-62.5 8q-4 0 -4 -38 v-213q0 -12 1 -22v-5q0 -2 -1 -3v0q74 0 122.5 34t48.5 87zM388 471v86q0 14 7 34q4 13 6.5 25t2.5 31v5q53 -12 84.5 -35.5t31.5 -50.5q0 -52 -30.5 -81.5t-91.5 -29.5q-8 0 -9 2t-1 14zM151 115q0 -9 -20 -18q-20 -10 -32 -23t-12 -42q0 -12 12 -22t27 -10h418 q46 0 92.5 14.5t85 42.5t62 67.5t23.5 87.5q0 43 -12 75.5t-32 55.5t-45.5 38.5t-57.5 28.5q44 21 76 59t32 75q0 49 -33.5 89.5t-91 69t-128.5 43.5t-143 15q-94 0 -176.5 -24.5t-139.5 -66.5q-13 -9 -21.5 -23t-8.5 -28q0 -20 12.5 -28t39.5 -15q35 -9 54 -24t19 -54v-383 zM549 208q0 -51 -45 -82.5t-115 -33.5v7q-1 11 -1 18v213q0 33 -1 33q33 0 61.5 -8t51.5 -26t36 -48t13 -73z" />
<glyph unicode="C" horiz-adv-x="813" d="M47 367q0 -74 23.5 -140.5t69 -116.5t112.5 -78.5t150 -28.5q64 0 129.5 20t118.5 56.5t84.5 84t31.5 100.5q0 15 -7 15q-4 0 -10 -5t-14 -14q-9 -8 -12 -11q-22 -16 -51.5 -30t-62.5 -25t-66.5 -17.5t-62.5 -6.5q-59 0 -109 19t-86.5 55t-56.5 88t-20 116q0 92 49 150.5 t127 58.5q37 0 61 -14t54 -41q25 -24 45 -36t49 -12q31 0 50 10t28.5 26t12.5 33.5t3 36.5q0 4 4 30q5 29 5 35q0 19 -5.5 32t-16.5 13q-7 0 -30 -12q-21 -11 -37 -17.5t-34 -6.5q-15 0 -49 2q-35 3 -53 3q-85 0 -161.5 -26t-136 -75.5t-93 -118.5t-33.5 -152zM28 367 q0 86 35.5 159t98 125t142.5 79.5t167 27.5q19 0 56 -3q31 -2 46 -2q13 0 26 5t32 15q31 16 43 16q19 0 30 -20.5t11 -43.5q0 -5 -2 -18t-3 -23q-4 -21 -4 -24q0 -21 -3.5 -41t-15 -39.5t-34.5 -32t-60 -12.5q-36 0 -60 14t-53 41q-27 25 -47 37t-49 12q-72 0 -114.5 -52 t-42.5 -139q0 -122 69 -190.5t184 -68.5q28 0 60 6t63.5 16.5t59.5 24t48 28.5q3 2 8 8q12 11 21.5 18t18.5 7q10 0 18 -10t8 -23q0 -56 -33.5 -107t-90 -90t-124.5 -61t-135 -22q-87 0 -157 30.5t-118.5 84t-73.5 122.5t-25 146zM23 367q0 -77 25.5 -147.5t74.5 -124.5 t120.5 -85t158.5 -31q67 0 136 22.5t126 61.5t91 91.5t34 109.5q0 14 -9.5 26t-20.5 12t-21.5 -8t-23.5 -21q-5 -4 -6 -5q-19 -15 -46.5 -28t-59 -23.5t-63 -16.5t-59.5 -6q-113 0 -180.5 66.5t-67.5 187.5q0 85 41 135.5t111 50.5q27 0 46.5 -12t44.5 -35q30 -28 55 -42.5 t63 -14.5t62.5 13t36 33.5t15 41.5t3.5 42q0 2 4 21q3 17 4.5 27.5t1.5 16.5q0 24 -12 46.5t-34 22.5q-14 0 -45 -17q-37 -20 -56 -20q-13 0 -46 3q-35 3 -56 3q-88 0 -169 -28.5t-144 -81t-99 -126t-36 -160.5z" />
<glyph unicode="D" horiz-adv-x="895" d="M366 557q0 15 2 26t7 24q7 23 7 40q0 10 -16 14.5t-46 9.5q-28 4 -37 7q-1 0 -1 1q1 2 13.5 3t30.5 1q13 0 31 -2q47 -7 92.5 -24t87.5 -54.5t68.5 -103t26.5 -161.5q0 -71 -22 -123.5t-57 -85t-74.5 -48t-75.5 -15.5q-13 0 -25 5.5t-12 21.5v464zM177 498v-383 q0 -18 -9 -27.5t-26 -19.5q-15 -8 -22.5 -15t-7.5 -21q0 -9 16 -9h383q93 0 158.5 32t104 82.5t54.5 106t16 106.5q0 107 -42 183t-110.5 121t-150.5 64.5t-167 19.5q-90 0 -169.5 -23.5t-132.5 -63.5q-21 -16 -21 -32q0 -7 7.5 -9.5t23.5 -4.5q19 -2 34 -5.5t29 -14.5 t23 -32t9 -55zM385 93q0 -5 5 -7t13 -2q33 0 69.5 14t68.5 44t52 79.5t20 116.5q0 79 -18.5 136.5t-49.5 93t-67.5 55.5t-77.5 30q1 -2 1 -6q0 -17 -2.5 -28.5t-6.5 -24.5q-7 -21 -7 -37v-464zM158 498q0 23 -6.5 38.5t-17.5 24.5t-23 13t-31 8q-24 6 -36 13t-12 24 q0 13 8 25.5t20 21.5q56 41 138.5 65.5t175.5 24.5q86 0 171 -20.5t157.5 -67.5t116.5 -126.5t44 -191.5q0 -52 -17.5 -110.5t-57.5 -112.5t-109.5 -88t-167.5 -34h-383q-13 0 -24 8.5t-11 18.5q0 26 11 38t31 21q12 6 17.5 11t5.5 13v383zM390 557q0 14 7 34q4 14 6.5 25.5 t2.5 29.5q40 -10 74.5 -30t63.5 -55t46.5 -90.5t17.5 -132.5q0 -66 -19 -114.5t-50 -78t-67 -43t-69 -13.5q-13 0 -13 4v464zM153 498v-383q0 -9 -20 -18q-20 -10 -32 -23t-12 -42q0 -12 12 -22t27 -10h383q99 0 169 34.5t111 89.5t58.5 114.5t17.5 111.5q0 113 -44.5 193.5 t-117.5 128t-159 68.5t-172 21q-94 0 -176.5 -24.5t-139.5 -66.5q-13 -9 -21.5 -23t-8.5 -28q0 -20 12.5 -28t39.5 -15q35 -9 54 -24t19 -54z" />
<glyph unicode="E" horiz-adv-x="727" d="M384 361q19 0 30 -10.5t22 -28.5q8 -13 13 -19t13 -6q7 0 15 10t22 31q13 20 20 29q8 10 23 24q11 11 16 17.5t5 15.5q0 25 -34 48t-83 23q-25 0 -44 -7.5t-32.5 -19.5t-21 -24t-16.5 -28q-13 -24 -19 -24q-9 0 -11 5t-2 19v222q0 22 7.5 29t30.5 7q52 0 100 -17.5 t92 -49.5q14 -10 27 -25t32 -40q21 -27 34 -40t23 -13q19 0 19 19q0 12 -6 34q-5 17 -9.5 36.5t-9.5 50.5l-3 18q-7 50 -14 74t-21 24q-11 0 -28 -10q-13 -7 -23 -10.5t-26 -3.5h-464q-16 0 -16 -17q0 -9 6.5 -14.5t20.5 -12.5q18 -10 28 -19.5t10 -28.5v-515 q0 -18 -9 -27.5t-26 -19.5q-15 -8 -22.5 -15t-7.5 -21q0 -9 16 -9h282q27 0 65.5 -0.5t62.5 -1.5t54 -2t49 -3q18 -1 34 -10q4 -2 5 -2q15 0 22 21.5t15 69.5q3 19 6 37q2 13 11 36q7 18 10.5 31.5t3.5 31.5q0 19 -2.5 27t-13.5 8q-8 0 -26 -27q-13 -20 -26 -36.5t-31 -32.5 q-23 -20 -53.5 -39t-64.5 -33.5t-70 -22.5t-68 -8q-16 0 -21 10.5t-5 39.5v175q0 14 3.5 23t14.5 19q16 13 31.5 20.5t34.5 7.5zM384 342q-16 0 -28 -5.5t-26 -17.5q-7 -7 -9 -12t-2 -16v-175q0 -23 1 -27.5t6 -4.5q61 0 129 29t115 70q20 18 48 58q16 23 25.5 33t21.5 10 q23 0 29 -15t6 -39q0 -23 -4 -39t-12 -34q-8 -19 -10 -29q-3 -15 -4 -27q-10 -57 -21 -87t-36 -30q-6 0 -17 5q-14 6 -24 7q-19 2 -48.5 3t-53 2t-62 1.5t-65.5 0.5h-282q-13 0 -24 8.5t-11 19.5q0 26 11 38t31 21q12 6 17.5 11t5.5 13v515q0 9 -6 14t-20 12q-18 9 -28.5 19 t-10.5 30q0 13 10.5 24.5t24.5 11.5h464q14 0 34 11q11 5 20.5 8.5t22.5 3.5q25 0 35.5 -30.5t19.5 -87.5l2 -13q4 -25 8 -42.5t9 -35.5q5 -17 6.5 -25t1.5 -21q0 -16 -11 -27t-27 -11t-33 17t-43 50q-34 44 -50 55q-43 31 -87.5 47t-94.5 16q-13 0 -16 -2.5t-3 -14.5v-211 q4 13 12 27.5t22.5 28t37.5 22.5t55 9q27 0 52 -8t44 -22t29.5 -30t10.5 -30q0 -15 -7 -25t-22 -24q-14 -13 -19 -19q-6 -8 -16 -23q-17 -27 -29.5 -41t-26.5 -14q-17 0 -26.5 9.5t-20.5 26.5q-8 15 -14.5 21.5t-16.5 6.5zM384 337q8 0 13 -6t13 -18q10 -19 21.5 -29.5 t30.5 -10.5q15 0 28 14.5t31 40.5q11 17 17 25q5 6 18 18q15 14 23 25.5t8 27.5t-11 32.5t-30.5 31t-45.5 23t-54 8.5q-49 0 -78 -19.5t-44 -48.5v187q0 6 -2 14l-1 1q5 -3 17 -3q50 0 93.5 -16t85.5 -46q16 -11 48 -53q27 -35 45 -52.5t36 -17.5q17 0 29.5 13t12.5 30 q0 13 -2 23.5t-6 25.5q-10 39 -16 76l-2 13q-4 29 -8 48t-10 36t-16.5 27.5t-25.5 10.5t-24.5 -3.5t-21.5 -9.5q-19 -10 -31 -10h-464q-16 0 -27.5 -13t-11.5 -28q0 -23 11.5 -34.5t31.5 -20.5q11 -6 16.5 -10t5.5 -10v-515q0 -9 -20 -18q-21 -10 -33 -23t-12 -42 q0 -12 12 -22t27 -10h282q22 0 57 -0.5t62 -1.5t59.5 -3t50.5 -3q9 -1 21 -6q13 -6 20 -6q15 0 25.5 10.5t17 27.5t10.5 35t9 49q3 18 4 26q2 10 9 28q8 19 12 35t4 40q0 25 -7 41.5t-32 16.5q-14 0 -25 -11t-27 -35q-27 -39 -46 -55q-47 -41 -113.5 -69.5t-127.5 -28.5 q-2 0 -3 -1q1 6 1 28v175q0 11 1 14t8 10q14 11 25 16.5t26 5.5z" />
<glyph unicode="F" horiz-adv-x="709" d="M383 355q20 0 31 -10.5t23 -29.5q7 -13 12.5 -19t12.5 -6q3 0 19 18t35.5 42t34 44t14.5 24q0 26 -34.5 49t-84.5 23q-25 0 -44.5 -7.5t-32.5 -19.5t-20.5 -23.5t-17.5 -29.5q-12 -24 -19 -24q-9 0 -11 5.5t-2 19.5v224q0 22 7.5 29t30.5 7q53 0 101 -17.5t94 -49.5 q13 -10 25.5 -24t32.5 -40q22 -29 34.5 -42.5t23.5 -13.5q20 0 20 19q0 12 -6 33q-5 17 -9.5 37.5t-9.5 51.5l-4 26q-7 47 -14 69t-21 22q-11 0 -28 -10q-12 -6 -23 -10t-27 -4h-468q-17 0 -17 -17q0 -9 6.5 -14.5t20.5 -12.5q19 -10 29 -20t10 -29v-519q0 -85 -13.5 -131 t-34.5 -84q-15 -28 -15 -42q0 -8 9 -8t19.5 4.5t21.5 9.5l2 1q38 17 105 65q40 30 66.5 45.5t56.5 22.5q7 0 18.5 5.5t11.5 22.5q0 9 -3 11.5t-13 5.5q-9 2 -15 4q-16 6 -20 20.5t-4 49.5v176q0 28 26 49.5t58 21.5zM383 336q-27 0 -46 -15.5t-19 -36.5v-176q0 -31 1.5 -40 t8.5 -12h4q3 -1 5 -1q20 0 28 -7t8 -31q0 -25 -16 -35.5t-31 -11.5h1q-26 -5 -50.5 -19.5t-62.5 -42.5q-34 -25 -58.5 -41t-52.5 -28q-7 -5 -22.5 -11t-28.5 -6q-9 0 -18 8t-9 19q0 13 4.5 25.5t14.5 31.5q20 40 32 82.5t12 117.5v519q0 9 -6 14.5t-20 12.5q-19 9 -29.5 19 t-10.5 30q0 14 10.5 25.5t25.5 11.5h468q14 0 35 11q11 6 20.5 9t22.5 3q25 0 35.5 -29t19.5 -85q2 -13 3 -19q4 -26 8 -45t8 -34q5 -17 6.5 -25.5t1.5 -20.5q0 -16 -11 -27t-27 -11t-33.5 17t-43.5 51q-34 44 -50 55q-45 31 -89.5 47.5t-94.5 16.5q-13 0 -16 -2.5t-3 -14.5 v-214q4 14 12 28.5t22.5 28.5t38 23t55.5 9q27 0 52.5 -8.5t45 -22.5t30 -30t10.5 -31q0 -6 -15.5 -29t-38.5 -51t-42.5 -47.5t-25.5 -19.5q-16 0 -26 9t-21 28q-8 14 -15 21t-17 7zM383 331q8 0 13.5 -6t13.5 -19q11 -19 22 -29.5t30 -10.5q7 0 27 20t43.5 48.5t40 52.5 t16.5 31q0 16 -11 33t-31 31.5t-46 23t-55 8.5q-49 0 -78.5 -20t-44.5 -48v189q0 6 -3 14v1q5 -3 17 -3q50 0 94 -16t87 -46q15 -11 48 -54q27 -35 45.5 -53t36.5 -18q17 0 30 13t13 30q0 14 -2 24.5t-6 25.5q-4 16 -8 33t-8 43l-3 17q-9 57 -21 88.5t-39 31.5 q-14 0 -24.5 -3.5t-21.5 -10.5q-19 -10 -32 -10h-468q-17 0 -28.5 -13t-11.5 -28q0 -23 11.5 -34.5t31.5 -21.5q11 -5 16.5 -9t5.5 -11v-519q0 -72 -11.5 -114.5t-31.5 -82.5q-10 -20 -14.5 -32.5t-4.5 -27.5q0 -12 10.5 -22t20.5 -10q13 0 28 6t25 12q37 16 101 59 q48 33 84.5 52t82.5 29h-18q10 6 16.5 16.5t6.5 25.5q0 26 -7.5 35t-20.5 9q-4 0 -7 -1h-6q-1 0 -4 1h-3q-5 2 -6 9.5t-1 37.5v176q0 20 17 33.5t43 13.5z" />
<glyph unicode="G" horiz-adv-x="916" d="M768 306q0 29 18 49.5t48 41.5q17 12 24 18.5t7 13.5q0 10 -6 19.5t-16 9.5q-4 0 -26 -7q-25 -9 -48.5 -14.5t-47.5 -5.5q-36 0 -65.5 4t-70.5 13q-37 7 -64 11t-59 4q-75 0 -120.5 -21.5t-45.5 -72.5q0 -9 10.5 -19t26.5 -19.5t35 -15.5t34 -6q7 0 10 8.5t5 22.5 q3 29 21 44t43 15q33 0 58 -21t25 -55v-177q0 -9 -2.5 -12t-7.5 -3q-70 0 -126 24.5t-94 69t-57.5 105.5t-19.5 133q0 91 48 151q25 32 61.5 49.5t83.5 17.5q42 0 69 -18.5t58 -53.5q28 -32 49 -47.5t53 -15.5q28 0 48 14.5t32 38.5t19.5 50.5t14.5 65.5q0 11 -11 11 q-15 0 -35 -8q-13 -5 -24 -8t-28 -3q-27 0 -52 4t-60 11q-41 9 -70.5 13t-65.5 4q-83 0 -155.5 -27t-126.5 -77t-84 -118.5t-30 -148.5q0 -78 27.5 -143.5t77 -112.5t115.5 -72t142 -25q59 0 100.5 14t96.5 43q41 21 70.5 33.5t66.5 18.5q10 2 22.5 9.5t12.5 14.5t-6 20 q-8 15 -8 25v113zM787 193q0 -4 5 -13q9 -18 9 -32q0 -15 -18.5 -27.5t-31.5 -14.5q-34 -6 -61.5 -17.5t-66.5 -31.5q-56 -30 -101 -45t-109 -15q-78 0 -147.5 26.5t-122 76.5t-81.5 118.5t-29 149.5q0 84 31.5 155.5t88.5 124t133 81t161 28.5q39 0 70.5 -4.5t72.5 -13.5 q35 -7 57.5 -10.5t47.5 -3.5q15 0 36 9q12 5 23.5 8t27.5 3q11 0 20.5 -9.5t9.5 -23.5q-7 -37 -15.5 -67.5t-23 -57.5t-38 -43.5t-56.5 -16.5q-41 0 -67 18t-56 53q-28 32 -50.5 48t-55.5 16q-85 0 -129.5 -56.5t-44.5 -142.5q0 -31 5 -64q13 44 63 63.5t118 19.5 q34 0 62 -4t68 -12q39 -8 67 -12t62 -4q21 0 42 5t46 13q27 9 34 9q18 0 29 -16.5t11 -31.5q0 -12 -10 -22.5t-32 -27.5q-26 -21 -40 -36.5t-14 -36.5v-113zM402 291q-25 0 -57.5 14.5t-51.5 33.5q26 -87 90 -136.5t162 -51.5v172q0 27 -18 42t-46 15q-20 0 -31.5 -10 t-14.5 -32q-1 -17 -8.5 -32t-24.5 -15zM791 306q0 18 13 33t39 35q23 17 34 29t11 26q0 16 -12.5 34t-32.5 18q-8 0 -36 -9q-25 -7 -45.5 -12t-40.5 -5q-33 0 -61.5 4t-66.5 12q-41 8 -68.5 12t-62.5 4q-62 0 -110.5 -16.5t-68.5 -54.5q-2 15 -2 47q0 86 42.5 140.5 t126.5 54.5q31 0 52 -15t49 -47q31 -36 58 -54.5t70 -18.5q35 0 59 17t39.5 45t24 57.5t15.5 68.5q0 17 -11 28t-24 11q-18 0 -30 -3t-24 -9q-19 -8 -33 -8q-24 0 -47 3.5t-56 10.5q-43 9 -74.5 13.5t-70.5 4.5q-86 0 -162.5 -29t-134.5 -82t-90 -126t-32 -157 q0 -82 29.5 -151.5t83 -120t123.5 -77.5t149 -27q66 0 112 15.5t102 44.5q37 20 64.5 31.5t60.5 17.5q15 3 34 17t19 30q0 15 -10 34q-4 8 -4 11v113zM402 286q19 0 27 16t11 35q5 38 41 38q27 0 43.5 -13.5t16.5 -38.5v-168q-90 3 -150.5 47t-88.5 122q21 -16 49.5 -27 t50.5 -11z" />
<glyph unicode="H" horiz-adv-x="816" d="M304 117v216q0 32 19 35q37 6 90 6q18 0 39.5 -1t38.5 -3q29 -3 29 -37v-159h-1v-57q0 -18 -9 -27.5t-26 -19.5q-15 -8 -22.5 -15t-7.5 -21q0 -11 16 -11h282q16 0 16 17q0 9 -6 15t-19 14q-16 10 -25.5 20.5t-9.5 29.5v30h1v512q0 16 3.5 23.5t10.5 16.5q6 6 9 13t3 18 q0 8 -7.5 11.5t-16.5 3.5q-47 0 -79.5 -8t-71.5 -22q-27 -10 -44 -15t-39 -7q-15 -1 -19.5 -6t-4.5 -17q0 -10 7 -16.5t21 -14.5q19 -12 29 -22.5t10 -28.5v-100q0 -12 -12 -12h-195q-9 0 -9 9v14v158q0 15 4 23.5t11 16.5q7 7 10 13t3 18q0 8 -7.5 11.5t-16.5 3.5 q-47 0 -80 -8t-72 -22q-26 -10 -43.5 -15t-37.5 -7q-18 -1 -22.5 -6.5t-4.5 -16.5q0 -9 6.5 -15.5t20.5 -14.5q19 -12 29 -22.5t10 -29.5v-96v-376q0 -19 -9 -28.5t-27 -19.5q-15 -8 -22.5 -15.5t-7.5 -20.5q0 -9 16 -9h282q16 0 16 15q0 9 -5.5 15t-18.5 14 q-16 10 -25 20.5t-9 29.5zM323 117q0 -9 5.5 -15t18.5 -14q16 -10 25 -20.5t9 -29.5q0 -13 -10.5 -23t-24.5 -10h-282q-14 0 -24 8t-10 19q0 25 11 37.5t30 21.5q13 7 18.5 12t5.5 13v472q0 9 -6.5 15.5t-20.5 14.5q-18 12 -28 22.5t-10 29.5q0 15 7.5 27.5t35.5 14.5 q26 2 73 20q41 15 76 23t86 8q14 0 28.5 -7.5t14.5 -25.5q0 -28 -5.5 -40t-15.5 -19q-7 -6 -7 -12v-162h178v93q0 9 -6.5 15.5t-21.5 14.5q-18 12 -28.5 23t-10.5 29t8 29t34 13t73 20q41 15 76 23t86 8q14 0 28.5 -7.5t14.5 -25.5q0 -29 -5.5 -41t-13.5 -19q-7 -6 -7 -11 v-530h-1v-12q0 -9 6 -15t18 -14q17 -10 26 -20.5t9 -29.5q0 -13 -10 -24t-24 -11h-282q-14 0 -24.5 10t-10.5 19q0 26 11 38t31 21q12 6 17.5 11t5.5 13v75h1v141q0 11 -2 14t-10 4q-16 2 -37 3t-39 1q-52 0 -87 -6v0q-2 0 -2.5 -2t-0.5 -14v-216zM327 117v216q0 9 -1 12h1 q35 5 86 5q18 0 39 -1t36 -3q6 0 7 -1.5t1 -11.5v-136h-1v-80q0 -9 -20 -18q-20 -10 -32 -23t-12 -42q0 -11 12 -22.5t27 -11.5h282q16 0 27.5 13t11.5 27q0 22 -10 33.5t-28 22.5q-11 6 -16 11t-5 12v7h1v535q0 2 4 5q9 4 15 17.5t6 48.5q0 20 -16.5 29t-30.5 9 q-53 0 -89 -8.5t-77 -24.5q-45 -17 -69 -19q-28 -2 -37 -13.5t-9 -32.5t11 -33t31 -24q13 -8 18.5 -13t5.5 -12v-89h-169v158q0 3 5 6q10 6 16.5 18.5t6.5 46.5q0 21 -16.5 29.5t-30.5 8.5q-53 0 -88 -8t-77 -24q-45 -18 -70 -20q-31 -1 -39.5 -15t-8.5 -31q0 -21 11 -33 t31 -24q13 -8 18.5 -13t5.5 -12v-472q0 -6 -5 -10t-16 -9q-21 -10 -33 -23t-12 -42q0 -12 12.5 -22t26.5 -10h282q16 0 27.5 12t11.5 26q0 22 -9.5 33.5t-27.5 22.5q-11 6 -16 11t-5 12z" />
<glyph unicode="I" horiz-adv-x="390" d="M290 581v56q0 16 9 24t26 15q15 7 22 13t7 17q0 14 -13 14h-289q-16 0 -16 -17q0 -9 6.5 -15t20.5 -13q18 -9 27.5 -18.5t9.5 -28.5v-49v-408v-56q0 -18 -9 -27.5t-26 -19.5q-15 -8 -22 -15t-7 -21q0 -9 16 -9h281q16 0 16 15q0 9 -6 15t-18 14q-17 11 -26 21.5t-9 28.5 v54v410zM308 117q0 -9 6 -15t18 -14q17 -10 26 -20.5t9 -29.5q0 -13 -10 -23t-24 -10h-281q-13 0 -24 8.5t-11 18.5q0 26 11 38t31 21q12 6 17.5 11t5.5 13v513q0 9 -6 14t-20 12q-18 9 -28.5 19t-10.5 30q0 13 10 24t25 11h289q13 0 22.5 -11t9.5 -21q0 -24 -11.5 -34.5 t-32.5 -17.5q-10 -4 -15.5 -7.5t-5.5 -9.5v-520zM313 117v520q0 6 17 11q22 7 35 18.5t13 39.5q0 12 -11 24.5t-26 12.5h-289q-17 0 -28.5 -12.5t-11.5 -27.5q0 -23 11.5 -34.5t31.5 -20.5q11 -6 16.5 -10t5.5 -10v-513q0 -9 -20 -18q-21 -10 -33 -23t-12 -42 q0 -12 12.5 -22t27.5 -10h281q15 0 27 12t12 26q0 22 -10 33.5t-28 22.5q-11 6 -16 11t-5 12z" />
<glyph unicode="J" horiz-adv-x="529" d="M464 149v509q0 15 4 23.5t11 16.5q7 7 10 13t3 18q0 8 -7.5 11.5t-16.5 3.5q-47 0 -80.5 -8t-73.5 -22q-28 -10 -45 -15t-37 -7q-18 -1 -22.5 -6.5t-4.5 -16.5q0 -9 7 -16t21 -15q19 -12 29 -22.5t10 -29.5v-514q0 -20 -1 -38t-5.5 -38t-14 -33.5t-25.5 -13.5 q-17 0 -28.5 5.5t-26.5 16.5q-17 12 -30.5 18t-33.5 6q-33 0 -51.5 -19.5t-18.5 -56.5q0 -39 32 -59.5t98 -20.5q56 0 109.5 24t96 67t67 100t24.5 119zM483 149q0 -65 -26.5 -125t-72 -106t-102 -72t-115.5 -26q-71 0 -110 26.5t-39 72.5q0 43 25 69t64 26q29 0 47 -8 t35 -21q12 -9 19.5 -13t17.5 -4t15.5 10.5t8 27t3 32t0.5 34.5v514q0 9 -6.5 15.5t-20.5 14.5q-19 12 -29.5 23t-10.5 30q0 15 8 27.5t36 14.5q26 2 73 20q41 15 76.5 23.5t88.5 8.5q14 0 28.5 -7.5t14.5 -26.5q0 -28 -5.5 -40t-15.5 -19q-7 -6 -7 -12v-509zM487 149v509 q0 3 5 6q10 5 17 18t7 47q0 21 -17 30t-31 9q-53 0 -89 -8.5t-78 -24.5q-46 -17 -71 -19q-32 -2 -40.5 -16t-8.5 -31q0 -22 11.5 -34t31.5 -24q13 -8 18.5 -13t5.5 -12v-514q0 -19 -0.5 -34.5t-2.5 -30.5t-6.5 -24.5t-12.5 -9.5q-12 0 -32 15q-18 14 -36.5 22t-50.5 8 q-40 0 -67 -27.5t-27 -71.5q0 -48 40.5 -76t113.5 -28q59 0 117 26.5t104 73t72.5 107.5t26.5 127z" />
<glyph unicode="K" horiz-adv-x="859" d="M809 41q-1 11 -9.5 19.5t-25.5 8.5q-12 0 -24.5 16.5t-34.5 54.5q-29 49 -53.5 84.5t-57.5 67.5q-47 46 -105.5 75.5t-119.5 34.5q-26 3 -26 13q0 5 7 17q3 5 4 8q36 68 66 98.5t72 30.5q12 0 45 -7q32 -8 44 -8q61 0 102.5 44t41.5 122q0 12 -4.5 19.5t-15.5 7.5 q-17 0 -52 -14q-39 -15 -60 -15q-8 0 -25 3q-17 2 -24 2q-67 0 -125.5 -66.5t-103.5 -177.5q-2 -4 -9 -20q-6 -16 -8 -16q-3 0 -3.5 11.5t-0.5 37.5v147q0 16 8.5 23.5t26.5 15.5q15 6 22.5 12t7.5 18q0 13 -13 13h-290q-16 0 -16 -17q0 -9 6.5 -14.5t20.5 -12.5 q17 -9 27 -19t10 -29v-513q0 -19 -9 -28.5t-26 -19.5q-14 -8 -21.5 -15.5t-7.5 -20.5q0 -9 16 -9h281q16 0 16 15q0 9 -6 15t-18 14q-17 11 -26 21.5t-9 28.5v197q0 26 12 26q7 0 14 -3q27 -8 54 -27.5t49.5 -48.5t36 -65t13.5 -74q0 -26 -9 -37t-24 -19q-9 -4 -13.5 -8 t-4.5 -11q0 -24 25 -24h328q24 0 24 18zM828 42q0 -15 -13 -26t-30 -11h-328q-17 0 -30.5 13t-13.5 29q0 19 7.5 28t21.5 17q11 6 16.5 12t5.5 18q0 36 -12 69t-32 59t-45 44t-50 25l-1 1h-1v-6v-197q0 -9 6 -15t18 -14q17 -10 26 -20.5t9 -29.5q0 -13 -10.5 -23t-24.5 -10 h-281q-13 0 -24 8.5t-11 18.5q0 25 11 37.5t30 21.5q13 7 18.5 12t5.5 13v513q0 9 -6 14t-20 12q-18 9 -28.5 19t-10.5 30q0 13 10 24.5t25 11.5h290q13 0 22.5 -11t9.5 -21q0 -24 -11.5 -34.5t-32.5 -18.5t-21 -16v-116q46 99 105 159t126 60q9 0 28 -3q16 -2 21 -2 q17 0 51 13q39 15 61 15q19 0 29 -14t10 -31q0 -84 -47.5 -134.5t-115.5 -50.5q-14 0 -50 8q-30 7 -39 7q-36 0 -61.5 -27t-59.5 -92q-2 -3 -4 -7q0 -1 -1 -2h1q2 -1 4 -1q63 -5 125 -36.5t111 -79.5q39 -37 66 -77t55 -91q15 -28 22.5 -39t13.5 -11q24 0 38.5 -14.5 t15.5 -30.5zM833 42q-1 18 -17 34t-42 16q-7 0 -31 44q-26 50 -53.5 91.5t-69.5 81.5q-49 47 -111.5 79t-125.5 37q1 1 1 2l1 1q35 66 59 92t58 26q9 0 37 -6q38 -9 52 -9q69 0 118.5 52t49.5 137q0 18 -11.5 34t-32.5 16q-24 0 -64 -15q-33 -13 -48 -13q-5 0 -19 2 q-19 3 -30 3q-65 0 -122.5 -55.5t-103.5 -147.5v95q0 5 16 11q22 6 35 18t13 40q0 11 -11 24t-25 13h-290q-17 0 -28.5 -13t-11.5 -28q0 -23 11 -34t32 -21q11 -5 16.5 -9t5.5 -11v-513q0 -6 -5 -10t-15 -9q-21 -10 -33 -23t-12 -42q0 -12 12.5 -22t27.5 -10h281q16 0 28 12 t12 26q0 22 -10 33.5t-28 22.5q-11 6 -16 11t-5 12v197q24 -8 47.5 -25.5t42.5 -43t30 -57t11 -66.5q0 -9 -4.5 -13.5t-15.5 -10.5q-15 -8 -23 -18.5t-8 -32.5q0 -18 15 -32.5t34 -14.5h328q18 0 33 13t15 29z" />
<glyph unicode="L" horiz-adv-x="693" d="M628 252q-12 0 -55 -45q-28 -29 -51.5 -51t-53.5 -43t-66.5 -34.5t-76.5 -13.5q-16 0 -21 11t-5 40v521q0 16 9 24t26 15q15 7 22.5 13t7.5 17q0 14 -13 14h-290q-16 0 -16 -17q0 -9 6.5 -15t20.5 -13q18 -9 27.5 -18.5t9.5 -28.5v-514q0 -18 -9 -27.5t-26 -19.5 q-15 -8 -22 -15t-7 -21q0 -9 16 -9h281q47 0 102.5 -1.5t95.5 -4.5q18 -1 34 -10q4 -3 6 -3q15 0 22 23t15 75q3 17 5 31q2 13 11 36q7 18 10.5 31.5t3.5 31.5q0 14 -3 17.5t-16 3.5zM628 271q17 0 27.5 -8.5t10.5 -31.5t-4 -38.5t-11 -33.5q-9 -21 -10 -31q-2 -10 -5 -31 q-10 -55 -20.5 -83.5t-35.5 -28.5q-6 0 -17 5q-15 6 -25 7q-34 3 -87.5 4.5t-108.5 1.5h-281q-13 0 -24 8.5t-11 19.5q0 25 11 37t31 22q12 6 17.5 11t5.5 13v514q0 9 -6 14t-20 12q-18 9 -28.5 19t-10.5 30q0 13 10 24t25 11h290q13 0 22.5 -11t9.5 -21q0 -24 -11.5 -34.5 t-32.5 -17.5q-10 -4 -15.5 -7.5t-5.5 -9.5v-521q0 -22 1 -27t6 -5q65 0 117.5 35.5t113.5 96.5q29 30 44.5 42.5t27.5 12.5zM628 276q-13 0 -29 -13t-47 -44q-60 -60 -112 -95t-115 -35q-2 0 -3 -1q1 6 1 28v521q0 6 17 11q21 7 34 18.5t13 39.5q0 11 -11 24t-25 13h-290 q-17 0 -28.5 -12.5t-11.5 -27.5q0 -24 11.5 -35.5t31.5 -20.5q12 -5 17 -9t5 -10v-514q0 -9 -20 -18q-21 -10 -33 -23t-12 -42q0 -12 12.5 -22t27.5 -10h281q49 0 104 -2t92 -5q9 -1 22 -6q13 -6 20 -6q28 0 39.5 31t21.5 90q2 17 4 26q2 10 10 29q7 18 11.5 34.5t4.5 40.5 q0 25 -12.5 35t-30.5 10z" />
<glyph unicode="M" horiz-adv-x="961" d="M844 117v522q0 16 8.5 23.5t25.5 15.5q15 7 22.5 13t7.5 18q0 13 -13 13h-200q-8 0 -17 -0.5t-19 -2t-17 -5.5t-7 -10q0 -13 4 -32q3 -17 3 -25q0 -22 -14 -45l-100 -158q-10 -14 -16 -14q-2 0 -8.5 6.5t-14.5 16.5t-15.5 20t-12.5 17q-68 90 -99.5 145.5t-48.5 97.5 q-10 23 -16 23q-27 0 -68.5 -11.5t-82.5 -30t-67.5 -39t-26.5 -37.5q0 -7 8.5 -12.5t31.5 -16.5q23 -10 37 -17q21 -10 26 -26t5 -44v-126q0 -62 -11 -135.5t-29 -119.5q-8 -23 -19 -37.5t-26 -30.5q-20 -21 -20 -33q0 -16 12 -16h230q16 0 16 16q0 6 -14 22q-14 15 -25 30 t-20 37q-20 46 -32.5 118t-12.5 137v72q0 20 8 20t25 -20t40.5 -54.5t48.5 -73t65 -103.5l6 -10q16 -25 23 -25q2 0 7 6t20 27.5t41 58t116 166.5l26 38q9 12 13 12q6 0 6 -17v-365q0 -19 -9 -28.5t-26 -19.5q-15 -8 -22.5 -15.5t-7.5 -20.5q0 -8 16 -8h282q16 0 16 15 q0 9 -5.5 15t-18.5 14q-17 10 -26 20.5t-9 28.5zM862 117q0 -9 5.5 -14.5t19.5 -14.5q17 -10 26 -20t9 -29q0 -14 -10.5 -24t-24.5 -10h-282q-13 0 -24 8.5t-11 18.5q0 26 11 38t31 22q12 6 17.5 11t5.5 13v336l-44 -63q-67 -97 -91.5 -132t-39.5 -54.5t-22 -25.5t-13 -6 q-11 0 -19.5 9t-19.5 25q-61 97 -100.5 158.5t-57.5 82.5v-62q0 -63 12 -133t30 -115q11 -25 39 -57q13 -14 18 -22t5 -17q0 -13 -10.5 -24t-24.5 -11h-230q-13 0 -22 11t-9 24q0 14 6.5 25t21.5 26q14 16 23 28t15 29q18 45 28.5 116t10.5 132v126q0 25 -3 36t-17 17 q-10 5 -32 15q-30 13 -42.5 22.5t-12.5 25.5q0 21 28.5 45t72 44.5t88.5 33.5t74 13q13 0 20.5 -10t21.5 -40q24 -49 53.5 -100t83.5 -123q9 -12 20 -26.5t15 -21.5l1 1l100 159q7 11 9 18.5t2 15.5q0 7 -3 20q-4 21 -4 37q0 13 10 21t23.5 11t25 4t20.5 1h200 q13 0 22.5 -11t9.5 -21q0 -24 -12 -35t-32 -18q-11 -5 -16 -8t-5 -9v-522zM867 117v522q0 6 17 11q22 7 35 19t13 40q0 11 -11 23.5t-26 12.5h-200q-9 0 -21 -1t-26.5 -4.5t-25 -12.5t-10.5 -23q0 -16 4 -38q2 -13 2 -19q0 -8 -2 -14.5t-8 -16.5l-96 -158q-3 8 -21 32 q-9 11 -11 14q-52 69 -81 119t-53 100q-16 34 -25 45t-24 11q-30 0 -75.5 -13.5t-89.5 -34.5t-73.5 -46t-29.5 -47q0 -19 14.5 -29.5t46.5 -24.5q22 -9 29 -13q12 -6 14.5 -15.5t2.5 -33.5v-126q0 -61 -10.5 -131.5t-27.5 -115.5q-6 -15 -14.5 -26.5t-21.5 -25.5 q-16 -17 -23 -28.5t-7 -28.5q0 -14 10 -27t25 -13h230q15 0 27 12.5t12 27.5q0 11 -5.5 20t-18.5 23q-27 31 -37 55q-18 45 -30 114t-12 132v49q20 -26 50.5 -74t97.5 -155l1 -2l2 -3q12 -16 20.5 -24.5t20.5 -8.5q7 0 15 7t25 29t46 63.5t96 138.5q11 16 23 33v-321 q0 -6 -5 -10t-15 -9q-20 -10 -32 -23t-12 -42q0 -12 12 -22t27 -10h282q16 0 27.5 12t11.5 27q0 22 -10 33t-28 22q-10 6 -15.5 11t-5.5 12z" />
<glyph unicode="N" horiz-adv-x="826" d="M308 382q21 -28 43.5 -59t69.5 -97q21 -30 58 -81.5t64.5 -88.5t44.5 -57.5t22 -20.5q15 0 26.5 15.5t26.5 45.5q16 30 24 41q10 14 38 41q22 22 33.5 36t11.5 23q0 8 -15.5 20t-56.5 36q-17 9 -17 42v50q0 89 8.5 152.5t21.5 103t25.5 60.5t28.5 40q14 17 14 25 q0 19 -21 19h-217q-16 0 -16 -16q0 -11 21 -36q15 -18 25.5 -33t18.5 -36q18 -46 28.5 -115.5t10.5 -125.5v-38q0 -15 -6 -17q-6 0 -17 11q-64 68 -129 155q-60 81 -94 133t-61 98q-13 22 -18 29t-10 7q-32 0 -67 -8t-68.5 -22.5t-61.5 -33.5t-46 -41q-4 -4 -4 -9 q0 -7 10 -12t33 -14q34 -13 53 -23t24 -23.5t5 -41.5v-123q0 -69 -7 -140t-23 -114q-8 -22 -19 -37.5t-26 -30.5q-20 -21 -20 -33q0 -17 12 -17h230q16 0 16 17q0 6 -14 20q-14 16 -25 30.5t-21 37.5q-19 48 -31.5 119.5t-12.5 137.5v71q0 18 8 20q3 0 14.5 -15.5 t32.5 -45.5q16 -23 22 -31zM293 370q-6 9 -19.5 28.5t-23.5 35.5v-51q0 -64 12 -134t30 -115q7 -17 16.5 -30t23.5 -28q22 -25 22 -38q0 -14 -10 -25t-25 -11h-230q-13 0 -22 11t-9 25t6.5 25t21.5 26q14 15 23 27t15 29q15 41 22 110t7 138v123q0 24 -3 33t-16 15 q-13 7 -42 19q-33 12 -48 22t-15 25q0 13 8 21q19 24 49 44.5t65.5 35.5t72.5 23.5t70 8.5q13 0 23 -12.5t34 -51.5q29 -50 60.5 -98t80.5 -113q54 -72 118 -142v20q0 57 -10 123t-28 110q-7 17 -16 31t-23 31q-14 18 -20.5 28.5t-6.5 22.5q0 14 10.5 24.5t24.5 10.5h217 q16 0 27.5 -11.5t11.5 -26.5q0 -14 -19 -41q-16 -22 -27.5 -43.5t-23.5 -60t-20 -97t-8 -139.5v-50q0 -14 1.5 -19t6.5 -7q44 -25 63 -41t19 -31t-13.5 -32t-41.5 -44q-23 -24 -32 -35q-6 -8 -20 -35q-18 -36 -34 -55.5t-38 -19.5q-7 0 -28.5 24t-51 62.5t-62 83.5 t-77.5 106q-46 64 -64 89t-34 46zM290 368q13 -17 27.5 -37.5t56.5 -79.5q43 -60 78 -108.5t68 -92t57 -70t33 -26.5q24 0 40.5 20t35.5 57q13 27 20 35q9 11 31 34q27 26 42 45.5t15 34.5q0 16 -19.5 32.5t-65.5 42.5q-4 2 -4.5 5.5t-0.5 17.5v50q0 79 7.5 137t19.5 95.5 t23.5 59.5t27.5 45q11 15 15.5 24t4.5 20q0 17 -13.5 30t-30.5 13h-217q-16 0 -27.5 -12t-11.5 -28q0 -14 7 -26t22 -30q27 -35 37 -59q18 -43 27.5 -109t9.5 -122v-9q-56 62 -109 134q-48 64 -79 111.5t-61 96.5q-25 42 -36.5 55.5t-25.5 13.5q-34 0 -71 -8.5t-73 -24 t-67 -36.5t-50 -45q-3 -4 -6 -11.5t-3 -12.5q0 -17 17.5 -28t53.5 -25q25 -10 37 -16q11 -6 13.5 -13.5t2.5 -31.5v-123q0 -71 -6.5 -138.5t-22.5 -107.5q-6 -16 -14.5 -28t-22.5 -26q-15 -16 -22 -27.5t-7 -27.5q0 -15 10.5 -28t25.5 -13h230q16 0 27.5 13t11.5 28 q0 10 -5.5 19t-18.5 24q-27 31 -37 55q-18 45 -30 114t-12 133v35q6 -10 14.5 -22t20.5 -28z" />
<glyph unicode="O" horiz-adv-x="835" d="M440 739q-19 0 -41.5 -5t-44 -13.5t-37 -18t-19.5 -16.5q-10 -16 -16 -21t-14 -5q-33 0 -71 -23t-72 -65t-55 -98.5t-21 -120.5q0 -74 25 -138t72 -112t111 -74t138 -26q75 0 145.5 29t126 80.5t87.5 119.5t32 141q0 75 -25.5 141.5t-72 117t-110.5 79t-138 28.5z M540 579q78 0 122 -58.5t44 -147.5q0 -88 -60.5 -142.5t-174.5 -54.5q-56 0 -103.5 26.5t-82 69.5t-52.5 92t-18 92q0 17 1 35t4.5 35t10 28.5t17.5 11.5q2 0 4 -14q3 -18 8 -36t17 -38t35 -34.5t58 -18.5q35 0 67.5 12.5t33.5 35.5q0 6 -4.5 8.5t-14.5 6.5q-16 5 -25 13 t-9 26q0 16 14.5 26.5t35 16t40 7.5t32.5 2zM440 757q77 0 144.5 -30t117 -83.5t76.5 -123.5t27 -147t-33.5 -147.5t-92 -125t-132.5 -85t-152 -30.5q-77 0 -144 27.5t-116.5 78t-77 118t-27.5 144.5q0 67 23 127t59.5 104.5t78.5 69.5t77 25q2 0 3 1t5 7q3 5 6 9 q5 9 22.5 20t41 20t48.5 15t46 6zM540 560q-10 0 -27.5 -1.5t-34.5 -5t-29 -10.5t-12 -16q0 -6 4.5 -9.5t14.5 -6.5q16 -5 24.5 -12.5t8.5 -25.5t-12.5 -30.5t-31.5 -20.5t-39.5 -12t-37.5 -4q-37 4 -62.5 18t-39.5 32t-19.5 36.5t-5.5 34.5q0 15 3 20q-5 -4 -7.5 -31.5 t-2.5 -59.5q0 -41 16.5 -87t48 -86t76 -64.5t96.5 -24.5q107 0 161.5 48.5t54.5 130.5q0 83 -38 135t-109 52zM440 762q-21 0 -46 -6t-50 -16t-42.5 -21t-23.5 -20l-1 -1q-7 -10 -8 -14h-1q-36 0 -78.5 -25.5t-80 -71t-61 -106.5t-23.5 -128q0 -77 28 -145.5t78.5 -119.5 t118.5 -79.5t145 -28.5q78 0 153 31t134.5 86t93.5 126.5t34 149.5t-27.5 148.5t-78 125t-118.5 85t-146 30.5zM540 555q69 0 105.5 -49.5t36.5 -132.5q0 -81 -52.5 -127.5t-158.5 -46.5q-51 0 -94.5 23.5t-74.5 63t-47.5 84.5t-16.5 86q0 30 1 45q9 -36 39.5 -64.5 t88.5 -35.5q17 0 39 4t41.5 12.5t33 22.5t13.5 33q0 22 -10 30t-27 13q-16 5 -16 11q0 8 11.5 13.5t28.5 9t33.5 4.5t25.5 1z" />
<glyph unicode="P" horiz-adv-x="796" d="M363 471v86q0 15 2 26t7 24q7 23 7 40q0 10 -16 14.5t-46 9.5q-28 4 -37 7q-1 0 -1 1q1 2 13.5 3t30.5 1q13 0 31 -2q78 -11 130.5 -56t52.5 -103q0 -61 -26 -91t-92 -30q-32 0 -44 16.5t-12 53.5zM363 117v185v28q0 17 2 25.5t10 8.5q9 0 31 -21q20 -18 47 -28.5 t79 -10.5q106 0 161 61.5t55 156.5q0 44 -29 83.5t-81.5 69.5t-121 46.5t-145.5 16.5q-90 0 -169.5 -23.5t-132.5 -63.5q-21 -14 -21 -32q0 -7 7.5 -9.5t23.5 -4.5q19 -2 34 -5.5t29 -14.5t23 -32t9 -55v-383q0 -18 -9 -27.5t-26 -19.5q-15 -8 -22.5 -15t-7.5 -21 q0 -9 16 -9h281q16 0 16 15q0 9 -6 15t-18 14q-17 11 -26 21.5t-9 28.5zM382 471q0 -33 6.5 -42.5t30.5 -9.5q59 0 79 23t20 80q0 43 -33 78t-88 52l1 -2v-3q0 -17 -2.5 -28.5t-6.5 -24.5q-7 -21 -7 -37v-86zM382 117q0 -9 6 -15t18 -14q17 -10 26 -20.5t9 -29.5 q0 -13 -10.5 -23t-24.5 -10h-281q-13 0 -24 8.5t-11 18.5q0 26 11 38t31 21q12 6 17.5 11t5.5 13v383q0 23 -6.5 38.5t-17.5 24.5t-23 13t-31 8q-24 6 -36 13t-12 24q0 13 8 25.5t20 21.5q56 41 138.5 65.5t175.5 24.5q79 0 151 -18t127 -50t86.5 -75t31.5 -91t-14.5 -90.5 t-44 -75.5t-74 -52t-102.5 -19q-55 0 -86 12.5t-53 31.5q-5 6 -11 12v-11v-213zM387 471v86q0 13 7 34q4 13 6.5 24.5t2.5 29.5q50 -18 80 -50.5t30 -72.5q0 -56 -18.5 -77t-75.5 -21q-22 0 -27 7.5t-5 39.5zM387 117v211q1 -1 2 -1t1 -1q21 -19 53 -32t89 -13 q59 0 104.5 19t75.5 53t44.5 77t14.5 92t-31.5 92.5t-88 76.5t-129 51.5t-151.5 18.5q-94 0 -176.5 -24.5t-139.5 -66.5q-13 -9 -21.5 -23t-8.5 -28q0 -20 12.5 -28t39.5 -15q35 -9 54 -24t19 -54v-383q0 -9 -20 -18q-20 -10 -32 -23t-12 -42q0 -12 12 -22t27 -10h281 q16 0 28 12t12 26q0 22 -10 33.5t-28 22.5q-11 6 -16 11t-5 12z" />
<glyph unicode="Q" horiz-adv-x="950" d="M443 745q-19 0 -42 -5t-44 -13t-36 -17.5t-20 -16.5q-10 -16 -16 -21t-14 -5q-33 0 -71 -23t-72 -65t-55 -98.5t-21 -120.5q0 -74 25.5 -138t72.5 -112t111 -74t138 -26q63 0 120.5 17t100.5 53q2 1 3 2q17 14 22 14q9 0 21 -22q15 -29 36.5 -47t44.5 -18q12 0 37 14.5 t51.5 35t44.5 39.5t18 27q0 18 -28 18q-9 0 -30.5 6t-44 15.5t-38 19.5t-15.5 18q0 9 11 29q2 2 4 7q33 58 33 142q0 75 -25.5 141.5t-72.5 117t-111 78.5t-138 28zM495 296q-41 0 -75 -17t-34 -43q0 -10 4 -10h1h2q25 5 47 5q11 0 29 -3t36 -8t30 -10.5t12 -10.5 q-1 -7 -26 -12t-47 -5q-56 0 -103.5 26.5t-81.5 69.5t-52.5 92.5t-18.5 92.5q0 17 1 35t4.5 35t10 28.5t17.5 11.5q2 0 4 -15q4 -20 9 -37.5t17 -36.5t35 -33.5t57 -18.5q35 0 67.5 12.5t33.5 35.5q0 6 -4.5 8.5t-14.5 6.5q-16 5 -25 13t-9 26q0 16 14.5 26.5t35 16 t40.5 7.5t33 2q78 0 121.5 -58.5t43.5 -147.5q0 -16 -4 -38.5t-11.5 -43.5t-17.5 -34.5t-20 -13.5q-6 0 -28 11q-4 2 -13 6q-28 14 -59.5 21.5t-60.5 7.5zM443 764q78 0 145 -30t117 -83.5t77 -123.5t27 -147q0 -86 -36 -152q0 -1 -4 -8q-8 -14 -8 -18t13.5 -10.5t32.5 -13 t37 -11.5t26 -5q17 0 32 -10.5t15 -26.5q0 -12 -20 -34t-50 -46t-57.5 -39.5t-42.5 -15.5q-29 0 -55 21.5t-43 54.5q-5 9 -5 10q-3 -3 -12 -10q-46 -38 -107 -56t-126 -18q-77 0 -144.5 27.5t-117 78t-77 118t-27.5 144.5q0 67 23 127t59.5 104.5t78.5 69.5t77 25q3 0 4 1 t5 8l5 8q5 9 22.5 19.5t41.5 20t49 15.5t45 6zM495 315q30 0 64.5 -8t64.5 -23q5 -2 12 -6q18 -9 20 -9q5 0 11 11.5t11.5 29t8.5 37t3 33.5q0 84 -38 135.5t-108 51.5q-11 0 -28.5 -1.5t-34.5 -5t-29 -10t-12 -16.5q0 -6 5 -9.5t15 -6.5q15 -5 24 -13t9 -26 q0 -17 -12.5 -30t-31.5 -21t-39.5 -11.5t-37.5 -3.5q-37 4 -62.5 17.5t-39.5 31.5t-20 36.5t-6 34.5t4 21q-6 -4 -8.5 -31t-2.5 -60q0 -62 35.5 -129t94.5 -103v5q0 18 12 32.5t31.5 25t41.5 16t43 5.5zM440 212q-18 0 -26 -1q32 -10 60 -10q16 0 40 2l-11 2q-30 4 -41 5.5 t-22 1.5zM443 769q-20 0 -45.5 -6t-50 -16t-42.5 -21t-24 -20l-3 -5q-4 -7 -5 -10h-2q-36 0 -78.5 -25.5t-80 -71t-61 -106.5t-23.5 -128q0 -77 28 -145.5t78 -119.5t118.5 -79.5t146.5 -28.5q65 0 127 18.5t109 56.5q3 2 5 5l2 2l2 -2q1 -2 1 -3q17 -33 44.5 -56t57.5 -23 q15 0 44 16.5t59.5 40.5t51 47.5t20.5 35.5q0 18 -17 29.5t-35 11.5q-7 0 -23.5 4.5t-35.5 11t-32.5 12.5t-13.5 8q0 5 12 25q19 32 27.5 71t8.5 82q0 78 -27.5 148.5t-78 125t-118.5 85t-146 30.5zM495 320q-45 0 -85 -21q-21 -11 -34 -26t-14 -33q-55 37 -87.5 100 t-32.5 123q0 31 1 46q8 -37 38 -65.5t90 -35.5q17 0 38.5 4t41.5 12.5t33.5 22t13.5 32.5q0 22 -10 30.5t-27 13.5q-16 5 -16 11q0 8 11 13.5t28.5 9t33.5 4.5t26 1q69 0 105.5 -49.5t36.5 -132.5q0 -14 -3 -33t-7.5 -35t-10 -27t-9.5 -11t-31 14q-29 15 -64 23.5t-66 8.5z M467 206q-8 0 -20 2q6 0 20 -2z" />
<glyph unicode="R" horiz-adv-x="884" d="M366 471v86q0 15 2 26t7 24q7 23 7 40q0 10 -16 14.5t-47 9.5q-28 4 -37 7q-1 0 -1 1q1 2 14.5 4t28.5 2q98 0 163 -39t65 -113q0 -60 -38.5 -99.5t-106.5 -39.5q-29 0 -35 11q-4 7 -5 21t-1 45zM834 130q-1 13 -9.5 16.5t-23.5 3.5q-26 0 -44.5 17t-47.5 57 q-22 32 -35 48q-17 22 -41 38.5t-55 30.5q-35 16 -35 27q3 10 46 10q82 0 134.5 47t52.5 117q0 92 -100.5 144t-302.5 52q-90 0 -169.5 -23.5t-132.5 -63.5q-21 -16 -21 -32q0 -7 7.5 -9.5t23.5 -4.5q19 -2 34 -5.5t29 -14.5t23 -32t9 -55v-383q0 -19 -9 -28.5t-26 -19.5 q-15 -8 -22.5 -15.5t-7.5 -20.5q0 -8 16 -8h282q16 0 16 15q0 9 -5.5 15t-18.5 14q-17 10 -26 20.5t-9 29.5v213q0 40 31 40q34 0 70 -43t41 -113q7 -95 48 -149.5t121 -54.5q42 0 70 12.5t48 32.5t29.5 40.5t9.5 34.5zM385 473q0 -26 4 -43t18 -17q63 3 94.5 34.5 t31.5 85.5q0 52 -36.5 83.5t-99.5 43.5q4 -8 4 -13q0 -17 -2.5 -29t-6.5 -24q-7 -22 -7 -37v-84zM853 131q0 -18 -11 -43t-34 -47q-21 -21 -53.5 -35.5t-77.5 -14.5q-88 0 -134.5 61t-53.5 160q-5 64 -34 101.5t-58 37.5q-8 0 -10 -3t-2 -18v-213q0 -9 6 -15t18 -14 q17 -11 26 -21t9 -29q0 -14 -10.5 -24t-24.5 -10h-282q-14 0 -24 8t-10 19q0 26 10.5 38t30.5 22q12 6 17.5 11t5.5 13v383q0 23 -6.5 38.5t-17.5 24.5t-23 13t-31 8q-24 6 -36 13t-12 24q0 13 8.5 25t20.5 22q55 41 137.5 65.5t175.5 24.5q207 0 314.5 -57t107.5 -157 q0 -37 -15.5 -70.5t-43.5 -59t-65.5 -39.5t-81.5 -14h-5h1l1 -1q31 -14 57.5 -32.5t45.5 -42.5q15 -19 37 -50q26 -36 40.5 -50t34.5 -14t35.5 -7t16.5 -31zM389 557q0 14 7 34q4 13 6.5 25t2.5 31q0 4 -1 6q59 -12 91.5 -42t32.5 -78q0 -53 -30.5 -84.5t-90.5 -31.5 q-12 0 -15 10.5t-3 28.5v101zM857 131q-1 15 -7 24t-15 13t-17 5t-17 1q-19 0 -33 14t-40 50q-21 29 -35 48q-35 41 -90 69q41 2 77 17.5t63.5 41t42 58.5t14.5 70q0 102 -109.5 160.5t-317.5 58.5q-93 0 -176.5 -24.5t-139.5 -66.5q-13 -9 -21.5 -23t-8.5 -28 q0 -20 12.5 -28t39.5 -15q36 -9 55 -24t19 -54v-383q0 -6 -5 -10t-15 -9q-21 -9 -33 -22.5t-12 -42.5q0 -12 12.5 -22t26.5 -10h282q16 0 28 12t12 27q0 21 -10 32.5t-28 22.5q-11 7 -16.5 12t-5.5 12v213q0 12 1 14.5t7 2.5q28 0 55.5 -36t31.5 -99q4 -48 17 -88.5 t36.5 -71.5t58.5 -48.5t81 -17.5t79.5 15t54.5 37q24 22 35 48.5t11 44.5zM588 362l-1 1h2v0z" />
<glyph unicode="S" horiz-adv-x="802" d="M754 242q0 84 -48 141t-128 77q-25 6 -85 18q-53 10 -87 18.5t-63.5 21t-46.5 31.5t-17 46q0 46 31 69.5t70 23.5q19 0 44 -15.5t53 -41.5q6 -6 19 -18q31 -30 52 -44.5t44 -14.5q21 0 41.5 16t38 42t27.5 54.5t10 50.5q0 11 -9 11q-19 0 -53 -10q-31 -10 -48 -10 q-39 0 -112 13q-76 13 -119 13q-66 0 -123.5 -15.5t-100.5 -43.5t-66.5 -65.5t-23.5 -79.5q0 -46 28 -78t74 -51t97.5 -30t121.5 -20q63 -9 104.5 -53t41.5 -93q0 -61 -43.5 -94.5t-108.5 -33.5q-27 0 -55 12.5t-52 35.5t-38.5 56t-14.5 73q0 4 1 11q1 9 1 12q0 7 -2 12.5 t-7 5.5q-16 -4 -41 -28t-50 -59t-42 -72.5t-20 -67.5v-7q-1 -5 -1 -7q0 -8 3.5 -12.5t12.5 -4.5q16 0 44 10q29 11 46 11q25 0 46.5 -4t54.5 -13q34 -9 57.5 -13.5t50.5 -4.5q64 0 133.5 17.5t128 48t94 70.5t35.5 83zM772 242q0 -48 -37.5 -91t-99.5 -76t-134 -51.5 t-138 -18.5q-31 0 -56.5 5t-58.5 13q-32 9 -52 12.5t-42 3.5q-12 0 -37 -9q-32 -11 -53 -11q-20 0 -27 10t-7 25v9v5q3 33 22 73.5t46 78t54 63t45 29.5q2 0 4 1h4q13 0 18.5 -12.5t5.5 -23.5q0 -6 -1 -15q-1 -6 -1 -8q0 -36 12.5 -65.5t33.5 -50t46.5 -31.5t49.5 -11 q59 0 96 27.5t37 81.5q0 44 -36 81.5t-94 45.5q-70 10 -124 21.5t-103 33t-79.5 57t-30.5 86.5q0 46 25.5 86.5t71.5 71t107 47.5t129 17q45 0 124 -13q71 -12 107 -12q13 0 39 8q38 12 62 12q12 0 19.5 -10.5t7.5 -19.5q0 -24 -11.5 -55.5t-31.5 -60.5t-44 -47t-48 -18 q-29 0 -55 18t-60 51l-13 12q-28 25 -48.5 39t-35.5 14q-34 0 -58 -18.5t-24 -56.5q0 -21 14.5 -36t40 -25.5t54 -17.5t81.5 -18q63 -13 95 -21q85 -20 137 -82.5t52 -152.5zM777 242q0 91 -53.5 155.5t-139.5 84.5q-35 9 -98 21q-49 10 -78.5 17t-53 17t-37.5 24t-14 34 q0 36 22 53t55 17q13 0 34 -14t47 -38q4 -4 18 -17q34 -31 59 -48t54 -17q25 0 50 19t45.5 48t32.5 61.5t12 57.5q0 10 -9 22t-23 12q-26 0 -65 -11q-25 -8 -36 -8q-36 0 -105 12q-80 13 -126 13q-69 0 -130.5 -17.5t-108.5 -48t-73 -72.5t-26 -89q0 -52 31 -88.5t81 -58.5 t105.5 -34t123.5 -22q57 -8 92 -44t35 -78q0 -52 -35.5 -78.5t-93.5 -26.5q-23 0 -47.5 10.5t-45 31t-32.5 49t-12 63.5q0 2 1 6q1 10 1 17q0 12 -7 26.5t-22 14.5h-4q-2 -1 -4 -1q-19 -4 -47 -30t-55.5 -64.5t-46.5 -79.5t-22 -75v-6q-1 -7 -1 -10q0 -16 8 -27t31 -11 t56 12q23 9 34 9q32 0 92 -16q36 -10 61 -14.5t56 -4.5q67 0 139.5 19t135.5 52.5t101 77.5t38 93z" />
<glyph unicode="T" horiz-adv-x="813" d="M508 117v522q0 17 5 29q45 0 75.5 -10.5t48 -27.5t26.5 -34t19 -43q8 -24 14.5 -34t19.5 -10q10 0 18.5 24t15.5 60.5t11 73.5t4 62q0 11 -3.5 17.5t-11.5 6.5q-12 0 -18 -3t-13 -9q-13 -11 -27 -15l-14 -2t-25 -2q-39 -1 -156 -1h-190q-166 0 -194 5q-8 2 -17 9 q-7 6 -14 8.5t-21 2.5q-13 0 -13 -22q0 -34 2.5 -71.5t9 -72t17.5 -56.5t27 -22q7 0 11 8t11 28q9 27 18 46.5t27.5 39t49 32.5t74.5 13q11 -7 17.5 -16t6.5 -24v-513q0 -19 -9 -28.5t-26 -19.5q-15 -8 -22.5 -15.5t-7.5 -20.5q0 -9 16 -9h282q16 0 16 16q0 9 -5.5 14.5 t-19.5 14.5q-17 10 -26 20.5t-9 28.5zM527 117q0 -9 6 -15t18 -14q17 -10 26 -20t9 -29q0 -14 -10 -24t-24 -10h-282q-13 0 -24 8.5t-11 18.5q0 25 11 37.5t30 21.5q13 7 18.5 12t5.5 13v513q0 14 -10 21q-33 -1 -57.5 -12t-40.5 -27.5t-25 -33.5t-20 -42 q-12 -27 -20.5 -39.5t-22.5 -12.5q-22 0 -37 24.5t-23 62t-11.5 78.5t-3.5 76q0 14 8.5 27.5t23.5 13.5q32 0 42.5 -6t12.5 -13l1 -1q24 -6 190 -6h190q114 0 153 1q16 1 24 2t14 2v0q3 1 8 7q6 9 17 14.5t37 5.5q18 0 26 -13.5t8 -28.5q0 -26 -4.5 -66.5t-13.5 -80.5 t-22 -66t-28 -26q-21 0 -32 13.5t-25 43.5q-9 21 -18 36.5t-23.5 29.5t-36.5 23.5t-54 11.5v-9v-522zM532 117v522v4q28 -3 48.5 -12t34 -22.5t21.5 -28t18 -35.5q14 -31 26.5 -45t35.5 -14q17 0 30.5 26.5t22.5 67t14 82t5 67.5q0 17 -9 32t-29 15q-31 0 -42.5 -6.5 t-16.5 -15.5q-2 -4 -4 -5v0q-7 -1 -13.5 -2t-24.5 -2q-38 -1 -152 -1h-190q-89 0 -131 1.5t-57 4.5v1q1 1 1 2q0 6 -13 11t-46 5q-17 0 -26.5 -14.5t-9.5 -30.5q0 -36 3.5 -77.5t12 -79.5t24.5 -63.5t39 -25.5q16 0 26 13.5t23 42.5q11 25 20.5 41.5t24.5 32t37.5 26 t54.5 11.5q5 -4 5 -16v-513q0 -6 -5 -10t-15 -9q-21 -10 -33 -23t-12 -42q0 -12 12.5 -22t27.5 -10h282q15 0 27 12t12 27q0 22 -10 33t-28 22q-10 6 -15.5 11t-5.5 12z" />
<glyph unicode="U" horiz-adv-x="751" d="M301 659q0 16 4 24t12 15q6 7 9.5 13t3.5 17q0 9 -7.5 12t-16.5 3q-46 0 -78.5 -7.5t-72.5 -22.5q-26 -9 -44 -14t-39 -7q-17 -1 -21.5 -6.5t-4.5 -16.5q0 -10 7 -16.5t20 -15.5q18 -12 27.5 -22.5t9.5 -28.5v-362q0 -37 16 -75.5t49 -71.5t83 -53.5t114 -20.5 q87 0 151 34.5t104 95.5t59 141t19 172q0 58 -3.5 99t-12 72.5t-23 59.5t-38.5 63q-3 3 -12 3q-13 0 -33.5 -12t-41 -29.5t-34 -34t-13.5 -24.5q0 -19 11.5 -34.5t34.5 -36.5q21 -20 29 -31q27 -34 41.5 -74.5t14.5 -105.5q0 -108 -43.5 -169t-134.5 -61q-70 0 -108 49.5 t-38 135.5v343zM320 316q0 -166 127 -166q84 0 121.5 53.5t37.5 157.5q0 61 -13 98t-39 71q-7 9 -26 26q-25 23 -39 42.5t-14 44.5q0 11 15.5 31t38.5 40t47 34t40 14q5 0 13 -2.5t13 -7.5q25 -36 40.5 -65.5t24.5 -63t13 -75.5t4 -102q0 -93 -20 -176t-62.5 -147.5 t-110.5 -101.5t-159 -37q-68 0 -121.5 22.5t-89 59t-53 78t-17.5 80.5v362q0 9 -6.5 15.5t-19.5 15.5q-19 12 -28.5 23t-9.5 29q0 15 7.5 27.5t35.5 14.5q27 2 74 20q41 15 76 23t86 8q14 0 28.5 -7.5t14.5 -26.5q0 -28 -6 -39.5t-15 -18.5q-8 -5 -8 -11v-343zM324 659 q0 2 5 5q10 4 17 16.5t7 47.5q0 21 -16.5 30t-30.5 9q-53 0 -88.5 -8.5t-76.5 -23.5q-46 -18 -71 -20q-31 -2 -39.5 -16t-8.5 -30q0 -21 10.5 -33t29.5 -24q12 -7 18 -12.5t6 -13.5v-362q0 -39 18 -82t54.5 -80t90.5 -60t123 -23q92 0 160.5 37.5t112 103t64 149t20.5 177.5 q0 60 -4 103t-13.5 76t-25 63.5t-40.5 66.5q-6 6 -14.5 9t-15.5 3q-17 0 -41.5 -14t-49 -35.5t-40 -42t-15.5 -32.5q0 -27 14.5 -47t40.5 -44q18 -16 25 -25q26 -33 39 -69.5t13 -96.5q0 -103 -36.5 -154.5t-118.5 -51.5q-123 0 -123 161v343z" />
<glyph unicode="V" horiz-adv-x="823" d="M775 615q0 50 -10 86t-42 60q-3 2 -8 2q-14 0 -38 -11.5t-50.5 -30t-43 -35t-16.5 -24.5q0 -3 2 -5q36 -26 54 -60t18 -89q0 -75 -26.5 -149.5t-73.5 -135.5l-2 -3q-14 -20 -20 -20t-16 23l-150 381q-6 15 -6 34v22q0 17 6.5 23t19.5 10q12 3 18 8t6 18q0 11 -8.5 17.5 t-38.5 6.5h-291q-11 0 -11 -9q0 -12 8.5 -20.5t26.5 -19.5q20 -11 32.5 -22t18.5 -28l199 -550l1 -2q3 -8 3 -12q0 -5 -2 -18q-2 -11 -2 -16q0 -30 33 -30q15 0 36.5 6.5t44 16t42 19t40.5 20.5q17 9 23 12q7 4 9 8.5t2 14.5q0 3 -11 17q-14 16 -14 21q0 8 14 22l8 8l4 4 q49 59 81.5 101t62.5 94.5t48.5 111.5t18.5 123zM794 615q0 -65 -19 -126.5t-50.5 -116t-64 -97t-83.5 -102.5l-3 -4q-12 -14 -17 -18l3 -3q8 -9 15 -18t7 -17q0 -13 -3.5 -23t-17.5 -17q-6 -2 -25 -13q-27 -13 -45.5 -22t-41 -18.5t-44.5 -16t-39 -6.5q-21 0 -36.5 13 t-15.5 36q0 7 2 21q2 9 2 13q0 1 -3 7l-198 550q-4 11 -14 19t-26 17q-24 14 -36 26.5t-12 34.5q0 11 9.5 19.5t20.5 8.5h291q40 0 53 -12.5t13 -30.5q0 -35 -11 -44.5t-28 -10.5q-11 0 -11 -4v-22q0 -17 5 -28l150 -380l1 -1v-1q2 4 4 6q45 61 70.5 131.5t25.5 142.5 q0 51 -15.5 80.5t-48.5 53.5q-6 5 -6 13q0 15 18.5 36t47.5 41.5t57 34t46 13.5q9 0 14 -4q36 -27 47.5 -67.5t11.5 -93.5zM799 615q0 54 -12 95.5t-49 69.5q-6 4 -15 4q-19 0 -48.5 -13.5t-59 -35.5t-49 -44t-19.5 -38q0 -9 8 -15q33 -24 47.5 -52t14.5 -78 q0 -72 -24.5 -141.5t-69.5 -128.5l-148 374q-4 11 -4 26v22q0 1 1 1t5 -1q6 -1 11 -1q13 0 22.5 13t9.5 47q0 20 -13.5 33.5t-56.5 13.5h-291q-13 0 -24 -10t-11 -22q0 -25 13 -38.5t38 -27.5q17 -9 25.5 -16t11.5 -16l198 -551l3 -5q0 -3 -1 -11q-3 -15 -3 -23 q0 -24 18 -39t39 -15q17 0 38.5 6t45.5 16.5t44.5 20.5t43.5 21q20 11 25 13q16 8 20 19.5t4 24.5q0 10 -10 22t-16 15q5 2 17 16l4 4q48 58 82 102t65 98.5t50.5 116.5t19.5 128z" />
<glyph unicode="W" horiz-adv-x="1256" d="M1195 615q0 51 -9.5 86.5t-41.5 59.5q-3 2 -9 2q-13 0 -37.5 -12t-50.5 -29.5t-43 -34.5t-17 -25q0 -3 2 -5q36 -26 54 -60t18 -89q0 -75 -26.5 -149.5t-73.5 -135.5q-15 -23 -22 -23q-6 0 -16 23l-150 381q-6 15 -6 34v22q0 17 6.5 23t19.5 10q12 3 18 8t6 18 q0 11 -8.5 17.5t-38.5 6.5h-291q-11 0 -11 -9q0 -12 8.5 -20.5t27.5 -19.5q20 -11 32.5 -22t18.5 -28l71 -198q11 -25 11 -47q0 -17 -12.5 -49.5t-30.5 -67.5t-35.5 -58.5t-26.5 -23.5q-6 0 -16 23l-150 381q-6 15 -6 34v22q0 17 6.5 23t19.5 10q12 3 18 8t6 18 q0 11 -8.5 17.5t-38.5 6.5h-291q-11 0 -11 -9q0 -13 8.5 -21t26.5 -19q20 -12 32.5 -22.5t18.5 -27.5l199 -550l1 -2q3 -8 3 -12q0 -5 -2 -18q-2 -11 -2 -16q0 -30 33 -30q15 0 36.5 6.5t44 16t42 19t40.5 20.5q17 9 23 12q7 4 9 8.5t2 14.5q0 3 -11 17q-14 16 -14 21t16 27 t40.5 50.5t42.5 48t22 19.5q9 0 14 -17l67 -185l1 -2q3 -8 3 -12q0 -5 -2 -18q-2 -11 -2 -16q0 -30 33 -30q16 0 36.5 6t43 15.5t40.5 18.5t43 22q20 10 23 12q8 4 10 8.5t2 14.5q0 3 -12 17q-14 16 -14 21q0 7 13 20q6 6 9 10l4 4q49 59 81.5 101t62.5 94.5t48.5 111.5 t18.5 123zM1214 615q0 -65 -19 -126.5t-50.5 -116t-64 -97t-83.5 -102.5l-3 -4q-12 -14 -17 -18l3 -3q8 -9 15 -18t7 -17q0 -13 -3.5 -23t-17.5 -17q-6 -2 -25 -13q-27 -13 -45.5 -22t-41 -18.5t-44.5 -16t-39 -6.5q-20 0 -36 13t-16 36q0 7 2 21q2 9 2 13q0 1 -3 7l-67 185 v1q-7 -8 -21.5 -25t-33.5 -39.5t-31 -38.5t-12 -19l3 -3q8 -9 15 -18t7 -17q0 -13 -4 -23t-18 -17q-5 -2 -22 -11q-28 -15 -46 -23.5t-41 -18.5t-45.5 -16.5t-39.5 -6.5q-21 0 -36.5 13t-15.5 36q0 7 2 21q2 9 2 13q0 1 -3 7l-199 550q-4 11 -13.5 19t-25.5 17 q-24 14 -36 26.5t-12 34.5q0 11 9.5 19.5t20.5 8.5h291q40 0 53 -12.5t13 -30.5q0 -35 -11 -44.5t-28 -10.5q-11 0 -11 -4v-22q0 -16 4 -28l151 -380l2 -4q1 -3 1 -4q7 7 21 30.5t28 52.5t23.5 55t9.5 39q0 14 -11 41l-71 197q-4 11 -13.5 19t-26.5 17q-24 14 -36 26.5 t-12 34.5q0 11 9.5 19.5t20.5 8.5h291q40 0 53 -12.5t13 -30.5q0 -35 -11 -44.5t-28 -10.5q-11 0 -11 -4v-22q0 -17 5 -28l150 -380l1 -1v-1q2 4 4 6q45 61 70.5 131.5t25.5 142.5q0 51 -15.5 80.5t-48.5 53.5q-6 5 -6 13q0 15 18.5 36t47.5 41.5t57 34t46 13.5q9 0 14 -4 q36 -27 47.5 -67.5t11.5 -93.5zM1219 615q0 54 -12 95.5t-49 69.5q-6 4 -15 4q-19 0 -48.5 -13.5t-59 -35.5t-49 -44t-19.5 -38q0 -9 8 -15q33 -24 47.5 -52t14.5 -78q0 -72 -24.5 -141.5t-69.5 -128.5l-148 374q-4 11 -4 26v22l1 1q1 0 5 -1q6 -1 11 -1q14 0 23.5 13 t9.5 47q0 20 -14 33.5t-57 13.5h-291q-12 0 -23 -10t-11 -22q0 -25 13 -38.5t38 -27.5q16 -9 24.5 -16t11.5 -16l72 -198q1 -3 2 -7q8 -21 8 -32q0 -12 -8 -35.5t-20.5 -50.5t-25.5 -49.5t-21 -32.5v1l-151 380q-5 10 -5 26v22l1 1q1 0 5 -1q6 -1 11 -1q14 0 23.5 13t9.5 47 q0 20 -13.5 33.5t-56.5 13.5h-291q-13 0 -24 -10t-11 -22q0 -25 13 -38.5t38 -27.5q16 -9 24.5 -16t12.5 -16l198 -551l3 -5q0 -3 -1 -11q-3 -15 -3 -23q0 -25 17.5 -39.5t39.5 -14.5q17 0 40 6.5t46.5 16.5t46 21.5t41.5 21.5q17 9 22 11q16 8 20.5 19.5t4.5 24.5 q0 11 -9.5 22t-16.5 16q0 2 14 19.5t40 48.5q13 17 23.5 30t16.5 20l63 -184l2 -5q0 -3 -1 -11q-2 -14 -2 -23q0 -25 17.5 -39.5t38.5 -14.5q17 0 38.5 6t45.5 16.5t44.5 20.5t43.5 21q20 11 25 13q16 8 20 19.5t4 24.5q0 10 -8.5 20.5t-16.5 16.5l6 6l10 10l4 4 q48 58 82 102t65 98.5t50.5 116.5t19.5 128z" />
<glyph unicode="X" horiz-adv-x="941" d="M794 766q-35 0 -63.5 -5t-68.5 -15q-34 -9 -57.5 -13.5t-47.5 -4.5q-26 0 -26 -18q0 -10 6 -24t6 -24q0 -27 -8.5 -52.5t-24.5 -61.5l-4 -8q-12 -25 -20 -25q-6 0 -20 18l-3 4l-6 9q-41 56 -60 85t-29 52q-6 16 -11 38q-3 15 -6.5 21.5t-13.5 6.5q-27 0 -68 -11.5 t-82 -30t-67.5 -39t-26.5 -37.5q0 -11 36 -27q26 -11 41 -19q16 -8 27.5 -17.5t23.5 -23t25.5 -31.5t44.5 -61q13 -18 23 -32l30 -41q3 -4 5 -7q10 -13 11 -19q0 -11 -12 -28q-67 -85 -143 -161q-29 -30 -55.5 -48.5t-57.5 -36.5q-23 -14 -32 -21.5t-9 -16.5q0 -11 9.5 -14 t24.5 -3h225q10 0 16 2.5t6 9.5q0 14 -3.5 22.5t-9.5 17.5q-7 9 -9.5 15.5t-2.5 16.5q0 39 15.5 74.5t46.5 87.5q7 11 10 17q9 16 16 16q4 0 17 -17v-1l100 -140q19 -17 19 -42q0 -8 -12 -17q-9 -7 -14 -14t-5 -21t11 -20.5t23 -6.5h323q10 0 21 7.5t11 18.5q0 14 -8.5 20 t-27.5 10q-21 6 -36.5 13.5t-29.5 24.5l-250 322q-17 20 -17 33q0 11 16 30q31 38 64 73.5t66 62.5q28 23 75 56q38 28 54.5 42t16.5 22q0 5 -3.5 6t-14.5 1zM794 785q16 0 26.5 -4.5t10.5 -21.5q0 -14 -21 -33t-67 -53q-43 -31 -65 -49q-31 -25 -63 -59.5t-64 -73.5 q-7 -9 -9.5 -12.5t-2.5 -5.5q0 -3 3 -8t10 -14l250 -321q9 -11 21 -16.5t32 -9.5q27 -6 40 -16t13 -38q0 -18 -18 -31.5t-33 -13.5h-323q-16 0 -34.5 11t-18.5 35q0 32 11 42t20 10q0 9 -3 15t-11 15l-101 142l-2 2l-12 -20q-29 -49 -43 -82t-14 -67q0 -3 6 -9 q8 -9 13.5 -22t5.5 -41q0 -16 -14 -23.5t-27 -7.5h-225q-20 0 -36 6.5t-16 29.5q0 17 13.5 29t43.5 31q32 19 55 35t47 41q91 96 141 160q6 8 7 10t1 4q0 1 -5 8q-3 4 -7 9l-30 41l-22 30q-25 36 -41.5 57.5t-27.5 34.5t-21.5 21t-24.5 16q-11 6 -34 16q-29 12 -41.5 21.5 t-12.5 25.5q0 21 28.5 45t72 44.5t88.5 33.5t74 13q22 0 29.5 -11.5t11.5 -35.5q4 -21 8 -31q12 -30 81 -125q3 -5 11 -16q2 -2 4 -5l3 -3q2 4 4 7l7 17q15 34 22 55t7 43q0 4 -4 12q-9 18 -9 36t14 27.5t31 9.5q22 0 42.5 4t54.5 13q41 10 71.5 15.5t68.5 5.5zM794 790 q-38 0 -69 -5.5t-72 -16.5q-63 -17 -96 -17q-18 0 -33.5 -10t-15.5 -31q0 -14 2.5 -22.5t6.5 -16.5q3 -6 3 -9q0 -21 -6.5 -40.5t-20.5 -52.5q-3 -5 -9 -20v-1q-1 1 -1 2l-1 1l-16 23q-34 47 -51 72.5t-24 44.5q-4 10 -8 30q-4 26 -12.5 38.5t-33.5 12.5q-30 0 -75.5 -13.5 t-89.5 -34.5t-73.5 -46t-29.5 -47q0 -18 13.5 -28t43.5 -23q23 -10 34 -16q13 -7 23 -15t20.5 -20t23.5 -29.5t45 -61.5q19 -26 23 -32l30 -41q6 -7 8.5 -10t2.5 -4t-2 -4q-4 -5 -5 -7q-59 -76 -141 -160q-23 -24 -45.5 -39.5t-53.5 -34.5q-33 -21 -47 -33.5t-14 -31.5 q0 -14 6.5 -22.5t16 -12.5t17.5 -5t17 -1h225q14 0 29.5 9t15.5 27q0 33 -6 46.5t-14 20.5q-4 3 -4 5q0 34 14 66t43 83q5 8 7 12l99 -139q8 -9 11.5 -14t5.5 -12h-1q-1 1 -2 1q-11 0 -21 -12.5t-10 -41.5q0 -27 20 -39t37 -12h323q16 0 36 15t20 35q0 33 -14.5 44t-43.5 16 q-18 4 -29.5 8.5t-19.5 14.5l-250 321q-8 9 -10.5 12.5t-2.5 6.5q0 1 2.5 4t9.5 11q30 38 62 72t64 60q22 18 63 48q47 35 69.5 55t22.5 36q0 20 -12.5 25.5t-29.5 5.5zM394 275l-3 -1q2 0 3 1z" />
<glyph unicode="Y" horiz-adv-x="868" d="M801 768q-35 0 -55 -4.5t-40 -13.5q-19 -8 -34 -11.5t-40 -3.5q-15 0 -30 -5t-15 -15q0 -11 4 -32q3 -19 3 -28q0 -19 -8.5 -51t-21.5 -63.5t-26.5 -53t-22.5 -21.5q-2 0 -9 7t-16.5 18.5t-18 22.5t-12.5 16q-32 44 -50.5 80t-33.5 74q-6 14 -11 38q-4 15 -7.5 21.5 t-12.5 6.5q-29 0 -79 -8t-99.5 -21.5t-83 -30t-33.5 -33.5q0 -6 7 -10.5t26 -11.5q32 -12 51 -23q25 -13 48 -38.5t73 -87.5q31 -41 46 -59l11 -13q34 -43 34 -93v-205q0 -19 -9 -28.5t-26 -19.5q-15 -8 -22.5 -15.5t-7.5 -20.5q0 -8 16 -8h282q16 0 16 15q0 9 -5.5 15 t-18.5 14q-17 10 -26 20.5t-9 29.5v243q0 31 8 54.5t28 49.5q7 10 9 12q34 45 59.5 78.5t44.5 56.5q18 23 40 46t48 48q27 25 37 36.5t10 17.5q0 5 -5.5 6.5t-12.5 1.5zM801 786q12 0 24 -4.5t12 -21.5q0 -11 -14.5 -28t-46.5 -48q-54 -53 -77 -83q-16 -20 -82 -106l-31 -42 q-18 -25 -25.5 -44.5t-7.5 -47.5v-243q0 -9 6 -15t19 -14q17 -10 26 -20.5t9 -29.5q0 -14 -10.5 -24t-24.5 -10h-282q-13 0 -24 8.5t-11 18.5q0 26 11 38t31 22q12 6 17.5 11t5.5 13v205q0 42 -30 82l-11 13q-23 28 -48 60q-47 61 -68.5 84t-43.5 35q-14 8 -42 19 q-27 11 -39.5 19.5t-12.5 23.5q0 22 35.5 42.5t89 35.5t106 24t82.5 9q22 0 29.5 -11.5t11.5 -35.5q4 -21 8 -31q13 -34 32 -70t49 -79q32 -43 36.5 -49.5t4.5 -7.5q5 0 15 19.5t20.5 48.5t17.5 57.5t7 45.5q0 8 -3 24q-4 22 -4 36q0 20 22 29t42 9q14 0 24.5 3t22.5 9 q23 10 48 15.5t74 5.5zM801 791q-53 0 -79 -6t-49 -16q-13 -6 -21 -8.5t-20 -2.5q-20 0 -44 -10.5t-24 -32.5q0 -15 4 -37q2 -16 2 -23q0 -16 -6 -41.5t-15.5 -53t-18 -48t-13.5 -26.5q0 5 -9.5 18t-25.5 34l-4 6q-31 43 -49.5 79t-31.5 69q-4 10 -8 31q-4 25 -12.5 37.5 t-32.5 12.5q-31 0 -84.5 -9t-107.5 -25.5t-90 -37.5t-36 -44q0 -18 14 -27.5t44 -21.5q27 -10 39 -16q21 -12 41 -34t64 -78q39 -49 54 -67l10 -13q16 -19 22.5 -37.5t6.5 -41.5v-205q0 -6 -5 -10t-15 -9q-21 -9 -33 -22.5t-12 -42.5q0 -12 12.5 -22t27.5 -10h282 q16 0 27.5 12t11.5 27q0 21 -9.5 32.5t-27.5 22.5q-11 6 -16.5 11.5t-5.5 12.5v243q0 27 7 46.5t25 43.5q7 10 9 12q34 45 59.5 78.5t44.5 56.5q22 28 74 79q34 34 49.5 52.5t15.5 30.5q0 20 -14 25.5t-27 5.5z" />
<glyph unicode="Z" horiz-adv-x="774" d="M310 253l372 473l3 4q6 10 6 14q0 10 -16 10q-19 0 -31.5 -3.5t-27.5 -11.5q-18 -8 -33.5 -12.5t-40.5 -4.5h-251q-27 0 -52.5 4t-53.5 11q-24 5 -30 5q-17 0 -23 -26q-10 -44 -27.5 -91t-39.5 -92q-11 -24 -11 -36q0 -18 13 -18q8 0 28 17q28 22 57.5 37t75.5 17 q56 3 110 3q49 0 97 -3q18 -1 18 -9q0 -5 -10 -20l-381 -485q-16 -21 -16 -27t8 -6q28 0 46.5 2.5t38.5 7.5q36 8 66 11q70 7 146 7q54 0 91 -2t62.5 -5.5t39.5 -7t28 -7.5q23 -7 39 -7q12 0 23.5 12t13.5 35q4 49 23 100t54 122q3 6 3 11q-1 10 -26 10q-16 0 -26.5 -7 t-25.5 -22q-22 -24 -45.5 -37.5t-68.5 -16.5q-28 -2 -62.5 -3.5t-70.5 -1.5q-48 0 -79.5 3.5t-31.5 11.5q0 12 18 34zM325 242q-12 -17 -14 -22q2 2 16.5 2.5t75.5 0.5q39 0 77 1.5t55 2.5q33 2 52.5 14t40.5 33q19 19 34 28t40 9q16 0 29.5 -6.5t15.5 -21.5q0 -8 -5 -20 q-34 -70 -52.5 -119t-22.5 -97q-3 -29 -20.5 -46.5t-35.5 -17.5q-19 0 -32 2t-33 7q-35 10 -75.5 15t-119.5 5q-75 0 -144 -7q-24 -2 -56 -9q-23 -6 -43 -8.5t-54 -2.5q-9 0 -18 7t-9 17q0 8 5 16.5t15 22.5l380 484q-30 2 -89 2q-53 0 -109 -3q-38 -2 -64.5 -14.5 t-54.5 -34.5q-30 -22 -43 -22t-22.5 11.5t-9.5 25.5q0 17 13 45q46 89 65 178q4 18 17 29.5t25 11.5q7 0 35 -6q32 -7 54 -10.5t47 -3.5h251q17 0 28 3.5t26 9.5q18 9 34.5 13.5t44.5 4.5q14 0 24.5 -8t10.5 -20q0 -7 -3.5 -14t-9.5 -15zM329 239l371 473q7 9 11 16.5 t4 15.5q0 14 -12.5 23.5t-27.5 9.5q-31 0 -48.5 -5t-36.5 -13q-14 -7 -24 -10t-24 -3h-251q-25 0 -48.5 4t-50.5 10q-29 6 -37 6q-13 0 -27.5 -13t-19.5 -32q-20 -90 -64 -177q-14 -26 -14 -47q0 -15 11 -28.5t26 -13.5t47 24q28 21 53.5 33.5t61.5 14.5q56 3 109 3 q54 0 80 -1l-375 -479q-9 -12 -14.5 -22t-5.5 -19q0 -12 11 -20.5t20 -8.5q36 0 57 3t45 9q29 7 51 9q74 6 144 6q75 0 114.5 -5t73.5 -14q22 -5 36.5 -7.5t35.5 -2.5q19 0 38 19t22 50q5 47 23.5 95t52.5 119q4 14 4 22q-2 18 -17 25.5t-32 7.5q-27 0 -43.5 -9.5 t-36.5 -29.5q-20 -21 -38 -32t-49 -13q-28 -2 -62.5 -3.5t-69.5 -1.5q-50 0 -76 -1h-8q3 5 10 13z" />
<glyph unicode="_" horiz-adv-x="375" d="M128 -44v-8h132v8h-132zM267 -37v-22h-146v22h146zM119 -35v-26h150v26h-150z" />
<glyph unicode="`" horiz-adv-x="237" d="M176 572q16 0 16 17q0 14 -10 33h1l-56 87q-6 9 -9 9q-1 0 -3 -2l-2 -2q-7 -13 -23 -13q-21 2 -37 13q-4 4 -8 4q0 -3 7 -14l53 -82h1q16 -21 36 -35.5t34 -14.5zM176 556q-16 0 -37.5 14.5t-39.5 35.5h-3l-58 89v1q-7 13 -7 22q0 11 11 16q12 0 20 -7q12 -8 30 -10h2h1 q2 0 4 3l2 2q1 4 5.5 8t11.5 4q6 0 12 -4.5t10 -11.5l72 -112h-7q3 -9 3 -17q0 -13 -9.5 -23t-22.5 -10zM176 552q14 0 25 11.5t11 25.5q0 9 -1 13h8l-76 118q-4 7 -11 12.5t-14 5.5q-8 0 -13 -4.5t-7 -8.5l-1 -1v-1q0 -1 1 -2v-1q-1 0 -3 1h-2q-15 0 -29 9q-11 8 -23 8 q-14 -7 -14 -20q0 -9 7 -23l1 -2l59 -91h4q18 -21 40 -35.5t38 -14.5z" />
<glyph unicode="a" horiz-adv-x="636" d="M382 445q-5 13 -5 27v24q0 14 -22 14q-14 0 -33 -5.5t-38 -12.5t-36 -15t-21 -10q-1 0 -3 -1q-10 -6 -10 -13q0 -9 18 -27q6 -5 10 -10q-14 -34 -31 -73.5t-35 -77.5q-29 -63 -68 -148l-12 -25q-5 -11 -13 -18t-19 -15q-10 -6 -15 -11t-5 -13q0 -12 13 -12h109 q13 0 13 10q0 9 -4 13t-12 8q-9 4 -14 9.5t-5 16.5q0 12 7 19.5t26 14.5l149 55q8 3 11 3q10 0 14 -10l27 -70q4 -8 4 -13q0 -10 -16 -21q-9 -6 -13.5 -11t-4.5 -13q0 -7 15.5 -9t31.5 -2h185q13 0 13 10q0 15 -9.5 22.5t-28.5 15.5q-22 9 -25 16zM206 208q-5 0 -5 6 q0 3 3 9l3 9l52 111q5 12 10 12q4 0 8 -9l33 -81l1 -4q1 -3 1 -4q0 -8 -11 -13l-80 -31q-12 -5 -15 -5zM547 94q1 -2 11 -4q23 -6 38 -17.5t15 -39.5q0 -12 -10 -20t-21 -8h-185q-7 0 -16 0.5t-21 3.5t-20 9t-8 16q0 23 9.5 32t21.5 12l3 1q-1 2 -3 7l-27 67q0 -1 -1 -1 l-149 -55q-16 -5 -18.5 -7t-2.5 -10q0 -1 5 -2q12 -2 20.5 -10.5t8.5 -34.5q0 -11 -9.5 -19.5t-21.5 -8.5h-109q-13 0 -22.5 9t-9.5 21q0 17 8 26.5t23 18.5q18 11 23 21q13 27 32.5 68t39 82.5t38 83.5t32.5 76l-1 1q-12 11 -18.5 20t-6.5 21t6 18t14 11l2 1q6 3 22.5 10.5 t38 15.5t42 13.5t35.5 5.5t27.5 -8.5t12.5 -23.5v-24q0 -5 3 -17l1 -3zM229 236l63 25l-24 59zM404 453q-5 13 -5 19v24q0 17 -14 27t-30 10q-14 0 -35.5 -5.5t-43 -14t-38 -16t-22.5 -11.5q-7 -1 -16 -10t-9 -23q0 -12 6 -21t17 -20l2 -2q-26 -61 -59 -132.5t-74 -158.5 q-3 -6 -8 -17q-4 -8 -21 -18q-16 -10 -24.5 -19.5t-8.5 -29.5q0 -13 11 -24t25 -11h109q14 0 25 10.5t11 22.5q0 28 -8.5 38t-18.5 10q-5 0 -8 -1q-1 2 -2 5l-1 1l3 1q9 2 18 5l147 54l24 -62l1 -2q0 -1 1 -2q-11 0 -22 -9.5t-11 -36.5q0 -12 9 -19t21.5 -10.5t22.5 -4 t17 -0.5h185q12 0 24 9.5t12 23.5q0 31 -17 43t-39 17q-9 2 -9 3zM268 308l18 -45l-48 -19z" />
<glyph unicode="b" horiz-adv-x="583" d="M256 328v59q0 16 6 34q5 16 5 28q0 6 -10.5 9t-29.5 6q-21 3 -28 6v0q0 2 8 3t20 1q62 0 106.5 -24t44.5 -57q0 -40 -26 -66t-73 -26q-15 0 -19 7t-4 20zM127 86q0 -13 -6 -19.5t-18 -13.5q-10 -5 -15 -10t-5 -15q0 -5 11 -5h284q30 0 59 8.5t53.5 25.5t38.5 41t14 54 q0 53 -27 79.5t-76 43.5q-8 3 -25 7q-13 2 -13 4q0 3 4.5 4l13.5 3h3q34 5 63 31.5t29 53.5q0 29 -21 53.5t-57.5 42.5t-82 27t-93.5 9q-61 0 -115 -16t-91 -43q-14 -12 -14 -22q0 -7 21 -9q13 -2 23 -4.5t20 -9.5t16 -21.5t6 -38.5v-260zM398 149q0 -42 -37.5 -68.5 t-92.5 -26.5q-12 0 -12 33v145q0 18 2.5 28.5t13.5 10.5q23 0 45.5 -6.5t40.5 -21t29 -38t11 -56.5zM275 328q0 -9 4 -9q41 0 61 19.5t20 54.5q0 17 -20 33t-54 24v-1q0 -14 -2 -23t-5 -18q-4 -13 -4 -21v-59zM108 346q0 25 -12.5 35t-35.5 16q-19 5 -28 11t-9 21 q0 11 6.5 20.5t14.5 15.5q39 29 96 46t121 17q50 0 98.5 -10.5t88 -30t62.5 -47.5t23 -62q0 -25 -21 -50.5t-51 -40.5q46 -18 73 -49t27 -86q0 -33 -16.5 -60.5t-43.5 -47t-59.5 -29.5t-63.5 -10h-284q-11 0 -20.5 7.5t-9.5 15.5q0 22 8.5 31.5t23.5 15.5q12 6 12 11v260z M380 149q0 56 -29.5 79.5t-77.5 23.5q2 -1 2 -20v-145q0 -14 -2 -15q48 2 77.5 22.5t29.5 54.5zM279 328v59q0 6 3 17q3 9 4.5 18.5t1.5 24.5q67 -22 67 -54q0 -34 -18 -51.5t-58 -17.5h-2q1 1 1 2zM104 86q0 -2 -9 -5q-15 -5 -25 -15.5t-10 -37.5q0 -9 10.5 -18.5 t23.5 -9.5h284q32 0 65 10.5t60.5 30.5t44.5 48.5t17 62.5q0 54 -25.5 86t-67.5 50q28 16 47 41t19 49q0 35 -24 64t-64.5 49.5t-89.5 31t-99 10.5q-64 0 -122 -17.5t-98 -46.5q-9 -6 -15.5 -17t-6.5 -23q0 -18 10 -25.5t31 -12.5q22 -6 33 -14.5t11 -30.5v-260zM375 149 q0 -31 -26 -50t-70 -21v9v145v16q44 -2 70 -24.5t26 -74.5z" />
<glyph unicode="c" horiz-adv-x="569" d="M39 257q0 -51 16 -96t47 -79.5t76.5 -54t102.5 -19.5q44 0 88.5 14t81.5 39t58.5 57.5t21.5 68.5q0 9 -5 9q-4 0 -16 -11q-7 -6 -10 -8q-29 -22 -77 -38t-87 -16q-83 0 -135 51t-52 138q0 63 33.5 103.5t86.5 40.5q25 0 41.5 -9.5t36.5 -28.5q18 -16 32 -24.5t33 -8.5 q21 0 34.5 7t19.5 17.5t8 22.5t2 26q0 2 3 18q4 22 4 26q0 12 -4.5 21.5t-11.5 9.5q-5 0 -20 -9q-15 -8 -26 -12.5t-23 -4.5q-10 0 -33 2q-24 3 -37 3q-57 0 -109.5 -18t-93 -51.5t-63.5 -81t-23 -104.5zM21 257q0 60 25 111t68 87t98.5 55.5t115.5 19.5q15 0 40 -2 q21 -2 30 -2q12 0 38 13q21 12 31 12q16 0 25 -16.5t9 -32.5q0 -4 -1 -11l-3 -21q-2 -11 -2 -12q0 -15 -3 -29.5t-11 -29t-25 -23.5t-44 -9t-45 10t-38 29q-18 16 -30.5 23.5t-29.5 7.5q-47 0 -74.5 -33.5t-27.5 -91.5q0 -81 45.5 -126t123.5 -45q37 0 81.5 15.5t72.5 36.5 q1 1 7 6q8 7 15 11.5t14 4.5q8 0 15.5 -8.5t7.5 -19.5q0 -39 -23.5 -75t-63 -63.5t-87 -43t-94.5 -15.5q-60 0 -109 21.5t-82.5 58.5t-51 85.5t-17.5 101.5zM17 257q0 -53 17.5 -102.5t52 -87.5t84 -60t110.5 -22q47 0 95.5 16t88.5 44t64 65t24 77q0 12 -8.5 22t-18.5 10 q-9 0 -16.5 -5t-15.5 -12q-5 -5 -7 -6q-27 -21 -71 -35.5t-80 -14.5q-76 0 -120 43t-44 123q0 57 25.5 89t71.5 32q16 0 27.5 -7t28.5 -23q20 -20 39 -30.5t48 -10.5q28 0 46 10t26.5 25t11.5 30.5t3 30.5l2 9l4 24t1 11q0 18 -10.5 36t-28.5 18q-11 0 -34 -13 q-24 -13 -35 -13q-10 0 -30 2q-26 3 -40 3q-60 0 -116.5 -20t-100.5 -57t-69 -88.5t-25 -112.5z" />
<glyph unicode="d" horiz-adv-x="626" d="M258 387q0 16 6 34q5 16 5 28q0 6 -10.5 9t-29.5 6q-21 3 -28 6v0q0 3 30 3h10q6 -1 11 -1q32 -5 63 -16.5t59.5 -37.5t46.5 -70.5t18 -110.5q0 -48 -15 -84t-39 -58t-51 -32.5t-51 -10.5q-9 0 -17 3.5t-8 14.5v317zM128 346v-260q0 -13 -6 -19.5t-17 -13.5 q-10 -5 -15 -10t-5 -15q0 -5 10 -5h261q64 0 109 22t71 56t37 72.5t11 72.5q0 73 -28.5 125t-75.5 82.5t-103 43.5t-114 13q-61 0 -115 -16t-91 -43q-14 -12 -14 -22q0 -7 20 -9q13 -1 23 -4t20 -10t16 -22t6 -38zM277 70h6q23 0 47 9t44.5 28.5t33.5 52t13 77.5 q0 51 -11.5 88t-30.5 61t-42 37.5t-50 21.5q0 -19 -6 -37q-4 -13 -4 -21v-317zM110 346q0 25 -12.5 35t-35.5 16q-19 5 -28 11t-9 21q0 11 6.5 20.5t14.5 15.5q38 29 95.5 46t121.5 17q59 0 118 -14.5t109.5 -47t81 -88t30.5 -132.5q0 -36 -12 -77t-40.5 -78.5t-77 -61.5 t-116.5 -24h-261q-11 0 -20 7.5t-9 15.5q0 22 8.5 31.5t23.5 15.5q12 6 12 11v260zM281 387q0 6 4 18q6 17 7 34q25 -8 46.5 -21.5t39 -37t28 -59t10.5 -84.5q0 -44 -12 -75.5t-32.5 -50.5t-43 -27.5t-45.5 -8.5h-1q0 -1 -1 -1v313zM106 346v-260q0 -2 -9 -5 q-15 -5 -25 -15.5t-10 -37.5q0 -9 10.5 -18.5t22.5 -9.5h261q70 0 119.5 24.5t78 63t41 80.5t12.5 78q0 79 -31.5 135t-82.5 89.5t-111 48t-119 14.5q-64 0 -122 -17.5t-98 -46.5q-9 -6 -15.5 -17t-6.5 -23q0 -18 10 -25.5t31 -12.5q22 -6 33 -14.5t11 -30.5z" />
<glyph unicode="e" horiz-adv-x="509" d="M269 253q13 0 20 -7t15 -20q10 -17 18 -17q5 0 11 7.5t16 23.5q7 12 11 17q6 7 16 17q15 13 15 22q0 17 -23 33t-57 16q-32 0 -48.5 -15.5t-29.5 -39.5q-9 -16 -13 -16q-9 0 -9 16v152q0 15 5 20t21 5q35 0 67 -12t65 -34q14 -10 39 -43q14 -19 23 -28.5t17 -9.5 q12 0 12 13q0 8 -4 23q-7 27 -12 60q-2 11 -3 16q-5 33 -10 48t-14 15q-7 0 -18 -6q-18 -10 -35 -10h-316q-10 0 -10 -11q0 -7 4.5 -11t13.5 -9q13 -6 19.5 -13t6.5 -19v-351q0 -13 -6 -19.5t-18 -13.5q-10 -5 -15 -10t-5 -15q0 -5 10 -5h192q34 0 83.5 -2t74.5 -4 q12 -1 23 -6q3 -2 4 -2q10 0 14.5 15t10.5 48q2 14 4 25q2 9 8 24q9 24 9 44q0 13 -2 18.5t-9 5.5q-5 0 -18 -19q-20 -30 -39 -47q-32 -29 -81 -50t-93 -21q-11 0 -14.5 7.5t-3.5 27.5v119q0 10 2.5 16t9.5 13q11 9 21.5 14t24.5 5zM269 234q-17 0 -34 -14l-1 -1 q-4 -4 -4.5 -5.5t-0.5 -8.5v-119q0 -17 -1 -17h1q41 0 86 19t77 47q13 11 31 38q11 17 19 25t18 8q19 0 24.5 -12.5t5.5 -29.5q0 -16 -3 -27.5t-8 -24.5q-6 -13 -7 -20q-1 -6 -3 -19q-7 -40 -15.5 -61.5t-28.5 -21.5q-6 0 -15 4q-8 3 -13 4q-22 2 -70 3.5t-87 1.5h-192 q-11 0 -20 8t-9 16q0 22 8.5 31.5t23.5 15.5q12 6 12 11v351q0 5 -13 11q-14 6 -22.5 14.5t-8.5 26.5q0 10 8 19.5t21 9.5h316q7 0 20 7q18 9 33 9q20 0 29 -23.5t15 -65.5q1 -2 1 -5q4 -25 11 -51q6 -20 6 -35q0 -13 -9.5 -22t-21.5 -9q-14 0 -27.5 13t-31.5 37 q-21 28 -30 34q-31 20 -60 31t-62 11q-7 0 -9 2v0q1 -3 1 -8v-119q10 17 30 28.5t52 11.5q39 0 68.5 -22t29.5 -45q0 -12 -6 -20.5t-16 -17.5q-9 -8 -12 -12t-11 -16q-12 -20 -21.5 -30t-20.5 -10q-15 0 -23.5 8t-15.5 21q-8 15 -14 15zM269 230q4 0 9 -12q8 -14 17 -23 t27 -9q13 0 24 11.5t23 32.5q7 9 10 14q3 4 10 10q11 9 18 18.5t7 23.5q0 24 -31.5 47.5t-71.5 23.5q-27 0 -46 -8.5t-31 -21.5v105v2h3q32 0 60.5 -11t58.5 -31q10 -6 30 -34q19 -24 33 -37.5t29 -13.5q14 0 24.5 11t10.5 25q0 16 -6 38q-7 26 -10 49l-2 10 q-7 41 -16.5 64.5t-31.5 23.5q-12 0 -19.5 -2.5t-16.5 -7.5q-11 -6 -17 -6h-316q-14 0 -23.5 -11.5t-9.5 -22.5q0 -22 10 -31.5t25 -14.5q9 -4 9 -6v-351q0 -2 -9 -5q-15 -5 -25 -15.5t-10 -37.5q0 -9 10.5 -18.5t22.5 -9.5h192q34 0 83 -2t74 -4q4 0 10 -3q11 -5 18 -5 q23 0 32.5 22.5t16.5 64.5q2 12 3 19q1 6 6 18q5 14 8 25.5t3 29.5q0 19 -6 33t-28 14q-12 0 -20.5 -8.5t-21.5 -27.5q-18 -26 -29 -36q-30 -26 -73.5 -45.5t-83.5 -22.5q2 8 2 15v119q-2 4 -5 4q2 1 8 7q17 14 32 14z" />
<glyph unicode="f" horiz-adv-x="496" d="M268 248q13 0 20.5 -7t15.5 -21q10 -17 18 -17q2 0 13.5 12.5t24 29t22.5 30.5t10 16q0 18 -23 34t-58 16q-32 0 -49 -15.5t-30 -40.5q-9 -16 -13 -16q-9 0 -9 17v153q0 16 5 20.5t21 4.5q36 0 69 -12t65 -34q14 -10 41 -44q14 -20 23 -29t16 -9q13 0 13 13q0 8 -4 22 q-4 13 -6.5 26t-6.5 36l-1 5q-5 38 -10.5 56.5t-15.5 18.5q-7 0 -19 -6q-18 -10 -35 -10h-321q-10 0 -10 -12q0 -6 4.5 -10t14.5 -9q12 -6 19 -13t7 -20v-356q0 -58 -9 -89.5t-23 -57.5q-11 -19 -11 -29q0 -6 6 -6t13.5 3t13.5 6l1 1q27 12 74 46q27 20 45 31t38 15 q5 0 13 4t8 15q0 8 -10 11q-7 2 -11 4q-11 4 -14 13.5t-3 33.5v121q0 19 18 34t40 15zM268 229q-18 0 -29 -8.5t-11 -21.5v-121q0 -20 0.5 -24t3.5 -5q2 0 7 1h8q9 0 14.5 -7t5.5 -27t-11.5 -27.5t-25.5 -10.5q-16 -3 -32 -12.5t-42 -28.5q-47 -35 -77 -48l-1 -1 q-9 -4 -18 -7.5t-19 -3.5q-8 0 -16 8t-8 16q0 16 14 44q14 27 21.5 55.5t7.5 76.5v356q0 5 -13 11q-15 6 -23.5 14.5t-8.5 26.5q0 11 8.5 21t20.5 10h321q8 0 20 6q18 9 34 9q20 0 28.5 -21.5t15.5 -63.5l2 -10q4 -24 11 -51q5 -22 5 -36q0 -13 -9 -22.5t-22 -9.5 q-14 0 -27 13t-32 38q-21 28 -31 35q-33 21 -62 32t-62 11q-5 0 -9 1v0v0q1 -4 1 -8v-120q11 18 31 29t52 11q39 0 69.5 -22t30.5 -46q0 -5 -11.5 -22.5t-27.5 -37t-30.5 -33.5t-19.5 -14q-15 0 -23 8t-16 22q-9 15 -15 15zM268 224q4 0 11 -12q7 -15 16 -23.5t27 -8.5 q6 0 21 14.5t32 35t28.5 38.5t11.5 23q0 25 -31.5 49t-72.5 24q-27 0 -46.5 -8.5t-31.5 -22.5v106v2h3q33 0 62 -11t59 -31q9 -6 30 -34q20 -25 34 -38.5t29 -13.5q14 0 25 11t11 25q0 17 -6 40q-7 25 -11 48v3q-7 44 -17 70t-33 26q-19 0 -37 -10q-11 -6 -17 -6h-321 q-14 0 -23.5 -11.5t-9.5 -23.5q0 -23 10 -32t25 -15q9 -3 9 -5v-356q0 -46 -7.5 -74t-20.5 -56q-14 -29 -14 -46q0 -10 9.5 -19.5t18.5 -9.5q8 0 15.5 2.5t16.5 6.5q7 3 8 3q30 13 79 49q24 17 39.5 26.5t31.5 13.5q14 3 27 12.5t13 30.5q0 23 -5.5 31.5t-14.5 8.5 q-4 0 -11 -2q-5 -1 -7 -1q0 -2 0 25v121q0 25 35 25z" />
<glyph unicode="g" horiz-adv-x="641" d="M532 215q0 20 12 34t34 29q20 15 20 21q0 8 -4 14t-10 6q-3 0 -18 -5q-21 -6 -35.5 -9.5t-30.5 -3.5q-25 0 -45 3t-47 8q-52 11 -85 11q-50 0 -81.5 -15t-31.5 -49q0 -13 25.5 -27t47.5 -14q4 0 6 5t4 15v1q1 19 14 29.5t30 10.5q22 0 39 -14.5t17 -37.5v-120 q0 -11 -7 -11q-96 0 -149 63t-53 164q0 62 34.5 105.5t97.5 43.5q29 0 47 -12.5t39 -37.5q18 -22 33 -32.5t36 -10.5q19 0 32.5 10t22 26.5t13.5 35t10 44.5q0 7 -7 7q-10 0 -24 -6q-19 -7 -36 -7q-27 0 -76 10q-56 11 -93 11q-57 0 -106 -18t-86 -52t-57 -80.5t-20 -101.5 q0 -53 18.5 -98t52 -77t78.5 -49t97 -17q41 0 69 9.5t66 29.5q27 14 47.5 22.5t45.5 13.5q7 1 15.5 6t8.5 10t-4 13q-6 11 -6 18v76zM551 139q0 -2 3 -6q6 -13 6 -25q0 -13 -14.5 -23t-25.5 -11q-21 -4 -39 -12t-42 -21q-39 -20 -70.5 -31t-78.5 -11q-54 0 -102.5 19 t-85 53.5t-57 82.5t-20.5 104q0 58 22.5 107.5t62 86t92 56.5t111.5 20q28 0 50 -3t50 -9q44 -9 69 -9q9 0 22 5q19 8 38 8q9 0 17 -8t8 -20q-5 -27 -10.5 -48t-16 -40t-28 -31t-41.5 -12q-30 0 -49 13t-41 38q-18 21 -31.5 31t-33.5 10q-56 0 -85 -36.5t-29 -93.5 q0 -18 1 -26q15 23 47.5 33.5t72.5 10.5q24 0 44 -3t47 -8q26 -6 45 -8.5t41 -2.5q13 0 25.5 3t31.5 9q21 6 27 6q14 0 23.5 -13t9.5 -25q0 -10 -7.5 -18t-23.5 -21q-17 -13 -26 -23t-9 -22v-76zM283 200q-14 0 -32 6.5t-32 17.5q18 -50 57.5 -78.5t98.5 -31.5v113 q0 33 -38 33q-23 0 -26 -23v-1q-3 -14 -8.5 -25t-19.5 -11zM555 215q0 11 8 19.5t24 21.5q17 13 25.5 22.5t8.5 20.5q0 13 -10.5 28t-26.5 15q-6 0 -28 -7q-37 -12 -56 -12q-22 0 -40.5 2.5t-44.5 8.5q-27 5 -47.5 8t-44.5 3q-36 0 -67 -8.5t-49 -27.5v14q0 57 27.5 91.5 t81.5 34.5q18 0 30.5 -9.5t29.5 -29.5q23 -27 42.5 -40.5t52.5 -13.5q26 0 44 12.5t29 32.5t17 41.5t11 48.5q0 14 -10 24t-20 10q-14 0 -23.5 -2t-18.5 -6q-11 -5 -18 -5q-23 0 -68 9q-30 6 -51.5 9t-49.5 3q-60 0 -113 -20.5t-93.5 -57.5t-63 -88t-22.5 -109 q0 -57 20.5 -105.5t58 -84t86.5 -55t104 -19.5q48 0 80.5 11t71.5 32q24 13 41.5 20.5t37.5 11.5q12 2 27.5 13.5t15.5 25.5t-7 27q-2 3 -2 4v76zM283 195q16 0 23 13t10 28v0q1 20 21 20q33 0 33 -29v-109q-103 8 -141 94q31 -17 54 -17z" />
<glyph unicode="h" horiz-adv-x="571" d="M215 87v147q0 23 13 24q27 4 61 4q29 0 53 -3q20 -2 20 -25v-109h-1v-38q0 -13 -6 -19.5t-18 -12.5q-10 -5 -15 -10.5t-5 -14.5q0 -7 11 -7h192q11 0 11 12q0 9 -16 19q-12 8 -18 15t-6 19v21v349q0 11 2 16t7 11q8 8 8 21q0 5 -5 7.5t-10 2.5q-32 0 -54.5 -5.5 t-50.5 -15.5q-35 -13 -55 -15q-11 0 -14 -3.5t-3 -10.5t5 -11.5t14 -10.5q13 -8 20 -15t7 -20v-68q0 -8 -8 -8h-133q-6 0 -6 7v9v108q0 11 2.5 16.5t7.5 10.5q9 9 9 20q0 6 -5 8.5t-12 2.5q-32 0 -54.5 -5t-48.5 -15q-36 -13 -56 -15q-11 -1 -14 -5t-3 -11q0 -10 18 -21 q13 -8 19.5 -15t6.5 -20v-66v-256q0 -13 -6 -19.5t-18 -13.5q-10 -5 -15 -10t-5 -15q0 -5 10 -5h192q11 0 11 10q0 9 -16 19q-11 8 -17 15t-6 20zM233 87q0 -6 13 -14q12 -7 19 -15.5t7 -24.5q0 -10 -8.5 -19t-20.5 -9h-192q-11 0 -20 7.5t-9 15.5q0 22 8.5 31.5t23.5 15.5 q12 6 12 11v322q0 6 -15 15q-14 8 -21.5 16.5t-7.5 24.5q0 12 6.5 22.5t28.5 11.5q16 2 46 13q27 11 52 17t62 6q11 0 23 -7t12 -23q0 -27 -5 -35.5t-12 -10.5q-2 0 -2 -1v-106h111v58q0 6 -15 15q-14 8 -22.5 17t-8.5 25q0 14 6.5 23t27.5 10q17 1 47 13q28 10 52.5 16 t61.5 6q10 0 22 -6.5t12 -21.5q0 -21 -3 -27.5t-8 -8.5q-7 -1 -7 -12v-350v-20q0 -6 13 -13t20.5 -15.5t7.5 -24.5q0 -11 -9 -20.5t-21 -9.5h-192q-12 0 -20.5 8.5t-8.5 16.5q0 22 8.5 31.5t23.5 15.5q12 5 12 10v57h1v90q0 7 -4 7q-16 2 -51 2q-38 0 -57 -2q1 0 1 -7v-147z M237 87v147v3q17 2 52 2q28 0 50 -3v-2v-86h-1v-61q0 -2 -8 -5q-15 -5 -25.5 -15.5t-10.5 -36.5q0 -10 10.5 -20t23.5 -10h192q14 0 24 11t10 24q0 20 -8.5 29.5t-21.5 15.5q-10 5 -10 9v20v348q0 6 5 8q6 2 9 9t3 32q0 18 -13.5 25.5t-24.5 7.5q-38 0 -63.5 -6t-53.5 -17 q-29 -11 -44 -13q-24 0 -31.5 -11t-7.5 -26q0 -20 9.5 -29.5t24.5 -17.5q12 -6 12 -10v-53h-102v100h1q2 -2 3 -2q6 0 11 11t5 39q0 19 -14 26.5t-26 7.5q-38 0 -64 -6t-53 -17q-28 -11 -43 -13q-25 -1 -32 -13t-7 -25q0 -20 9 -29.5t24 -17.5q11 -5 11 -9v-322q0 -2 -9 -5 q-15 -5 -25 -15.5t-10 -37.5q0 -9 10.5 -18.5t22.5 -9.5h192q14 0 24 10.5t10 22.5q0 20 -8.5 29.5t-21.5 15.5q-10 5 -10 9z" />
<glyph unicode="i" horiz-adv-x="273" d="M201 402v39q0 11 6 16t18 11q11 4 16 8t5 12q0 9 -10 9h-198q-10 0 -10 -11q0 -6 4.5 -10t13.5 -9q13 -6 19.5 -12.5t6.5 -19.5v-34v-277v-38q0 -13 -6 -19.5t-18 -13.5q-10 -6 -15 -11t-5 -14q0 -5 10 -5h192q11 0 11 10q0 9 -16 19q-12 8 -18 15t-6 20v37v278zM219 87 q0 -6 13 -14q13 -7 20 -15.5t7 -24.5q0 -10 -8.5 -19t-20.5 -9h-192q-10 0 -19 7.5t-9 15.5q0 22 8.5 31.5t23.5 15.5q12 6 12 11v349q0 5 -13 11q-14 6 -22.5 14.5t-8.5 25.5q0 10 8 19.5t20 9.5h198q11 0 19.5 -9.5t8.5 -17.5q0 -21 -10 -29t-25 -12q-10 -3 -10 -6v-354z M224 87v354q0 1 4 1q16 1 28 10t12 36q0 9 -9.5 20.5t-22.5 11.5h-198q-14 0 -23 -11.5t-9 -22.5q0 -22 9.5 -31t24.5 -14q9 -4 9 -6v-349q0 -2 -8 -5q-15 -5 -25 -15.5t-10 -37.5q0 -9 10 -18.5t22 -9.5h192q14 0 24 10.5t10 22.5q0 20 -8.5 29.5t-21.5 15.5q-10 5 -10 9z " />
<glyph unicode="j" horiz-adv-x="370" d="M322 106v349q0 11 2.5 16.5t7.5 11.5q9 9 9 21q0 6 -5 8.5t-11 2.5q-32 0 -55.5 -5.5t-50.5 -16.5q-35 -13 -56 -15q-12 0 -15.5 -4t-3.5 -11t4.5 -11.5t15.5 -10.5q13 -8 19.5 -15.5t6.5 -19.5v-353q0 -13 -0.5 -26t-3.5 -26t-9.5 -22t-17.5 -9q-12 0 -19.5 3.5 t-18.5 10.5q-11 8 -20.5 12t-23.5 4q-47 0 -47 -52q0 -26 22 -40.5t66 -14.5q38 0 74.5 16.5t66 46.5t46.5 68.5t17 81.5zM340 106q0 -45 -18.5 -87.5t-50.5 -75t-72 -50.5t-81 -18q-51 0 -79 20t-28 53q0 31 19 51t47 20q24 0 37 -5.5t26 -15.5q12 -10 19 -10q8 0 10 19 t2 46v353q0 6 -15 15q-14 8 -22 16.5t-8 25.5q0 12 6.5 22.5t29.5 11.5q16 2 46 13q28 11 53.5 17t63.5 6q11 0 23 -6.5t12 -22.5q0 -27 -5 -36t-13 -11q-2 -1 -2 -2v-349zM345 106v348h1q2 -1 3 -1q6 0 11 11t5 40q0 18 -14.5 26t-25.5 8q-38 0 -64 -6t-54 -17 q-30 -12 -45 -13q-26 -1 -33.5 -13.5t-7.5 -25.5q0 -20 9 -30t25 -18q11 -5 11 -9v-353q0 -26 -1 -43t-6 -17q-6 0 -16 9q-11 10 -25.5 16t-40.5 6q-30 0 -50.5 -21.5t-20.5 -54.5q0 -34 30 -56t82 -22q42 0 82.5 18.5t73.5 52t52 76.5t19 89z" />
<glyph unicode="k" horiz-adv-x="601" d="M560 35q-1 8 -7 13.5t-18 5.5q-8 0 -15.5 10.5t-22.5 36.5q-19 32 -36.5 57.5t-41.5 47.5q-31 31 -71 51t-82 24q-17 2 -17 9q0 4 5 15l2 3q25 46 45 66.5t49 20.5q8 0 31 -5q22 -5 30 -5q42 0 70 30t28 83q0 18 -14 18q-12 0 -35 -9q-26 -10 -41 -10q-5 0 -17 2t-17 2 q-45 0 -84.5 -45.5t-70.5 -121.5q-2 -5 -7 -16q-4 -9 -5 -9q-3 0 -3 33v100q0 11 6 16.5t18 10.5q11 5 16 9t5 12q0 9 -9 9h-199q-10 0 -10 -11q0 -7 4.5 -10.5t14.5 -9.5q12 -6 18.5 -12.5t6.5 -18.5v-351q0 -13 -6 -19.5t-18 -13.5q-10 -5 -15 -10t-5 -15q0 -5 10 -5h192 q11 0 11 10q0 9 -16 19q-12 8 -18 15t-6 20v134q0 18 8 18q4 0 10 -2q39 -11 71.5 -53t32.5 -93q0 -17 -6 -25t-17 -13q-12 -6 -12 -14q0 -16 17 -16h225q16 0 16 12zM578 36q0 -12 -11 -21.5t-23 -9.5h-225q-13 0 -24 10.5t-11 23.5q0 17 5.5 24.5t16.5 12.5q12 7 12 15 q0 44 -26 79.5t-59 47.5v-131q0 -6 14 -14q13 -7 20 -15.5t7 -24.5q0 -10 -8.5 -19t-21.5 -9h-192q-11 0 -19.5 7.5t-8.5 15.5q0 22 8.5 31.5t23.5 15.5q12 6 12 11v351q0 5 -13 10q-14 6 -22.5 14.5t-8.5 26.5q0 10 8 19.5t20 9.5h199q10 0 18.5 -9.5t8.5 -17.5 q0 -21 -9.5 -29.5t-25.5 -12.5q-10 -3 -10 -6v-56q32 61 70.5 97t81.5 36q8 0 22 -2q9 -2 12 -2q10 0 32 8q28 11 44 11t24 -11t8 -25q0 -59 -34 -95t-82 -36q-10 0 -35 6q-20 4 -26 4q-22 0 -38 -17t-39 -61q43 -4 85 -26t74 -54q30 -28 49 -57t37 -64q13 -26 17 -26 q19 0 30 -11.5t13 -24.5zM583 36q-2 14 -14.5 27.5t-33.5 13.5q-2 0 -11 18q-15 33 -35.5 65t-53.5 62q-32 32 -72.5 54t-82.5 27q21 39 35.5 54t34.5 15q6 0 24 -4q27 -6 37 -6q49 0 85 38t36 98q0 14 -9.5 27.5t-27.5 13.5q-17 0 -47 -11q-20 -8 -29 -8q-3 0 -11 1 q-13 2 -23 2q-30 0 -58.5 -17t-53.5 -49q10 12 10 33q0 9 -10 20.5t-22 11.5h-199q-14 0 -23.5 -11.5t-9.5 -22.5q0 -22 10 -31t25 -15q9 -3 9 -5v-351q0 -2 -9 -5q-15 -5 -25 -15.5t-10 -37.5q0 -9 11 -18.5t22 -9.5h192q14 0 24 10.5t10 22.5q0 20 -8.5 29.5t-21.5 15.5 q-10 5 -10 9v124q31 -14 53.5 -47t22.5 -73q0 -4 -9 -8q-12 -5 -19 -13.5t-7 -30.5q0 -14 12.5 -26.5t27.5 -12.5h225q14 0 26.5 11.5t12.5 24.5zM238 404v38q0 1 6 2q8 0 15 2.5t13 8.5q-22 -29 -34 -51z" />
<glyph unicode="l" horiz-adv-x="485" d="M435 179q-9 0 -39 -32q-42 -43 -80 -69.5t-88 -26.5q-11 0 -14.5 7.5t-3.5 27.5v354q0 11 6 16.5t19 11.5q10 4 15 8t5 12q0 9 -9 9h-199q-10 0 -10 -11q0 -6 4.5 -10t13.5 -9q13 -6 19.5 -12.5t6.5 -19.5v-350q0 -13 -6 -19.5t-18 -13.5q-10 -6 -15 -11t-5 -14 q0 -5 10 -5h192q36 0 74.5 -1.5t61.5 -3.5q12 -1 22 -6q3 -2 4 -2q11 0 16 17t10 54q1 6 3 17q2 8 8 22q10 25 10 44q0 11 -2.5 13.5t-10.5 2.5zM435 197q14 0 22.5 -8t8.5 -26q0 -16 -3 -27t-8 -23q-5 -13 -6 -20q-3 -14 -3 -17q-7 -41 -16 -63t-29 -22q-6 0 -15 4 q-7 3 -12 4q-23 2 -60 3t-75 1h-192q-10 0 -19 8t-9 16q0 22 8.5 31.5t23.5 15.5q12 6 12 11v350q0 5 -13 11q-14 6 -22.5 14.5t-8.5 25.5q0 10 8 19.5t20 9.5h199q10 0 18.5 -9.5t8.5 -17.5q0 -21 -9.5 -29t-24.5 -13q-11 -3 -11 -6v-354q0 -17 -1 -17h1q42 0 76.5 23.5 t75.5 63.5q22 22 33.5 31.5t21.5 9.5zM435 202q-10 0 -23.5 -10.5t-36.5 -33.5q-41 -40 -73.5 -62.5t-70.5 -24.5q2 8 2 15v354q0 1 5 2q16 2 28 11t12 35q0 9 -10 20.5t-22 11.5h-199q-14 0 -23.5 -11.5t-9.5 -22.5q0 -22 10 -31t25 -14q9 -4 9 -6v-350q0 -2 -9 -5 q-15 -5 -25 -15.5t-10 -37.5q0 -9 10.5 -18.5t22.5 -9.5h192q36 0 74 -1.5t61 -3.5q3 0 9 -3q10 -5 18 -5q24 0 33.5 24.5t16.5 67.5l2 14q1 6 6 17q6 13 9 24.5t3 29.5q0 20 -11 29.5t-25 9.5z" />
<glyph unicode="m" horiz-adv-x="673" d="M584 87v355q0 11 6 16.5t18 11.5q10 4 15 8t5 12q0 9 -9 9h-136q-14 0 -27.5 -2t-13.5 -10q0 -9 2 -22q2 -11 2 -16q0 -16 -9 -31l-68 -108q-7 -10 -11 -10q-3 0 -15 15t-20 26q-46 62 -68 100t-33 66q-7 15 -11 15q-19 0 -47 -8t-55.5 -20.5t-45.5 -26.5t-18 -25 q0 -8 25 -19q16 -6 27 -12q13 -7 16.5 -18t3.5 -30v-86q0 -41 -7.5 -91.5t-18.5 -82.5q-6 -15 -13.5 -25.5t-17.5 -20.5q-13 -14 -13 -22q0 -12 8 -12h156q11 0 11 12q0 4 -9 14q-21 22 -32 45q-13 32 -21.5 81.5t-8.5 93.5v49q0 14 5 14q6 0 17.5 -13t26.5 -35t28.5 -43 t43.5 -70q10 -15 11 -17q11 -18 15 -18q1 0 4 3t8.5 10.5t70.5 100.5l61 88q6 9 8 9q5 0 5 -12v-249q0 -13 -6 -19.5t-18 -13.5q-11 -5 -16 -10.5t-5 -14.5q0 -5 11 -5h193q11 0 11 10q0 9 -17 19q-11 8 -17.5 15t-6.5 20zM603 87q0 -6 13 -14q13 -7 20 -15.5t7 -24.5 q0 -10 -8.5 -19t-20.5 -9h-193q-11 0 -20 7t-9 16q0 22 9 31.5t23 15.5q13 6 13 11v212l-19 -27q-46 -67 -63.5 -91t-28.5 -38t-17 -19t-11 -5q-9 0 -15.5 6.5t-14.5 18.5l-1 1l-10 16q-32 53 -53.5 87.5t-34.5 51.5v-30q0 -43 8 -89.5t21 -77.5q7 -16 25 -36q17 -20 17 -31 q0 -12 -8.5 -21t-20.5 -9h-156q-12 0 -19.5 9.5t-7.5 20.5t5 19.5t16 19.5q18 20 24 36q12 29 19 77t7 90v86q0 16 -1.5 22t-8.5 10q-4 2 -19 9q-23 9 -33.5 17t-10.5 21q0 16 20 33t51 32t62.5 24t51.5 9q12 0 18.5 -8.5t19.5 -33.5q16 -33 35.5 -67t53.5 -79q5 -8 15 -21 l4 -6l64 103q7 9 7 21q0 3 -1 11q-3 15 -3 28q0 10 7.5 16t18 9t18.5 3.5t15 0.5h136q11 0 19.5 -9.5t8.5 -17.5q0 -21 -9.5 -29t-24.5 -13q-10 -3 -10 -6v-355zM607 87v355q0 1 5 2q16 2 27.5 11t11.5 35q0 9 -9 20.5t-23 11.5h-136q-7 0 -16 -0.5t-20.5 -4t-19.5 -10.5 t-8 -19q0 -13 3 -29q1 -7 1 -10q0 -9 -5 -19l-61 -97q-8 13 -16 21q-32 43 -50.5 75t-35.5 68q-14 29 -21.5 38.5t-22.5 9.5q-21 0 -53 -9.5t-63.5 -25t-52 -33.5t-20.5 -35q0 -15 11 -24t35 -19q11 -4 19 -8q5 -3 6 -8t1 -20v-86q0 -42 -7 -89.5t-18 -75.5q-5 -14 -23 -33 q-11 -12 -16.5 -21.5t-5.5 -22.5q0 -12 8.5 -23.5t22.5 -11.5h156q14 0 23.5 11t9.5 24t-19 35q-17 20 -23 33q-12 31 -20 77.5t-8 88.5v15q14 -20 55 -86q23 -37 35 -57q7 -12 15 -19.5t19 -7.5q7 0 14 5.5t19.5 21t32.5 44.5t68 98v-197q0 -2 -9 -5q-15 -5 -25.5 -15.5 t-10.5 -37.5q0 -10 11.5 -19t22.5 -9h193q14 0 23.5 10.5t9.5 22.5q0 20 -8.5 29.5t-21.5 15.5q-10 5 -10 9z" />
<glyph unicode="n" horiz-adv-x="578" d="M217 267q13 -17 31.5 -42.5t51.5 -71.5q64 -91 81.5 -114t28 -35.5t13.5 -12.5q10 0 18 10t19 31q11 22 17 29q7 9 26 29q16 16 23 24.5t7 14.5q0 5 -10.5 13.5t-39.5 25.5q-11 6 -11 28v34q0 61 6 104.5t15 70.5t17.5 41t18.5 27q10 12 10 17q0 14 -15 14h-148 q-11 0 -11 -11q0 -8 14 -25q22 -26 31 -48q13 -31 19.5 -77.5t6.5 -86.5v-26q0 -11 -4 -11t-11 7q-50 54 -88 106q-41 54 -65 91t-41 68q-14 24 -19 24q-45 0 -93 -21t-73 -52q-2 -1 -2 -5q0 -7 30 -19q23 -9 34 -15q14 -7 17.5 -16.5t3.5 -27.5v-85q0 -48 -5 -96t-16 -77 q-6 -16 -13.5 -26.5t-17.5 -20.5q-14 -14 -14 -22q0 -12 9 -12h157q11 0 11 12q0 4 -10 15q-21 22 -31 45q-13 32 -21.5 81.5t-8.5 94.5v48q0 12 5 14q2 0 8.5 -8.5t18.5 -26.5q16 -23 20 -28zM203 256q-4 5 -14 19l-6 9v-16q0 -43 8 -90.5t21 -78.5q7 -16 25 -36 q17 -19 17 -31q0 -11 -8.5 -20.5t-20.5 -9.5h-157q-11 0 -19 9.5t-8 20.5q0 12 5 20t16 20q19 21 25 36q10 26 14.5 72.5t4.5 93.5v85q0 16 -1.5 20t-8.5 7q-9 5 -28 13q-23 9 -34.5 17t-11.5 21q0 4 1 8.5t5 8.5q28 33 80.5 56t99.5 23q11 0 19.5 -9.5t26.5 -40.5 q21 -35 41 -65.5t53 -74.5q37 -50 70 -86q0 39 -6.5 83t-18.5 73q-6 16 -25 39q-11 13 -16 22t-5 19q0 11 9 20t20 9h148q14 0 24 -9.5t10 -22.5q0 -12 -15 -33q-10 -15 -18.5 -31t-16.5 -41t-13 -64.5t-5 -90.5v-34q0 -12 2 -13q59 -34 59 -54q0 -11 -10 -24t-29 -32 q-17 -18 -21 -23t-13 -22q-13 -26 -25 -40.5t-30 -14.5q-6 0 -22.5 18t-40 48.5t-44.5 60t-56 77.5q-43 61 -57 79zM199 253q12 -16 54 -74q30 -42 55 -76t49 -65.5t41.5 -50.5t24.5 -19q20 0 33 15t26 42q9 17 13 22t19 20q20 21 31 35.5t11 26.5q0 23 -62 58q1 0 1 9v34 q0 52 5 89t12.5 62.5t15.5 40.5t19 31q15 24 15 37q0 14 -11.5 25.5t-26.5 11.5h-148q-12 0 -23 -10.5t-11 -23.5q0 -11 5.5 -21t16.5 -23q18 -23 24 -38q11 -26 17.5 -65.5t7.5 -76.5q-24 26 -61 77q-30 40 -49.5 69.5t-42.5 66.5q-20 34 -30 45t-22 11q-47 0 -101 -23.5 t-83 -57.5q-4 -4 -5.5 -10t-1.5 -10q0 -15 13.5 -24t40.5 -20q16 -6 23 -10q6 -3 7 -6t1 -18v-85q0 -45 -5 -91.5t-15 -72.5q-5 -15 -24 -35q-11 -12 -16.5 -21t-5.5 -22t10 -24t22 -11h157q14 0 24 11t10 24t-19 35q-18 20 -24 34q-13 30 -20.5 76.5t-7.5 90.5v1l3 -4 q5 -8 8 -12z" />
<glyph unicode="o" horiz-adv-x="584" d="M308 510q-25 0 -58 -12.5t-40 -23.5q-8 -11 -11.5 -14t-8.5 -3q-23 0 -48.5 -15.5t-48.5 -44.5t-37.5 -67.5t-14.5 -82.5q0 -50 17 -93.5t49 -76t75.5 -50.5t94.5 -18t99 19.5t86 55t60 81t22 96.5t-17.5 96.5t-49.5 80t-75.5 53.5t-93.5 19zM376 401q54 0 83.5 -40 t29.5 -100t-41 -97.5t-119 -37.5q-38 0 -71 18.5t-56 47.5t-35.5 62.5t-12.5 63.5q0 28 4.5 51.5t18.5 23.5q1 0 2 -9q2 -12 5.5 -24.5t12 -26t24 -23.5t39.5 -13q24 0 46 8.5t23 24.5q0 5 -12 9q-11 3 -17.5 8.5t-6.5 18.5q0 11 10 18t24 10.5t27 5t22 1.5zM308 528 q53 0 100 -21t81.5 -58t53.5 -85.5t19 -102.5q0 -53 -23.5 -102.5t-64 -87t-92 -59t-105.5 -21.5t-100.5 19.5t-81 54.5t-53.5 82t-19 100q0 46 16 88t41.5 73.5t55 49t54.5 17.5h-1q0 1 6 9q4 7 16.5 15t29.5 14.5t35 10.5t32 4zM376 383q-20 0 -42.5 -4t-22.5 -13 q0 -3 9 -4q12 -3 19.5 -9t7.5 -23q-1 -14 -10 -24t-23.5 -16.5t-29.5 -9t-26 -2.5q-37 4 -58 19.5t-28 35.5v-15q0 -28 11 -58.5t32 -56.5t50 -42t64 -16q72 0 107 30.5t35 85.5t-24 88.5t-71 33.5zM308 533q-15 0 -33 -4.5t-35.5 -11.5t-31 -15t-17.5 -15l-4 -6l-2 -3 q-26 -1 -55 -19.5t-55 -50.5t-41.5 -73.5t-15.5 -87.5q0 -54 19.5 -101.5t54.5 -83.5t82.5 -56t102.5 -20q54 0 106.5 22t94 60.5t65.5 88.5t24 104t-19.5 103.5t-55 88t-83 59.5t-101.5 21zM376 378q45 0 67.5 -31.5t22.5 -85.5q0 -53 -33.5 -82.5t-103.5 -29.5 q-33 0 -61 15t-48.5 40t-31 54t-11.5 56q11 -16 31 -26.5t49 -13.5q12 0 28 3t31 9.5t25 17.5t11 26q0 23 -10 29t-23 7h-3q0 6 21 9t39 3z" />
<glyph unicode="p" horiz-adv-x="557" d="M255 328v59q0 16 6 34q5 16 5 28q0 6 -10.5 9t-29.5 6q-21 3 -28 6v0q0 3 30 3h10q6 -1 11 -1q52 -8 88 -39t36 -70q0 -42 -17.5 -62.5t-62.5 -20.5q-22 0 -30 11.5t-8 36.5zM255 87v126v19q0 23 8 23q5 0 21 -14q13 -12 32 -19.5t54 -7.5q73 0 110.5 42t37.5 107 q0 30 -20 57t-56 47t-83 31.5t-99 11.5q-61 0 -115 -16t-91 -43q-14 -12 -14 -22q0 -7 20 -9q13 -1 23 -4t20 -10t16 -22t6 -38v-260q0 -13 -6 -19.5t-17 -13.5q-10 -5 -15 -10t-5 -15q0 -5 10 -5h192q11 0 11 10q0 9 -16 19q-12 8 -18 15t-6 20zM274 328q0 -21 2.5 -25.5 t16.5 -4.5q38 0 50 13.5t12 51.5q0 27 -19 48.5t-52 32.5q0 -18 -6 -36q-4 -13 -4 -21v-59zM274 87q0 -6 13 -14q13 -7 20 -15.5t7 -24.5q0 -10 -9.5 -19t-20.5 -9h-192q-11 0 -20 7.5t-9 15.5q0 22 8.5 31.5t23.5 15.5q12 6 12 11v260q0 25 -12.5 35t-35.5 16q-19 5 -28 11 t-9 21q0 11 6.5 20.5t14.5 15.5q38 29 95.5 46t121.5 17q55 0 105 -12.5t88.5 -35.5t60.5 -53t22 -64q0 -70 -43 -118.5t-123 -48.5q-38 0 -61 9t-35 22v-140zM278 328v59q0 7 4 18q6 16 7 32q61 -26 61 -74q0 -36 -10.5 -48t-46.5 -12q-11 0 -13 3.5t-2 21.5zM278 87v130 q15 -12 37 -19t55 -7q82 0 126 50t44 122q0 35 -22.5 66t-62 54.5t-90 36.5t-105.5 13q-64 0 -122 -17.5t-98 -46.5q-9 -6 -15.5 -17t-6.5 -23q0 -18 10 -25.5t31 -12.5q22 -6 33 -14.5t11 -30.5v-260q0 -2 -9 -5q-15 -5 -25 -15.5t-10 -37.5q0 -9 10.5 -18.5t22.5 -9.5h192 q13 0 23.5 10.5t10.5 22.5q0 20 -8.5 29.5t-21.5 15.5q-10 5 -10 9z" />
<glyph unicode="q" horiz-adv-x="665" d="M311 515q-26 0 -58.5 -12.5t-38.5 -23.5q-7 -10 -11 -13.5t-9 -3.5q-23 0 -49 -15.5t-49 -44.5t-37.5 -67.5t-14.5 -82.5q0 -50 17.5 -94t49 -76t75.5 -50t95 -18q43 0 82 11.5t68 35.5q13 11 17 11q8 0 15 -15q10 -20 24.5 -32t30.5 -12q9 0 26 10t35 23.5t30.5 26.5 t12.5 19q0 13 -20 13q-6 0 -20.5 4t-30 10t-26.5 13t-11 13t10 23l1 1q22 40 22 97q0 51 -17.5 96.5t-49.5 80t-75.5 53.5t-93.5 19zM346 209q-28 0 -51 -11.5t-23 -29.5q0 -8 5 -8q13 4 32 4q7 0 19.5 -2t24.5 -5t20.5 -7t8.5 -7q-1 -5 -18 -8.5t-32 -3.5q-38 0 -70.5 18.5 t-56 47.5t-36 62.5t-12.5 63.5q0 27 5 51t18 24q1 0 2 -9q2 -12 5.5 -24.5t12 -26.5t24 -24t39.5 -13q24 0 46 8.5t23 25.5q0 5 -12 9q-11 3 -17.5 8.5t-6.5 18.5q0 11 10 18t24.5 10.5t27.5 5t22 1.5q53 0 82.5 -39.5t29.5 -100.5q0 -11 -3 -26.5t-8 -30t-11 -23.5t-13 -9 q-6 0 -21 8l-8 4q-18 9 -40 14.5t-42 5.5zM311 533q54 0 100.5 -21t81.5 -58t54 -85.5t19 -102.5q0 -60 -26 -106q-2 -4 -5 -11q-2 -3 -2 -4t8.5 -4.5t21.5 -8t24 -7t15 -2.5q13 0 25.5 -9t12.5 -22q0 -9 -14 -25t-36 -33t-41.5 -28t-30.5 -11q-21 0 -40.5 15.5t-30.5 38.5 v1q-2 -2 -4 -3q-32 -26 -75 -39t-87 -13q-54 0 -101 19.5t-81.5 55t-53.5 82.5t-19 100q0 46 16 88t42 73.5t55.5 49t54.5 17.5h-1q0 2 5 9q4 7 16.5 15t30 14.5t35 10.5t31.5 4zM346 227q21 0 46 -6t45 -16q4 -2 13 -7q6 -3 7 -3q4 0 10.5 26t6.5 45q0 55 -24 88.5 t-70 33.5q-19 0 -42 -4t-23 -13q0 -3 8 -4q12 -3 19.5 -9t7.5 -23q0 -14 -9.5 -24.5t-23 -16.5t-28.5 -9t-27 -3q-38 5 -58.5 20t-28.5 36v-15q0 -40 21.5 -82t57.5 -67q5 23 34 38t58 15zM311 538q-14 0 -32.5 -4.5t-36 -11.5t-30.5 -15t-17 -15q-4 -4 -8 -10 q-25 -1 -54.5 -19.5t-55 -50.5t-41 -73.5t-15.5 -86.5q0 -54 19.5 -101.5t55 -83.5t83 -56t102.5 -20q46 0 89.5 13t75.5 39h-1q1 0 1 1h1q10 -22 30 -38t41 -16q12 0 33 12t42.5 29t36.5 34t15 27q0 15 -14 25t-29 10q-4 0 -15 3t-20 5.5t-18 5.5l-12 4q1 3 7 13 q14 23 20 51t6 57q0 54 -19.5 103.5t-54.5 87.5t-83 59.5t-102 21.5zM346 232q-28 0 -57.5 -13.5t-37.5 -36.5q-32 24 -51 63t-20 75q12 -16 31.5 -27.5t49.5 -14.5q12 0 28 3t30.5 10t24.5 18t11 26q0 22 -9.5 28.5t-22.5 6.5q-4 0 -4 1q0 5 22 8.5t39 3.5q44 0 67 -31.5 t23 -85.5q0 -17 -5.5 -41.5t-7.5 -24.5q-1 1 -4 2.5t-15 6.5q-19 11 -44.5 17t-47.5 6z" />
<glyph unicode="r" horiz-adv-x="619" d="M258 328v59q0 16 6 34q5 16 5 28q0 6 -10.5 9t-30.5 6q-21 3 -28 6v0q0 4 29 4q66 0 110.5 -26.5t44.5 -77.5q0 -41 -26 -68t-72 -27q-20 0 -24 7.5t-4 45.5zM576 95q0 9 -5.5 11.5t-16.5 2.5q-18 0 -30 11.5t-33 39.5q-13 18 -24 32q-21 26 -65 47q-23 12 -23 19 q2 7 31 7q56 0 92 32t36 79q0 64 -69 99t-207 35q-61 0 -115 -16t-91 -43q-13 -11 -13 -22q0 -7 20 -9q13 -1 23 -4t20 -10t16 -22t6 -38v-261q0 -13 -6 -19.5t-18 -12.5q-10 -5 -15 -10.5t-5 -14.5q0 -6 11 -6h192q11 0 11 10q0 9 -16 19q-12 8 -18 15t-6 20v146 q0 27 21 27q23 0 47.5 -29t27.5 -77q5 -65 32.5 -102.5t82.5 -37.5q29 0 48 8.5t34 22.5q13 13 19 27t6 24zM276 337q-1 10 -3 10q-3 0 -5 -8t-2 -17q0 -12 4.5 -20.5t15.5 -8.5q40 0 60 20.5t20 56.5q0 31 -21 51t-58 29v-1q0 -14 -2 -23t-5 -18q-4 -13 -4 -21v-50zM595 95 q0 -11 -8 -29.5t-23 -34.5q-16 -15 -39.5 -25.5t-55.5 -10.5q-62 0 -95 44t-38 113q-3 42 -21 65.5t-36 23.5q-3 0 -3 -9v-146q0 -6 13 -13q13 -8 20 -16.5t7 -24.5q0 -11 -9 -19.5t-20 -8.5h-192q-11 0 -20 8t-9 16q0 22 8.5 31.5t22.5 15.5q12 5 12 10v261q0 25 -12.5 35 t-35.5 16q-19 5 -28 11t-9 21q0 11 6.5 20.5t14.5 15.5q39 29 96 46t121 17q143 0 218.5 -40.5t75.5 -111.5q0 -49 -37 -86t-92 -43q37 -21 55 -43q13 -16 28 -37q16 -23 24.5 -31.5t19.5 -8.5q15 0 28 -5.5t13 -26.5zM281 387q0 6 3 17q3 9 4.5 18t1.5 25q35 -11 53 -29.5 t18 -47.5q0 -34 -18 -53t-57 -19q-10 0 -14.5 6.5t-4.5 16.5q0 7 1.5 12.5t3.5 5.5v-2h9v50zM599 95q0 24 -14.5 30.5t-30.5 6.5q-9 0 -17 8t-24 30q-16 23 -27 37q-23 24 -46 38q53 9 87 45.5t34 85.5q0 73 -77.5 115t-221.5 42q-64 0 -122 -17.5t-97 -46.5q-9 -6 -16 -17 t-7 -23q0 -18 10 -25.5t31 -12.5q22 -6 33 -14.5t11 -30.5v-261q0 -2 -9 -5q-15 -5 -25 -15.5t-10 -36.5q0 -9 10.5 -19t23.5 -10h192q13 0 23.5 11t10.5 22q0 20 -8.5 29.5t-21.5 15.5q-10 5 -10 9v146v4q16 -1 31.5 -23t18.5 -61q5 -70 39.5 -116t98.5 -46q34 0 58 11 t40 27t24 35.5t8 31.5z" />
<glyph unicode="s" horiz-adv-x="561" d="M521 172q0 57 -32.5 96t-86.5 53q-22 5 -61 13q-73 14 -108 29t-35 49q0 32 21 48t47 16q13 0 30 -10.5t36 -27.5l10 -10q22 -21 37.5 -32t32.5 -11q14 0 27.5 11t25 28t18.5 36t7 35q0 9 -5 9q-14 0 -37 -7q-21 -7 -33 -7q-26 0 -76 8q-52 9 -81 9q-45 0 -84 -10.5 t-68.5 -29.5t-45.5 -44.5t-16 -54.5q0 -31 19.5 -52.5t50.5 -34.5t66.5 -20.5t82.5 -14.5q43 -6 71 -36t28 -63q0 -42 -29.5 -65t-73.5 -23q-40 0 -75 34t-35 87q0 3 1 7q1 6 1 9q0 11 -6 11q-11 -2 -28 -18t-34 -40t-29 -49.5t-13 -46.5q0 -13 2 -17t8 -4q11 0 30 7 q20 8 32 8q25 0 68 -12q46 -12 73 -12q44 0 91.5 12t87.5 32.5t64 48t24 56.5zM540 172q0 -34 -26.5 -64t-70 -53.5t-93.5 -36.5t-96 -13q-32 0 -81 13q-39 10 -60 10q-8 0 -23 -6q-22 -8 -39 -8t-23.5 8t-6.5 19q0 4 1 9v4q2 23 15 51.5t32 54.5t38.5 44t31.5 21q4 2 8 2 q11 0 16.5 -11.5t5.5 -19.5q0 -6 -1 -13v-3q0 -46 28.5 -74t62.5 -28q39 0 62 17.5t23 51.5q0 28 -23 51.5t-61 29.5q-47 6 -85 14t-72 23.5t-55.5 40.5t-21.5 62q0 33 18 61.5t50.5 50t74.5 33.5t89 12q32 0 87 -9q47 -8 70 -8q9 0 26 6q26 8 44 8q10 0 16.5 -9.5 t6.5 -17.5q0 -17 -8 -39.5t-22 -43t-31 -33.5t-35 -13q-22 0 -41.5 13t-43.5 37l-8 8q-18 16 -31 25t-22 9q-22 0 -36 -11t-14 -35q0 -23 28.5 -34.5t92.5 -24.5q46 -9 69 -15q59 -14 96.5 -58.5t37.5 -107.5zM544 172q0 64 -38 110t-99 61q-23 6 -68 14q-63 13 -90.5 23.5 t-27.5 31.5q0 22 12 31.5t33 9.5q16 0 51 -33q5 -5 8 -7q24 -24 43.5 -37.5t43.5 -13.5q19 0 37 13.5t32.5 35t23 44.5t8.5 40q0 9 -8 20t-20 11q-20 0 -47 -8q-16 -5 -23 -5q-23 0 -69 8q-56 9 -88 9q-48 0 -91.5 -12.5t-76 -34.5t-51 -52t-18.5 -63q0 -38 22 -64t57 -41.5 t72.5 -24t86.5 -15.5q37 -5 58.5 -27t21.5 -49q0 -33 -21 -49t-59 -16q-33 0 -60 27t-27 71v1q2 7 2 15q0 9 -6.5 22t-19.5 13q-4 0 -10 -2q-13 -2 -32.5 -20.5t-39 -45t-33 -56t-15.5 -53.5v-4q-1 -6 -1 -9q0 -14 7.5 -23t26.5 -9t42 10q14 5 20 5q20 0 58 -10 q25 -7 42.5 -10.5t40.5 -3.5q46 0 97 13.5t95 37.5t71 55t27 66z" />
<glyph unicode="t" horiz-adv-x="569" d="M354 87v355q0 9 3 19v1q30 0 51 -7t33 -18.5t18.5 -23.5t12.5 -29q6 -16 10.5 -23t13.5 -7q7 0 13 16t10.5 41.5t7 51t2.5 42.5q0 15 -11 15t-20 -8q-9 -7 -19 -9h-1q-10 -2 -34.5 -3.5t-97.5 -1.5h-129q-113 0 -133 5q-6 1 -12 6q-4 3 -9 5t-14 2q-8 0 -8 -15 q0 -24 2 -49.5t6 -49t11.5 -38.5t18.5 -15q7 0 14 24q6 18 12.5 31.5t19 27t33 22.5t51.5 9q7 -5 11.5 -10.5t4.5 -15.5v-351q0 -13 -6 -19.5t-18 -13.5q-10 -5 -15 -10t-5 -15q0 -5 11 -5h192q11 0 11 10q0 9 -17 19q-11 8 -17.5 15t-6.5 20zM372 87q0 -6 14 -14 q13 -7 20 -15.5t7 -24.5q0 -11 -9 -19.5t-20 -8.5h-192q-11 0 -20.5 7.5t-9.5 15.5q0 22 8.5 31.5t23.5 15.5q12 6 12 11v351q0 5 -2 7q-38 -2 -56.5 -21t-33.5 -53q-9 -20 -16.5 -29.5t-18.5 -9.5q-17 0 -28.5 17.5t-17.5 44.5t-8.5 55t-2.5 53q0 11 7 22t20 11 q22 0 32 -3.5t10 -7.5q0 -2 -3 -2q19 -5 129 -5h129q74 0 102 1q11 1 16.5 2t9.5 2h1q1 0 2 2q3 6 11 10.5t30 4.5q15 0 22.5 -11t7.5 -22q0 -18 -3.5 -47t-10 -57t-16.5 -46.5t-22 -18.5q-17 0 -26.5 10.5t-19.5 32.5q-14 28 -29.5 44t-48.5 20v-1v-355zM377 87l-3 354 q28 -4 42.5 -19.5t27.5 -43.5q11 -24 21.5 -35t30.5 -11q13 0 24 19t18 48t10.5 58t3.5 48q0 13 -8 25.5t-26 12.5q-25 0 -34.5 -4.5t-9.5 -10.5q0 -1 1 -2h-1q-5 -1 -10.5 -2t-16.5 -2q-28 -1 -101 -1h-129q-101 0 -124 4q-3 6 -13 9.5t-31 3.5q-16 0 -23.5 -12.5 t-7.5 -24.5q0 -26 2.5 -54.5t9 -56.5t18.5 -46t31 -18q14 0 22 10t18 32q16 32 33 50.5t50 21.5v-3v-351q0 -2 -9 -5q-15 -5 -25 -15.5t-10 -37.5q0 -9 10.5 -18.5t23.5 -9.5h192q12 0 23 10.5t11 22.5q0 20 -8.5 29.5t-21.5 15.5q-11 5 -11 9z" />
<glyph unicode="u" horiz-adv-x="526" d="M212 456q0 11 2.5 16t8.5 11q9 8 9 21q0 5 -5 7.5t-12 2.5q-32 0 -54.5 -5.5t-49.5 -15.5q-35 -13 -55 -15q-12 -1 -15 -4.5t-3 -9.5q0 -10 18 -22q12 -8 18.5 -15.5t6.5 -20.5v-247q0 -25 11 -51.5t33.5 -49t56.5 -36.5t78 -14q60 0 103.5 24t71 65.5t40.5 96t13 117.5 q0 40 -2.5 68t-8 49.5t-15.5 40.5t-27 42q-1 3 -8 3q-9 0 -23 -8t-28 -20.5t-23 -23.5t-9 -17q0 -13 7.5 -23.5t22.5 -23.5q15 -14 21 -22q19 -24 29 -51.5t10 -71.5q0 -74 -30 -115.5t-92 -41.5q-48 0 -74 33.5t-26 92.5v234zM230 222q0 -108 82 -108q55 0 79 34.5 t24 104.5q0 41 -8.5 65.5t-26.5 46.5q-4 6 -17 17q-18 16 -28 30t-10 33q0 8 11 22.5t28 29.5t34 25t29 10q5 0 11.5 -2t10.5 -7q17 -24 28 -45t17.5 -44t9 -52.5t2.5 -70.5q0 -64 -14 -122t-44 -102.5t-77 -70.5t-111 -26q-48 0 -85 16t-62 41.5t-37.5 55t-12.5 56.5v247 q0 6 -14 15t-21.5 18t-7.5 25q0 11 6.5 21.5t28.5 11.5q16 1 46 13q28 10 52.5 16t61.5 6q11 0 23 -6t12 -22q0 -28 -5.5 -37t-12.5 -10q-2 0 -2 -1v-234zM255 504q0 18 -14 25.5t-26 7.5q-38 0 -64 -6t-53 -17q-28 -11 -43 -13q-25 -1 -32.5 -13t-7.5 -24q0 -19 9 -29 t23 -18q12 -7 12 -11v-247q0 -27 13 -57.5t38.5 -57t63.5 -43t86 -16.5q65 0 113 26.5t78.5 72.5t45 104t14.5 123q0 42 -2.5 71.5t-9 53t-18 45t-28.5 45.5q-11 11 -26 11q-13 0 -30.5 -10.5t-35 -26t-29 -31t-11.5 -24.5q0 -21 10.5 -35.5t29.5 -32.5q12 -10 16 -15 q17 -22 25.5 -45.5t8.5 -63.5q0 -68 -23 -101t-76 -33q-77 0 -77 103v233q1 -2 4 -2q6 0 11 11.5t5 39.5z" />
<glyph unicode="v" horiz-adv-x="576" d="M537 426q0 35 -7 59t-29 41q-2 2 -6 2q-9 0 -26 -8.5t-34.5 -20.5t-29 -23t-11.5 -17v-2l1 -1q25 -18 37 -41t12 -62q0 -51 -18 -101.5t-50 -93.5q-10 -14 -15 -14t-11 15l-102 260q-4 14 -4 24v14q0 11 4.5 15t13.5 7q8 2 12 5.5t4 13.5q0 7 -6 11.5t-26 4.5h-198 q-8 0 -8 -6q0 -9 6 -14.5t19 -13.5t21.5 -15t12.5 -19l136 -376l1 -1q1 -5 1 -8t-1 -12q-1 -8 -1 -11q0 -21 22 -21q19 0 47 12t62 30q15 8 18 9q8 4 8 16q0 2 -7 10q-11 12 -11 16t7 12q6 6 8 9l1 1q36 42 57.5 70t43 64t34 76.5t12.5 83.5zM555 426q0 -46 -13.5 -88.5 t-35.5 -80t-45.5 -68t-56.5 -69.5l-1 -2q-6 -8 -8 -9q5 -4 10 -11t5 -14q0 -9 -3 -17.5t-14 -14.5q-3 -1 -20 -10q-37 -19 -65.5 -31t-50.5 -12q-16 0 -28.5 11t-12.5 28q0 4 1 13q1 7 1 10q0 1 -1 3l-135 376q-3 9 -24 20q-17 10 -26.5 20t-9.5 28q0 8 7.5 16.5t18.5 8.5 h198q30 0 40 -10t10 -25q0 -25 -6 -35t-15 -10q-5 0 -8 1.5l-5 2.5v-14q0 -8 3 -19l100 -250q61 83 61 179q0 34 -10 53t-32 35q-6 4 -6 12q0 11 13.5 26.5t34 30.5t41 24.5t34.5 9.5q7 0 11 -3q26 -19 34.5 -48.5t8.5 -66.5zM560 426q0 38 -8.5 68t-36.5 51q-4 3 -12 3 q-14 0 -36 -10t-43.5 -25.5t-35.5 -32t-14 -28.5q0 -9 8 -15q21 -16 30 -33.5t9 -50.5q0 -92 -54 -169l-97 242q-3 9 -3 17l-4 12q6 -6 14 -6q10 0 17 11.5t7 37.5q0 16 -11 27.5t-44 11.5h-198q-13 0 -22 -10t-9 -19q0 -21 10 -32t29 -21t21 -17l136 -376h2v0l-1 -1 q0 -3 -1 -10q-1 -9 -1 -13q0 -19 14 -31.5t31 -12.5q23 0 53 13t66 32l18 9q14 7 17.5 16.5t3.5 19.5q0 7 -3.5 13t-9.5 13q1 1 3 4l2 3l1 2q34 38 57.5 68.5t45.5 68t35.5 81t13.5 89.5z" />
<glyph unicode="w" horiz-adv-x="879" d="M827 426q0 35 -7 59t-29 41q-2 2 -6 2q-9 0 -25.5 -8.5t-34 -20.5t-29 -23t-11.5 -17v-2l1 -1q25 -18 37 -41.5t12 -61.5q0 -51 -18 -101.5t-50 -93.5q-3 -4 -5 -6q-6 -8 -10 -8q-5 0 -11 15l-103 260q-3 11 -3 24v14q0 11 4.5 15t12.5 7q8 2 12 5.5t4 13.5q0 7 -6 11.5 t-26 4.5h-198q-7 0 -7 -6q0 -9 6 -14.5t19 -13.5t21.5 -15t12.5 -19l48 -135q8 -18 8 -32q0 -11 -8.5 -33.5t-21 -46t-24.5 -39.5t-18 -16q-5 0 -11 15l-103 260q-4 14 -4 24v14q0 11 4.5 15t13.5 7q8 2 12 5.5t4 13.5q0 7 -6 11.5t-26 4.5h-198q-7 0 -7 -6q0 -9 6 -14.5 t18 -13.5q14 -8 22 -15t12 -19l136 -376l1 -1q1 -5 1 -8t-1 -12q-1 -8 -1 -11q0 -21 22 -21q20 0 47.5 12t62.5 30q13 7 18 9q7 4 7 16q0 2 -7 10q-10 12 -10 16q0 3 11 18t27.5 34.5t29 33t14.5 13.5q7 0 10 -12l46 -127l1 -3q2 -3 2 -6q0 -4 -2 -12q-1 -8 -1 -11 q0 -21 22 -21q20 0 47.5 12t62.5 30q13 7 18 9q7 4 7 16q0 2 -7 10q-10 12 -10 16q0 5 8 13q4 5 7 8q33 38 56 67.5t44.5 66t34 77t12.5 84.5zM846 426q0 -46 -13.5 -88.5t-35.5 -80t-45.5 -67.5t-56.5 -69l-1 -1q-6 -10 -8 -11q5 -4 10 -11t5 -14q0 -9 -3 -17.5t-15 -14.5 q-2 -1 -17 -9q-36 -19 -66.5 -31.5t-52.5 -12.5q-16 0 -28 11t-12 28q0 4 2 14q1 5 1 8l-2 4l-44 121q-5 -7 -14.5 -19.5t-24.5 -29.5q-20 -25 -20 -26q2 0 10 -9t8 -17q0 -9 -3 -17.5t-15 -14.5q-2 -1 -17 -9q-36 -19 -66.5 -31.5t-52.5 -12.5q-16 0 -28 11t-12 28 q0 4 1 13q1 7 1 10q0 1 -1 3l-136 376q-3 9 -24 21q-17 9 -26.5 19t-9.5 28q0 8 8 16.5t18 8.5h198q31 0 41 -10t10 -25q0 -25 -6 -35t-15 -10q-5 0 -8 1.5l-5 2.5v-14q0 -8 3 -19l101 -257q5 8 13.5 23t16.5 32.5t13.5 33t5.5 23.5q0 6 -4 19l-3 7l-49 135q-3 9 -24 21 q-17 9 -26.5 19t-9.5 28q0 8 8 16.5t18 8.5h198q31 0 41 -10t10 -25q0 -25 -6 -35t-15 -10q-5 0 -8 1.5l-5 2.5v-14q0 -8 3 -19l99 -250q29 41 45.5 86.5t16.5 92.5q0 34 -10 53t-32 35q-6 4 -6 11q0 11 13.5 27t33.5 30.5t41 24.5t34 10q7 0 11 -3q27 -19 35.5 -48.5 t8.5 -66.5zM850 426q0 38 -8.5 68t-36.5 51q-4 3 -12 3q-14 0 -36 -10t-43 -26t-35 -32.5t-14 -28.5q0 -9 7 -14q22 -16 31.5 -33t9.5 -51q0 -44 -14.5 -87.5t-41.5 -81.5l-97 242q-3 9 -3 17l-3 12q5 -6 14 -6t16 11.5t7 37.5q0 17 -11 28t-44 11h-198q-10 0 -17 -5.5 t-11 -13.5q-5 8 -17.5 13.5t-34.5 5.5h-198q-12 0 -21 -10t-9 -19q0 -21 10 -32t28 -21q19 -10 21 -17l136 -376h3q-1 0 -2 -1q0 -3 -1 -10q-1 -9 -1 -13q0 -19 14 -31.5t31 -12.5q23 0 54 13t67 32q15 8 17 9q13 7 16.5 16.5t3.5 19.5q0 7 -7 15.5t-12 11.5q7 6 24.5 27 t29.5 37l41 -113q2 -2 5 -2q-6 -8 -6 -22q0 -19 14 -31.5t31 -12.5q23 0 54 13t67 32q15 8 17 9q13 7 16.5 16.5t3.5 19.5q0 13 -13 26q2 1 6 7q35 41 57.5 70t45 67.5t36 82t13.5 89.5zM368 438l48 -135q7 -17 7 -24t-4.5 -20.5t-11 -28t-14 -29t-13.5 -24.5l-98 249 q-3 9 -3 17l-3 12q5 -6 14 -6q8 0 14 8.5t8 27.5q5 -10 13 -16t21 -13q19 -10 22 -18z" />
<glyph unicode="x" horiz-adv-x="659" d="M550 530q-24 0 -44 -4t-46 -11q-46 -12 -71 -12q-9 0 -14 -2t-5 -9t5 -17t5 -17q0 -24 -20 -70l-6 -13q-9 -16 -14 -16t-16 14l-6 8q-50 70 -59 92q-3 9 -7 24q-4 21 -14 21q-18 0 -46.5 -8t-56.5 -20.5t-46 -26.5t-18 -26q0 -7 22 -16q20 -8 32 -15q19 -10 32.5 -25.5 t48.5 -63.5l17 -24l20 -27q1 -1 1 -2q9 -11 10 -16q0 -8 -8 -19q-45 -55 -98 -111q-20 -20 -37.5 -33t-39.5 -25q-27 -16 -27 -25q0 -8 6 -10t17 -2h153q15 0 15 8q0 10 -2.5 16t-6.5 12q-8 11 -8 22q0 26 10 49.5t30 57.5l9 15q6 11 11 11q2 0 10 -10l2 -2l68 -97 q12 -11 12 -28q0 -5 -8 -12q-6 -5 -9.5 -10t-3.5 -14t8 -13.5t16 -4.5h220q7 0 14.5 5t7.5 13q0 10 -5.5 14t-18.5 7q-15 4 -25.5 9t-19.5 17l-171 219q-12 15 -12 23q0 6 11 19v1q26 31 46.5 53.5t42.5 39.5q20 16 52 39q48 35 48 43q0 5 -13 5zM550 548q12 0 21.5 -4 t9.5 -19q0 -11 -14.5 -24.5t-46.5 -37.5q-30 -23 -45 -35q-22 -17 -44.5 -41t-41.5 -49l-8 -8q0 -1 1.5 -3t6.5 -7q1 -1 1 -2l170 -219q7 -10 32 -14q21 -4 31.5 -12t10.5 -32q0 -15 -14.5 -25.5t-26.5 -10.5h-220q-13 0 -27.5 8.5t-14.5 27.5q0 21 5.5 30t11.5 9q3 0 4 -2 q0 4 -1.5 7t-6.5 9l-65 92q-1 -1 -8 -14q-18 -31 -26.5 -51t-8.5 -40q0 -1 2 -2q6 -3 10.5 -12.5t4.5 -35.5q0 -14 -11 -20t-22 -6h-153q-15 0 -28 5.5t-13 24.5q0 14 10.5 23.5t33.5 23.5q43 27 66 49q65 70 95 109q4 6 5 6l-1 1q-3 2 -7 8l-20 27q-13 18 -21 29 q-32 44 -43.5 57t-27.5 22q-9 5 -23 11q-21 9 -30.5 16t-9.5 20q0 16 20 33.5t51 32t62.5 24t51.5 9.5q19 0 25.5 -9.5t9.5 -28.5q2 -13 4 -18q6 -16 20 -37t41 -58l4 10q19 43 19 63q0 1 -2 4q-7 13 -7 30q0 16 12 23t25 7q21 0 63 11q30 7 51 11t47 4zM550 553 q-27 0 -48.5 -4t-50.5 -12q-42 -11 -62 -11q-15 0 -28.5 -7.5t-13.5 -26.5q0 -14 3 -21.5t6 -11.5l1 -1q0 -19 -17 -56l-4 -8q-22 31 -35 51.5t-20 35.5q-2 5 -4 18q-3 20 -10 31t-29 11q-20 0 -53 -9.5t-64 -25t-52 -34t-21 -35.5q0 -15 10.5 -23t32.5 -17q14 -6 23 -11 t15.5 -11t15 -15.5t19.5 -24.5t32 -44q3 -5 8 -11l21 -28q1 -3 4 -6l-1 -1q0 -1 -1 -2q-27 -35 -84 -97q-7 -8 -11 -12q-21 -22 -64 -48q-26 -16 -36.5 -26t-10.5 -25q0 -22 14.5 -28.5t31.5 -6.5h153q12 0 25 7.5t13 23.5q0 30 -5.5 40.5t-11.5 10.5q0 20 8.5 39.5 t25.5 49.5q1 2 4 7l61 -87q6 -6 7 -8q-9 -1 -15 -11t-6 -31t16.5 -31t30.5 -10h220q13 0 29 12t16 29q0 28 -11.5 37t-33.5 13q-23 3 -29 11l-171 219q-2 3 -4 5l-4 4q2 1 7 6q23 28 44 50.5t42 38.5q16 13 42 32q34 25 50 40t16 28q0 18 -11 23t-25 5z" />
<glyph unicode="y" horiz-adv-x="608" d="M554 531q-24 0 -37.5 -3.5t-27.5 -8.5q-12 -6 -22 -8.5t-27 -2.5q-10 0 -20.5 -3.5t-10.5 -10.5t2 -21q2 -12 2 -19q0 -13 -6 -35t-14.5 -43.5t-17.5 -36t-16 -14.5q-3 0 -13.5 13t-20.5 26l-4 5q-22 30 -34.5 54.5t-22.5 49.5q-4 10 -7 26q-5 19 -14 19q-20 0 -54 -5.5 t-67.5 -14t-56.5 -20t-23 -22.5q0 -7 25 -17q20 -8 32 -14q17 -9 33.5 -27.5t51.5 -63.5l28 -36l8 -9q23 -28 23 -63v-140q0 -12 -5.5 -18.5t-17.5 -13.5q-11 -6 -16 -11t-5 -15q0 -5 11 -5h192q11 0 11 10q0 9 -16 19q-12 8 -18 15t-6 20v166q0 22 5.5 37.5t19.5 33.5 q17 24 56 74l21 27q19 24 59 63q32 31 32 38q0 3 -3.5 4t-8.5 1zM554 549q10 0 20.5 -4t10.5 -19q0 -9 -11.5 -22.5t-35.5 -37.5q-34 -34 -49 -52q-5 -7 -9 -12q-23 -29 -38 -48.5t-30 -40.5q-12 -17 -16.5 -29t-4.5 -31v-166q0 -6 13 -13q13 -8 20 -16.5t7 -24.5 q0 -11 -9 -19.5t-20 -8.5h-192q-11 0 -20.5 7.5t-9.5 15.5q0 23 9 32.5t23 15.5q12 5 12 10v140q0 29 -18 51l-8 10q-11 14 -31 39q-33 41 -47.5 57.5t-29.5 24.5q-9 5 -27 13q-21 8 -30.5 15t-9.5 20q0 17 25 31.5t62.5 26t74.5 17.5t58 6q18 0 24 -9t9 -28q3 -14 5 -20 q8 -21 20.5 -46t34.5 -54q2 -3 8 -11q8 -11 12 -17t4 -8q3 3 8.5 16t12 31.5t10.5 35t4 27.5q0 5 -2 15q-3 15 -3 25q0 17 17 24.5t33 7.5q10 0 24 7t33 11.5t57 4.5zM554 554q-43 0 -63 -5t-33 -12q-10 -6 -18 -6q-16 0 -35 -8.5t-19 -28.5q0 -10 3 -27q1 -9 1 -13 q0 -18 -10 -50.5t-19 -49.5l-2 3q-8 10 -12.5 16t-6.5 9q-21 29 -33.5 53t-20.5 47q-3 6 -5 20q-3 19 -10 29t-28 10q-22 0 -60 -6.5t-76 -18t-63 -27t-25 -33.5q0 -16 11 -24t33 -17q17 -7 25 -11q14 -7 27 -21.5t43 -53.5q22 -27 36 -45l8 -10q18 -21 18 -48v-140 q0 -2 -9 -5q-15 -5 -25 -15.5t-10 -37.5q0 -9 10.5 -18.5t23.5 -9.5h192q13 0 23.5 10.5t10.5 22.5q0 20 -8.5 29.5t-21.5 15.5q-10 5 -10 9v166q0 19 4 30.5t16 26.5q26 34 45.5 60t31.5 41q14 18 47 50q25 26 37 40t12 25q0 18 -12 23t-23 5z" />
<glyph unicode="z" horiz-adv-x="542" d="M219 180l253 323q6 6 6 12t-11 6q-13 0 -21 -2.5t-19 -7.5q-12 -5 -22.5 -8t-27.5 -3h-171q-19 0 -37 3t-36 7q-16 4 -20 4q-13 0 -16 -19q-14 -59 -45 -125q-9 -15 -9 -24q0 -12 10 -12q5 0 18 11q20 15 40 25t52 12q48 2 74 2q23 0 67 -2h2q10 -1 10 -6q0 -4 -6 -12 l-1 -2l-260 -331q-10 -11 -10 -19q0 -3 4 -3q20 0 32 1.5t28 5.5q24 5 44 7q45 4 99 4q67 0 98 -4t53 -10q16 -5 27 -5q8 0 16 8t9 24q3 34 16 67.5t36 83.5q2 3 2 8q0 7 -17 7q-11 0 -18 -5t-17 -15q-15 -16 -31.5 -25.5t-46.5 -11.5q-11 -1 -38 -2t-53 -1q-34 0 -55 2.5 t-21 7.5q0 8 13 24zM233 169l-6 -9q3 3 12.5 3.5t42.5 0.5q27 0 50.5 1.5t39.5 2.5q20 1 31.5 8t25.5 21q13 14 25 21t32 7q13 0 24.5 -5.5t11.5 -20.5q0 -10 -5 -17q-22 -45 -34.5 -78.5t-15.5 -65.5q-1 -22 -15 -35t-28 -13q-15 0 -26 1.5t-26 5.5q-25 6 -51 9t-75 3 q-56 0 -97 -5q-15 -1 -36 -6q-16 -4 -30.5 -6t-39.5 -2q-6 0 -14.5 6.5t-8.5 15.5q0 6 4 14t10 16l253 323q-16 1 -50 1q-25 0 -73 -2q-24 -2 -41.5 -10.5t-36.5 -21.5q-22 -17 -33 -17q-10 0 -19 9.5t-9 21.5q0 11 10 33q32 65 43 120q4 14 14.5 23.5t20.5 9.5q5 0 24 -4 q43 -10 69 -10h171q14 0 31 8q13 7 25.5 10t33.5 3q11 0 20.5 -7t9.5 -17t-9 -22l-1 -1zM490 489q4 4 7.5 11t3.5 15q0 12 -11 20.5t-23 8.5q-25 0 -38.5 -3.5t-26.5 -10.5q-14 -7 -25 -7h-171q-25 0 -67 10q-20 4 -26 4q-12 0 -23.5 -11t-15.5 -26q-13 -57 -43 -119 q-11 -20 -11 -35q0 -13 11 -24t22 -11q12 0 37 18q19 13 35.5 21t38.5 9q48 2 73 2h40l-246 -316q-15 -19 -15 -33q0 -11 9.5 -18.5t17.5 -7.5q27 0 42.5 2t32.5 6q20 5 32 6q43 4 96 4q45 0 70 -3t49 -9q18 -4 29 -5.5t30 -1.5q15 0 30.5 14.5t17.5 38.5q3 31 15 63t34 79 q3 5 4 10t1 9q0 17 -13 23.5t-27 6.5q-22 0 -35 -7.5t-28 -21.5q-12 -13 -22.5 -20t-28.5 -8q-13 -1 -38.5 -2t-51.5 -1h-43z" />
<glyph unicode="&#xa5;" horiz-adv-x="502" d="M-1 0h500v500h-500v-500zM9 10v480h480v-480h-480z" />
<glyph unicode="&#xe01e;" horiz-adv-x="502" d="M-1 0h500v500h-500v-500zM9 10v480h480v-480h-480z" />
<glyph unicode="&#x25ca;" horiz-adv-x="502" d="M-1 0h500v500h-500v-500zM9 10v480h480v-480h-480z" />
<glyph unicode="&#x2260;" horiz-adv-x="502" d="M-1 0h500v500h-500v-500zM9 10v480h480v-480h-480z" />
<glyph unicode="&#x2248;" horiz-adv-x="502" d="M-1 0h500v500h-500v-500zM9 10v480h480v-480h-480z" />
<glyph unicode="&#x222b;" horiz-adv-x="502" d="M-1 0h500v500h-500v-500zM9 10v480h480v-480h-480z" />
<glyph unicode="&#x221e;" horiz-adv-x="502" d="M-1 0h500v500h-500v-500zM9 10v480h480v-480h-480z" />
<glyph unicode="&#x221a;" horiz-adv-x="502" d="M-1 0h500v500h-500v-500zM9 10v480h480v-480h-480z" />
<glyph unicode="&#x2211;" horiz-adv-x="502" d="M-1 0h500v500h-500v-500zM9 10v480h480v-480h-480z" />
<glyph unicode="&#x220f;" horiz-adv-x="502" d="M-1 0h500v500h-500v-500zM9 10v480h480v-480h-480z" />
<glyph unicode="&#x2202;" horiz-adv-x="502" d="M-1 0h500v500h-500v-500zM9 10v480h480v-480h-480z" />
<glyph unicode="&#x2122;" horiz-adv-x="502" d="M-1 0h500v500h-500v-500zM9 10v480h480v-480h-480z" />
<glyph unicode="&#x20ac;" horiz-adv-x="502" d="M-1 0h500v500h-500v-500zM9 10v480h480v-480h-480z" />
<glyph unicode="&#x2044;" horiz-adv-x="502" d="M-1 0h500v500h-500v-500zM9 10v480h480v-480h-480z" />
<glyph unicode="&#x2030;" horiz-adv-x="502" d="M-1 0h500v500h-500v-500zM9 10v480h480v-480h-480z" />
<glyph unicode="&#x2026;" horiz-adv-x="502" d="M-1 0h500v500h-500v-500zM9 10v480h480v-480h-480z" />
<glyph unicode="&#x3c0;" horiz-adv-x="502" d="M-1 0h500v500h-500v-500zM9 10v480h480v-480h-480z" />
<glyph unicode="&#x3a9;" horiz-adv-x="502" d="M-1 0h500v500h-500v-500zM9 10v480h480v-480h-480z" />
<glyph unicode="&#x394;" horiz-adv-x="502" d="M-1 0h500v500h-500v-500zM9 10v480h480v-480h-480z" />
<glyph unicode="&#x192;" horiz-adv-x="502" d="M-1 0h500v500h-500v-500zM9 10v480h480v-480h-480z" />
<glyph unicode="&#x178;" horiz-adv-x="502" d="M-1 0h500v500h-500v-500zM9 10v480h480v-480h-480z" />
<glyph unicode="&#x131;" horiz-adv-x="502" d="M-1 0h500v500h-500v-500zM9 10v480h480v-480h-480z" />
<glyph unicode="&#xff;" horiz-adv-x="502" d="M-1 0h500v500h-500v-500zM9 10v480h480v-480h-480z" />
<glyph unicode="&#xaa;" horiz-adv-x="636" d="M382 445q-5 13 -5 27v24q0 14 -22 14q-14 0 -33 -5.5t-38 -12.5t-36 -15t-21 -10q-1 0 -3 -1q-10 -6 -10 -13q0 -9 18 -27q6 -5 10 -10q-14 -34 -31 -73.5t-35 -77.5q-29 -63 -68 -148l-12 -25q-5 -11 -13 -18t-19 -15q-10 -6 -15 -11t-5 -13q0 -12 13 -12h109 q13 0 13 10q0 9 -4 13t-12 8q-9 4 -14 9.5t-5 16.5q0 12 7 19.5t26 14.5l149 55q8 3 11 3q10 0 14 -10l27 -70q4 -8 4 -13q0 -10 -16 -21q-9 -6 -13.5 -11t-4.5 -13q0 -7 15.5 -9t31.5 -2h185q13 0 13 10q0 15 -9.5 22.5t-28.5 15.5q-22 9 -25 16zM206 208q-5 0 -5 6 q0 3 3 9l3 9l52 111q5 12 10 12q4 0 8 -9l33 -81l1 -4q1 -3 1 -4q0 -8 -11 -13l-80 -31q-12 -5 -15 -5zM547 94q1 -2 11 -4q23 -6 38 -17.5t15 -39.5q0 -12 -10 -20t-21 -8h-185q-7 0 -16 0.5t-21 3.5t-20 9t-8 16q0 23 9.5 32t21.5 12l3 1q-1 2 -3 7l-27 67q0 -1 -1 -1 l-149 -55q-16 -5 -18.5 -7t-2.5 -10q0 -1 5 -2q12 -2 20.5 -10.5t8.5 -34.5q0 -11 -9.5 -19.5t-21.5 -8.5h-109q-13 0 -22.5 9t-9.5 21q0 17 8 26.5t23 18.5q18 11 23 21q13 27 32.5 68t39 82.5t38 83.5t32.5 76l-1 1q-12 11 -18.5 20t-6.5 21t6 18t14 11l2 1q6 3 22.5 10.5 t38 15.5t42 13.5t35.5 5.5t27.5 -8.5t12.5 -23.5v-24q0 -5 3 -17l1 -3zM229 236l63 25l-24 59zM404 453q-5 13 -5 19v24q0 17 -14 27t-30 10q-14 0 -35.5 -5.5t-43 -14t-38 -16t-22.5 -11.5q-7 -1 -16 -10t-9 -23q0 -12 6 -21t17 -20l2 -2q-26 -61 -59 -132.5t-74 -158.5 q-3 -6 -8 -17q-4 -8 -21 -18q-16 -10 -24.5 -19.5t-8.5 -29.5q0 -13 11 -24t25 -11h109q14 0 25 10.5t11 22.5q0 28 -8.5 38t-18.5 10q-5 0 -8 -1q-1 2 -2 5l-1 1l3 1q9 2 18 5l147 54l24 -62l1 -2q0 -1 1 -2q-11 0 -22 -9.5t-11 -36.5q0 -12 9 -19t21.5 -10.5t22.5 -4 t17 -0.5h185q12 0 24 9.5t12 23.5q0 31 -17 43t-39 17q-9 2 -9 3zM268 308l18 -45l-48 -19z" />
<glyph unicode="&#xad;" d="M213 310q-47 0 -83 4q-8 2 -14 2q-2 0 -3 -4t-1 -6q-1 -1 -4 -8q-4 -7 -5 -9q-3 -4 -3 -7q0 -4 6 -4q4 0 7 1q29 4 86 4q28 0 82 -4q2 0 6 -1q2 -1 4 -1q3 0 7 10q1 4 5 12q4 5 5 9q2 4 2 6q0 3 -4 3q-3 0 -10 -2l-2 -1q-25 -4 -81 -4zM213 322q54 0 79 4q1 0 4 1 q6 2 10 2q5 0 10.5 -4.5t5.5 -10.5q0 -3 -2 -9q-1 -1 -1 -2q-2 -4 -6 -10q-4 -7 -4 -9q-6 -19 -18 -19q-4 0 -9 2h-2q-54 4 -81 4q-56 0 -84 -4h-9q-6 0 -12 4.5t-6 10.5q0 3 3 10q0 2 1 3l5 8q3 5 4 7v3q1 5 3.5 9t10.5 6q3 0 10 -1l7 -1q35 -4 81 -4zM213 324q-38 0 -81 5 l-7 1t-10 1q-10 -2 -13 -6.5t-4 -10.5v-2q-3 -7 -8 -16q-5 -5 -5 -14q0 -8 7 -13t14 -5h9q28 4 84 4q27 0 81 -4q4 -2 11 -2q16 0 21 22q1 1 3 4q4 7 7 14l1 4q2 5 2 8q0 7 -7 12.5t-12 5.5q-4 0 -12 -2q-1 -1 -2 -1q-25 -5 -79 -5z" />
<glyph unicode="&#xb2;" horiz-adv-x="576" d="M531 399q0 46 -18.5 79t-52 53t-77.5 29t-97 9q-21 0 -54.5 -4t-69 -15t-60.5 -31t-25 -51q0 -15 18 -32t40 -17q21 0 35 11t30 34q19 25 35 37.5t42 12.5q19 0 32.5 -11t22.5 -29t12.5 -38.5t3.5 -40.5q0 -48 -18 -85.5t-48 -65.5t-63 -48t-86 -47q-30 -16 -47 -25 q-3 -2 -11 -6q-15 -7 -22.5 -13.5t-7.5 -17.5v-47q0 -11 7.5 -14t18.5 -3h424q22 0 22 24v62q0 26 5 69q3 35 3 50q0 13 -3.5 20.5t-12.5 7.5q-11 0 -20 -8.5t-21 -26.5q-17 -25 -33 -38.5t-41 -13.5h-90q-20 0 -20 6q0 4 12 11t25 12q41 20 76.5 40.5t66 45t49 54 t18.5 61.5zM549 399q0 -34 -18.5 -65.5t-48.5 -58t-65 -48t-76 -40.5h53q17 0 28.5 10.5t26.5 32.5t28 33.5t32 11.5t26.5 -15t7.5 -32q0 -16 -4 -53q-4 -42 -4 -66v-62q0 -16 -11.5 -29t-28.5 -13h-424q-15 0 -29.5 6.5t-14.5 28.5v47q0 20 11.5 30.5t30.5 19.5q7 3 8 4 q11 6 45 24q51 26 84 45.5t61 45t45 60t17 79.5q0 41 -12.5 70.5t-39.5 29.5q-17 0 -28.5 -9.5t-26.5 -30.5q-20 -27 -38 -41t-49 -14q-29 0 -53 24t-24 44q0 37 27.5 61t67 36.5t75.5 17t58 4.5q54 0 101 -10t83.5 -32.5t57.5 -58.5t21 -87zM554 399q0 51 -21.5 88.5 t-59 60.5t-85 33.5t-102.5 10.5q-21 0 -58 -4.5t-77.5 -17.5t-68.5 -38.5t-28 -63.5q0 -9 7 -22t18 -24q26 -26 56 -26q33 0 52 14.5t39 42.5q15 19 25.5 28.5t25.5 9.5q24 0 36 -28.5t12 -67.5q0 -44 -16.5 -77.5t-44.5 -59t-60.5 -44.5t-82.5 -45q-35 -18 -46 -24l-8 -4 q-20 -9 -32.5 -20.5t-12.5 -33.5v-47q0 -14 6 -22.5t14 -12t15.5 -4.5t13.5 -1h424q18 0 31.5 15t13.5 32v62q0 22 4 65q4 37 4 54q0 18 -9 34.5t-30 16.5q-11 0 -20 -3q31 29 48 59t17 64zM394 192h-34q52 26 98 59q-6 -7 -16 -21q-14 -19 -24 -28.5t-24 -9.5z" />
<glyph unicode="&#xb3;" horiz-adv-x="520" d="M482 447q0 57 -45.5 89t-114.5 32q-42 0 -88.5 -9t-87 -25.5t-65 -39t-24.5 -47.5q0 -34 16 -46.5t47 -12.5q27 0 40.5 15t26.5 45q11 25 21.5 37.5t29.5 12.5q35 0 52.5 -28t17.5 -70q0 -68 -36.5 -114.5t-98.5 -84.5q-8 -5 -10 -9.5t-2 -12.5q0 -16 20 -16 q63 0 92 -30.5t29 -84.5q0 -109 -63.5 -174t-173.5 -91q-2 -1 -7 -1q-10 -2 -15 -5.5t-5 -12.5t17 -9q6 0 16 2h3q74 18 143 51t124.5 79.5t88 105.5t32.5 126q0 56 -24.5 89t-71.5 45h-1q-18 5 -18 10q0 9 8.5 16.5t29.5 20.5q22 13 36.5 23.5t28.5 27.5t23 41t9 55z M501 447q0 -40 -11 -69t-27.5 -47t-33.5 -28.5t-38 -21.5q-15 -7 -19 -10q51 -13 80 -52t29 -100q0 -70 -34 -132.5t-92 -111.5t-129.5 -83t-146.5 -52q-11 -4 -24 -4t-24.5 8t-11.5 20q0 21 10.5 27.5t26.5 8.5q4 1 5 1q106 25 164 84.5t58 162.5q0 49 -23 72.5t-78 23.5 q-13 0 -26.5 9.5t-13.5 25.5q0 11 4 20.5t18 17.5q59 36 92 78t33 105q0 38 -12 58.5t-39 20.5q-10 0 -16 -8.5t-13 -27.5q-13 -35 -31 -54.5t-58 -19.5q-35 0 -58.5 18t-23.5 60q0 30 27 56t70.5 45t93 29t93.5 10q74 0 126.5 -37.5t52.5 -102.5zM506 447q0 67 -54.5 106 t-129.5 39q-44 0 -94.5 -10t-95 -29.5t-72 -46.5t-27.5 -59q0 -43 25.5 -63t61.5 -20q24 0 40.5 7t26.5 18.5t15.5 23t11.5 28.5t11 25t13 8q25 0 36 -18.5t11 -55.5q0 -61 -32 -102t-92 -77q-16 -10 -20 -20.5t-4 -21.5q0 -18 15 -29t30 -11q54 0 75 -22t21 -69 q0 -101 -56.5 -159t-161.5 -83q-1 0 -5 -1q-17 -2 -29 -10t-12 -31q0 -14 13.5 -23.5t27.5 -9.5q15 0 24 4q75 17 147.5 51.5t131.5 84.5t93.5 113.5t34.5 134.5q0 59 -27 98t-75 55q4 2 9 5q22 10 39 20.5t34 29.5t28.5 49t11.5 71z" />
<glyph unicode="&#xb9;" horiz-adv-x="386" d="M273 570q-21 0 -43.5 -9.5t-56.5 -27.5q-35 -18 -59 -28t-46 -10q-30 0 -30 -18q0 -9 27 -28q18 -14 28.5 -25t10.5 -24v-287q0 -18 -9 -27.5t-26 -18.5q-16 -8 -23.5 -15.5t-7.5 -20.5q0 -8 18 -8h276q16 0 16 15q0 9 -5.5 14.5t-17.5 13.5q-17 10 -26 20t-9 29v443 q0 6 -5.5 9t-11.5 3zM273 588q10 0 22.5 -7t12.5 -23v-443q0 -9 5.5 -14.5t18.5 -13.5q16 -10 25 -20t9 -29q0 -13 -10 -23t-24 -10h-276q-13 0 -24.5 7.5t-11.5 18.5q0 25 11 37t31 22q12 6 17.5 10.5t5.5 12.5v287q0 9 -27 30q-18 13 -28 24t-10 23q0 19 14 28t34 9 q19 0 40 8.5t53 25.5q37 20 62 30t50 10zM273 593q-26 0 -51.5 -10.5t-63.5 -30.5q-33 -18 -52.5 -26t-37.5 -8q-22 0 -37.5 -10t-15.5 -31q0 -14 11 -25.5t30 -25.5q24 -18 24 -26v-287q0 -9 -20 -18q-21 -9 -33 -22t-12 -42q0 -13 13.5 -22t27.5 -9h276q16 0 27.5 11.5 t11.5 26.5q0 21 -9.5 32t-27.5 22q-11 6 -16 11t-5 12v443q0 18 -14.5 26.5t-25.5 8.5z" />
<glyph unicode="&#xba;" horiz-adv-x="584" d="M308 510q-25 0 -58 -12.5t-40 -23.5q-8 -11 -11.5 -14t-8.5 -3q-23 0 -48.5 -15.5t-48.5 -44.5t-37.5 -67.5t-14.5 -82.5q0 -50 17 -93.5t49 -76t75.5 -50.5t94.5 -18t99 19.5t86 55t60 81t22 96.5t-17.5 96.5t-49.5 80t-75.5 53.5t-93.5 19zM376 401q54 0 83.5 -40 t29.5 -100t-41 -97.5t-119 -37.5q-38 0 -71 18.5t-56 47.5t-35.5 62.5t-12.5 63.5q0 28 4.5 51.5t18.5 23.5q1 0 2 -9q2 -12 5.5 -24.5t12 -26t24 -23.5t39.5 -13q24 0 46 8.5t23 24.5q0 5 -12 9q-11 3 -17.5 8.5t-6.5 18.5q0 11 10 18t24 10.5t27 5t22 1.5zM308 528 q53 0 100 -21t81.5 -58t53.5 -85.5t19 -102.5q0 -53 -23.5 -102.5t-64 -87t-92 -59t-105.5 -21.5t-100.5 19.5t-81 54.5t-53.5 82t-19 100q0 46 16 88t41.5 73.5t55 49t54.5 17.5h-1q0 1 6 9q4 7 16.5 15t29.5 14.5t35 10.5t32 4zM376 383q-20 0 -42.5 -4t-22.5 -13 q0 -3 9 -4q12 -3 19.5 -9t7.5 -23q-1 -14 -10 -24t-23.5 -16.5t-29.5 -9t-26 -2.5q-37 4 -58 19.5t-28 35.5v-15q0 -28 11 -58.5t32 -56.5t50 -42t64 -16q72 0 107 30.5t35 85.5t-24 88.5t-71 33.5zM308 533q-15 0 -33 -4.5t-35.5 -11.5t-31 -15t-17.5 -15l-4 -6l-2 -3 q-26 -1 -55 -19.5t-55 -50.5t-41.5 -73.5t-15.5 -87.5q0 -54 19.5 -101.5t54.5 -83.5t82.5 -56t102.5 -20q54 0 106.5 22t94 60.5t65.5 88.5t24 104t-19.5 103.5t-55 88t-83 59.5t-101.5 21zM376 378q45 0 67.5 -31.5t22.5 -85.5q0 -53 -33.5 -82.5t-103.5 -29.5 q-33 0 -61 15t-48.5 40t-31 54t-11.5 56q11 -16 31 -26.5t49 -13.5q12 0 28 3t31 9.5t25 17.5t11 26q0 23 -10 29t-23 7h-3q0 6 21 9t39 3z" />
<glyph unicode="&#xbc;" horiz-adv-x="1494" d="M949 20h183q12 0 12 -15v-46q0 -20 -9.5 -31t-27.5 -23q-13 -8 -19.5 -15t-6.5 -17q0 -22 14 -22h272q20 0 20 22q0 13 -8 20t-24 14q-19 9 -28.5 18.5t-9.5 27.5v51q0 8 2.5 11.5t13.5 3.5q41 0 59.5 -13t30.5 -32q8 -13 13 -13q16 0 16 28v151q-3 14 -16 14h-115 q-10 0 -10 13v5q6 69 6 215v166q0 7 -4.5 12.5t-10.5 5.5q-2 0 -6 -1l-2 -1q-17 -8 -56 -28q-58 -30 -99.5 -46t-90.5 -21q-28 -3 -30 -20q0 -14 21 -14q7 0 14 7q8 7 17 7q6 0 6 -4q0 -2 -4 -8t-5 -9q-33 -112 -65 -206.5t-69 -181.5q-3 -6 -3 -10q0 -15 19 -15zM1153 172 q0 -18 -17 -18h-41q-27 0 -37 11t-10 48q0 13 7.5 50t19 76.5t23.5 67t21 27.5q7 0 13 -18.5t10.5 -46t7.5 -55.5t3 -45v-97zM949 1q-17 0 -27.5 11t-10.5 23q0 10 5 17q34 81 63 166.5t65 202.5h-5q-13 0 -26 9.5t-13 25.5q1 15 15 25t31 12q47 5 87 20t97 45q41 20 58 28 q6 3 14 3q13 0 23.5 -11.5t10.5 -24.5v-166q0 -146 -6 -214h106q13 0 22.5 -9.5t12.5 -21.5v-153q0 -17 -9.5 -31.5t-25.5 -14.5q-10 0 -17 5t-17 17q-13 16 -27 25t-39 10v-47q0 -8 6 -12.5t19 -9.5q21 -10 33 -21.5t12 -36.5q0 -16 -10.5 -28t-28.5 -12h-272 q-15 0 -24 12.5t-9 27.5q0 19 9.5 30.5t27.5 23.5q13 8 19.5 15t6.5 17v42h-176zM1067 213q0 -30 3.5 -35t24.5 -5h39v96q0 15 -2 41t-4.5 49t-5 40t-3.5 17q-4 0 -12.5 -25.5t-17.5 -63t-15.5 -70t-6.5 -44.5zM949 -4h172v-37q0 -8 -6 -14t-18 -14q-19 -12 -29 -24t-10 -34 q0 -16 10 -30.5t27 -14.5h272q20 0 32 13.5t12 31.5q0 29 -13 41.5t-36 21.5q-11 4 -16.5 7.5t-5.5 9.5v42q21 -2 33 -10.5t25 -23.5q10 -12 18 -17.5t20 -5.5q18 0 28.5 16.5t10.5 34.5v153q-2 13 -13.5 24t-25.5 11h-101q5 68 5 210v166q0 14 -12 27.5t-26 13.5 q-10 0 -16 -3q-19 -9 -55 -27q-58 -30 -98.5 -46t-87.5 -21q-18 -2 -33.5 -13.5t-16.5 -27.5q0 -17 14 -27.5t28 -11.5q-68 -225 -125 -363q-2 -2 -3.5 -8t-1.5 -11q0 -13 12 -26t30 -13zM1072 213q0 12 6.5 45t14.5 67t15.5 60t10.5 26q0 -5 3 -43q4 -41 5.5 -62.5 t1.5 -36.5v-92h-34q-2 0 -9 -1t-9 -1q-5 0 -5 10v9v19zM385 0h500v500h-500v-500zM395 10v480h480v-480h-480zM273 570q-21 0 -43.5 -9.5t-56.5 -27.5q-35 -18 -59 -28t-46 -10q-30 0 -30 -18q0 -9 27 -28q18 -14 28.5 -25t10.5 -24v-287q0 -18 -9 -27.5t-26 -18.5 q-16 -8 -23.5 -15.5t-7.5 -20.5q0 -8 18 -8h276q16 0 16 15q0 9 -5.5 14.5t-17.5 13.5q-17 10 -26 20t-9 29v443q0 6 -5.5 9t-11.5 3zM273 588q10 0 22.5 -7t12.5 -23v-443q0 -9 5.5 -14.5t18.5 -13.5q16 -10 25 -20t9 -29q0 -13 -10 -23t-24 -10h-276q-13 0 -24.5 7.5 t-11.5 18.5q0 25 11 37t31 22q12 6 17.5 10.5t5.5 12.5v287q0 9 -27 30q-18 13 -28 24t-10 23q0 19 14 28t34 9q19 0 40 8.5t53 25.5q37 20 62 30t50 10zM273 593q-26 0 -51.5 -10.5t-63.5 -30.5q-33 -18 -52.5 -26t-37.5 -8q-22 0 -37.5 -10t-15.5 -31q0 -14 11 -25.5 t30 -25.5q24 -18 24 -26v-287q0 -9 -20 -18q-21 -9 -33 -22t-12 -42q0 -13 13.5 -22t27.5 -9h276q16 0 27.5 11.5t11.5 26.5q0 21 -9.5 32t-27.5 22q-11 6 -16 11t-5 12v443q0 18 -14.5 26.5t-25.5 8.5z" />
<glyph unicode="&#xbd;" horiz-adv-x="1464" d="M1419 399q0 46 -18.5 79t-52 53t-77.5 29t-97 9q-21 0 -54.5 -4t-69 -15t-60.5 -31t-25 -51q0 -15 18 -32t40 -17q21 0 35 11t30 34q19 25 35 37.5t42 12.5q19 0 32.5 -11t22.5 -29t12.5 -38.5t3.5 -40.5q0 -48 -18 -85.5t-48 -65.5t-63 -48t-86 -47q-30 -16 -47 -25 q-3 -2 -11 -6q-15 -7 -22.5 -13.5t-7.5 -17.5v-47q0 -11 7.5 -14t18.5 -3h424q22 0 22 24v62q0 26 5 69q3 35 3 50q0 13 -3.5 20.5t-12.5 7.5q-11 0 -20 -8.5t-21 -26.5q-17 -25 -33 -38.5t-41 -13.5h-90q-20 0 -20 6q0 4 12 11t25 12q41 20 76.5 40.5t66 45t49 54 t18.5 61.5zM1437 399q0 -34 -18.5 -65.5t-48.5 -58t-65 -48t-76 -40.5h53q17 0 28.5 10.5t26.5 32.5t28 33.5t32 11.5t26.5 -15t7.5 -32q0 -16 -4 -53q-4 -42 -4 -66v-62q0 -16 -11.5 -29t-28.5 -13h-424q-15 0 -29.5 6.5t-14.5 28.5v47q0 20 11.5 30.5t30.5 19.5q7 3 8 4 q11 6 45 24q51 26 84 45.5t61 45t45 60t17 79.5q0 41 -12.5 70.5t-39.5 29.5q-17 0 -28.5 -9.5t-26.5 -30.5q-20 -27 -38 -41t-49 -14q-29 0 -53 24t-24 44q0 37 27.5 61t67 36.5t75.5 17t58 4.5q54 0 101 -10t83.5 -32.5t57.5 -58.5t21 -87zM1442 399q0 51 -21.5 88.5 t-59 60.5t-85 33.5t-102.5 10.5q-21 0 -58 -4.5t-77.5 -17.5t-68.5 -38.5t-28 -63.5q0 -9 7 -22t18 -24q26 -26 56 -26q33 0 52 14.5t39 42.5q15 19 25.5 28.5t25.5 9.5q24 0 36 -28.5t12 -67.5q0 -44 -16.5 -77.5t-44.5 -59t-60.5 -44.5t-82.5 -45q-35 -18 -46 -24l-8 -4 q-20 -9 -32.5 -20.5t-12.5 -33.5v-47q0 -14 6 -22.5t14 -12t15.5 -4.5t13.5 -1h424q18 0 31.5 15t13.5 32v62q0 22 4 65q4 37 4 54q0 18 -9 34.5t-30 16.5q-11 0 -20 -3q31 29 48 59t17 64zM1282 192h-34q52 26 98 59q-6 -7 -16 -21q-14 -19 -24 -28.5t-24 -9.5zM385 0h500 v500h-500v-500zM395 10v480h480v-480h-480zM273 570q-21 0 -43.5 -9.5t-56.5 -27.5q-35 -18 -59 -28t-46 -10q-30 0 -30 -18q0 -9 27 -28q18 -14 28.5 -25t10.5 -24v-287q0 -18 -9 -27.5t-26 -18.5q-16 -8 -23.5 -15.5t-7.5 -20.5q0 -8 18 -8h276q16 0 16 15q0 9 -5.5 14.5 t-17.5 13.5q-17 10 -26 20t-9 29v443q0 6 -5.5 9t-11.5 3zM273 588q10 0 22.5 -7t12.5 -23v-443q0 -9 5.5 -14.5t18.5 -13.5q16 -10 25 -20t9 -29q0 -13 -10 -23t-24 -10h-276q-13 0 -24.5 7.5t-11.5 18.5q0 25 11 37t31 22q12 6 17.5 10.5t5.5 12.5v287q0 9 -27 30 q-18 13 -28 24t-10 23q0 19 14 28t34 9q19 0 40 8.5t53 25.5q37 20 62 30t50 10zM273 593q-26 0 -51.5 -10.5t-63.5 -30.5q-33 -18 -52.5 -26t-37.5 -8q-22 0 -37.5 -10t-15.5 -31q0 -14 11 -25.5t30 -25.5q24 -18 24 -26v-287q0 -9 -20 -18q-21 -9 -33 -22t-12 -42 q0 -13 13.5 -22t27.5 -9h276q16 0 27.5 11.5t11.5 26.5q0 21 -9.5 32t-27.5 22q-11 6 -16 11t-5 12v443q0 18 -14.5 26.5t-25.5 8.5z" />
<glyph unicode="&#xbe;" horiz-adv-x="1628" d="M1083 20h183q12 0 12 -15v-46q0 -20 -9.5 -31t-27.5 -23q-13 -8 -19.5 -15t-6.5 -17q0 -22 14 -22h272q20 0 20 22q0 13 -8 20t-24 14q-19 9 -28.5 18.5t-9.5 27.5v51q0 8 2.5 11.5t13.5 3.5q41 0 59.5 -13t30.5 -32q8 -13 13 -13q16 0 16 28v151q-3 14 -16 14h-115 q-10 0 -10 13v5q6 69 6 215v166q0 7 -4.5 12.5t-10.5 5.5q-2 0 -6 -1l-2 -1q-17 -8 -56 -28q-58 -30 -99.5 -46t-90.5 -21q-28 -3 -30 -20q0 -14 21 -14q7 0 14 7q8 7 17 7q6 0 6 -4q0 -2 -4 -8t-5 -9q-33 -112 -65 -206.5t-69 -181.5q-3 -6 -3 -10q0 -15 19 -15zM1287 172 q0 -18 -17 -18h-41q-27 0 -37 11t-10 48q0 13 7.5 50t19 76.5t23.5 67t21 27.5q7 0 13 -18.5t10.5 -46t7.5 -55.5t3 -45v-97zM1083 1q-17 0 -27.5 11t-10.5 23q0 10 5 17q34 81 63 166.5t65 202.5h-5q-13 0 -26 9.5t-13 25.5q1 15 15 25t31 12q47 5 87 20t97 45q41 20 58 28 q6 3 14 3q13 0 23.5 -11.5t10.5 -24.5v-166q0 -146 -6 -214h106q13 0 22.5 -9.5t12.5 -21.5v-153q0 -17 -9.5 -31.5t-25.5 -14.5q-10 0 -17 5t-17 17q-13 16 -27 25t-39 10v-47q0 -8 6 -12.5t19 -9.5q21 -10 33 -21.5t12 -36.5q0 -16 -10.5 -28t-28.5 -12h-272 q-15 0 -24 12.5t-9 27.5q0 19 9.5 30.5t27.5 23.5q13 8 19.5 15t6.5 17v42h-176zM1201 213q0 -30 3.5 -35t24.5 -5h39v96q0 15 -2 41t-4.5 49t-5 40t-3.5 17q-4 0 -12.5 -25.5t-17.5 -63t-15.5 -70t-6.5 -44.5zM1083 -4h172v-37q0 -8 -6 -14t-18 -14q-19 -12 -29 -24 t-10 -34q0 -16 10 -30.5t27 -14.5h272q20 0 32 13.5t12 31.5q0 29 -13 41.5t-36 21.5q-11 4 -16.5 7.5t-5.5 9.5v42q21 -2 33 -10.5t25 -23.5q10 -12 18 -17.5t20 -5.5q18 0 28.5 16.5t10.5 34.5v153q-2 13 -13.5 24t-25.5 11h-101q5 68 5 210v166q0 14 -12 27.5t-26 13.5 q-10 0 -16 -3q-19 -9 -55 -27q-58 -30 -98.5 -46t-87.5 -21q-18 -2 -33.5 -13.5t-16.5 -27.5q0 -17 14 -27.5t28 -11.5q-68 -225 -125 -363q-2 -2 -3.5 -8t-1.5 -11q0 -13 12 -26t30 -13zM1206 213q0 12 6.5 45t14.5 67t15.5 60t10.5 26q0 -5 3 -43q4 -41 5.5 -62.5 t1.5 -36.5v-92h-34q-2 0 -9 -1t-9 -1q-5 0 -5 10v9v19zM519 0h500v500h-500v-500zM529 10v480h480v-480h-480zM482 447q0 57 -45.5 89t-114.5 32q-42 0 -88.5 -9t-87 -25.5t-65 -39t-24.5 -47.5q0 -34 16 -46.5t47 -12.5q27 0 40.5 15t26.5 45q11 25 21.5 37.5t29.5 12.5 q35 0 52.5 -28t17.5 -70q0 -68 -36.5 -114.5t-98.5 -84.5q-8 -5 -10 -9.5t-2 -12.5q0 -16 20 -16q63 0 92 -30.5t29 -84.5q0 -109 -63.5 -174t-173.5 -91q-2 -1 -7 -1q-10 -2 -15 -5.5t-5 -12.5t17 -9q6 0 16 2h3q74 18 143 51t124.5 79.5t88 105.5t32.5 126q0 56 -24.5 89 t-71.5 45h-1q-18 5 -18 10q0 9 8.5 16.5t29.5 20.5q22 13 36.5 23.5t28.5 27.5t23 41t9 55zM501 447q0 -40 -11 -69t-27.5 -47t-33.5 -28.5t-38 -21.5q-15 -7 -19 -10q51 -13 80 -52t29 -100q0 -70 -34 -132.5t-92 -111.5t-129.5 -83t-146.5 -52q-11 -4 -24 -4t-24.5 8 t-11.5 20q0 21 10.5 27.5t26.5 8.5q4 1 5 1q106 25 164 84.5t58 162.5q0 49 -23 72.5t-78 23.5q-13 0 -26.5 9.5t-13.5 25.5q0 11 4 20.5t18 17.5q59 36 92 78t33 105q0 38 -12 58.5t-39 20.5q-10 0 -16 -8.5t-13 -27.5q-13 -35 -31 -54.5t-58 -19.5q-35 0 -58.5 18 t-23.5 60q0 30 27 56t70.5 45t93 29t93.5 10q74 0 126.5 -37.5t52.5 -102.5zM506 447q0 67 -54.5 106t-129.5 39q-44 0 -94.5 -10t-95 -29.5t-72 -46.5t-27.5 -59q0 -43 25.5 -63t61.5 -20q24 0 40.5 7t26.5 18.5t15.5 23t11.5 28.5t11 25t13 8q25 0 36 -18.5t11 -55.5 q0 -61 -32 -102t-92 -77q-16 -10 -20 -20.5t-4 -21.5q0 -18 15 -29t30 -11q54 0 75 -22t21 -69q0 -101 -56.5 -159t-161.5 -83q-1 0 -5 -1q-17 -2 -29 -10t-12 -31q0 -14 13.5 -23.5t27.5 -9.5q15 0 24 4q75 17 147.5 51.5t131.5 84.5t93.5 113.5t34.5 134.5q0 59 -27 98 t-75 55q4 2 9 5q22 10 39 20.5t34 29.5t28.5 49t11.5 71z" />
<glyph unicode="&#xc0;" horiz-adv-x="909" d="M509 842q16 0 16 17q0 14 -10 33h1l-56 87q-6 9 -9 9q-1 0 -3 -2l-2 -2q-7 -13 -23 -13q-21 2 -37 13q-4 4 -8 4q0 -3 7 -14l53 -82h1q16 -21 36 -35.5t34 -14.5zM509 826q-16 0 -37.5 14.5t-39.5 35.5h-3l-58 89v1q-7 13 -7 22q0 11 11 16q12 0 20 -7q12 -8 30 -10h2h1 q2 0 4 3l2 2q1 4 5.5 8t11.5 4q6 0 12 -4.5t10 -11.5l72 -112h-7q3 -9 3 -17q0 -13 -9.5 -23t-22.5 -10zM509 822q14 0 25 11.5t11 25.5q0 9 -1 13h8l-76 118q-4 7 -11 12.5t-14 5.5q-8 0 -13 -4.5t-7 -8.5l-1 -1v-1q0 -1 1 -2v-1q-1 0 -3 1h-2q-15 0 -29 9q-11 8 -23 8 q-14 -7 -14 -20q0 -9 7 -23l1 -2l59 -91h4q18 -21 40 -35.5t38 -14.5zM549 643q-10 24 -10 39q0 3 1 17v19q0 21 -31 21q-19 0 -47 -7.5t-57.5 -19t-53 -22t-31.5 -15.5l-3 -2q-16 -9 -16 -19q0 -8 5.5 -15.5t17.5 -19.5q13 -12 19 -19q-21 -52 -47.5 -112t-55 -122 t-57.5 -124t-55 -116q-8 -18 -19.5 -28t-28.5 -21q-15 -10 -22 -17t-7 -19q0 -18 21 -18h160q18 0 18 15q0 13 -5.5 19t-17.5 12q-13 7 -20 14.5t-7 24.5t10 28.5t38 21.5l218 80q11 4 16 4q14 0 20 -15l41 -101q0 -1 1 -1q4 -12 4 -18q0 -10 -5.5 -16.5t-17.5 -14.5 q-13 -9 -19.5 -16.5t-6.5 -20.5q0 -6 8.5 -9t20.5 -4.5t21 -2t18 -0.5h272q19 0 19 15q0 23 -14 34t-42 22q-17 6 -25.5 11t-11.5 12zM290 296q-8 0 -8 7q0 4 7 18q2 4 4 9l74 163q8 18 15 18q6 0 12 -15l48 -118q3 -7 3 -12q0 -12 -16 -18l-117 -46q-15 -6 -22 -6zM782 125 q2 -5 23 -11q32 -10 51.5 -25.5t19.5 -50.5q0 -15 -11.5 -24t-25.5 -9h-272q-10 0 -22.5 0.5t-27.5 4t-26 10.5t-11 19q0 25 10.5 37t26.5 20q12 7 12 11q0 3 -3 10l-1 2l-41 102v1l-1 1h1h-2q-3 0 -9 -2l-219 -81q-25 -9 -30.5 -14t-5.5 -18q0 -8 15 -14q17 -6 26.5 -17 t9.5 -39q0 -12 -10.5 -22.5t-26.5 -10.5h-160q-16 0 -27.5 10.5t-11.5 25.5q0 21 10 32.5t30 24.5q15 9 24 16.5t14 19.5q24 51 50.5 106.5t57 121t57.5 126.5t46 108l-9 9q-15 14 -23 25t-8 24q0 14 7 21.5t18 13.5l3 2q8 5 32 16t55 22.5t61 19.5t51 8q20 0 35 -10t15 -29 v-20q-1 -14 -1 -16q0 -14 9 -33zM309 323v-2l113 45q2 1 4 1q0 2 -2 5l-43 107zM571 651q-8 18 -8 31q0 2 1 16v20q0 21 -17.5 32.5t-37.5 11.5q-21 0 -52 -8t-61.5 -20t-55 -23.5t-32.5 -16.5q-11 -4 -20.5 -13t-9.5 -27q0 -15 8 -26t23 -26l7 -7q-22 -53 -48.5 -112.5 t-57 -126t-58 -125t-45.5 -95.5q-5 -10 -13.5 -17t-22.5 -16q-21 -14 -32 -26.5t-11 -35.5q0 -16 13.5 -28.5t30.5 -12.5h160q17 0 29.5 12t12.5 26q0 33 -11 45t-28 17q-12 3 -12 8q0 11 4.5 15t28.5 12l219 81q1 2 2 3q0 2 1 2l1 -1v-1l42 -102q1 -3 2 -7q1 -2 1 -3 q0 -2 -8 -6q-17 -7 -28.5 -20t-11.5 -42q0 -13 11.5 -21.5t27.5 -12t29 -4.5t23 -1h272q15 0 28.5 10.5t13.5 27.5q0 20 -7 34.5t-18.5 23t-22 13t-26.5 9.5q-19 5 -20 9zM381 466l39 -95l-101 -41z" />
<glyph unicode="&#xc8;" horiz-adv-x="727" d="M602 848q16 0 16 17q0 14 -10 33h1l-56 87q-6 9 -9 9q-1 0 -3 -2l-2 -2q-7 -13 -23 -13q-21 2 -37 13q-4 4 -8 4q0 -3 7 -14l53 -82h1q16 -21 36 -35.5t34 -14.5zM602 832q-16 0 -37.5 14.5t-39.5 35.5h-3l-58 89v1q-7 13 -7 22q0 11 11 16q12 0 20 -7q12 -8 30 -10h2h1 q2 0 4 3l2 2q1 4 5.5 8t11.5 4q6 0 12 -4.5t10 -11.5l72 -112h-7q3 -9 3 -17q0 -13 -9.5 -23t-22.5 -10zM602 828q14 0 25 11.5t11 25.5q0 9 -1 13h8l-76 118q-4 7 -11 12.5t-14 5.5q-8 0 -13 -4.5t-7 -8.5l-1 -1v-1q0 -1 1 -2v-1q-1 0 -3 1h-2q-15 0 -29 9q-11 8 -23 8 q-14 -7 -14 -20q0 -9 7 -23l1 -2l59 -91h4q18 -21 40 -35.5t38 -14.5zM384 361q19 0 30 -10.5t22 -28.5q8 -13 13 -19t13 -6q7 0 15 10t22 31q13 20 20 29q8 10 23 24q11 11 16 17.5t5 15.5q0 25 -34 48t-83 23q-25 0 -44 -7.5t-32.5 -19.5t-21 -24t-16.5 -28 q-13 -24 -19 -24q-9 0 -11 5t-2 19v222q0 22 7.5 29t30.5 7q52 0 100 -17.5t92 -49.5q14 -10 27 -25t32 -40q21 -27 34 -40t23 -13q19 0 19 19q0 12 -6 34q-5 17 -9.5 36.5t-9.5 50.5l-3 18q-7 50 -14 74t-21 24q-11 0 -28 -10q-13 -7 -23 -10.5t-26 -3.5h-464 q-16 0 -16 -17q0 -9 6.5 -14.5t20.5 -12.5q18 -10 28 -19.5t10 -28.5v-515q0 -18 -9 -27.5t-26 -19.5q-15 -8 -22.5 -15t-7.5 -21q0 -9 16 -9h282q27 0 65.5 -0.5t62.5 -1.5t54 -2t49 -3q18 -1 34 -10q4 -2 5 -2q15 0 22 21.5t15 69.5q3 19 6 37q2 13 11 36q7 18 10.5 31.5 t3.5 31.5q0 19 -2.5 27t-13.5 8q-8 0 -26 -27q-13 -20 -26 -36.5t-31 -32.5q-23 -20 -53.5 -39t-64.5 -33.5t-70 -22.5t-68 -8q-16 0 -21 10.5t-5 39.5v175q0 14 3.5 23t14.5 19q16 13 31.5 20.5t34.5 7.5zM384 342q-16 0 -28 -5.5t-26 -17.5q-7 -7 -9 -12t-2 -16v-175 q0 -23 1 -27.5t6 -4.5q61 0 129 29t115 70q20 18 48 58q16 23 25.5 33t21.5 10q23 0 29 -15t6 -39q0 -23 -4 -39t-12 -34q-8 -19 -10 -29q-3 -15 -4 -27q-10 -57 -21 -87t-36 -30q-6 0 -17 5q-14 6 -24 7q-19 2 -48.5 3t-53 2t-62 1.5t-65.5 0.5h-282q-13 0 -24 8.5 t-11 19.5q0 26 11 38t31 21q12 6 17.5 11t5.5 13v515q0 9 -6 14t-20 12q-18 9 -28.5 19t-10.5 30q0 13 10.5 24.5t24.5 11.5h464q14 0 34 11q11 5 20.5 8.5t22.5 3.5q25 0 35.5 -30.5t19.5 -87.5l2 -13q4 -25 8 -42.5t9 -35.5q5 -17 6.5 -25t1.5 -21q0 -16 -11 -27t-27 -11 t-33 17t-43 50q-34 44 -50 55q-43 31 -87.5 47t-94.5 16q-13 0 -16 -2.5t-3 -14.5v-211q4 13 12 27.5t22.5 28t37.5 22.5t55 9q27 0 52 -8t44 -22t29.5 -30t10.5 -30q0 -15 -7 -25t-22 -24q-14 -13 -19 -19q-6 -8 -16 -23q-17 -27 -29.5 -41t-26.5 -14q-17 0 -26.5 9.5 t-20.5 26.5q-8 15 -14.5 21.5t-16.5 6.5zM384 337q8 0 13 -6t13 -18q10 -19 21.5 -29.5t30.5 -10.5q15 0 28 14.5t31 40.5q11 17 17 25q5 6 18 18q15 14 23 25.5t8 27.5t-11 32.5t-30.5 31t-45.5 23t-54 8.5q-49 0 -78 -19.5t-44 -48.5v187q0 6 -2 14l-1 1q5 -3 17 -3 q50 0 93.5 -16t85.5 -46q16 -11 48 -53q27 -35 45 -52.5t36 -17.5q17 0 29.5 13t12.5 30q0 13 -2 23.5t-6 25.5q-10 39 -16 76l-2 13q-4 29 -8 48t-10 36t-16.5 27.5t-25.5 10.5t-24.5 -3.5t-21.5 -9.5q-19 -10 -31 -10h-464q-16 0 -27.5 -13t-11.5 -28q0 -23 11.5 -34.5 t31.5 -20.5q11 -6 16.5 -10t5.5 -10v-515q0 -9 -20 -18q-21 -10 -33 -23t-12 -42q0 -12 12 -22t27 -10h282q22 0 57 -0.5t62 -1.5t59.5 -3t50.5 -3q9 -1 21 -6q13 -6 20 -6q15 0 25.5 10.5t17 27.5t10.5 35t9 49q3 18 4 26q2 10 9 28q8 19 12 35t4 40q0 25 -7 41.5t-32 16.5 q-14 0 -25 -11t-27 -35q-27 -39 -46 -55q-47 -41 -113.5 -69.5t-127.5 -28.5q-2 0 -3 -1q1 6 1 28v175q0 11 1 14t8 10q14 11 25 16.5t26 5.5z" />
<glyph unicode="&#xcc;" horiz-adv-x="390" d="M196 842q16 0 16 17q0 14 -10 33h1l-56 87q-6 9 -9 9q-1 0 -3 -2l-2 -2q-7 -13 -23 -13q-21 2 -37 13q-4 4 -8 4q0 -3 7 -14l53 -82h1q16 -21 36 -35.5t34 -14.5zM196 826q-16 0 -37.5 14.5t-39.5 35.5h-3l-58 89v1q-7 13 -7 22q0 11 11 16q12 0 20 -7q12 -8 30 -10h2h1 q2 0 4 3l2 2q1 4 5.5 8t11.5 4q6 0 12 -4.5t10 -11.5l72 -112h-7q3 -9 3 -17q0 -13 -9.5 -23t-22.5 -10zM196 822q14 0 25 11.5t11 25.5q0 9 -1 13h8l-76 118q-4 7 -11 12.5t-14 5.5q-8 0 -13 -4.5t-7 -8.5l-1 -1v-1q0 -1 1 -2v-1q-1 0 -3 1h-2q-15 0 -29 9q-11 8 -23 8 q-14 -7 -14 -20q0 -9 7 -23l1 -2l59 -91h4q18 -21 40 -35.5t38 -14.5zM290 581v56q0 16 9 24t26 15q15 7 22 13t7 17q0 14 -13 14h-289q-16 0 -16 -17q0 -9 6.5 -15t20.5 -13q18 -9 27.5 -18.5t9.5 -28.5v-49v-408v-56q0 -18 -9 -27.5t-26 -19.5q-15 -8 -22 -15t-7 -21 q0 -9 16 -9h281q16 0 16 15q0 9 -6 15t-18 14q-17 11 -26 21.5t-9 28.5v54v410zM308 117q0 -9 6 -15t18 -14q17 -10 26 -20.5t9 -29.5q0 -13 -10 -23t-24 -10h-281q-13 0 -24 8.5t-11 18.5q0 26 11 38t31 21q12 6 17.5 11t5.5 13v513q0 9 -6 14t-20 12q-18 9 -28.5 19 t-10.5 30q0 13 10 24t25 11h289q13 0 22.5 -11t9.5 -21q0 -24 -11.5 -34.5t-32.5 -17.5q-10 -4 -15.5 -7.5t-5.5 -9.5v-520zM313 117v520q0 6 17 11q22 7 35 18.5t13 39.5q0 12 -11 24.5t-26 12.5h-289q-17 0 -28.5 -12.5t-11.5 -27.5q0 -23 11.5 -34.5t31.5 -20.5 q11 -6 16.5 -10t5.5 -10v-513q0 -9 -20 -18q-21 -10 -33 -23t-12 -42q0 -12 12.5 -22t27.5 -10h281q15 0 27 12t12 26q0 22 -10 33.5t-28 22.5q-11 6 -16 11t-5 12z" />
<glyph unicode="&#xd2;" horiz-adv-x="835" d="M440 842q16 0 16 17q0 14 -10 33h1l-56 87q-6 9 -9 9q-1 0 -3 -2l-2 -2q-7 -13 -23 -13q-21 2 -37 13q-4 4 -8 4q0 -3 7 -14l53 -82h1q16 -21 36 -35.5t34 -14.5zM440 826q-16 0 -37.5 14.5t-39.5 35.5h-3l-58 89v1q-7 13 -7 22q0 11 11 16q12 0 20 -7q12 -8 30 -10h2h1 q2 0 4 3l2 2q1 4 5.5 8t11.5 4q6 0 12 -4.5t10 -11.5l72 -112h-7q3 -9 3 -17q0 -13 -9.5 -23t-22.5 -10zM440 822q14 0 25 11.5t11 25.5q0 9 -1 13h8l-76 118q-4 7 -11 12.5t-14 5.5q-8 0 -13 -4.5t-7 -8.5l-1 -1v-1q0 -1 1 -2v-1q-1 0 -3 1h-2q-15 0 -29 9q-11 8 -23 8 q-14 -7 -14 -20q0 -9 7 -23l1 -2l59 -91h4q18 -21 40 -35.5t38 -14.5zM440 739q-19 0 -41.5 -5t-44 -13.5t-37 -18t-19.5 -16.5q-10 -16 -16 -21t-14 -5q-33 0 -71 -23t-72 -65t-55 -98.5t-21 -120.5q0 -74 25 -138t72 -112t111 -74t138 -26q75 0 145.5 29t126 80.5 t87.5 119.5t32 141q0 75 -25.5 141.5t-72 117t-110.5 79t-138 28.5zM540 579q78 0 122 -58.5t44 -147.5q0 -88 -60.5 -142.5t-174.5 -54.5q-56 0 -103.5 26.5t-82 69.5t-52.5 92t-18 92q0 17 1 35t4.5 35t10 28.5t17.5 11.5q2 0 4 -14q3 -18 8 -36t17 -38t35 -34.5t58 -18.5 q35 0 67.5 12.5t33.5 35.5q0 6 -4.5 8.5t-14.5 6.5q-16 5 -25 13t-9 26q0 16 14.5 26.5t35 16t40 7.5t32.5 2zM440 757q77 0 144.5 -30t117 -83.5t76.5 -123.5t27 -147t-33.5 -147.5t-92 -125t-132.5 -85t-152 -30.5q-77 0 -144 27.5t-116.5 78t-77 118t-27.5 144.5 q0 67 23 127t59.5 104.5t78.5 69.5t77 25q2 0 3 1t5 7q3 5 6 9q5 9 22.5 20t41 20t48.5 15t46 6zM540 560q-10 0 -27.5 -1.5t-34.5 -5t-29 -10.5t-12 -16q0 -6 4.5 -9.5t14.5 -6.5q16 -5 24.5 -12.5t8.5 -25.5t-12.5 -30.5t-31.5 -20.5t-39.5 -12t-37.5 -4q-37 4 -62.5 18 t-39.5 32t-19.5 36.5t-5.5 34.5q0 15 3 20q-5 -4 -7.5 -31.5t-2.5 -59.5q0 -41 16.5 -87t48 -86t76 -64.5t96.5 -24.5q107 0 161.5 48.5t54.5 130.5q0 83 -38 135t-109 52zM440 762q-21 0 -46 -6t-50 -16t-42.5 -21t-23.5 -20l-1 -1q-7 -10 -8 -14h-1q-36 0 -78.5 -25.5 t-80 -71t-61 -106.5t-23.5 -128q0 -77 28 -145.5t78.5 -119.5t118.5 -79.5t145 -28.5q78 0 153 31t134.5 86t93.5 126.5t34 149.5t-27.5 148.5t-78 125t-118.5 85t-146 30.5zM540 555q69 0 105.5 -49.5t36.5 -132.5q0 -81 -52.5 -127.5t-158.5 -46.5q-51 0 -94.5 23.5 t-74.5 63t-47.5 84.5t-16.5 86q0 30 1 45q9 -36 39.5 -64.5t88.5 -35.5q17 0 39 4t41.5 12.5t33 22.5t13.5 33q0 22 -10 30t-27 13q-16 5 -16 11q0 8 11.5 13.5t28.5 9t33.5 4.5t25.5 1z" />
<glyph unicode="&#xd9;" horiz-adv-x="751" d="M461 847q16 0 16 17q0 14 -10 33h1l-56 87q-6 9 -9 9q-1 0 -3 -2l-2 -2q-7 -13 -23 -13q-21 2 -37 13q-4 4 -8 4q0 -3 7 -14l53 -82h1q16 -21 36 -35.5t34 -14.5zM461 831q-16 0 -37.5 14.5t-39.5 35.5h-3l-58 89v1q-7 13 -7 22q0 11 11 16q12 0 20 -7q12 -8 30 -10h2h1 q2 0 4 3l2 2q1 4 5.5 8t11.5 4q6 0 12 -4.5t10 -11.5l72 -112h-7q3 -9 3 -17q0 -13 -9.5 -23t-22.5 -10zM461 827q14 0 25 11.5t11 25.5q0 9 -1 13h8l-76 118q-4 7 -11 12.5t-14 5.5q-8 0 -13 -4.5t-7 -8.5l-1 -1v-1q0 -1 1 -2v-1q-1 0 -3 1h-2q-15 0 -29 9q-11 8 -23 8 q-14 -7 -14 -20q0 -9 7 -23l1 -2l59 -91h4q18 -21 40 -35.5t38 -14.5zM301 659q0 16 4 24t12 15q6 7 9.5 13t3.5 17q0 9 -7.5 12t-16.5 3q-46 0 -78.5 -7.5t-72.5 -22.5q-26 -9 -44 -14t-39 -7q-17 -1 -21.5 -6.5t-4.5 -16.5q0 -10 7 -16.5t20 -15.5q18 -12 27.5 -22.5 t9.5 -28.5v-362q0 -37 16 -75.5t49 -71.5t83 -53.5t114 -20.5q87 0 151 34.5t104 95.5t59 141t19 172q0 58 -3.5 99t-12 72.5t-23 59.5t-38.5 63q-3 3 -12 3q-13 0 -33.5 -12t-41 -29.5t-34 -34t-13.5 -24.5q0 -19 11.5 -34.5t34.5 -36.5q21 -20 29 -31q27 -34 41.5 -74.5 t14.5 -105.5q0 -108 -43.5 -169t-134.5 -61q-70 0 -108 49.5t-38 135.5v343zM320 316q0 -166 127 -166q84 0 121.5 53.5t37.5 157.5q0 61 -13 98t-39 71q-7 9 -26 26q-25 23 -39 42.5t-14 44.5q0 11 15.5 31t38.5 40t47 34t40 14q5 0 13 -2.5t13 -7.5q25 -36 40.5 -65.5 t24.5 -63t13 -75.5t4 -102q0 -93 -20 -176t-62.5 -147.5t-110.5 -101.5t-159 -37q-68 0 -121.5 22.5t-89 59t-53 78t-17.5 80.5v362q0 9 -6.5 15.5t-19.5 15.5q-19 12 -28.5 23t-9.5 29q0 15 7.5 27.5t35.5 14.5q27 2 74 20q41 15 76 23t86 8q14 0 28.5 -7.5t14.5 -26.5 q0 -28 -6 -39.5t-15 -18.5q-8 -5 -8 -11v-343zM324 659q0 2 5 5q10 4 17 16.5t7 47.5q0 21 -16.5 30t-30.5 9q-53 0 -88.5 -8.5t-76.5 -23.5q-46 -18 -71 -20q-31 -2 -39.5 -16t-8.5 -30q0 -21 10.5 -33t29.5 -24q12 -7 18 -12.5t6 -13.5v-362q0 -39 18 -82t54.5 -80 t90.5 -60t123 -23q92 0 160.5 37.5t112 103t64 149t20.5 177.5q0 60 -4 103t-13.5 76t-25 63.5t-40.5 66.5q-6 6 -14.5 9t-15.5 3q-17 0 -41.5 -14t-49 -35.5t-40 -42t-15.5 -32.5q0 -27 14.5 -47t40.5 -44q18 -16 25 -25q26 -33 39 -69.5t13 -96.5q0 -103 -36.5 -154.5 t-118.5 -51.5q-123 0 -123 161v343z" />
<glyph unicode="&#xe0;" horiz-adv-x="636" d="M355 613q16 0 16 17q0 14 -10 33h1l-56 87q-6 9 -9 9q-1 0 -3 -2l-2 -2q-7 -13 -23 -13q-21 2 -37 13q-4 4 -8 4q0 -3 7 -14l53 -82h1q16 -21 36 -35.5t34 -14.5zM355 597q-16 0 -37.5 14.5t-39.5 35.5h-3l-58 89v1q-7 13 -7 22q0 11 11 16q12 0 20 -7q12 -8 30 -10h2h1 q2 0 4 3l2 2q1 4 5.5 8t11.5 4q6 0 12 -4.5t10 -11.5l72 -112h-7q3 -9 3 -17q0 -13 -9.5 -23t-22.5 -10zM355 593q14 0 25 11.5t11 25.5q0 9 -1 13h8l-76 118q-4 7 -11 12.5t-14 5.5q-8 0 -13 -4.5t-7 -8.5l-1 -1v-1q0 -1 1 -2v-1q-1 0 -3 1h-2q-15 0 -29 9q-11 8 -23 8 q-14 -7 -14 -20q0 -9 7 -23l1 -2l59 -91h4q18 -21 40 -35.5t38 -14.5zM382 445q-5 13 -5 27v24q0 14 -22 14q-14 0 -33 -5.5t-38 -12.5t-36 -15t-21 -10q-1 0 -3 -1q-10 -6 -10 -13q0 -9 18 -27q6 -5 10 -10q-14 -34 -31 -73.5t-35 -77.5q-29 -63 -68 -148l-12 -25 q-5 -11 -13 -18t-19 -15q-10 -6 -15 -11t-5 -13q0 -12 13 -12h109q13 0 13 10q0 9 -4 13t-12 8q-9 4 -14 9.5t-5 16.5q0 12 7 19.5t26 14.5l149 55q8 3 11 3q10 0 14 -10l27 -70q4 -8 4 -13q0 -10 -16 -21q-9 -6 -13.5 -11t-4.5 -13q0 -7 15.5 -9t31.5 -2h185q13 0 13 10 q0 15 -9.5 22.5t-28.5 15.5q-22 9 -25 16zM206 208q-5 0 -5 6q0 3 3 9l3 9l52 111q5 12 10 12q4 0 8 -9l33 -81l1 -4q1 -3 1 -4q0 -8 -11 -13l-80 -31q-12 -5 -15 -5zM547 94q1 -2 11 -4q23 -6 38 -17.5t15 -39.5q0 -12 -10 -20t-21 -8h-185q-7 0 -16 0.5t-21 3.5t-20 9 t-8 16q0 23 9.5 32t21.5 12l3 1q-1 2 -3 7l-27 67q0 -1 -1 -1l-149 -55q-16 -5 -18.5 -7t-2.5 -10q0 -1 5 -2q12 -2 20.5 -10.5t8.5 -34.5q0 -11 -9.5 -19.5t-21.5 -8.5h-109q-13 0 -22.5 9t-9.5 21q0 17 8 26.5t23 18.5q18 11 23 21q13 27 32.5 68t39 82.5t38 83.5t32.5 76 l-1 1q-12 11 -18.5 20t-6.5 21t6 18t14 11l2 1q6 3 22.5 10.5t38 15.5t42 13.5t35.5 5.5t27.5 -8.5t12.5 -23.5v-24q0 -5 3 -17l1 -3zM229 236l63 25l-24 59zM404 453q-5 13 -5 19v24q0 17 -14 27t-30 10q-14 0 -35.5 -5.5t-43 -14t-38 -16t-22.5 -11.5q-7 -1 -16 -10 t-9 -23q0 -12 6 -21t17 -20l2 -2q-26 -61 -59 -132.5t-74 -158.5q-3 -6 -8 -17q-4 -8 -21 -18q-16 -10 -24.5 -19.5t-8.5 -29.5q0 -13 11 -24t25 -11h109q14 0 25 10.5t11 22.5q0 28 -8.5 38t-18.5 10q-5 0 -8 -1q-1 2 -2 5l-1 1l3 1q9 2 18 5l147 54l24 -62l1 -2q0 -1 1 -2 q-11 0 -22 -9.5t-11 -36.5q0 -12 9 -19t21.5 -10.5t22.5 -4t17 -0.5h185q12 0 24 9.5t12 23.5q0 31 -17 43t-39 17q-9 2 -9 3zM268 308l18 -45l-48 -19z" />
<glyph unicode="&#xe8;" horiz-adv-x="509" d="M417 618q16 0 16 17q0 14 -10 33h1l-56 87q-6 9 -9 9q-1 0 -3 -2l-2 -2q-7 -13 -23 -13q-21 2 -37 13q-4 4 -8 4q0 -3 7 -14l53 -82h1q16 -21 36 -35.5t34 -14.5zM417 602q-16 0 -37.5 14.5t-39.5 35.5h-3l-58 89v1q-7 13 -7 22q0 11 11 16q12 0 20 -7q12 -8 30 -10h2h1 q2 0 4 3l2 2q1 4 5.5 8t11.5 4q6 0 12 -4.5t10 -11.5l72 -112h-7q3 -9 3 -17q0 -13 -9.5 -23t-22.5 -10zM417 598q14 0 25 11.5t11 25.5q0 9 -1 13h8l-76 118q-4 7 -11 12.5t-14 5.5q-8 0 -13 -4.5t-7 -8.5l-1 -1v-1q0 -1 1 -2v-1q-1 0 -3 1h-2q-15 0 -29 9q-11 8 -23 8 q-14 -7 -14 -20q0 -9 7 -23l1 -2l59 -91h4q18 -21 40 -35.5t38 -14.5zM269 253q13 0 20 -7t15 -20q10 -17 18 -17q5 0 11 7.5t16 23.5q7 12 11 17q6 7 16 17q15 13 15 22q0 17 -23 33t-57 16q-32 0 -48.5 -15.5t-29.5 -39.5q-9 -16 -13 -16q-9 0 -9 16v152q0 15 5 20t21 5 q35 0 67 -12t65 -34q14 -10 39 -43q14 -19 23 -28.5t17 -9.5q12 0 12 13q0 8 -4 23q-7 27 -12 60q-2 11 -3 16q-5 33 -10 48t-14 15q-7 0 -18 -6q-18 -10 -35 -10h-316q-10 0 -10 -11q0 -7 4.5 -11t13.5 -9q13 -6 19.5 -13t6.5 -19v-351q0 -13 -6 -19.5t-18 -13.5 q-10 -5 -15 -10t-5 -15q0 -5 10 -5h192q34 0 83.5 -2t74.5 -4q12 -1 23 -6q3 -2 4 -2q10 0 14.5 15t10.5 48q2 14 4 25q2 9 8 24q9 24 9 44q0 13 -2 18.5t-9 5.5q-5 0 -18 -19q-20 -30 -39 -47q-32 -29 -81 -50t-93 -21q-11 0 -14.5 7.5t-3.5 27.5v119q0 10 2.5 16t9.5 13 q11 9 21.5 14t24.5 5zM269 234q-17 0 -34 -14l-1 -1q-4 -4 -4.5 -5.5t-0.5 -8.5v-119q0 -17 -1 -17h1q41 0 86 19t77 47q13 11 31 38q11 17 19 25t18 8q19 0 24.5 -12.5t5.5 -29.5q0 -16 -3 -27.5t-8 -24.5q-6 -13 -7 -20q-1 -6 -3 -19q-7 -40 -15.5 -61.5t-28.5 -21.5 q-6 0 -15 4q-8 3 -13 4q-22 2 -70 3.5t-87 1.5h-192q-11 0 -20 8t-9 16q0 22 8.5 31.5t23.5 15.5q12 6 12 11v351q0 5 -13 11q-14 6 -22.5 14.5t-8.5 26.5q0 10 8 19.5t21 9.5h316q7 0 20 7q18 9 33 9q20 0 29 -23.5t15 -65.5q1 -2 1 -5q4 -25 11 -51q6 -20 6 -35 q0 -13 -9.5 -22t-21.5 -9q-14 0 -27.5 13t-31.5 37q-21 28 -30 34q-31 20 -60 31t-62 11q-7 0 -9 2v0q1 -3 1 -8v-119q10 17 30 28.5t52 11.5q39 0 68.5 -22t29.5 -45q0 -12 -6 -20.5t-16 -17.5q-9 -8 -12 -12t-11 -16q-12 -20 -21.5 -30t-20.5 -10q-15 0 -23.5 8t-15.5 21 q-8 15 -14 15zM269 230q4 0 9 -12q8 -14 17 -23t27 -9q13 0 24 11.5t23 32.5q7 9 10 14q3 4 10 10q11 9 18 18.5t7 23.5q0 24 -31.5 47.5t-71.5 23.5q-27 0 -46 -8.5t-31 -21.5v105v2h3q32 0 60.5 -11t58.5 -31q10 -6 30 -34q19 -24 33 -37.5t29 -13.5q14 0 24.5 11t10.5 25 q0 16 -6 38q-7 26 -10 49l-2 10q-7 41 -16.5 64.5t-31.5 23.5q-12 0 -19.5 -2.5t-16.5 -7.5q-11 -6 -17 -6h-316q-14 0 -23.5 -11.5t-9.5 -22.5q0 -22 10 -31.5t25 -14.5q9 -4 9 -6v-351q0 -2 -9 -5q-15 -5 -25 -15.5t-10 -37.5q0 -9 10.5 -18.5t22.5 -9.5h192q34 0 83 -2 t74 -4q4 0 10 -3q11 -5 18 -5q23 0 32.5 22.5t16.5 64.5q2 12 3 19q1 6 6 18q5 14 8 25.5t3 29.5q0 19 -6 33t-28 14q-12 0 -20.5 -8.5t-21.5 -27.5q-18 -26 -29 -36q-30 -26 -73.5 -45.5t-83.5 -22.5q2 8 2 15v119q-2 4 -5 4q2 1 8 7q17 14 32 14z" />
<glyph unicode="&#xec;" horiz-adv-x="502" d="M249 613q16 0 16 17q0 14 -10 33h1l-56 87q-6 9 -9 9q-1 0 -3 -2l-2 -2q-7 -13 -23 -13q-21 2 -37 13q-4 4 -8 4q0 -3 7 -14l53 -82h1q16 -21 36 -35.5t34 -14.5zM249 597q-16 0 -37.5 14.5t-39.5 35.5h-3l-58 89v1q-7 13 -7 22q0 11 11 16q12 0 20 -7q12 -8 30 -10h2h1 q2 0 4 3l2 2q1 4 5.5 8t11.5 4q6 0 12 -4.5t10 -11.5l72 -112h-7q3 -9 3 -17q0 -13 -9.5 -23t-22.5 -10zM249 593q14 0 25 11.5t11 25.5q0 9 -1 13h8l-76 118q-4 7 -11 12.5t-14 5.5q-8 0 -13 -4.5t-7 -8.5l-1 -1v-1q0 -1 1 -2v-1q-1 0 -3 1h-2q-15 0 -29 9q-11 8 -23 8 q-14 -7 -14 -20q0 -9 7 -23l1 -2l59 -91h4q18 -21 40 -35.5t38 -14.5zM-1 0h500v500h-500v-500zM9 10v480h480v-480h-480z" />
<glyph unicode="&#xf2;" horiz-adv-x="584" d="M308 613q16 0 16 17q0 14 -10 33h1l-56 87q-6 9 -9 9q-1 0 -3 -2l-2 -2q-7 -13 -23 -13q-21 2 -37 13q-4 4 -8 4q0 -3 7 -14l53 -82h1q16 -21 36 -35.5t34 -14.5zM308 597q-16 0 -37.5 14.5t-39.5 35.5h-3l-58 89v1q-7 13 -7 22q0 11 11 16q12 0 20 -7q12 -8 30 -10h2h1 q2 0 4 3l2 2q1 4 5.5 8t11.5 4q6 0 12 -4.5t10 -11.5l72 -112h-7q3 -9 3 -17q0 -13 -9.5 -23t-22.5 -10zM308 593q14 0 25 11.5t11 25.5q0 9 -1 13h8l-76 118q-4 7 -11 12.5t-14 5.5q-8 0 -13 -4.5t-7 -8.5l-1 -1v-1q0 -1 1 -2v-1q-1 0 -3 1h-2q-15 0 -29 9q-11 8 -23 8 q-14 -7 -14 -20q0 -9 7 -23l1 -2l59 -91h4q18 -21 40 -35.5t38 -14.5zM308 510q-25 0 -58 -12.5t-40 -23.5q-8 -11 -11.5 -14t-8.5 -3q-23 0 -48.5 -15.5t-48.5 -44.5t-37.5 -67.5t-14.5 -82.5q0 -50 17 -93.5t49 -76t75.5 -50.5t94.5 -18t99 19.5t86 55t60 81t22 96.5 t-17.5 96.5t-49.5 80t-75.5 53.5t-93.5 19zM376 401q54 0 83.5 -40t29.5 -100t-41 -97.5t-119 -37.5q-38 0 -71 18.5t-56 47.5t-35.5 62.5t-12.5 63.5q0 28 4.5 51.5t18.5 23.5q1 0 2 -9q2 -12 5.5 -24.5t12 -26t24 -23.5t39.5 -13q24 0 46 8.5t23 24.5q0 5 -12 9 q-11 3 -17.5 8.5t-6.5 18.5q0 11 10 18t24 10.5t27 5t22 1.5zM308 528q53 0 100 -21t81.5 -58t53.5 -85.5t19 -102.5q0 -53 -23.5 -102.5t-64 -87t-92 -59t-105.5 -21.5t-100.5 19.5t-81 54.5t-53.5 82t-19 100q0 46 16 88t41.5 73.5t55 49t54.5 17.5h-1q0 1 6 9 q4 7 16.5 15t29.5 14.5t35 10.5t32 4zM376 383q-20 0 -42.5 -4t-22.5 -13q0 -3 9 -4q12 -3 19.5 -9t7.5 -23q-1 -14 -10 -24t-23.5 -16.5t-29.5 -9t-26 -2.5q-37 4 -58 19.5t-28 35.5v-15q0 -28 11 -58.5t32 -56.5t50 -42t64 -16q72 0 107 30.5t35 85.5t-24 88.5t-71 33.5z M308 533q-15 0 -33 -4.5t-35.5 -11.5t-31 -15t-17.5 -15l-4 -6l-2 -3q-26 -1 -55 -19.5t-55 -50.5t-41.5 -73.5t-15.5 -87.5q0 -54 19.5 -101.5t54.5 -83.5t82.5 -56t102.5 -20q54 0 106.5 22t94 60.5t65.5 88.5t24 104t-19.5 103.5t-55 88t-83 59.5t-101.5 21zM376 378 q45 0 67.5 -31.5t22.5 -85.5q0 -53 -33.5 -82.5t-103.5 -29.5q-33 0 -61 15t-48.5 40t-31 54t-11.5 56q11 -16 31 -26.5t49 -13.5q12 0 28 3t31 9.5t25 17.5t11 26q0 23 -10 29t-23 7h-3q0 6 21 9t39 3z" />
<glyph unicode="&#xf9;" horiz-adv-x="526" d="M321 617q16 0 16 17q0 14 -10 33h1l-56 87q-6 9 -9 9q-1 0 -3 -2l-2 -2q-7 -13 -23 -13q-21 2 -37 13q-4 4 -8 4q0 -3 7 -14l53 -82h1q16 -21 36 -35.5t34 -14.5zM321 601q-16 0 -37.5 14.5t-39.5 35.5h-3l-58 89v1q-7 13 -7 22q0 11 11 16q12 0 20 -7q12 -8 30 -10h2h1 q2 0 4 3l2 2q1 4 5.5 8t11.5 4q6 0 12 -4.5t10 -11.5l72 -112h-7q3 -9 3 -17q0 -13 -9.5 -23t-22.5 -10zM321 597q14 0 25 11.5t11 25.5q0 9 -1 13h8l-76 118q-4 7 -11 12.5t-14 5.5q-8 0 -13 -4.5t-7 -8.5l-1 -1v-1q0 -1 1 -2v-1q-1 0 -3 1h-2q-15 0 -29 9q-11 8 -23 8 q-14 -7 -14 -20q0 -9 7 -23l1 -2l59 -91h4q18 -21 40 -35.5t38 -14.5zM212 456q0 11 2.5 16t8.5 11q9 8 9 21q0 5 -5 7.5t-12 2.5q-32 0 -54.5 -5.5t-49.5 -15.5q-35 -13 -55 -15q-12 -1 -15 -4.5t-3 -9.5q0 -10 18 -22q12 -8 18.5 -15.5t6.5 -20.5v-247q0 -25 11 -51.5 t33.5 -49t56.5 -36.5t78 -14q60 0 103.5 24t71 65.5t40.5 96t13 117.5q0 40 -2.5 68t-8 49.5t-15.5 40.5t-27 42q-1 3 -8 3q-9 0 -23 -8t-28 -20.5t-23 -23.5t-9 -17q0 -13 7.5 -23.5t22.5 -23.5q15 -14 21 -22q19 -24 29 -51.5t10 -71.5q0 -74 -30 -115.5t-92 -41.5 q-48 0 -74 33.5t-26 92.5v234zM230 222q0 -108 82 -108q55 0 79 34.5t24 104.5q0 41 -8.5 65.5t-26.5 46.5q-4 6 -17 17q-18 16 -28 30t-10 33q0 8 11 22.5t28 29.5t34 25t29 10q5 0 11.5 -2t10.5 -7q17 -24 28 -45t17.5 -44t9 -52.5t2.5 -70.5q0 -64 -14 -122t-44 -102.5 t-77 -70.5t-111 -26q-48 0 -85 16t-62 41.5t-37.5 55t-12.5 56.5v247q0 6 -14 15t-21.5 18t-7.5 25q0 11 6.5 21.5t28.5 11.5q16 1 46 13q28 10 52.5 16t61.5 6q11 0 23 -6t12 -22q0 -28 -5.5 -37t-12.5 -10q-2 0 -2 -1v-234zM255 504q0 18 -14 25.5t-26 7.5q-38 0 -64 -6 t-53 -17q-28 -11 -43 -13q-25 -1 -32.5 -13t-7.5 -24q0 -19 9 -29t23 -18q12 -7 12 -11v-247q0 -27 13 -57.5t38.5 -57t63.5 -43t86 -16.5q65 0 113 26.5t78.5 72.5t45 104t14.5 123q0 42 -2.5 71.5t-9 53t-18 45t-28.5 45.5q-11 11 -26 11q-13 0 -30.5 -10.5t-35 -26 t-29 -31t-11.5 -24.5q0 -21 10.5 -35.5t29.5 -32.5q12 -10 16 -15q17 -22 25.5 -45.5t8.5 -63.5q0 -68 -23 -101t-76 -33q-77 0 -77 103v233q1 -2 4 -2q6 0 11 11.5t5 39.5z" />
<glyph unicode="&#x152;" horiz-adv-x="1562" d="M1219 361q19 0 30 -10.5t22 -28.5q8 -13 13 -19t13 -6q7 0 15 10t22 31q13 20 20 29q8 10 23 24q11 11 16 17.5t5 15.5q0 25 -34 48t-83 23q-25 0 -44 -7.5t-32.5 -19.5t-21 -24t-16.5 -28q-13 -24 -19 -24q-9 0 -11 5t-2 19v222q0 22 7.5 29t30.5 7q52 0 100 -17.5 t92 -49.5q14 -10 27 -25t32 -40q21 -27 34 -40t23 -13q19 0 19 19q0 12 -6 34q-5 17 -9.5 36.5t-9.5 50.5l-3 18q-7 50 -14 74t-21 24q-11 0 -28 -10q-13 -7 -23 -10.5t-26 -3.5h-464q-16 0 -16 -17q0 -9 6.5 -14.5t20.5 -12.5q18 -10 28 -19.5t10 -28.5v-515 q0 -18 -9 -27.5t-26 -19.5q-15 -8 -22.5 -15t-7.5 -21q0 -9 16 -9h282q27 0 65.5 -0.5t62.5 -1.5t54 -2t49 -3q18 -1 34 -10q4 -2 5 -2q15 0 22 21.5t15 69.5q3 19 6 37q2 13 11 36q7 18 10.5 31.5t3.5 31.5q0 19 -2.5 27t-13.5 8q-8 0 -26 -27q-13 -20 -26 -36.5t-31 -32.5 q-23 -20 -53.5 -39t-64.5 -33.5t-70 -22.5t-68 -8q-16 0 -21 10.5t-5 39.5v175q0 14 3.5 23t14.5 19q16 13 31.5 20.5t34.5 7.5zM1219 342q-16 0 -28 -5.5t-26 -17.5q-7 -7 -9 -12t-2 -16v-175q0 -23 1 -27.5t6 -4.5q61 0 129 29t115 70q20 18 48 58q16 23 25.5 33t21.5 10 q23 0 29 -15t6 -39q0 -23 -4 -39t-12 -34q-8 -19 -10 -29q-3 -15 -4 -27q-10 -57 -21 -87t-36 -30q-6 0 -17 5q-14 6 -24 7q-19 2 -48.5 3t-53 2t-62 1.5t-65.5 0.5h-282q-13 0 -24 8.5t-11 19.5q0 26 11 38t31 21q12 6 17.5 11t5.5 13v515q0 9 -6 14t-20 12q-18 9 -28.5 19 t-10.5 30q0 13 10.5 24.5t24.5 11.5h464q14 0 34 11q11 5 20.5 8.5t22.5 3.5q25 0 35.5 -30.5t19.5 -87.5l2 -13q4 -25 8 -42.5t9 -35.5q5 -17 6.5 -25t1.5 -21q0 -16 -11 -27t-27 -11t-33 17t-43 50q-34 44 -50 55q-43 31 -87.5 47t-94.5 16q-13 0 -16 -2.5t-3 -14.5v-211 q4 13 12 27.5t22.5 28t37.5 22.5t55 9q27 0 52 -8t44 -22t29.5 -30t10.5 -30q0 -15 -7 -25t-22 -24q-14 -13 -19 -19q-6 -8 -16 -23q-17 -27 -29.5 -41t-26.5 -14q-17 0 -26.5 9.5t-20.5 26.5q-8 15 -14.5 21.5t-16.5 6.5zM1219 337q8 0 13 -6t13 -18q10 -19 21.5 -29.5 t30.5 -10.5q15 0 28 14.5t31 40.5q11 17 17 25q5 6 18 18q15 14 23 25.5t8 27.5t-11 32.5t-30.5 31t-45.5 23t-54 8.5q-49 0 -78 -19.5t-44 -48.5v187q0 6 -2 14l-1 1q5 -3 17 -3q50 0 93.5 -16t85.5 -46q16 -11 48 -53q27 -35 45 -52.5t36 -17.5q17 0 29.5 13t12.5 30 q0 13 -2 23.5t-6 25.5q-10 39 -16 76l-2 13q-4 29 -8 48t-10 36t-16.5 27.5t-25.5 10.5t-24.5 -3.5t-21.5 -9.5q-19 -10 -31 -10h-464q-16 0 -27.5 -13t-11.5 -28q0 -23 11.5 -34.5t31.5 -20.5q11 -6 16.5 -10t5.5 -10v-515q0 -9 -20 -18q-21 -10 -33 -23t-12 -42 q0 -12 12 -22t27 -10h282q22 0 57 -0.5t62 -1.5t59.5 -3t50.5 -3q9 -1 21 -6q13 -6 20 -6q15 0 25.5 10.5t17 27.5t10.5 35t9 49q3 18 4 26q2 10 9 28q8 19 12 35t4 40q0 25 -7 41.5t-32 16.5q-14 0 -25 -11t-27 -35q-27 -39 -46 -55q-47 -41 -113.5 -69.5t-127.5 -28.5 q-2 0 -3 -1q1 6 1 28v175q0 11 1 14t8 10q14 11 25 16.5t26 5.5zM440 739q-19 0 -41.5 -5t-44 -13.5t-37 -18t-19.5 -16.5q-10 -16 -16 -21t-14 -5q-33 0 -71 -23t-72 -65t-55 -98.5t-21 -120.5q0 -74 25 -138t72 -112t111 -74t138 -26q75 0 145.5 29t126 80.5t87.5 119.5 t32 141q0 75 -25.5 141.5t-72 117t-110.5 79t-138 28.5zM540 579q78 0 122 -58.5t44 -147.5q0 -88 -60.5 -142.5t-174.5 -54.5q-56 0 -103.5 26.5t-82 69.5t-52.5 92t-18 92q0 17 1 35t4.5 35t10 28.5t17.5 11.5q2 0 4 -14q3 -18 8 -36t17 -38t35 -34.5t58 -18.5 q35 0 67.5 12.5t33.5 35.5q0 6 -4.5 8.5t-14.5 6.5q-16 5 -25 13t-9 26q0 16 14.5 26.5t35 16t40 7.5t32.5 2zM440 757q77 0 144.5 -30t117 -83.5t76.5 -123.5t27 -147t-33.5 -147.5t-92 -125t-132.5 -85t-152 -30.5q-77 0 -144 27.5t-116.5 78t-77 118t-27.5 144.5 q0 67 23 127t59.5 104.5t78.5 69.5t77 25q2 0 3 1t5 7q3 5 6 9q5 9 22.5 20t41 20t48.5 15t46 6zM540 560q-10 0 -27.5 -1.5t-34.5 -5t-29 -10.5t-12 -16q0 -6 4.5 -9.5t14.5 -6.5q16 -5 24.5 -12.5t8.5 -25.5t-12.5 -30.5t-31.5 -20.5t-39.5 -12t-37.5 -4q-37 4 -62.5 18 t-39.5 32t-19.5 36.5t-5.5 34.5q0 15 3 20q-5 -4 -7.5 -31.5t-2.5 -59.5q0 -41 16.5 -87t48 -86t76 -64.5t96.5 -24.5q107 0 161.5 48.5t54.5 130.5q0 83 -38 135t-109 52zM440 762q-21 0 -46 -6t-50 -16t-42.5 -21t-23.5 -20l-1 -1q-7 -10 -8 -14h-1q-36 0 -78.5 -25.5 t-80 -71t-61 -106.5t-23.5 -128q0 -77 28 -145.5t78.5 -119.5t118.5 -79.5t145 -28.5q78 0 153 31t134.5 86t93.5 126.5t34 149.5t-27.5 148.5t-78 125t-118.5 85t-146 30.5zM540 555q69 0 105.5 -49.5t36.5 -132.5q0 -81 -52.5 -127.5t-158.5 -46.5q-51 0 -94.5 23.5 t-74.5 63t-47.5 84.5t-16.5 86q0 30 1 45q9 -36 39.5 -64.5t88.5 -35.5q17 0 39 4t41.5 12.5t33 22.5t13.5 33q0 22 -10 30t-27 13q-16 5 -16 11q0 8 11.5 13.5t28.5 9t33.5 4.5t25.5 1z" />
<glyph unicode="&#x153;" horiz-adv-x="1093" d="M853 253q13 0 20 -7t15 -20q10 -17 18 -17q5 0 11 7.5t16 23.5q7 12 11 17q6 7 16 17q15 13 15 22q0 17 -23 33t-57 16q-32 0 -48.5 -15.5t-29.5 -39.5q-9 -16 -13 -16q-9 0 -9 16v152q0 15 5 20t21 5q35 0 67 -12t65 -34q14 -10 39 -43q14 -19 23 -28.5t17 -9.5 q12 0 12 13q0 8 -4 23q-7 27 -12 60q-2 11 -3 16q-5 33 -10 48t-14 15q-7 0 -18 -6q-18 -10 -35 -10h-316q-10 0 -10 -11q0 -7 4.5 -11t13.5 -9q13 -6 19.5 -13t6.5 -19v-351q0 -13 -6 -19.5t-18 -13.5q-10 -5 -15 -10t-5 -15q0 -5 10 -5h192q34 0 83.5 -2t74.5 -4 q12 -1 23 -6q3 -2 4 -2q10 0 14.5 15t10.5 48q2 14 4 25q2 9 8 24q9 24 9 44q0 13 -2 18.5t-9 5.5q-5 0 -18 -19q-20 -30 -39 -47q-32 -29 -81 -50t-93 -21q-11 0 -14.5 7.5t-3.5 27.5v119q0 10 2.5 16t9.5 13q11 9 21.5 14t24.5 5zM853 234q-17 0 -34 -14l-1 -1 q-4 -4 -4.5 -5.5t-0.5 -8.5v-119q0 -17 -1 -17h1q41 0 86 19t77 47q13 11 31 38q11 17 19 25t18 8q19 0 24.5 -12.5t5.5 -29.5q0 -16 -3 -27.5t-8 -24.5q-6 -13 -7 -20q-1 -6 -3 -19q-7 -40 -15.5 -61.5t-28.5 -21.5q-6 0 -15 4q-8 3 -13 4q-22 2 -70 3.5t-87 1.5h-192 q-11 0 -20 8t-9 16q0 22 8.5 31.5t23.5 15.5q12 6 12 11v351q0 5 -13 11q-14 6 -22.5 14.5t-8.5 26.5q0 10 8 19.5t21 9.5h316q7 0 20 7q18 9 33 9q20 0 29 -23.5t15 -65.5q1 -2 1 -5q4 -25 11 -51q6 -20 6 -35q0 -13 -9.5 -22t-21.5 -9q-14 0 -27.5 13t-31.5 37 q-21 28 -30 34q-31 20 -60 31t-62 11q-7 0 -9 2v0q1 -3 1 -8v-119q10 17 30 28.5t52 11.5q39 0 68.5 -22t29.5 -45q0 -12 -6 -20.5t-16 -17.5q-9 -8 -12 -12t-11 -16q-12 -20 -21.5 -30t-20.5 -10q-15 0 -23.5 8t-15.5 21q-8 15 -14 15zM853 230q4 0 9 -12q8 -14 17 -23 t27 -9q13 0 24 11.5t23 32.5q7 9 10 14q3 4 10 10q11 9 18 18.5t7 23.5q0 24 -31.5 47.5t-71.5 23.5q-27 0 -46 -8.5t-31 -21.5v105v2h3q32 0 60.5 -11t58.5 -31q10 -6 30 -34q19 -24 33 -37.5t29 -13.5q14 0 24.5 11t10.5 25q0 16 -6 38q-7 26 -10 49l-2 10 q-7 41 -16.5 64.5t-31.5 23.5q-12 0 -19.5 -2.5t-16.5 -7.5q-11 -6 -17 -6h-316q-14 0 -23.5 -11.5t-9.5 -22.5q0 -22 10 -31.5t25 -14.5q9 -4 9 -6v-351q0 -2 -9 -5q-15 -5 -25 -15.5t-10 -37.5q0 -9 10.5 -18.5t22.5 -9.5h192q34 0 83 -2t74 -4q4 0 10 -3q11 -5 18 -5 q23 0 32.5 22.5t16.5 64.5q2 12 3 19q1 6 6 18q5 14 8 25.5t3 29.5q0 19 -6 33t-28 14q-12 0 -20.5 -8.5t-21.5 -27.5q-18 -26 -29 -36q-30 -26 -73.5 -45.5t-83.5 -22.5q2 8 2 15v119q-2 4 -5 4q2 1 8 7q17 14 32 14zM308 510q-25 0 -58 -12.5t-40 -23.5q-8 -11 -11.5 -14 t-8.5 -3q-23 0 -48.5 -15.5t-48.5 -44.5t-37.5 -67.5t-14.5 -82.5q0 -50 17 -93.5t49 -76t75.5 -50.5t94.5 -18t99 19.5t86 55t60 81t22 96.5t-17.5 96.5t-49.5 80t-75.5 53.5t-93.5 19zM376 401q54 0 83.5 -40t29.5 -100t-41 -97.5t-119 -37.5q-38 0 -71 18.5t-56 47.5 t-35.5 62.5t-12.5 63.5q0 28 4.5 51.5t18.5 23.5q1 0 2 -9q2 -12 5.5 -24.5t12 -26t24 -23.5t39.5 -13q24 0 46 8.5t23 24.5q0 5 -12 9q-11 3 -17.5 8.5t-6.5 18.5q0 11 10 18t24 10.5t27 5t22 1.5zM308 528q53 0 100 -21t81.5 -58t53.5 -85.5t19 -102.5q0 -53 -23.5 -102.5 t-64 -87t-92 -59t-105.5 -21.5t-100.5 19.5t-81 54.5t-53.5 82t-19 100q0 46 16 88t41.5 73.5t55 49t54.5 17.5h-1q0 1 6 9q4 7 16.5 15t29.5 14.5t35 10.5t32 4zM376 383q-20 0 -42.5 -4t-22.5 -13q0 -3 9 -4q12 -3 19.5 -9t7.5 -23q-1 -14 -10 -24t-23.5 -16.5t-29.5 -9 t-26 -2.5q-37 4 -58 19.5t-28 35.5v-15q0 -28 11 -58.5t32 -56.5t50 -42t64 -16q72 0 107 30.5t35 85.5t-24 88.5t-71 33.5zM308 533q-15 0 -33 -4.5t-35.5 -11.5t-31 -15t-17.5 -15l-4 -6l-2 -3q-26 -1 -55 -19.5t-55 -50.5t-41.5 -73.5t-15.5 -87.5q0 -54 19.5 -101.5 t54.5 -83.5t82.5 -56t102.5 -20q54 0 106.5 22t94 60.5t65.5 88.5t24 104t-19.5 103.5t-55 88t-83 59.5t-101.5 21zM376 378q45 0 67.5 -31.5t22.5 -85.5q0 -53 -33.5 -82.5t-103.5 -29.5q-33 0 -61 15t-48.5 40t-31 54t-11.5 56q11 -16 31 -26.5t49 -13.5q12 0 28 3t31 9.5 t25 17.5t11 26q0 23 -10 29t-23 7h-3q0 6 21 9t39 3z" />
<glyph unicode="&#x2000;" horiz-adv-x="507" />
<glyph unicode="&#x2001;" horiz-adv-x="1014" />
<glyph unicode="&#x2002;" horiz-adv-x="507" />
<glyph unicode="&#x2003;" horiz-adv-x="1014" />
<glyph unicode="&#x2004;" horiz-adv-x="338" />
<glyph unicode="&#x2005;" horiz-adv-x="253" />
<glyph unicode="&#x2006;" horiz-adv-x="169" />
<glyph unicode="&#x2007;" horiz-adv-x="169" />
<glyph unicode="&#x2008;" horiz-adv-x="126" />
<glyph unicode="&#x2009;" horiz-adv-x="202" />
<glyph unicode="&#x200a;" horiz-adv-x="56" />
<glyph unicode="&#x2010;" d="M213 310q-47 0 -83 4q-8 2 -14 2q-2 0 -3 -4t-1 -6q-1 -1 -4 -8q-4 -7 -5 -9q-3 -4 -3 -7q0 -4 6 -4q4 0 7 1q29 4 86 4q28 0 82 -4q2 0 6 -1q2 -1 4 -1q3 0 7 10q1 4 5 12q4 5 5 9q2 4 2 6q0 3 -4 3q-3 0 -10 -2l-2 -1q-25 -4 -81 -4zM213 322q54 0 79 4q1 0 4 1 q6 2 10 2q5 0 10.5 -4.5t5.5 -10.5q0 -3 -2 -9q-1 -1 -1 -2q-2 -4 -6 -10q-4 -7 -4 -9q-6 -19 -18 -19q-4 0 -9 2h-2q-54 4 -81 4q-56 0 -84 -4h-9q-6 0 -12 4.5t-6 10.5q0 3 3 10q0 2 1 3l5 8q3 5 4 7v3q1 5 3.5 9t10.5 6q3 0 10 -1l7 -1q35 -4 81 -4zM213 324q-38 0 -81 5 l-7 1t-10 1q-10 -2 -13 -6.5t-4 -10.5v-2q-3 -7 -8 -16q-5 -5 -5 -14q0 -8 7 -13t14 -5h9q28 4 84 4q27 0 81 -4q4 -2 11 -2q16 0 21 22q1 1 3 4q4 7 7 14l1 4q2 5 2 8q0 7 -7 12.5t-12 5.5q-4 0 -12 -2q-1 -1 -2 -1q-25 -5 -79 -5z" />
<glyph unicode="&#x2011;" d="M213 310q-47 0 -83 4q-8 2 -14 2q-2 0 -3 -4t-1 -6q-1 -1 -4 -8q-4 -7 -5 -9q-3 -4 -3 -7q0 -4 6 -4q4 0 7 1q29 4 86 4q28 0 82 -4q2 0 6 -1q2 -1 4 -1q3 0 7 10q1 4 5 12q4 5 5 9q2 4 2 6q0 3 -4 3q-3 0 -10 -2l-2 -1q-25 -4 -81 -4zM213 322q54 0 79 4q1 0 4 1 q6 2 10 2q5 0 10.5 -4.5t5.5 -10.5q0 -3 -2 -9q-1 -1 -1 -2q-2 -4 -6 -10q-4 -7 -4 -9q-6 -19 -18 -19q-4 0 -9 2h-2q-54 4 -81 4q-56 0 -84 -4h-9q-6 0 -12 4.5t-6 10.5q0 3 3 10q0 2 1 3l5 8q3 5 4 7v3q1 5 3.5 9t10.5 6q3 0 10 -1l7 -1q35 -4 81 -4zM213 324q-38 0 -81 5 l-7 1t-10 1q-10 -2 -13 -6.5t-4 -10.5v-2q-3 -7 -8 -16q-5 -5 -5 -14q0 -8 7 -13t14 -5h9q28 4 84 4q27 0 81 -4q4 -2 11 -2q16 0 21 22q1 1 3 4q4 7 7 14l1 4q2 5 2 8q0 7 -7 12.5t-12 5.5q-4 0 -12 -2q-1 -1 -2 -1q-25 -5 -79 -5z" />
<glyph unicode="&#x2012;" d="M213 310q-47 0 -83 4q-8 2 -14 2q-2 0 -3 -4t-1 -6q-1 -1 -4 -8q-4 -7 -5 -9q-3 -4 -3 -7q0 -4 6 -4q4 0 7 1q29 4 86 4q28 0 82 -4q2 0 6 -1q2 -1 4 -1q3 0 7 10q1 4 5 12q4 5 5 9q2 4 2 6q0 3 -4 3q-3 0 -10 -2l-2 -1q-25 -4 -81 -4zM213 322q54 0 79 4q1 0 4 1 q6 2 10 2q5 0 10.5 -4.5t5.5 -10.5q0 -3 -2 -9q-1 -1 -1 -2q-2 -4 -6 -10q-4 -7 -4 -9q-6 -19 -18 -19q-4 0 -9 2h-2q-54 4 -81 4q-56 0 -84 -4h-9q-6 0 -12 4.5t-6 10.5q0 3 3 10q0 2 1 3l5 8q3 5 4 7v3q1 5 3.5 9t10.5 6q3 0 10 -1l7 -1q35 -4 81 -4zM213 324q-38 0 -81 5 l-7 1t-10 1q-10 -2 -13 -6.5t-4 -10.5v-2q-3 -7 -8 -16q-5 -5 -5 -14q0 -8 7 -13t14 -5h9q28 4 84 4q27 0 81 -4q4 -2 11 -2q16 0 21 22q1 1 3 4q4 7 7 14l1 4q2 5 2 8q0 7 -7 12.5t-12 5.5q-4 0 -12 -2q-1 -1 -2 -1q-25 -5 -79 -5z" />
<glyph unicode="&#x2013;" horiz-adv-x="500" d="M85 262v70h330v-70h-330z" />
<glyph unicode="&#x2014;" horiz-adv-x="1000" d="M85 262v70h830v-70h-830z" />
<glyph unicode="&#x2018;" horiz-adv-x="237" d="M176 572q16 0 16 17q0 14 -10 33h1l-56 87q-6 9 -9 9q-1 0 -3 -2l-2 -2q-7 -13 -23 -13q-21 2 -37 13q-4 4 -8 4q0 -3 7 -14l53 -82h1q16 -21 36 -35.5t34 -14.5zM176 556q-16 0 -37.5 14.5t-39.5 35.5h-3l-58 89v1q-7 13 -7 22q0 11 11 16q12 0 20 -7q12 -8 30 -10h2h1 q2 0 4 3l2 2q1 4 5.5 8t11.5 4q6 0 12 -4.5t10 -11.5l72 -112h-7q3 -9 3 -17q0 -13 -9.5 -23t-22.5 -10zM176 552q14 0 25 11.5t11 25.5q0 9 -1 13h8l-76 118q-4 7 -11 12.5t-14 5.5q-8 0 -13 -4.5t-7 -8.5l-1 -1v-1q0 -1 1 -2v-1q-1 0 -3 1h-2q-15 0 -29 9q-11 8 -23 8 q-14 -7 -14 -20q0 -9 7 -23l1 -2l59 -91h4q18 -21 40 -35.5t38 -14.5z" />
<glyph unicode="&#x2019;" horiz-adv-x="149" d="M75 572q14 0 24.5 14t13.5 36v87q0 9 -2 9q-3 0 -8 -4q-16 -13 -31 -13q-20 2 -29 13q-2 4 -4 4q-4 0 -4 -14l2 -82q2 -22 13 -36t25 -14zM75 556q-17 0 -31.5 14.5t-19.5 35.5l1 -1l-5 99q0 8 3.5 17.5t12.5 12.5q12 0 20 -10q4 -5 15 -7h2q9 0 21 9q11 8 17 8 q9 0 13.5 -8t4.5 -17l-3 -103q-6 -21 -20 -35.5t-31 -14.5zM75 552q17 0 32 14.5t22 35.5l4 107q0 10 -5.5 19.5t-16.5 9.5q-5 0 -10 -2.5t-10 -6.5q-10 -8 -17 -8q-11 0 -15 5q-9 12 -24 12q-11 -4 -15 -14.5t-4 -19.5l4 -102q8 -21 23 -35.5t32 -14.5z" />
<glyph unicode="&#x201c;" horiz-adv-x="287" d="M90 570q14 0 24.5 14.5t12.5 35.5h1v87q0 10 -2 10t-6 -3l-2 -2q-16 -13 -32 -13q-9 1 -16 4t-12 10q-3 4 -5 4q-3 -1 -3 -15v-82h2q2 -22 13 -36t25 -14zM198 571q14 0 25 14t13 36h1v87q0 9 -2 9q-3 0 -8 -4q-16 -13 -32 -13q-19 2 -28 13q-2 4 -5 4t-3 -14v-82h2 q2 -21 12.5 -35.5t24.5 -14.5zM198 555q-16 0 -30.5 14.5t-20.5 35.5h-3h-3q-6 -22 -20.5 -36.5t-30.5 -14.5q-17 0 -31.5 14.5t-20.5 36.5h-4v97q0 8 4 17.5t13 12.5q12 0 20 -10q5 -6 17 -7q7 0 20 9v0q8 8 18 8q8 0 12 -6t6 -14q2 8 5.5 13.5t10.5 7.5q12 0 20 -10 q3 -5 15 -7h2q9 0 20 9q11 8 18 8q8 0 13 -8.5t5 -16.5v-103h-3q-6 -21 -20.5 -35.5t-31.5 -14.5zM198 551q17 0 32 14.5t23 35.5h4v107q0 10 -5.5 19.5t-16.5 9.5t-20 -9q-11 -8 -17 -8h-2q-10 1 -13 5q-10 12 -24 12q-10 -3 -15 -13q-7 12 -18 12q-9 0 -20 -8 q-11 -9 -17 -9q-11 1 -15 5q-9 12 -24 12q-11 -3 -15.5 -14t-4.5 -20v-101h5q8 -21 23 -36t32 -15t32 15t22 36q7 -21 22 -35.5t32 -14.5z" />
<glyph unicode="&#x201d;" horiz-adv-x="287" d="M90 570q14 0 24.5 14.5t12.5 35.5h1v87q0 10 -2 10t-6 -3l-2 -2q-16 -13 -32 -13q-9 1 -16 4t-12 10q-3 4 -5 4q-3 -1 -3 -15v-82h2q2 -22 13 -36t25 -14zM198 571q14 0 25 14t13 36h1v87q0 9 -2 9q-3 0 -8 -4q-16 -13 -32 -13q-19 2 -28 13q-2 4 -5 4t-3 -14v-82h2 q2 -21 12.5 -35.5t24.5 -14.5zM198 555q-16 0 -30.5 14.5t-20.5 35.5h-3h-3q-6 -22 -20.5 -36.5t-30.5 -14.5q-17 0 -31.5 14.5t-20.5 36.5h-4v97q0 8 4 17.5t13 12.5q12 0 20 -10q5 -6 17 -7q7 0 20 9v0q8 8 18 8q8 0 12 -6t6 -14q2 8 5.5 13.5t10.5 7.5q12 0 20 -10 q3 -5 15 -7h2q9 0 20 9q11 8 18 8q8 0 13 -8.5t5 -16.5v-103h-3q-6 -21 -20.5 -35.5t-31.5 -14.5zM198 551q17 0 32 14.5t23 35.5h4v107q0 10 -5.5 19.5t-16.5 9.5t-20 -9q-11 -8 -17 -8h-2q-10 1 -13 5q-10 12 -24 12q-10 -3 -15 -13q-7 12 -18 12q-9 0 -20 -8 q-11 -9 -17 -9q-11 1 -15 5q-9 12 -24 12q-11 -3 -15.5 -14t-4.5 -20v-101h5q8 -21 23 -36t32 -15t32 15t22 36q7 -21 22 -35.5t32 -14.5z" />
<glyph unicode="&#x202f;" horiz-adv-x="202" />
<glyph unicode="&#x205f;" horiz-adv-x="253" />
<glyph unicode="&#xe000;" horiz-adv-x="555" d="M0 555h555v-555h-555v555z" />
<glyph unicode="&#xfb01;" horiz-adv-x="769" d="M697 402v39q0 11 6 16t18 11q11 4 16 8t5 12q0 9 -10 9h-198q-10 0 -10 -11q0 -6 4.5 -10t13.5 -9q13 -6 19.5 -12.5t6.5 -19.5v-34v-277v-38q0 -13 -6 -19.5t-18 -13.5q-10 -6 -15 -11t-5 -14q0 -5 10 -5h192q11 0 11 10q0 9 -16 19q-12 8 -18 15t-6 20v37v278zM715 87 q0 -6 13 -14q13 -7 20 -15.5t7 -24.5q0 -10 -8.5 -19t-20.5 -9h-192q-10 0 -19 7.5t-9 15.5q0 22 8.5 31.5t23.5 15.5q12 6 12 11v349q0 5 -13 11q-14 6 -22.5 14.5t-8.5 25.5q0 10 8 19.5t20 9.5h198q11 0 19.5 -9.5t8.5 -17.5q0 -21 -10 -29t-25 -12q-10 -3 -10 -6v-354z M720 87v354q0 1 4 1q16 1 28 10t12 36q0 9 -9.5 20.5t-22.5 11.5h-198q-14 0 -23 -11.5t-9 -22.5q0 -22 9.5 -31t24.5 -14q9 -4 9 -6v-349q0 -2 -8 -5q-15 -5 -25 -15.5t-10 -37.5q0 -9 10 -18.5t22 -9.5h192q14 0 24 10.5t10 22.5q0 20 -8.5 29.5t-21.5 15.5q-10 5 -10 9z M268 248q13 0 20.5 -7t15.5 -21q10 -17 18 -17q2 0 13.5 12.5t24 29t22.5 30.5t10 16q0 18 -23 34t-58 16q-32 0 -49 -15.5t-30 -40.5q-9 -16 -13 -16q-9 0 -9 17v153q0 16 5 20.5t21 4.5q36 0 69 -12t65 -34q14 -10 41 -44q14 -20 23 -29t16 -9q13 0 13 13q0 8 -4 22 q-4 13 -6.5 26t-6.5 36l-1 5q-5 38 -10.5 56.5t-15.5 18.5q-7 0 -19 -6q-18 -10 -35 -10h-321q-10 0 -10 -12q0 -6 4.5 -10t14.5 -9q12 -6 19 -13t7 -20v-356q0 -58 -9 -89.5t-23 -57.5q-11 -19 -11 -29q0 -6 6 -6t13.5 3t13.5 6l1 1q27 12 74 46q27 20 45 31t38 15 q5 0 13 4t8 15q0 8 -10 11q-7 2 -11 4q-11 4 -14 13.5t-3 33.5v121q0 19 18 34t40 15zM268 229q-18 0 -29 -8.5t-11 -21.5v-121q0 -20 0.5 -24t3.5 -5q2 0 7 1h8q9 0 14.5 -7t5.5 -27t-11.5 -27.5t-25.5 -10.5q-16 -3 -32 -12.5t-42 -28.5q-47 -35 -77 -48l-1 -1 q-9 -4 -18 -7.5t-19 -3.5q-8 0 -16 8t-8 16q0 16 14 44q14 27 21.5 55.5t7.5 76.5v356q0 5 -13 11q-15 6 -23.5 14.5t-8.5 26.5q0 11 8.5 21t20.5 10h321q8 0 20 6q18 9 34 9q20 0 28.5 -21.5t15.5 -63.5l2 -10q4 -24 11 -51q5 -22 5 -36q0 -13 -9 -22.5t-22 -9.5 q-14 0 -27 13t-32 38q-21 28 -31 35q-33 21 -62 32t-62 11q-5 0 -9 1v0v0q1 -4 1 -8v-120q11 18 31 29t52 11q39 0 69.5 -22t30.5 -46q0 -5 -11.5 -22.5t-27.5 -37t-30.5 -33.5t-19.5 -14q-15 0 -23 8t-16 22q-9 15 -15 15zM268 224q4 0 11 -12q7 -15 16 -23.5t27 -8.5 q6 0 21 14.5t32 35t28.5 38.5t11.5 23q0 25 -31.5 49t-72.5 24q-27 0 -46.5 -8.5t-31.5 -22.5v106v2h3q33 0 62 -11t59 -31q9 -6 30 -34q20 -25 34 -38.5t29 -13.5q14 0 25 11t11 25q0 17 -6 40q-7 25 -11 48v3q-7 44 -17 70t-33 26q-19 0 -37 -10q-11 -6 -17 -6h-321 q-14 0 -23.5 -11.5t-9.5 -23.5q0 -23 10 -32t25 -15q9 -3 9 -5v-356q0 -46 -7.5 -74t-20.5 -56q-14 -29 -14 -46q0 -10 9.5 -19.5t18.5 -9.5q8 0 15.5 2.5t16.5 6.5q7 3 8 3q30 13 79 49q24 17 39.5 26.5t31.5 13.5q14 3 27 12.5t13 30.5q0 23 -5.5 31.5t-14.5 8.5 q-4 0 -11 -2q-5 -1 -7 -1q0 -2 0 25v121q0 25 35 25z" />
<glyph unicode="&#xfb02;" horiz-adv-x="981" d="M931 179q-9 0 -39 -32q-42 -43 -80 -69.5t-88 -26.5q-11 0 -14.5 7.5t-3.5 27.5v354q0 11 6 16.5t19 11.5q10 4 15 8t5 12q0 9 -9 9h-199q-10 0 -10 -11q0 -6 4.5 -10t13.5 -9q13 -6 19.5 -12.5t6.5 -19.5v-350q0 -13 -6 -19.5t-18 -13.5q-10 -6 -15 -11t-5 -14 q0 -5 10 -5h192q36 0 74.5 -1.5t61.5 -3.5q12 -1 22 -6q3 -2 4 -2q11 0 16 17t10 54q1 6 3 17q2 8 8 22q10 25 10 44q0 11 -2.5 13.5t-10.5 2.5zM931 197q14 0 22.5 -8t8.5 -26q0 -16 -3 -27t-8 -23q-5 -13 -6 -20q-3 -14 -3 -17q-7 -41 -16 -63t-29 -22q-6 0 -15 4 q-7 3 -12 4q-23 2 -60 3t-75 1h-192q-10 0 -19 8t-9 16q0 22 8.5 31.5t23.5 15.5q12 6 12 11v350q0 5 -13 11q-14 6 -22.5 14.5t-8.5 25.5q0 10 8 19.5t20 9.5h199q10 0 18.5 -9.5t8.5 -17.5q0 -21 -9.5 -29t-24.5 -13q-11 -3 -11 -6v-354q0 -17 -1 -17h1q42 0 76.5 23.5 t75.5 63.5q22 22 33.5 31.5t21.5 9.5zM931 202q-10 0 -23.5 -10.5t-36.5 -33.5q-41 -40 -73.5 -62.5t-70.5 -24.5q2 8 2 15v354q0 1 5 2q16 2 28 11t12 35q0 9 -10 20.5t-22 11.5h-199q-14 0 -23.5 -11.5t-9.5 -22.5q0 -22 10 -31t25 -14q9 -4 9 -6v-350q0 -2 -9 -5 q-15 -5 -25 -15.5t-10 -37.5q0 -9 10.5 -18.5t22.5 -9.5h192q36 0 74 -1.5t61 -3.5q3 0 9 -3q10 -5 18 -5q24 0 33.5 24.5t16.5 67.5l2 14q1 6 6 17q6 13 9 24.5t3 29.5q0 20 -11 29.5t-25 9.5zM268 248q13 0 20.5 -7t15.5 -21q10 -17 18 -17q2 0 13.5 12.5t24 29t22.5 30.5 t10 16q0 18 -23 34t-58 16q-32 0 -49 -15.5t-30 -40.5q-9 -16 -13 -16q-9 0 -9 17v153q0 16 5 20.5t21 4.5q36 0 69 -12t65 -34q14 -10 41 -44q14 -20 23 -29t16 -9q13 0 13 13q0 8 -4 22q-4 13 -6.5 26t-6.5 36l-1 5q-5 38 -10.5 56.5t-15.5 18.5q-7 0 -19 -6 q-18 -10 -35 -10h-321q-10 0 -10 -12q0 -6 4.5 -10t14.5 -9q12 -6 19 -13t7 -20v-356q0 -58 -9 -89.5t-23 -57.5q-11 -19 -11 -29q0 -6 6 -6t13.5 3t13.5 6l1 1q27 12 74 46q27 20 45 31t38 15q5 0 13 4t8 15q0 8 -10 11q-7 2 -11 4q-11 4 -14 13.5t-3 33.5v121q0 19 18 34 t40 15zM268 229q-18 0 -29 -8.5t-11 -21.5v-121q0 -20 0.5 -24t3.5 -5q2 0 7 1h8q9 0 14.5 -7t5.5 -27t-11.5 -27.5t-25.5 -10.5q-16 -3 -32 -12.5t-42 -28.5q-47 -35 -77 -48l-1 -1q-9 -4 -18 -7.5t-19 -3.5q-8 0 -16 8t-8 16q0 16 14 44q14 27 21.5 55.5t7.5 76.5v356 q0 5 -13 11q-15 6 -23.5 14.5t-8.5 26.5q0 11 8.5 21t20.5 10h321q8 0 20 6q18 9 34 9q20 0 28.5 -21.5t15.5 -63.5l2 -10q4 -24 11 -51q5 -22 5 -36q0 -13 -9 -22.5t-22 -9.5q-14 0 -27 13t-32 38q-21 28 -31 35q-33 21 -62 32t-62 11q-5 0 -9 1v0v0q1 -4 1 -8v-120 q11 18 31 29t52 11q39 0 69.5 -22t30.5 -46q0 -5 -11.5 -22.5t-27.5 -37t-30.5 -33.5t-19.5 -14q-15 0 -23 8t-16 22q-9 15 -15 15zM268 224q4 0 11 -12q7 -15 16 -23.5t27 -8.5q6 0 21 14.5t32 35t28.5 38.5t11.5 23q0 25 -31.5 49t-72.5 24q-27 0 -46.5 -8.5t-31.5 -22.5 v106v2h3q33 0 62 -11t59 -31q9 -6 30 -34q20 -25 34 -38.5t29 -13.5q14 0 25 11t11 25q0 17 -6 40q-7 25 -11 48v3q-7 44 -17 70t-33 26q-19 0 -37 -10q-11 -6 -17 -6h-321q-14 0 -23.5 -11.5t-9.5 -23.5q0 -23 10 -32t25 -15q9 -3 9 -5v-356q0 -46 -7.5 -74t-20.5 -56 q-14 -29 -14 -46q0 -10 9.5 -19.5t18.5 -9.5q8 0 15.5 2.5t16.5 6.5q7 3 8 3q30 13 79 49q24 17 39.5 26.5t31.5 13.5q14 3 27 12.5t13 30.5q0 23 -5.5 31.5t-14.5 8.5q-4 0 -11 -2q-5 -1 -7 -1q0 -2 0 25v121q0 25 35 25z" />
<glyph unicode="&#xfb03;" horiz-adv-x="1265" d="M1193 402v39q0 11 6 16t18 11q11 4 16 8t5 12q0 9 -10 9h-198q-10 0 -10 -11q0 -6 4.5 -10t13.5 -9q13 -6 19.5 -12.5t6.5 -19.5v-34v-277v-38q0 -13 -6 -19.5t-18 -13.5q-10 -6 -15 -11t-5 -14q0 -5 10 -5h192q11 0 11 10q0 9 -16 19q-12 8 -18 15t-6 20v37v278z M1211 87q0 -6 13 -14q13 -7 20 -15.5t7 -24.5q0 -10 -8.5 -19t-20.5 -9h-192q-10 0 -19 7.5t-9 15.5q0 22 8.5 31.5t23.5 15.5q12 6 12 11v349q0 5 -13 11q-14 6 -22.5 14.5t-8.5 25.5q0 10 8 19.5t20 9.5h198q11 0 19.5 -9.5t8.5 -17.5q0 -21 -10 -29t-25 -12 q-10 -3 -10 -6v-354zM1216 87v354q0 1 4 1q16 1 28 10t12 36q0 9 -9.5 20.5t-22.5 11.5h-198q-14 0 -23 -11.5t-9 -22.5q0 -22 9.5 -31t24.5 -14q9 -4 9 -6v-349q0 -2 -8 -5q-15 -5 -25 -15.5t-10 -37.5q0 -9 10 -18.5t22 -9.5h192q14 0 24 10.5t10 22.5q0 20 -8.5 29.5 t-21.5 15.5q-10 5 -10 9zM764 248q13 0 20.5 -7t15.5 -21q10 -17 18 -17q2 0 13.5 12.5t24 29t22.5 30.5t10 16q0 18 -23 34t-58 16q-32 0 -49 -15.5t-30 -40.5q-9 -16 -13 -16q-9 0 -9 17v153q0 16 5 20.5t21 4.5q36 0 69 -12t65 -34q14 -10 41 -44q14 -20 23 -29t16 -9 q13 0 13 13q0 8 -4 22q-4 13 -6.5 26t-6.5 36l-1 5q-5 38 -10.5 56.5t-15.5 18.5q-7 0 -19 -6q-18 -10 -35 -10h-321q-10 0 -10 -12q0 -6 4.5 -10t14.5 -9q12 -6 19 -13t7 -20v-356q0 -58 -9 -89.5t-23 -57.5q-11 -19 -11 -29q0 -6 6 -6t13.5 3t13.5 6l1 1q27 12 74 46 q27 20 45 31t38 15q5 0 13 4t8 15q0 8 -10 11q-7 2 -11 4q-11 4 -14 13.5t-3 33.5v121q0 19 18 34t40 15zM764 229q-18 0 -29 -8.5t-11 -21.5v-121q0 -20 0.5 -24t3.5 -5q2 0 7 1h8q9 0 14.5 -7t5.5 -27t-11.5 -27.5t-25.5 -10.5q-16 -3 -32 -12.5t-42 -28.5 q-47 -35 -77 -48l-1 -1q-9 -4 -18 -7.5t-19 -3.5q-8 0 -16 8t-8 16q0 16 14 44q14 27 21.5 55.5t7.5 76.5v356q0 5 -13 11q-15 6 -23.5 14.5t-8.5 26.5q0 11 8.5 21t20.5 10h321q8 0 20 6q18 9 34 9q20 0 28.5 -21.5t15.5 -63.5l2 -10q4 -24 11 -51q5 -22 5 -36 q0 -13 -9 -22.5t-22 -9.5q-14 0 -27 13t-32 38q-21 28 -31 35q-33 21 -62 32t-62 11q-5 0 -9 1v0v0q1 -4 1 -8v-120q11 18 31 29t52 11q39 0 69.5 -22t30.5 -46q0 -5 -11.5 -22.5t-27.5 -37t-30.5 -33.5t-19.5 -14q-15 0 -23 8t-16 22q-9 15 -15 15zM764 224q4 0 11 -12 q7 -15 16 -23.5t27 -8.5q6 0 21 14.5t32 35t28.5 38.5t11.5 23q0 25 -31.5 49t-72.5 24q-27 0 -46.5 -8.5t-31.5 -22.5v106v2h3q33 0 62 -11t59 -31q9 -6 30 -34q20 -25 34 -38.5t29 -13.5q14 0 25 11t11 25q0 17 -6 40q-7 25 -11 48v3q-7 44 -17 70t-33 26q-19 0 -37 -10 q-11 -6 -17 -6h-321q-14 0 -23.5 -11.5t-9.5 -23.5q0 -23 10 -32t25 -15q9 -3 9 -5v-356q0 -46 -7.5 -74t-20.5 -56q-14 -29 -14 -46q0 -10 9.5 -19.5t18.5 -9.5q8 0 15.5 2.5t16.5 6.5q7 3 8 3q30 13 79 49q24 17 39.5 26.5t31.5 13.5q14 3 27 12.5t13 30.5q0 23 -5.5 31.5 t-14.5 8.5q-4 0 -11 -2q-5 -1 -7 -1q0 -2 0 25v121q0 25 35 25zM268 248q13 0 20.5 -7t15.5 -21q10 -17 18 -17q2 0 13.5 12.5t24 29t22.5 30.5t10 16q0 18 -23 34t-58 16q-32 0 -49 -15.5t-30 -40.5q-9 -16 -13 -16q-9 0 -9 17v153q0 16 5 20.5t21 4.5q36 0 69 -12t65 -34 q14 -10 41 -44q14 -20 23 -29t16 -9q13 0 13 13q0 8 -4 22q-4 13 -6.5 26t-6.5 36l-1 5q-5 38 -10.5 56.5t-15.5 18.5q-7 0 -19 -6q-18 -10 -35 -10h-321q-10 0 -10 -12q0 -6 4.5 -10t14.5 -9q12 -6 19 -13t7 -20v-356q0 -58 -9 -89.5t-23 -57.5q-11 -19 -11 -29q0 -6 6 -6 t13.5 3t13.5 6l1 1q27 12 74 46q27 20 45 31t38 15q5 0 13 4t8 15q0 8 -10 11q-7 2 -11 4q-11 4 -14 13.5t-3 33.5v121q0 19 18 34t40 15zM268 229q-18 0 -29 -8.5t-11 -21.5v-121q0 -20 0.5 -24t3.5 -5q2 0 7 1h8q9 0 14.5 -7t5.5 -27t-11.5 -27.5t-25.5 -10.5 q-16 -3 -32 -12.5t-42 -28.5q-47 -35 -77 -48l-1 -1q-9 -4 -18 -7.5t-19 -3.5q-8 0 -16 8t-8 16q0 16 14 44q14 27 21.5 55.5t7.5 76.5v356q0 5 -13 11q-15 6 -23.5 14.5t-8.5 26.5q0 11 8.5 21t20.5 10h321q8 0 20 6q18 9 34 9q20 0 28.5 -21.5t15.5 -63.5l2 -10 q4 -24 11 -51q5 -22 5 -36q0 -13 -9 -22.5t-22 -9.5q-14 0 -27 13t-32 38q-21 28 -31 35q-33 21 -62 32t-62 11q-5 0 -9 1v0v0q1 -4 1 -8v-120q11 18 31 29t52 11q39 0 69.5 -22t30.5 -46q0 -5 -11.5 -22.5t-27.5 -37t-30.5 -33.5t-19.5 -14q-15 0 -23 8t-16 22 q-9 15 -15 15zM268 224q4 0 11 -12q7 -15 16 -23.5t27 -8.5q6 0 21 14.5t32 35t28.5 38.5t11.5 23q0 25 -31.5 49t-72.5 24q-27 0 -46.5 -8.5t-31.5 -22.5v106v2h3q33 0 62 -11t59 -31q9 -6 30 -34q20 -25 34 -38.5t29 -13.5q14 0 25 11t11 25q0 17 -6 40q-7 25 -11 48v3 q-7 44 -17 70t-33 26q-19 0 -37 -10q-11 -6 -17 -6h-321q-14 0 -23.5 -11.5t-9.5 -23.5q0 -23 10 -32t25 -15q9 -3 9 -5v-356q0 -46 -7.5 -74t-20.5 -56q-14 -29 -14 -46q0 -10 9.5 -19.5t18.5 -9.5q8 0 15.5 2.5t16.5 6.5q7 3 8 3q30 13 79 49q24 17 39.5 26.5t31.5 13.5 q14 3 27 12.5t13 30.5q0 23 -5.5 31.5t-14.5 8.5q-4 0 -11 -2q-5 -1 -7 -1q0 -2 0 25v121q0 25 35 25z" />
<glyph unicode="&#xfb04;" horiz-adv-x="1477" d="M1427 179q-9 0 -39 -32q-42 -43 -80 -69.5t-88 -26.5q-11 0 -14.5 7.5t-3.5 27.5v354q0 11 6 16.5t19 11.5q10 4 15 8t5 12q0 9 -9 9h-199q-10 0 -10 -11q0 -6 4.5 -10t13.5 -9q13 -6 19.5 -12.5t6.5 -19.5v-350q0 -13 -6 -19.5t-18 -13.5q-10 -6 -15 -11t-5 -14 q0 -5 10 -5h192q36 0 74.5 -1.5t61.5 -3.5q12 -1 22 -6q3 -2 4 -2q11 0 16 17t10 54q1 6 3 17q2 8 8 22q10 25 10 44q0 11 -2.5 13.5t-10.5 2.5zM1427 197q14 0 22.5 -8t8.5 -26q0 -16 -3 -27t-8 -23q-5 -13 -6 -20q-3 -14 -3 -17q-7 -41 -16 -63t-29 -22q-6 0 -15 4 q-7 3 -12 4q-23 2 -60 3t-75 1h-192q-10 0 -19 8t-9 16q0 22 8.5 31.5t23.5 15.5q12 6 12 11v350q0 5 -13 11q-14 6 -22.5 14.5t-8.5 25.5q0 10 8 19.5t20 9.5h199q10 0 18.5 -9.5t8.5 -17.5q0 -21 -9.5 -29t-24.5 -13q-11 -3 -11 -6v-354q0 -17 -1 -17h1q42 0 76.5 23.5 t75.5 63.5q22 22 33.5 31.5t21.5 9.5zM1427 202q-10 0 -23.5 -10.5t-36.5 -33.5q-41 -40 -73.5 -62.5t-70.5 -24.5q2 8 2 15v354q0 1 5 2q16 2 28 11t12 35q0 9 -10 20.5t-22 11.5h-199q-14 0 -23.5 -11.5t-9.5 -22.5q0 -22 10 -31t25 -14q9 -4 9 -6v-350q0 -2 -9 -5 q-15 -5 -25 -15.5t-10 -37.5q0 -9 10.5 -18.5t22.5 -9.5h192q36 0 74 -1.5t61 -3.5q3 0 9 -3q10 -5 18 -5q24 0 33.5 24.5t16.5 67.5l2 14q1 6 6 17q6 13 9 24.5t3 29.5q0 20 -11 29.5t-25 9.5zM764 248q13 0 20.5 -7t15.5 -21q10 -17 18 -17q2 0 13.5 12.5t24 29t22.5 30.5 t10 16q0 18 -23 34t-58 16q-32 0 -49 -15.5t-30 -40.5q-9 -16 -13 -16q-9 0 -9 17v153q0 16 5 20.5t21 4.5q36 0 69 -12t65 -34q14 -10 41 -44q14 -20 23 -29t16 -9q13 0 13 13q0 8 -4 22q-4 13 -6.5 26t-6.5 36l-1 5q-5 38 -10.5 56.5t-15.5 18.5q-7 0 -19 -6 q-18 -10 -35 -10h-321q-10 0 -10 -12q0 -6 4.5 -10t14.5 -9q12 -6 19 -13t7 -20v-356q0 -58 -9 -89.5t-23 -57.5q-11 -19 -11 -29q0 -6 6 -6t13.5 3t13.5 6l1 1q27 12 74 46q27 20 45 31t38 15q5 0 13 4t8 15q0 8 -10 11q-7 2 -11 4q-11 4 -14 13.5t-3 33.5v121q0 19 18 34 t40 15zM764 229q-18 0 -29 -8.5t-11 -21.5v-121q0 -20 0.5 -24t3.5 -5q2 0 7 1h8q9 0 14.5 -7t5.5 -27t-11.5 -27.5t-25.5 -10.5q-16 -3 -32 -12.5t-42 -28.5q-47 -35 -77 -48l-1 -1q-9 -4 -18 -7.5t-19 -3.5q-8 0 -16 8t-8 16q0 16 14 44q14 27 21.5 55.5t7.5 76.5v356 q0 5 -13 11q-15 6 -23.5 14.5t-8.5 26.5q0 11 8.5 21t20.5 10h321q8 0 20 6q18 9 34 9q20 0 28.5 -21.5t15.5 -63.5l2 -10q4 -24 11 -51q5 -22 5 -36q0 -13 -9 -22.5t-22 -9.5q-14 0 -27 13t-32 38q-21 28 -31 35q-33 21 -62 32t-62 11q-5 0 -9 1v0v0q1 -4 1 -8v-120 q11 18 31 29t52 11q39 0 69.5 -22t30.5 -46q0 -5 -11.5 -22.5t-27.5 -37t-30.5 -33.5t-19.5 -14q-15 0 -23 8t-16 22q-9 15 -15 15zM764 224q4 0 11 -12q7 -15 16 -23.5t27 -8.5q6 0 21 14.5t32 35t28.5 38.5t11.5 23q0 25 -31.5 49t-72.5 24q-27 0 -46.5 -8.5t-31.5 -22.5 v106v2h3q33 0 62 -11t59 -31q9 -6 30 -34q20 -25 34 -38.5t29 -13.5q14 0 25 11t11 25q0 17 -6 40q-7 25 -11 48v3q-7 44 -17 70t-33 26q-19 0 -37 -10q-11 -6 -17 -6h-321q-14 0 -23.5 -11.5t-9.5 -23.5q0 -23 10 -32t25 -15q9 -3 9 -5v-356q0 -46 -7.5 -74t-20.5 -56 q-14 -29 -14 -46q0 -10 9.5 -19.5t18.5 -9.5q8 0 15.5 2.5t16.5 6.5q7 3 8 3q30 13 79 49q24 17 39.5 26.5t31.5 13.5q14 3 27 12.5t13 30.5q0 23 -5.5 31.5t-14.5 8.5q-4 0 -11 -2q-5 -1 -7 -1q0 -2 0 25v121q0 25 35 25zM268 248q13 0 20.5 -7t15.5 -21q10 -17 18 -17 q2 0 13.5 12.5t24 29t22.5 30.5t10 16q0 18 -23 34t-58 16q-32 0 -49 -15.5t-30 -40.5q-9 -16 -13 -16q-9 0 -9 17v153q0 16 5 20.5t21 4.5q36 0 69 -12t65 -34q14 -10 41 -44q14 -20 23 -29t16 -9q13 0 13 13q0 8 -4 22q-4 13 -6.5 26t-6.5 36l-1 5q-5 38 -10.5 56.5 t-15.5 18.5q-7 0 -19 -6q-18 -10 -35 -10h-321q-10 0 -10 -12q0 -6 4.5 -10t14.5 -9q12 -6 19 -13t7 -20v-356q0 -58 -9 -89.5t-23 -57.5q-11 -19 -11 -29q0 -6 6 -6t13.5 3t13.5 6l1 1q27 12 74 46q27 20 45 31t38 15q5 0 13 4t8 15q0 8 -10 11q-7 2 -11 4q-11 4 -14 13.5 t-3 33.5v121q0 19 18 34t40 15zM268 229q-18 0 -29 -8.5t-11 -21.5v-121q0 -20 0.5 -24t3.5 -5q2 0 7 1h8q9 0 14.5 -7t5.5 -27t-11.5 -27.5t-25.5 -10.5q-16 -3 -32 -12.5t-42 -28.5q-47 -35 -77 -48l-1 -1q-9 -4 -18 -7.5t-19 -3.5q-8 0 -16 8t-8 16q0 16 14 44 q14 27 21.5 55.5t7.5 76.5v356q0 5 -13 11q-15 6 -23.5 14.5t-8.5 26.5q0 11 8.5 21t20.5 10h321q8 0 20 6q18 9 34 9q20 0 28.5 -21.5t15.5 -63.5l2 -10q4 -24 11 -51q5 -22 5 -36q0 -13 -9 -22.5t-22 -9.5q-14 0 -27 13t-32 38q-21 28 -31 35q-33 21 -62 32t-62 11 q-5 0 -9 1v0v0q1 -4 1 -8v-120q11 18 31 29t52 11q39 0 69.5 -22t30.5 -46q0 -5 -11.5 -22.5t-27.5 -37t-30.5 -33.5t-19.5 -14q-15 0 -23 8t-16 22q-9 15 -15 15zM268 224q4 0 11 -12q7 -15 16 -23.5t27 -8.5q6 0 21 14.5t32 35t28.5 38.5t11.5 23q0 25 -31.5 49t-72.5 24 q-27 0 -46.5 -8.5t-31.5 -22.5v106v2h3q33 0 62 -11t59 -31q9 -6 30 -34q20 -25 34 -38.5t29 -13.5q14 0 25 11t11 25q0 17 -6 40q-7 25 -11 48v3q-7 44 -17 70t-33 26q-19 0 -37 -10q-11 -6 -17 -6h-321q-14 0 -23.5 -11.5t-9.5 -23.5q0 -23 10 -32t25 -15q9 -3 9 -5v-356 q0 -46 -7.5 -74t-20.5 -56q-14 -29 -14 -46q0 -10 9.5 -19.5t18.5 -9.5q8 0 15.5 2.5t16.5 6.5q7 3 8 3q30 13 79 49q24 17 39.5 26.5t31.5 13.5q14 3 27 12.5t13 30.5q0 23 -5.5 31.5t-14.5 8.5q-4 0 -11 -2q-5 -1 -7 -1q0 -2 0 25v121q0 25 35 25z" />
</font>
</defs>
</svg>
