<?xml version="1.0" standalone="no"?>
<!DOCTYPE svg PUBLIC "-//W3C//DTD SVG 1.1//EN" "http://www.w3.org/Graphics/SVG/1.1/DTD/svg11.dtd" >
<svg xmlns="http://www.w3.org/2000/svg">
<metadata>
This is a custom SVG webfont generated by Font Squirrel.
Copyright   : C Copyright PJL 1996
</metadata>
<defs>
<font id="DuvallSmallCapsCondenseNormal" horiz-adv-x="598" >
<font-face units-per-em="2048" ascent="1638" descent="-410" />
<missing-glyph horiz-adv-x="1024" />
<glyph unicode=" "  horiz-adv-x="1024" />
<glyph unicode="&#x09;" horiz-adv-x="1024" />
<glyph unicode="&#xa0;" horiz-adv-x="1024" />
<glyph unicode="!" horiz-adv-x="278" d="M25 203q0 -82 29.5 -141.5t72.5 -59.5t72.5 59.5t29.5 141.5t-29.5 139t-72.5 57t-72.5 -57t-29.5 -139zM43 1462q0 -12 4 -35q2 -23 2 -34q2 -63 6 -193q10 -324 11 -473q0 -27 -3 -86q-2 -57 -2 -82q0 -45 4.5 -68.5t16.5 -23.5q4 0 8 2q23 14 41 14q10 0 33 -12 q16 -10 20 -10q16 0 17 43v31q-4 23 -4 65q0 23 2 70q2 45 2 67q6 412 43 840q0 10 4 39q6 35 6 45q0 12 -4 12q-6 0 -21 -28q-41 -70 -82 -110t-81 -40q-23 0 -23 -33z" />
<glyph unicode="&#x22;" horiz-adv-x="294" d="M25 1257h4q4 -57 17 -94t32 -37q18 0 32.5 37t16.5 94v226q0 25 -4 24q-4 -4 -8 -12q-25 -33 -41 -33q-12 2 -21.5 9.5t-15.5 25.5q-4 10 -8 10q-4 -4 -4 -37v-213zM168 1260q4 -57 17.5 -94.5t31.5 -37.5t32.5 37t16.5 95h2v225q0 18 -2 24q-4 0 -8 -8l-4 -4 q-18 -33 -41 -33q-23 4 -37 35q-2 8 -4 10q-4 -2 -4 -36v-213z" />
<glyph unicode="$" horiz-adv-x="827" d="M25 -37q0 -29 18 -29q12 0 47 19q43 23 62 22q51 -6 139 -43q43 -18 69 -26v-238q0 -39 35 -39q16 0 29.5 11.5t13.5 29.5v248q76 16 139.5 47t113.5 88.5t80 150.5t30 228q0 127 -24.5 213t-66.5 138.5t-90.5 81t-123.5 61.5q-33 14 -50 22v391q27 -16 46.5 -46.5 t44.5 -82.5q25 -57 46 -90t52 -47q14 -6 18 -6q10 0 23 23q37 70 63.5 160.5t26.5 189.5q0 29 -12 28q-8 -2 -33 -26q-23 -23 -38 -34t-30 -11h-2h-4q-78 25 -201 69v166q0 18 -26 19q-18 0 -34.5 -11.5t-16.5 -27.5v-133q-63 -16 -118.5 -45t-100 -79t-71 -127t-26.5 -181 q0 -102 22.5 -170t60.5 -109t79 -62.5t109 -48.5q20 -6 36 -14v-600q-63 6 -108 98t-45 240q0 10 4 53q2 37 2 55q0 25 -8 25q-2 0 -10 -10q-10 -20 -27 -55q-68 -131 -105.5 -241t-37.5 -245zM285 1165q4 86 22.5 130t61.5 59v-363q-76 29 -84 174zM438 43v545 q57 -8 88 -81t31 -198q0 -113 -30.5 -190.5t-75.5 -77.5q-2 0 -7 2h-6z" />
<glyph unicode="&#x26;" horiz-adv-x="593" d="M25 471q0 -229 70.5 -357t195.5 -128q39 0 79 26.5t73.5 71.5t60 100.5t41.5 112.5q10 35 17 74t7 69q0 14 -5 25.5t-11 11.5t-21 -28q-8 -18 -12 -25q-51 -80 -93 -104.5t-77 -24.5q-41 0 -74.5 32.5t-58 87t-37 118t-12.5 124.5q0 59 11 120t32.5 109t49.5 77.5 t61 29.5q68 0 67 43q0 29 -23.5 54.5t-54.5 27.5q-61 0 -96 -49q-8 -12 -14 -12q-2 0 -4 35q0 14 -2 24q0 100 50 178t105 78q35 0 54.5 -44t29.5 -124q8 -29 25 -28q23 0 48 72.5t25 209.5q0 43 -7 82t-21 39q-8 0 -21.5 -14.5t-27.5 -34.5q-8 -14 -42 -23.5t-73 -9.5 q-47 0 -93 -41t-83 -111.5t-57.5 -156.5t-20.5 -174q0 -29 6 -70q4 -18 4 -29q0 -41 -12 -67q-4 -10 -6 -14q-25 -55 -39 -129t-14 -234z" />
<glyph unicode="'" horiz-adv-x="151" d="M25 1262h4q4 -57 17 -94.5t32 -37.5q18 0 32.5 37t16.5 95v225q0 25 -4 24q-4 -4 -8 -12q-25 -33 -41 -33q-12 2 -21.5 9.5t-15.5 25.5q-4 10 -8 10q-4 -4 -4 -36v-213z" />
<glyph unicode="," horiz-adv-x="251" d="M25 201q0 -76 25.5 -137.5t62.5 -61.5q23 0 22 -16q-2 -18 -15.5 -51t-25.5 -52q-12 -16 -12 -37q0 -23 27 -22q20 0 26 10q39 39 64.5 131t25.5 195q0 92 -27.5 164.5t-70.5 72.5t-72.5 -57t-29.5 -139z" />
<glyph unicode="-" horiz-adv-x="419" d="M25 557q0 -14 12 -14q6 0 12 2q49 14 152 14q37 0 110 -10q10 -2 33 -4q4 0 10 -4q4 -4 6 -4q6 0 13 36q2 16 12 48q2 10 6 24q2 10 2 23q0 12 -6 12q-4 0 -10 -4l-12 -6q-43 -16 -140 -17q-84 0 -147 17q-18 6 -25 6q-2 -2 -6 -19q0 -8 -2 -16q-6 -29 -14 -59 q0 -6 -4 -13q-2 -10 -2 -12z" />
<glyph unicode="." horiz-adv-x="253" d="M25 201q0 -82 29.5 -141.5t72.5 -59.5t72.5 59.5t29.5 141.5t-29.5 139t-72.5 57t-72.5 -57t-29.5 -139z" />
<glyph unicode="0" d="M25 551q0 -127 20.5 -233.5t57 -184.5t85 -119t103.5 -41t105 50.5t91 139.5t63.5 203.5t22.5 241.5q0 129 -18 243t-53 202t-82 137t-101 49q-20 0 -46.5 -15.5t-50 -42t-41 -58t-21.5 -60.5q-2 -18 -4 -24.5t-13 -12.5q-25 -12 -46 -61.5t-37.5 -121t-25.5 -149 t-9 -143.5zM143 743q0 35 4 35q2 0 9 -14q6 -18 11 -29.5t11 -11.5t17 39q16 63 41.5 103t82.5 40q68 0 110 -94t42 -233q0 -270 -145 -271q-41 0 -75 41t-57.5 107.5t-37 143t-13.5 144.5z" />
<glyph unicode="1" horiz-adv-x="395" d="M25 18q0 -18 20 -18h307q16 0 17 33q0 20 -6.5 32.5t-20.5 30.5q-18 23 -27.5 45.5t-9.5 63.5v983q0 14 -6 20t-12 6q-23 0 -47.5 -20t-63.5 -61q-41 -41 -67.5 -62.5t-51.5 -21.5q-33 0 -32 -41q0 -18 28 -62q23 -33 34 -56.5t11 -51.5v-637q0 -41 -10 -61.5t-29 -41.5 q-18 -18 -26 -34.5t-8 -45.5z" />
<glyph unicode="2" horiz-adv-x="589" d="M25 37q0 -25 9 -31t19 -6h471q25 0 25 53v137q0 59 4 154q4 80 4 111q0 29 -3 46t-13 17q-12 0 -22.5 -19.5t-24.5 -60.5q-18 -55 -36 -84.5t-44 -29.5h-103q-20 0 -20 14q0 8 10 19.5t27 27.5l4 4q102 98 167.5 204.5t65.5 242.5q0 199 -74.5 287.5t-197.5 88.5 q-23 0 -60.5 -9t-76.5 -32.5t-67 -68.5t-28 -113q0 -35 19.5 -72.5t44.5 -37.5t39 24.5t35 75.5q18 53 36.5 82t47.5 29q20 0 35.5 -25t24.5 -64.5t13 -85t4 -90.5q0 -106 -20.5 -191t-53 -146.5t-70.5 -105.5t-95 -103q-39 -39 -51 -54q-8 -8 -11 -12q-18 -16 -26 -30.5 t-8 -41.5v-104z" />
<glyph unicode="3" horiz-adv-x="532" d="M25 -530q0 -20 20 -21q8 0 21 6q80 37 154.5 108.5t134 173t95 229.5t35.5 272q0 123 -26.5 193.5t-77.5 96.5q-20 10 -21 23q0 20 9.5 36.5t31.5 43.5q49 57 78 124.5t29 194.5q0 125 -50 193.5t-124 68.5q-45 0 -95.5 -19t-95.5 -55t-71.5 -84t-26.5 -104 q0 -74 17.5 -101.5t52.5 -27.5q29 0 43 33t28 96q12 53 23.5 81t32.5 28q39 0 58 -60.5t19 -150.5q0 -147 -39.5 -247.5t-107.5 -184.5q-12 -16 -12 -47q0 -35 20 -35q68 0 99.5 -66.5t31.5 -183.5q0 -236 -68.5 -377t-187.5 -196q-2 -2 -8 -3q-10 -4 -16 -11t-6 -27z" />
<glyph unicode="4" horiz-adv-x="620" d="M25 47q0 -33 20 -33h201q12 0 12 -30v-101q0 -43 -10 -67.5t-29 -51.5q-14 -18 -21.5 -33.5t-7.5 -35.5q0 -47 15 -47h297q23 0 22 47q0 29 -9 44t-26 32q-20 18 -31.5 38.5t-11.5 59.5v111q0 16 3.5 24t15.5 8q43 0 63.5 -27.5t34.5 -70.5q8 -27 15 -27q16 0 16 60v329 q0 31 -16 31h-127q-8 0 -9 29v10q4 152 4 471v361q0 39 -16 39l-4 -3l-4 -2q-16 -14 -60 -59q-63 -66 -108 -100.5t-98 -46.5q-33 -6 -33 -43q0 -31 20 -31q8 0 17 14q8 16 18 17q6 0 6 -9q0 -4 -4 -16q-4 -14 -4 -23l-2 -18q-90 -561 -145 -827q-4 -17 -4 -23zM156 436 q0 27 8 107t20.5 168t24.5 148.5t22 60.5q8 0 14.5 -40t11.5 -101.5t8 -122t3 -97.5v-213q0 -39 -18 -39h-45q-29 0 -39 23.5t-10 105.5z" />
<glyph unicode="5" horiz-adv-x="495" d="M25 -377q0 -8 7 -14t13 -6q61 0 133 79.5t134.5 203.5t102.5 253t40 219q0 203 -57.5 310.5t-151.5 107.5q-14 0 -41 -16t-41 -17q-2 18 -2 48q0 41 2 90t7 100t11 83t13 32q27 -2 48 -24.5t50 -65.5q25 -37 44 -59.5t42 -31.5l4 -2q8 -2 12 -2q39 0 56.5 65.5 t17.5 158.5q0 49 -14 49q-4 0 -21 -13q-29 -20 -47 -20q-39 8 -111 35q-78 29 -120 35h-9q-23 0 -22 -27q0 -168 -8 -344t-23 -350q-2 -12 -2 -31q0 -37 14 -37q6 0 21 8q20 14 37 15q57 0 88 -56.5t31 -152.5q0 -94 -14.5 -186.5t-44 -173.5t-78 -146.5t-115.5 -106.5 q-6 -6 -6 -10z" />
<glyph unicode="6" horiz-adv-x="606" d="M25 647q0 -303 68.5 -482t205.5 -179q135 0 209 177t74 455q0 184 -49.5 304t-141.5 120q-55 0 -92 -45t-59 -118q-18 -57 -19 -113q0 -70 21 -70q10 0 34 25q33 33 48 33q66 0 106.5 -73t40.5 -189q0 -256 -121 -256q-41 0 -70.5 33.5t-48 93t-26.5 134t-8 156.5 q0 324 85 561.5t242 344.5q4 2 4 8q0 10 -10 23.5t-22 13.5q-102 0 -190.5 -85t-151 -227.5t-96 -311.5t-33.5 -333z" />
<glyph unicode="7" horiz-adv-x="552" d="M25 979q0 -82 33.5 -125t84.5 -43q35 0 64 26.5t67 80.5q41 55 72 83.5t70 32.5q25 0 24 -30q0 -6 -2 -21l-2 -6q-111 -322 -190.5 -644.5t-134.5 -692.5q0 -8 -2 -21v-12q0 -25 22 -25q41 0 115 39q45 23 69 31q23 6 25 41q14 401 62.5 742t125.5 679v12q0 29 -34 33 q-33 4 -93 12q-104 14 -159 15q-18 0 -56 -8q-33 -6 -49 -7q-12 0 -19 8.5t-16 24.5q-12 25 -24 25q-23 -2 -38 -62.5t-15 -187.5z" />
<glyph unicode="8" horiz-adv-x="589" d="M25 373q0 -199 74.5 -294t195.5 -95q41 0 88 39.5t89 110.5t66.5 163t24.5 192q0 145 -35.5 265t-97.5 172q-20 20 -20 37q0 4 6 10q10 10 18 20q70 109 70 295q0 121 -49 198t-103 77q-8 0 -26 -13q-18 -14 -27 -14q-8 0 -29 10q-18 10 -26 10q-14 0 -21.5 -12t-7.5 -41 v-18q2 -16 2 -27q4 -12 4 -22q0 -27 -24 -37q-47 -12 -77 -97t-30 -182q0 -205 53 -278q8 -10 21 -25q16 -18 18 -26q0 -16 -26 -33q-59 -39 -95 -145.5t-36 -239.5zM180 496q0 98 23.5 156.5t46.5 58.5q76 -33 132 -135.5t56 -215.5q0 -57 -15 -97t-69 -40 q-33 0 -63.5 12.5t-55 42t-40 84t-15.5 134.5zM207 1292q0 27 5 51.5t11 24.5t21 -29q14 -27 25.5 -42t25.5 -15q102 0 102 -119q0 -63 -11 -109t-32 -46q-16 0 -40.5 25.5t-49 67.5t-41 92t-16.5 99z" />
<glyph unicode="9" horiz-adv-x="606" d="M25 584q0 -184 49 -304t141 -120q55 0 92 45t60 119q18 57 18 112q0 70 -20 70q-10 0 -35 -25q-31 -33 -47 -32q-66 0 -107 72.5t-41 189.5q0 256 121 256q41 0 70.5 -34t48 -93.5t27 -134t8.5 -156.5q0 -324 -85 -561.5t-243 -343.5q-4 -2 -4 -9q0 -10 10 -23t23 -13 q102 0 190 85t150.5 227t96.5 311t34 333q0 303 -68 482.5t-207 179.5q-135 0 -208.5 -177t-73.5 -456z" />
<glyph unicode=":" horiz-adv-x="253" d="M25 201q0 -82 29.5 -141.5t72.5 -59.5t72.5 59.5t29.5 141.5t-29.5 139t-72.5 57t-72.5 -57t-29.5 -139zM25 834q0 -82 29.5 -141.5t72.5 -59.5t72.5 59.5t29.5 141.5t-29.5 139t-72.5 57t-72.5 -57t-29.5 -139z" />
<glyph unicode=";" horiz-adv-x="253" d="M25 199q0 -76 25.5 -137.5t62.5 -61.5q23 0 22 -16q-2 -18 -15.5 -51t-25.5 -52q-12 -16 -12 -37q0 -23 27 -22q20 0 26 10q39 39 64.5 131t25.5 195q0 92 -27.5 164.5t-70.5 72.5t-72.5 -57t-29.5 -139zM25 834q0 -82 29.5 -141.5t72.5 -59.5t72.5 59.5t29.5 141.5 t-29.5 139t-72.5 57t-72.5 -57t-29.5 -139z" />
<glyph unicode="?" horiz-adv-x="544" d="M27 1128q0 -63 17 -95t46 -32q33 0 57.5 48.5t24.5 109.5q0 27 -8 88v6v9q-2 4 -2 8q0 53 42 96t81 43q51 0 76.5 -67.5t25.5 -147.5q0 -53 -17.5 -97t-52.5 -112q-41 -74 -63.5 -129t-28.5 -129q-4 -55 -4 -168q0 -45 4 -68.5t17 -23.5q8 0 24 8t25 8q10 0 33 -12 q16 -10 20 -10q16 0 16 43q0 16 -2 49t-2 47v43q0 59 4 94q4 61 21.5 92t52.5 62q41 39 61.5 85t20.5 148q0 238 -82 344q-31 41 -65.5 58.5t-77.5 17.5q-121 0 -187.5 -107.5t-76.5 -308.5zM184 203q0 -82 30 -141.5t73 -59.5t72.5 59.5t29.5 141.5t-29.5 139t-72.5 57 t-73 -57t-30 -139z" />
<glyph unicode="A" horiz-adv-x="929" d="M25 39q0 -39 24 -39h172q20 0 21 33q0 27 -6.5 40t-18.5 25q-14 16 -21.5 32.5t-7.5 53.5q0 39 10.5 62.5t41.5 46.5l239 176q10 8 17 8q14 0 20 -33l45 -221q6 -25 6 -41q0 -23 -6 -37t-18 -30q-14 -20 -21.5 -36t-7.5 -44q0 -23 24.5 -29t49.5 -6h297q20 0 20 33 q0 49 -15.5 73.5t-45.5 47.5q-35 27 -41 51l-234 1147q-12 61 -12 86q0 6 2 37v41q0 45 -35 45q-20 0 -51 -16.5t-61.5 -40t-56 -47t-36.5 -36.5q-20 -20 -20 -45q0 -27 27 -80q12 -25 18 -39q-25 -119 -54.5 -256t-58 -261t-63.5 -271t-57 -246q-10 -37 -22.5 -59.5 t-31.5 -46.5q-18 -23 -25 -38t-7 -40zM279 610q0 12 10 56v4l80 354q12 39 16 39q8 0 14 -31l52 -258q4 -10 4 -26q0 -27 -17 -39l-127 -101l-6 -4q-16 -10 -18 -10q-8 0 -8 16z" />
<glyph unicode="B" horiz-adv-x="851" d="M25 1300q0 -14 8 -20t26 -10q20 -4 37 -12.5t32 -32t25.5 -69.5t10.5 -120v-835q0 -41 -10.5 -61.5t-28.5 -41.5q-16 -18 -24.5 -34.5t-8.5 -45.5q0 -18 19 -18h454q100 0 181 113.5t81 298.5q0 90 -12 155.5t-34.5 110.5t-50.5 74.5t-66 56.5q-12 8 -37 18t-25 17 q0 10 27 18l8 2q55 16 100 101q23 39 35 84t12 88q0 94 -33.5 173t-92 134t-131 85t-150.5 30q-98 0 -184.5 -51.5t-143.5 -137.5q-24 -35 -24 -70zM279 1430v2q0 4 14 8t31 4q98 0 169.5 -78t71.5 -182q0 -129 -42 -211t-117 -82q-25 0 -31 23.5t-6 62.5v188q0 53 10 109 q8 51 8 88q0 20 -16.5 30.5t-51.5 20.5q-30 11 -40 17zM369 205v465q0 57 4 90t20 33q39 0 75 -20.5t65.5 -67t47 -122t17.5 -180.5q0 -133 -60.5 -219t-148.5 -86q-20 1 -20 107z" />
<glyph unicode="C" horiz-adv-x="831" d="M25 750q0 -162 25.5 -306.5t75.5 -253t123 -171t163 -62.5q70 0 140.5 44t128.5 123t92 183.5t34 218.5q0 31 -8 31q-4 0 -10.5 -11t-16.5 -30q-8 -16 -12 -22q-47 -70 -124 -121t-140 -51q-131 0 -213 162.5t-82 441.5q0 199 53 326.5t139 127.5q41 0 66.5 -30.5 t56.5 -89.5q29 -51 50.5 -78t51.5 -27q33 0 54.5 21.5t32 56.5t13.5 74t3 79q0 10 4 62q6 74 6 80q0 41 -6 69.5t-18 28.5q-8 0 -33 -27q-23 -27 -39.5 -40t-36.5 -13q-18 0 -55 6t-56 7q-92 0 -176 -56.5t-148.5 -164t-101 -258t-36.5 -330.5z" />
<glyph unicode="D" horiz-adv-x="917" d="M25 1300q0 -14 8 -20t26 -10q20 -4 37 -12.5t32 -32t25.5 -69.5t10.5 -120v-835q0 -41 -10.5 -61.5t-28.5 -41.5q-16 -18 -24.5 -34.5t-8.5 -45.5q0 -18 19 -18h417q102 0 173 69.5t113 180t59.5 232.5t17.5 231q0 236 -45 400.5t-121 263t-166 140.5t-182 42 q-98 0 -184.5 -51.5t-143.5 -137.5q-24 -35 -24 -70zM279 1430v2q0 8 47 8q10 0 34 -4q51 -14 100.5 -52t95.5 -119t74.5 -224.5t28.5 -354.5q0 -156 -23.5 -270.5t-62 -186t-81.5 -104.5t-82 -33q-14 0 -27.5 12.5t-13.5 47.5v1013q0 53 10 109q8 51 8 88q0 20 -16.5 30.5 t-51.5 20.5q-30 11 -40 17z" />
<glyph unicode="E" horiz-adv-x="745" d="M25 18q0 -18 18 -18h307q55 0 133 -5t119 -11q18 -2 35 -23l6 -4q16 0 24.5 53t16.5 162l6 66q2 27 12 75q6 37 10.5 68t4.5 72t-3 58t-14 17q-8 0 -26 -57q-12 -41 -27.5 -79t-36.5 -73q-51 -92 -129 -158.5t-149 -66.5q-18 0 -23.5 23.5t-5.5 87.5v381q0 31 4 50t17 40 q14 27 32.5 44t36.5 17q23 0 35 -23.5t25 -64.5q8 -27 13 -39t13 -12t15.5 18.5t23.5 65.5q14 49 23 70q8 20 24 51q25 45 25 71q0 55 -37 105.5t-90 50.5q-51 0 -78 -48t-47 -126q-14 -51 -21 -51q-14 0 -14 53v483q0 47 8 62.5t33 15.5q57 0 108.5 -38t100.5 -107 q14 -20 28.5 -53t34.5 -86q25 -63 38.5 -91t25.5 -28q20 0 20 41q0 25 -6 71q-6 41 -10 80t-10 113q-2 31 -4 43q-8 111 -15.5 160t-23.5 49q-10 0 -29 -21q-12 -14 -23.5 -22t-29.5 -8h-506q-18 0 -18 -37q0 -20 7 -32.5t23 -27.5q20 -23 30.5 -43t10.5 -61v-1120 q0 -41 -10 -61.5t-29 -41.5q-16 -18 -24 -34.5t-8 -45.5z" />
<glyph unicode="F" horiz-adv-x="724" d="M25 1481q0 -20 7 -32.5t23 -27.5q20 -23 30.5 -43t10.5 -61v-1120q0 -182 -14 -280.5t-37 -182.5q-16 -61 -16 -90q0 -18 8 -19q10 0 21.5 9.5t23.5 21.5l2 2q43 37 115 141q43 63 71.5 97t59.5 49q8 0 20 12t12 49q0 18 -3 23.5t-15 11.5q-8 4 -16 10q-16 12 -20.5 44 t-4.5 106v381q0 59 27.5 105t62.5 46q23 0 35 -23.5t25 -64.5q8 -27 13 -39t13 -12q2 0 19.5 38t40 93t37 97t14.5 48q0 55 -37 105.5t-90 50.5q-51 0 -78 -48t-47 -126q-14 -51 -21 -51q-14 0 -14 53v483q0 47 8 62.5t33 15.5q57 0 108.5 -38t100.5 -107q14 -20 28.5 -53 t34.5 -87q25 -63 38.5 -90.5t25.5 -27.5q20 0 20 41q0 25 -6 71q-6 41 -10 80t-10 113q-2 31 -4 43q-8 111 -15.5 160t-23.5 49q-10 0 -29 -21q-12 -14 -23.5 -22t-29.5 -8h-506q-18 0 -18 -37z" />
<glyph unicode="G" horiz-adv-x="937" d="M25 752q0 -170 29.5 -312.5t84 -245t126 -156.5t155.5 -54q63 0 109 30.5t106 91.5q45 45 77.5 73t71.5 42q10 4 24.5 20.5t14.5 30.5q0 16 -8 43q-8 35 -8 56v245q0 63 19.5 107.5t54.5 93.5q33 47 32 68q0 23 -6 43t-18 20q-6 0 -31 -16q-31 -18 -54.5 -29.5 t-47.5 -11.5q-39 0 -72 9t-76 28q-43 16 -71.5 24.5t-63.5 8.5q-82 0 -132 -47.5t-50 -157.5q0 -39 41 -85t76 -46q6 0 10 18.5t6 48.5q8 127 72 127q37 0 63.5 -45t26.5 -119v-387q0 -18 -3 -25t-10 -7q-154 0 -239 204q-41 96 -62.5 230.5t-21.5 290.5q0 94 13 180 t40 151.5t67 104.5t91 39q47 0 75.5 -40t61.5 -120q31 -68 54.5 -101.5t56.5 -33.5q31 0 52 31.5t35.5 83t22.5 114t17 139.5q0 25 -13 25q-16 0 -39 -18q-31 -25 -57 -25q-45 0 -121 33q-47 18 -77.5 27.5t-71.5 9.5q-90 0 -169 -58.5t-138.5 -168t-92 -258t-32.5 -324.5z " />
<glyph unicode="H" horiz-adv-x="835" d="M25 18q0 -18 18 -18h307q18 0 19 33q0 20 -6.5 32.5t-20.5 30.5q-18 23 -28.5 45.5t-10.5 63.5v471q0 70 23 76q39 12 96 12q53 0 86 -8q33 -6 33 -80v-348h-2v-123q0 -41 -10.5 -61.5t-28.5 -41.5q-16 -18 -24.5 -34.5t-8.5 -44.5q0 -23 18 -23h308q18 0 18 37 q0 20 -6 32.5t-21 30.5q-18 23 -28.5 45.5t-10.5 63.5v65v1117q0 33 4.5 51t12.5 35q6 16 9 29.5t3 37.5q0 18 -8 25.5t-16 7.5q-51 0 -88 -17.5t-80 -48.5q-55 -41 -88 -47q-27 -4 -27 -49q0 -20 7 -34.5t24 -32.5q20 -27 31.5 -50.5t11.5 -62.5v-217q0 -27 -13 -27h-213 q-12 0 -12 21v30v344q0 35 4 52.5t15 34.5q6 14 10 28.5t4 38.5q0 18 -8.5 25.5t-18.5 7.5q-51 0 -87 -16.5t-79 -49.5q-55 -41 -90 -47q-18 -2 -23 -14t-5 -35q0 -20 7 -34.5t23 -33.5q20 -27 31.5 -50t11.5 -62v-209v-821q0 -41 -10 -61.5t-29 -41.5q-18 -18 -26 -34.5 t-8 -45.5z" />
<glyph unicode="I" horiz-adv-x="399" d="M25 18q0 -18 18 -18h307q18 0 19 33q0 20 -6.5 32.5t-20.5 30.5q-18 23 -28.5 45.5t-10.5 63.5v119v895v122q0 35 9.5 52.5t27.5 33.5q16 14 24.5 27.5t8.5 38.5q0 29 -13 29h-317q-18 0 -18 -37q0 -20 7 -32.5t23 -27.5q20 -23 30.5 -43t10.5 -61v-107v-890v-123 q0 -41 -10 -61.5t-29 -41.5q-16 -18 -24 -34.5t-8 -45.5z" />
<glyph unicode="J" horiz-adv-x="540" d="M25 -207q0 -172 141 -172q59 0 116.5 52.5t103.5 145.5t72.5 215t26.5 255v1097q0 33 4.5 51.5t12.5 35.5q8 16 11 29.5t3 37.5q0 18 -8 25.5t-16 7.5q-51 0 -88 -17.5t-80 -48.5q-55 -41 -88 -47q-18 -2 -23.5 -14t-5.5 -35q0 -20 7 -34.5t24 -33.5q18 -25 29.5 -48 t11.5 -64v-1108q0 -43 -1.5 -83t-5.5 -82t-15 -70.5t-28 -28.5q-18 0 -31.5 12t-29.5 35q-16 27 -30.5 39t-35.5 12q-77 0 -77 -164z" />
<glyph unicode="K" horiz-adv-x="880" d="M25 18q0 -18 18 -18h307q18 0 19 33q0 20 -6.5 32.5t-20.5 30.5q-18 23 -28.5 45.5t-10.5 63.5v428q0 57 12 57q8 0 17 -6q29 -16 58.5 -59t54 -106.5t39 -141.5t14.5 -162q0 -55 -9.5 -79.5t-27.5 -41.5q-18 -20 -19 -43q0 -51 29 -51h356q27 0 27 39q-2 27 -10 43 t-29 16q-12 0 -26.5 37t-38.5 119q-29 102 -55.5 181t-63.5 151q-51 100 -115.5 164.5t-130.5 74.5q-29 6 -29 29q0 12 9 43q2 2 4 12q41 150 72.5 215.5t78.5 65.5q12 0 47 -16t47 -17q68 0 114 96.5t46 266.5q0 57 -24 57q-16 0 -54 -29q-43 -33 -67 -32q-10 0 -29 6 q-16 4 -25 4q-74 0 -137 -145.5t-112 -387.5v-2q-14 -76 -19 -76q-2 0 -3 25t-1 82v319q0 35 9.5 52.5t27.5 33.5q16 14 24.5 27.5t8.5 38.5q0 29 -13 29h-317q-18 0 -18 -37q0 -20 7 -32.5t23 -27.5q20 -23 30.5 -43t10.5 -61v-1120q0 -41 -10 -61.5t-29 -41.5 q-16 -18 -24 -34.5t-8 -45.5z" />
<glyph unicode="L" horiz-adv-x="708" d="M25 18q0 -18 18 -18h307q53 0 113.5 -4t101.5 -10q18 -2 37 -21q6 -6 8 -6q16 0 23.5 47t15.5 156q4 61 6 78q4 31 13 75q8 41 12 69t4 71q0 33 -4 40t-16 7q-8 0 -21.5 -22.5t-40.5 -78.5q-31 -61 -55.5 -108t-58 -94t-73.5 -76t-83 -29q-18 0 -23.5 23.5t-5.5 87.5 v1136q0 35 9.5 52.5t27.5 33.5q16 14 24.5 27.5t8.5 38.5q0 29 -13 29h-317q-18 0 -18 -37q0 -20 7 -32.5t23 -27.5q20 -23 30.5 -43t10.5 -61v-1120q0 -41 -10 -61.5t-29 -41.5q-16 -18 -24 -34.5t-8 -45.5z" />
<glyph unicode="M" horiz-adv-x="983" d="M25 1339q0 -25 43 -59q27 -25 43 -41q23 -23 27.5 -57.5t4.5 -96.5v-274q0 -135 -12 -295t-33 -260q-8 -49 -20 -82t-27 -65q-23 -45 -22 -72q0 -37 12 -37h250q18 0 18 37q0 12 -14 43q-16 33 -27.5 65.5t-21.5 83.5q-20 102 -34.5 261t-14.5 296v156q0 43 8 43 t27.5 -46t47 -125t57.5 -173t69 -223q18 -55 24 -56q2 0 6 7.5t12.5 29t77.5 226.5q74 211 133 383q12 27 17 26q4 0 4 -37v-796q0 -41 -10.5 -61.5t-26.5 -41.5q-16 -18 -24.5 -34.5t-8.5 -45.5q0 -18 17 -18h307q18 0 18 33q0 20 -6 32.5t-20 30.5q-18 23 -27.5 45.5 t-9.5 63.5v1136q0 35 9 52.5t28 33.5q16 14 24 27.5t8 38.5q0 29 -14 29h-219q-23 0 -44.5 -7.5t-21.5 -31.5q0 -20 5 -64q4 -37 4 -59q0 -47 -17 -98l-106 -347q-12 -29 -19 -28q-2 0 -9 14t-15 37q-20 47 -31 78q-74 197 -107.5 315.5t-54.5 210.5q-10 53 -18 53 q-29 0 -74 -24.5t-90 -65.5t-73.5 -85t-28.5 -81z" />
<glyph unicode="N" horiz-adv-x="845" d="M25 1325q0 -23 49 -59q35 -27 55 -47t25.5 -50t5.5 -92v-268q0 -162 -7.5 -311.5t-25.5 -241.5q-8 -49 -20.5 -82t-26.5 -65q-23 -45 -23 -72q0 -37 13 -37h249q18 0 19 37q0 12 -14 43q-16 33 -27.5 65.5t-22.5 83.5q-20 102 -34.5 261t-14.5 296v156q0 39 8 43 q4 0 15.5 -30.5t34.5 -94.5q20 -61 26 -76q20 -53 42 -113.5t77 -213.5q37 -106 72 -204.5t63.5 -174.5t48 -124t25.5 -48q14 0 26.5 31.5t28.5 97.5q18 70 29 94q10 29 41 90q25 49 37 78t12 49q0 16 -16.5 43t-61.5 78q-20 20 -20 92v109q0 193 9 333t23.5 225t27.5 130 t32 86q14 37 14 53q0 43 -20 43h-238q-16 0 -16 -35q0 -25 22 -78q33 -80 47 -151q20 -100 31.5 -250t11.5 -274v-82q0 -33 -6 -37q-10 0 -18 24q-76 160 -141 336q-68 180 -106 297t-64 215q-18 70 -27 70q-72 0 -149.5 -65.5t-116.5 -164.5q-4 -12 -4 -18z" />
<glyph unicode="O" horiz-adv-x="856" d="M25 721q0 -162 28.5 -302t78.5 -242.5t121 -160t150 -57.5q80 0 158 63.5t138.5 175t95 259t34.5 307.5q0 164 -27.5 308.5t-78.5 255t-121 172t-151 61.5q-41 0 -91.5 -40t-62.5 -75q-10 -33 -17.5 -44t-15.5 -11q-35 0 -77 -50.5t-78.5 -142.5t-60 -215t-23.5 -262z M207 944q0 35 1 76t4 78t10 62.5t20 25.5q2 0 6 -35q2 -41 8 -80t19.5 -81t39 -73.5t62.5 -39.5q37 0 71.5 27.5t36.5 78.5q0 16 -20 31q-16 12 -26.5 29.5t-10.5 56.5q0 35 15.5 57.5t39 34.5t45 16t33.5 4q86 0 133 -127t47 -321q0 -193 -66.5 -311.5t-189.5 -118.5 q-61 0 -112 58.5t-88 151.5t-57.5 199.5t-20.5 200.5z" />
<glyph unicode="P" horiz-adv-x="815" d="M25 1300q0 -14 8 -20t26 -10q20 -4 37 -12.5t32 -32t25.5 -69.5t10.5 -120v-835q0 -41 -10.5 -61.5t-28.5 -41.5q-16 -18 -24.5 -34.5t-8.5 -45.5q0 -18 19 -18h307q16 0 16 33q0 20 -6 32.5t-20 30.5q-18 23 -28.5 45.5t-10.5 63.5v403v62q0 74 12 73q12 0 37 -45 q20 -39 50 -62.5t85 -23.5q117 0 177.5 133.5t60.5 341.5q0 96 -32 182.5t-89.5 151t-133 101.5t-159.5 37q-98 0 -184.5 -51.5t-143.5 -137.5q-24 -35 -24 -70zM279 1430v2q0 8 47 8q10 0 34 -4q84 -25 141.5 -123.5t57.5 -225.5q0 -133 -27.5 -198.5t-101.5 -65.5 q-61 0 -61 154v188q0 53 10 109q8 51 8 88q0 20 -16.5 30.5t-51.5 20.5q-30 11 -40 17z" />
<glyph unicode="Q" horiz-adv-x="972" d="M25 735q0 -162 28.5 -302t78.5 -242.5t121 -160t150 -57.5q70 0 131.5 37t108.5 115l2 2q18 33 27 33q10 0 22 -47q16 -63 40 -103.5t48 -40.5q14 0 41 32t55.5 76t48 86t19.5 60q0 39 -28 39q-10 0 -33 12.5t-47.5 33t-42 43t-17.5 40.5q0 25 17 78q35 131 34 309 q0 164 -27.5 308.5t-78.5 255t-121 172t-151 61.5q-41 0 -91.5 -40t-62.5 -75q-10 -33 -17.5 -44t-15.5 -11q-35 0 -77 -50t-78.5 -142.5t-60 -215.5t-23.5 -262zM207 958q0 35 1 76t4 78t10 62.5t20 25.5q2 0 6 -35q2 -41 8 -79.5t19.5 -80.5t39 -74t62.5 -40 q37 0 71.5 27.5t36.5 78.5q0 16 -20 31q-16 12 -26.5 29.5t-10.5 56.5q0 35 15.5 57.5t39 35t45 16.5t33.5 4q86 0 133 -127t47 -322q0 -37 -5 -86t-12 -93t-18.5 -73.5t-21.5 -29.5q-8 0 -45 36q-63 63 -131 64q-43 0 -81 -37t-38 -94q0 -23 4 -23h2h2q25 12 52 13 q27 0 71.5 -23.5t44.5 -46.5q-2 -16 -29.5 -26.5t-50.5 -10.5q-61 0 -112 58.5t-88 151.5t-57.5 199.5t-20.5 200.5z" />
<glyph unicode="R" horiz-adv-x="905" d="M25 1300q0 -14 8 -20t26 -10q20 -4 37 -12.5t32 -32t25.5 -69.5t10.5 -120v-835q0 -41 -10.5 -61.5t-28.5 -41.5q-16 -18 -24.5 -34.5t-8.5 -45.5q0 -18 19 -18h307q16 0 16 33q0 20 -6 32.5t-20 30.5q-18 23 -28.5 45.5t-10.5 63.5v465q0 88 34 88q37 0 76 -94.5 t45 -245.5q8 -207 52.5 -327t132.5 -120q45 0 75.5 28t53.5 71t33 88t10 75q-2 31 -11.5 38.5t-25.5 7.5q-29 0 -48.5 35.5t-52.5 123.5q-23 63 -38 105q-33 86 -103 151q-39 33 -39 60q4 20 51 20q88 0 145.5 102.5t57.5 256.5q0 201 -109.5 313.5t-330.5 112.5 q-98 0 -184.5 -51.5t-143.5 -137.5q-24 -35 -24 -70zM279 1430v2q0 4 14 8t31 4q106 0 177.5 -85t71.5 -247q0 -129 -43 -216t-116 -87q-31 0 -38 24.5t-7 143.5v188q0 53 10 109q8 51 8 88q0 20 -16.5 30.5t-51.5 20.5q-30 11 -40 17z" />
<glyph unicode="S" horiz-adv-x="821" d="M25 68q0 -37 18 -37q16 0 47 22q33 23 51 23q41 0 111 -37q37 -18 62.5 -28.5t54.5 -10.5q70 0 145.5 38t139 104.5t102.5 153.5t39 181q0 182 -52.5 307t-138.5 168q-33 16 -94 41q-57 23 -95 41.5t-69 45t-49 68.5t-18 99q0 102 33.5 153.5t76.5 51.5q20 0 48 -35 t57 -90q4 -6 16 -33q35 -68 58.5 -101.5t49.5 -33.5q23 0 45.5 35t41 90t29.5 117.5t11 111.5q0 25 -8 25q-20 0 -57 -22q-35 -20 -53 -21q-41 0 -121 27q-84 29 -131 28q-72 0 -134.5 -33.5t-109.5 -95t-72.5 -142.5t-25.5 -173q0 -100 30.5 -169t81 -112t105.5 -66.5 t131 -43.5q72 -18 116 -114.5t44 -203.5q0 -133 -47.5 -206.5t-116.5 -73.5q-63 0 -119.5 109.5t-56.5 277.5q0 2 2 22v27q0 14 -2 26.5t-8 12.5q-16 -8 -43 -59.5t-55.5 -130t-47 -158.5t-20.5 -148v-16z" />
<glyph unicode="T" horiz-adv-x="831" d="M25 1528q0 -72 3 -156t10 -157.5t19.5 -123t28.5 -49.5q8 0 12 18.5t13 61.5q8 53 18 98.5t30.5 88.5t53.5 70.5t82 27.5q25 -29 24 -86v-1120q0 -41 -10 -61.5t-26 -41.5q-16 -18 -24.5 -34.5t-8.5 -45.5q0 -18 16 -18h307q18 0 19 33q0 20 -6 32.5t-21 30.5 q-18 23 -27.5 45.5t-9.5 63.5v1136q0 49 4 64q49 0 82 -23.5t53.5 -60.5t30 -75t19.5 -93q8 -49 16 -71.5t21 -22.5q10 0 19 51t17.5 133t12.5 163t4 132t-16 51q-18 0 -33 -24q-14 -25 -31 -33q-14 -6 -51 -9t-160 -3h-209q-182 0 -211 12q-8 4 -18 20q-6 10 -14.5 16.5 t-22.5 6.5q-16 0 -16 -47z" />
<glyph unicode="U" horiz-adv-x="770" d="M25 1409q0 -20 7 -35.5t21 -34.5q20 -27 30.5 -49t10.5 -63v-787q0 -80 17.5 -165t54.5 -157.5t91 -116.5t124 -44q94 0 163.5 76t113.5 209t64.5 306t20.5 376q0 125 -4 215t-13 157.5t-24.5 129t-42.5 137.5q-6 8 -12 8q-14 0 -36.5 -25.5t-45 -64.5t-38 -76t-15.5 -53 q0 -39 12.5 -71t36.5 -79q25 -47 33 -72q31 -74 46 -161.5t15 -231.5q0 -236 -47 -367.5t-145 -131.5q-76 0 -118 107.5t-42 293.5v747q0 35 4 51.5t15 35.5q6 14 10 27t4 38q0 18 -8.5 25.5t-18.5 7.5q-51 0 -87 -16.5t-79 -49.5q-55 -41 -90 -47q-18 -2 -23 -14t-5 -35z " />
<glyph unicode="V" horiz-adv-x="843" d="M25 1548q0 -29 9 -46t29 -42q23 -27 36.5 -49t19.5 -59l217 -1198v-4q4 -14 4 -27q0 -12 -2 -37t-2 -37q0 -66 37 -65q31 0 75 38.5t101 96.5q18 20 24 26q12 12 13 52q0 6 -13 34q-14 37 -14 48q0 14 12 43l11 22q113 260 174 472t61 472q0 111 -10 187.5t-45 130.5 q-4 4 -10 4q-14 0 -41 -25.5t-54.5 -64.5t-46 -75t-18.5 -54q0 -2 2 -7v-4q37 -57 57.5 -131.5t20.5 -193.5q0 -164 -30 -325t-81 -296q-14 -49 -22 -49q-6 0 -19 51l-164 828q-4 23 -4 75v47q0 37 7.5 50.5t21.5 21.5q12 6 18.5 17.5t6.5 40.5q0 23 -9.5 37t-42.5 14h-317 q-12 -1 -12 -19z" />
<glyph unicode="W" horiz-adv-x="1286" d="M25 1548q0 -29 9 -46t29 -42q23 -27 36.5 -49t19.5 -59l217 -1198v-4q4 -14 4 -27q0 -12 -2 -37t-2 -37q0 -66 37 -65q31 0 75 38.5t101 96.5q18 20 24 26q12 12 13 52q0 6 -13 34q-14 37 -14 48q0 10 18.5 59t43 109.5t46 103.5t25.5 43q8 0 15 -37l71 -403q4 -10 4 -31 q0 -12 -2 -37t-2 -37q0 -66 37 -65q31 0 76 37.5t102 99.5l25 24q12 12 12 52q0 6 -12 34q-14 37 -14 48q0 14 12 43q8 16 10 22l6 14q109 260 169.5 468t60.5 462q0 113 -10.5 189.5t-47.5 128.5q-4 4 -10 4q-14 0 -41 -25.5t-54.5 -64.5t-46 -75t-18.5 -54q0 -2 2 -7v-4 q39 -57 58.5 -131.5t19.5 -193.5q0 -164 -28.5 -325t-79.5 -296q-18 -49 -23 -49q-10 0 -18 51l-164 828q-6 35 -6 75v47q0 37 7 50.5t21 21.5q12 6 18.5 17.5t6.5 40.5q0 23 -9.5 37t-39.5 14h-318q-12 0 -12 -19q0 -29 9 -46t30 -42q23 -27 36 -49t19 -59l78 -430 q0 -4 2 -15q10 -57 10 -88q0 -37 -13 -107.5t-33.5 -147.5t-39 -128t-28.5 -51q-6 0 -19 51l-164 828q-4 23 -4 75v47q0 37 7.5 50.5t21.5 21.5q12 6 18.5 17.5t6.5 40.5q0 23 -9.5 37t-42.5 14h-317q-12 -1 -12 -19z" />
<glyph unicode="X" horiz-adv-x="962" d="M25 39q0 -25 10 -32t26 -7h246q25 0 25 27q0 31 -4 50t-13 40q-12 33 -12 67q0 84 17.5 162t48.5 189l12 38q12 35 18 35t17 -33q0 -2 2 -6l110 -305q20 -45 21 -92q0 -16 -14 -37q-8 -14 -14.5 -30.5t-6.5 -45.5q0 -31 12.5 -45t24.5 -14h352q10 0 22.5 16.5t12.5 40.5 q0 33 -9 44.5t-30 21.5q-23 12 -40 28.5t-32 55.5l-274 700q-16 41 -16 72q0 27 16 65q37 90 71.5 164t69.5 131q31 47 82 125q78 111 78 138q0 16 -18 16q-39 0 -72 -12.5t-74 -32.5q-74 -39 -112 -39q-29 0 -29 -39q0 -20 6 -51t6 -53q0 -61 -9 -116.5t-30 -139.5l-2 -11 q-12 -53 -20 -53q-10 0 -25 47l-16 43q-43 121 -61.5 174.5t-26.5 100.5q-6 35 -13 84q-6 59 -22 59q-29 0 -74 -24.5t-90 -65.5t-73.5 -85t-28.5 -81q0 -23 39 -57q29 -23 47 -43q16 -18 29.5 -39t28.5 -55.5t28.5 -72.5t48.5 -134q2 -4 20 -58l33 -90l6 -18q10 -27 10 -39 q0 -29 -12 -60q-70 -178 -155 -352q-33 -66 -61 -105.5t-64 -80.5q-25 -29 -34 -44.5t-9 -35.5z" />
<glyph unicode="Y" horiz-adv-x="888" d="M25 1380q0 -20 36 -49q35 -27 56 -49q27 -29 50 -81t75 -177q41 -102 57 -145l12 -29q37 -92 37 -203v-446q0 -41 -10 -61.5t-29 -41.5q-16 -18 -24.5 -34.5t-8.5 -45.5q0 -18 19 -18h307q16 0 16 33q0 20 -6 32.5t-20 30.5q-18 23 -28.5 45.5t-10.5 63.5v530q0 66 9 116 t32 110q25 66 57.5 150.5t65.5 170.5q31 78 96 205q51 96 51 117q0 10 -6 13t-14 3q-37 0 -58.5 -10.5t-44.5 -28.5q-20 -16 -37.5 -24.5t-44.5 -8.5q-16 0 -32.5 -11t-16.5 -32q0 -23 4 -67q4 -41 4 -64q0 -39 -9 -107.5t-23.5 -140t-28.5 -117.5t-25 -46q-4 0 -16 27.5 t-31 76.5q-6 14 -14 35q-57 164 -90 336q-6 29 -12 82q-8 61 -23 61q-31 0 -85 -17.5t-108.5 -46t-91 -64.5t-36.5 -73z" />
<glyph unicode="Z" horiz-adv-x="792" d="M25 -29q0 -12 8 -12q33 0 52 5t44 18q37 16 70 22q78 14 157 14q106 0 156.5 -13t85.5 -36q25 -14 41 -14q14 0 26.5 25.5t14.5 76.5q6 111 26.5 222.5t57.5 261.5q2 10 2 24q0 23 -27 23q-18 0 -29.5 -15.5t-27.5 -50.5q-25 -51 -50.5 -80.5t-74.5 -35.5 q-31 -4 -67.5 -7.5t-75.5 -3.5q-51 0 -86 8.5t-35 24.5q0 25 18 74l406 1030q10 27 10 39q0 20 -18 20q-20 0 -33.5 -7t-30.5 -23q-18 -18 -35.5 -27.5t-44.5 -9.5h-274q-29 0 -54.5 8t-58.5 22q-29 12 -35 13q-18 0 -24 -58q-27 -217 -74 -397q-12 -49 -12 -80 q0 -39 16 -39q8 0 31 37q29 47 61.5 80t81.5 39q59 6 121 6q53 0 105 -6q18 -2 18 -21q0 -12 -10 -43l-414 -1054q-2 -4 -6 -19q-12 -31 -12 -41z" />
<glyph unicode="_" horiz-adv-x="385" d="M0 -72v-53h397v53h-397z" />
<glyph unicode="`" horiz-adv-x="241" d="M27 1511q0 -14 8 -36l67 -213h4q20 -55 46 -93.5t45 -38.5q20 0 20 46q0 35 -12 86l-74 225q-6 25 -10 24l-2 -4q-2 -6 -4 -8q-12 -33 -29 -33q-29 4 -49 35q-8 10 -10 10z" />
<glyph unicode="a" horiz-adv-x="651" d="M18 27q0 -27 15 -27h123q14 0 14 23q0 20 -5 29t-13 18q-10 10 -15.5 22t-5.5 37q0 27 8 44t29 32l168 123q6 6 12 6q12 0 14 -23l31 -155q4 -20 4 -29q0 -25 -18 -47q-18 -27 -19 -55q0 -16 16.5 -20.5t35.5 -4.5h206q16 0 17 23q0 33 -11.5 50t-31.5 33q-25 20 -29 37 l-166 803q-6 43 -6 60v55q0 31 -22 31q-16 0 -38 -11.5t-43.5 -28t-39 -32.5t-25.5 -25l-4 -4q-10 -12 -10 -28q0 -18 20 -56l13 -26q-23 -111 -57.5 -262.5t-73.5 -321.5l-33 -141q-10 -39 -37 -74q-23 -28 -23 -55zM195 428q0 10 6 41l57 248q6 27 12 26q6 0 9 -20 l36 -180l2 -6q2 -8 2 -13q0 -18 -12 -28l-90 -70l-4 -4q-8 -6 -12 -6q-6 0 -6 12z" />
<glyph unicode="b" d="M18 909q0 -14 23 -20q33 -6 53.5 -37t20.5 -127v-584q0 -29 -7.5 -44t-19.5 -29q-12 -12 -17 -23.5t-5 -32.5q0 -12 12 -12h317q72 0 128.5 80t56.5 209q0 119 -30 178t-85 98q-8 6 -27 15q-16 6 -16 10q0 8 20 14h4q37 12 70 71.5t33 119.5q0 131 -86 214t-199 83 q-70 0 -130 -36t-101 -98q-15 -24 -15 -49zM195 1001q0 10 30 11q70 0 120 -54.5t50 -128.5q0 -90 -28.5 -148t-81.5 -58q-18 0 -22.5 17t-4.5 44v131q0 37 6 78q6 35 6 61q0 14 -11 21.5t-36 13.5q-20 8 -28 12zM258 143v326q0 41 3 63.5t15 22.5q59 0 100.5 -65.5 t41.5 -206.5q0 -94 -42 -153.5t-104 -59.5q-14 -1 -14 73z" />
<glyph unicode="c" horiz-adv-x="581" d="M18 524q0 -113 17.5 -213t52.5 -178t85 -121t114 -43q49 0 99 31t91 87t64.5 129t23.5 153q0 20 -4 20t-18 -24q-6 -14 -11 -19q-35 -49 -88 -85t-96 -36q-92 0 -150.5 114t-58.5 308q0 139 38 229.5t97 90.5q27 0 45.5 -20.5t40.5 -61.5q20 -37 36 -56.5t38 -19.5 q43 0 56.5 46t13.5 116q0 4 4 43q4 45 4 55q0 29 -4 49.5t-12 20.5q-6 0 -25 -21q-33 -37 -53 -37q-12 0 -37 4q-27 6 -41 7q-66 0 -123 -40t-102 -115t-71 -181.5t-26 -231.5z" />
<glyph unicode="d" horiz-adv-x="641" d="M18 909q0 -14 23 -20q33 -6 53.5 -37t20.5 -127v-584q0 -29 -7.5 -44t-19.5 -29q-12 -12 -17 -23.5t-5 -32.5q0 -12 12 -12h291q72 0 122 49t78.5 126t41 162t12.5 163q0 164 -32 279.5t-84 184t-114.5 98.5t-128.5 30q-70 0 -130 -36t-101 -98q-15 -24 -15 -49z M195 1001q0 6 34 7h13l10 -2q37 -10 71.5 -37t66.5 -84.5t52.5 -157.5t20.5 -248q0 -109 -17.5 -188.5t-44 -128.5t-56.5 -72.5t-58 -23.5q-10 0 -19.5 8t-9.5 32v709q0 37 6 78q6 35 6 61q0 14 -11 21.5t-36 13.5q-20 8 -28 12z" />
<glyph unicode="e" horiz-adv-x="520" d="M18 12q0 -12 11 -12h217q37 0 92 -4t84 -8q12 -2 24 -15q2 -4 5 -4q12 0 17 35t11 117l4 45q2 23 11 57q10 53 10 94q0 29 -2 41.5t-10 12.5q-6 0 -21 -43q-23 -68 -45 -105q-35 -63 -90 -110t-103 -47q-12 0 -16 15t-4 62v267q0 25 2 37t10 26q25 43 51 43 q14 0 22.5 -15.5t18.5 -45.5q10 -37 19 -37q6 0 12 15.5t17 49.5q8 27 14 43t18 39q16 29 17 47q0 39 -27 74t-63 35q-35 0 -53.5 -34t-32.5 -87q-10 -37 -17 -37q-8 0 -8 37v338q0 35 5 45t24 10q39 0 74.5 -26.5t72.5 -75.5q14 -20 45 -98q14 -41 24.5 -61.5t16.5 -20.5 q16 0 17 28q0 18 -5 54q-8 55 -16 133q-6 88 -12 132t-17 44q-8 0 -20 -15q-20 -23 -39 -22h-354q-10 0 -11 -25q0 -23 21 -43q14 -14 21.5 -28.5t7.5 -42.5v-785q0 -29 -7.5 -44t-19.5 -29q-12 -12 -17.5 -24t-5.5 -32z" />
<glyph unicode="f" horiz-adv-x="507" d="M18 1036q0 -20 21 -43q14 -12 21.5 -27.5t7.5 -43.5v-785q0 -127 -10.5 -196.5t-24.5 -126.5q-12 -43 -13 -64q0 -12 7 -12q8 0 16 7t14 15q31 27 84 103q29 43 48.5 65.5t39.5 32.5q6 0 15.5 8t9.5 35q0 18 -12 25q-8 4 -13 8q-10 6 -13 26.5t-3 77.5v267 q0 43 18.5 74.5t44.5 31.5q14 0 22.5 -15.5t18.5 -45.5q10 -37 19 -37q2 0 13 25.5t28.5 67.5t27 68.5t9.5 32.5q0 39 -27 74t-63 35q-35 0 -53.5 -34t-32.5 -87q-10 -37 -17 -37q-8 0 -8 37v338q0 35 5 45t24 10q39 0 74.5 -26.5t72.5 -75.5q14 -20 45 -98 q14 -41 24.5 -61.5t16.5 -20.5q16 0 17 28q0 18 -5 54q-8 53 -16 131q-6 88 -12 132t-17 44q-8 0 -20 -15q-20 -20 -39 -20h-354q-11 0 -11 -27z" />
<glyph unicode="g" horiz-adv-x="655" d="M18 526q0 -240 79 -389t198 -149q45 0 76.5 21.5t74.5 66.5q29 31 52.5 50t50.5 30q6 2 16 12t10 22q0 10 -4 31q-6 25 -6 39v172q0 45 13.5 76t37.5 65q23 31 23 45q0 18 -4 32t-12 14q-4 0 -21 -13q-20 -12 -37.5 -20t-36.5 -8q-43 0 -104 26q-57 23 -92 23 q-57 0 -92 -33t-35 -111q0 -27 28.5 -58.5t53.5 -31.5q4 0 6 11.5t4 33.5v2q2 43 16.5 65.5t32.5 22.5q25 0 44.5 -31.5t19.5 -82.5v-271q0 -25 -9 -24q-106 0 -165.5 140t-59.5 368q0 139 38 236.5t110 97.5q31 0 51 -28t45 -83q20 -49 36.5 -72.5t39.5 -23.5q41 0 59 69.5 t29 188.5q0 16 -9 16q-10 0 -26 -12q-20 -16 -41 -17q-29 0 -84 23q-63 25 -105 25q-63 0 -118.5 -41t-96.5 -117t-63.5 -180.5t-22.5 -227.5z" />
<glyph unicode="h" horiz-adv-x="585" d="M18 12q0 -12 11 -12h217q12 0 12 23q0 20 -18 43q-12 16 -19.5 32.5t-7.5 44.5v330q0 51 16 53q27 8 66 9q35 0 61 -7q20 -4 21 -55v-244v-86q0 -29 -7.5 -43t-19.5 -28q-12 -12 -17 -23.5t-5 -32.5q0 -16 12 -16h215q12 0 12 27q0 20 -18 43q-12 16 -19.5 31.5 t-7.5 43.5v48v780q0 25 2 37t8 24q8 20 9 47q0 23 -17 23q-35 0 -60.5 -12.5t-55.5 -34.5q-41 -29 -64 -33q-16 -2 -16 -33q0 -23 20 -49q14 -16 21.5 -32.5t7.5 -45.5v-151q0 -18 -8 -19h-148q-8 0 -8 15v20v242q0 25 3 37t7 24q10 20 10 45q0 14 -5 19.5t-11 5.5 q-37 0 -61.5 -11.5t-55.5 -35.5q-41 -29 -63 -33q-12 -2 -15.5 -10t-3.5 -25q0 -23 21 -47q14 -16 21.5 -32.5t7.5 -45.5v-147v-574q0 -29 -7.5 -44t-19.5 -29q-12 -12 -17.5 -24t-5.5 -32z" />
<glyph unicode="i" horiz-adv-x="278" d="M18 12q0 -12 11 -12h217q12 0 12 23q0 20 -18 43q-12 16 -19.5 32.5t-7.5 44.5v84v625v86q0 25 7 37t20 24q12 10 17 19.5t5 25.5q0 20 -10 21h-223q-10 0 -11 -25q0 -23 21 -43q14 -14 21.5 -28.5t7.5 -42.5v-76v-623v-86q0 -29 -7.5 -44t-19.5 -29q-12 -12 -17.5 -24 t-5.5 -32z" />
<glyph unicode="j" horiz-adv-x="378" d="M18 -145q0 -121 97 -121q43 0 83 36.5t72.5 102.5t51 151t18.5 179v768q0 25 3 37t7 24q10 20 10 45q0 14 -5 19.5t-11 5.5q-37 0 -61.5 -11.5t-55.5 -35.5q-41 -29 -63 -33q-14 -2 -17.5 -10t-3.5 -25q0 -23 23 -47q14 -18 21.5 -33.5t7.5 -44.5v-776q0 -31 -1 -59.5 t-4.5 -56t-10.5 -48t-19 -20.5q-18 0 -41 32q-12 16 -22.5 25.5t-26.5 9.5q-52 1 -52 -114z" />
<glyph unicode="k" horiz-adv-x="614" d="M18 12q0 -12 11 -12h217q12 0 12 23q0 20 -18 43q-12 16 -19.5 32.5t-7.5 44.5v299q0 41 8 41q4 0 12 -4q43 -25 79 -118t36 -209q0 -39 -7 -56.5t-17 -29.5q-14 -12 -15 -29q0 -37 19 -37h252q18 0 18 27q0 16 -7 29.5t-22 13.5q-8 0 -17 24.5t-26 79.5 q-20 70 -39.5 128t-46.5 108q-35 70 -79 114.5t-91 53.5q-20 6 -20 20q0 8 6 29l2 10q29 104 51.5 150.5t55.5 46.5q8 0 32 -11q25 -12 33 -12q47 0 79 66.5t32 185.5q0 41 -17 41q-10 0 -37 -21q-31 -23 -47 -22q-6 0 -18 4q-14 4 -21 4q-49 0 -94 -103.5t-78 -269.5 q-12 -55 -14 -55t-2 74v223q0 25 7 37t20 24q12 10 17 19.5t5 25.5q0 20 -10 21h-223q-10 0 -11 -25q0 -23 21 -43q14 -14 21.5 -28.5t7.5 -42.5v-785q0 -29 -7.5 -44t-19.5 -29q-12 -12 -17.5 -24t-5.5 -32z" />
<glyph unicode="l" horiz-adv-x="495" d="M18 12q0 -12 11 -12h217q41 0 83 -3t68 -7q12 -2 25 -15q2 -4 4 -4q12 0 17.5 36t11.5 118q2 14 4 43q2 23 10 57q10 51 10 92q0 23 -3 29t-13 6q-8 0 -43 -71q-47 -96 -89 -155.5t-98 -59.5q-12 0 -16 15t-4 62v795q0 25 7 37t20 24q12 10 17 19.5t5 25.5q0 20 -10 21 h-223q-10 0 -11 -25q0 -23 21 -43q14 -14 21.5 -28.5t7.5 -42.5v-785q0 -29 -7.5 -44t-19.5 -29q-12 -12 -17.5 -24t-5.5 -32z" />
<glyph unicode="m" horiz-adv-x="688" d="M18 938q0 -18 31 -45q23 -18 29 -25q14 -16 17 -40.5t3 -67.5v-193q0 -92 -8 -204.5t-20 -182.5q-10 -53 -35 -104q-14 -31 -15 -49q0 -27 9 -27h176q12 0 12 27q0 8 -10 28q-23 51 -35 105q-14 72 -24.5 182.5t-10.5 208.5v108q0 31 6 31t18.5 -27.5t31.5 -82.5 q20 -57 81 -250l11 -37q12 -39 18 -39q2 0 4 6t11.5 29.5t76.5 220.5l68 195q4 14 8 20q6 0 6 -27v-557q0 -29 -7 -43t-19 -30q-12 -12 -18.5 -23.5t-6.5 -32.5q0 -12 12 -12h217q12 0 13 23q0 20 -19 43q-12 16 -19 32.5t-7 44.5v795q0 25 7 37t19 24q12 10 17.5 19.5 t5.5 25.5q0 20 -13 21h-151q-14 0 -29.5 -5t-15.5 -22q0 -14 2 -45q2 -25 2 -41q0 -37 -10 -69l-76 -242q-6 -20 -12 -20q-2 0 -9.5 16t-19.5 49q-4 12 -10 25q-53 141 -77 226t-38 148q-6 31 -10 31q-20 0 -52 -17.5t-64 -45t-51.5 -59t-19.5 -56.5z" />
<glyph unicode="n" horiz-adv-x="591" d="M18 928q0 -14 33 -41q25 -20 39 -35q14 -14 18.5 -33.5t4.5 -64.5v-189q0 -98 -5.5 -207.5t-17.5 -177.5q-10 -53 -35 -104q-14 -31 -14 -49q0 -27 8 -27h176q12 0 13 27q0 8 -11 28q-25 49 -34 105q-14 72 -24.5 182.5t-10.5 208.5v108q0 29 6 31q2 0 7 -13t15 -48 q23 -61 31 -80q14 -39 66 -182q27 -76 54.5 -153t51 -141.5t38.5 -101.5t19 -37q10 0 19.5 24t19.5 71q12 45 19 61q8 18 31 64q16 33 24 53t8 35q0 12 -11 30.5t-44 55.5q-12 16 -12 63v76q0 135 6 232.5t16 158t19.5 91t21.5 59.5q10 27 10 39q0 31 -16 30h-164 q-12 0 -12 -24q0 -16 16 -56q23 -57 33 -106q14 -70 21.5 -173.5t7.5 -193.5v-57q0 -25 -4 -25t-13 17q-57 121 -98 235q-43 115 -67.5 192t-47.5 156q-18 59 -24 60q-49 0 -103.5 -47t-81.5 -115q-2 -4 -2 -12z" />
<glyph unicode="o" d="M18 504q0 -115 19.5 -212t54.5 -169t84 -112t107 -40q57 0 110 44t96 123t68 181.5t25 215.5q0 115 -19.5 216t-55.5 178t-85 120t-107 43q-29 0 -64.5 -28t-41.5 -52q-8 -25 -13.5 -32t-11.5 -7q-25 0 -53.5 -35t-55 -99.5t-42 -150.5t-15.5 -184zM143 662q0 61 6.5 114 t20.5 53q2 0 4 -20q2 -31 5 -57.5t12.5 -56t27 -52t43.5 -29.5q29 0 53.5 18.5t24.5 55.5q0 12 -14 21q-12 8 -19.5 20t-7.5 41q0 45 33 61.5t61 16.5q59 0 93 -89t34 -224t-47 -218.5t-133 -83.5q-43 0 -79 41t-62.5 106.5t-41 140.5t-14.5 141z" />
<glyph unicode="p" horiz-adv-x="569" d="M18 909q0 -14 23 -20q33 -6 53.5 -37t20.5 -127v-584q0 -29 -7.5 -44t-19.5 -29q-12 -12 -17 -23.5t-5 -32.5q0 -12 12 -12h213q12 0 12 23q0 20 -18 43q-12 16 -19.5 32.5t-7.5 44.5v283v43q0 51 8 51q10 0 25 -31q16 -29 36.5 -45t61.5 -16q80 0 122 94t42 240 q0 68 -22.5 128t-62.5 105t-92 71t-112 26q-70 0 -130 -36t-101 -98q-15 -24 -15 -49zM195 1001q0 6 34 7h13l10 -2q59 -16 99 -86t40 -158q0 -94 -19.5 -140.5t-70.5 -46.5q-43 0 -43 109v131q0 37 6 78q6 35 6 61q0 14 -11 21.5t-36 13.5q-20 8 -28 12z" />
<glyph unicode="q" horiz-adv-x="679" d="M18 514q0 -115 19.5 -212t54.5 -169t84 -111.5t107 -39.5q49 0 92 25.5t76 80.5q14 25 20 25q4 0 16 -35q10 -43 26.5 -70.5t35.5 -27.5q8 0 26.5 21.5t40 54t35 60t13.5 40.5q0 29 -23 28q-18 0 -57 33t-39 57q0 16 10 54q27 94 27 217q0 115 -19.5 216t-55.5 178 t-85 120t-107 43q-29 0 -64.5 -27.5t-41.5 -52.5q-8 -25 -13.5 -32t-11.5 -7q-25 0 -53.5 -35t-55 -99.5t-42 -150.5t-15.5 -184zM143 672q0 61 6.5 114.5t20.5 53.5q2 0 4 -21q2 -31 5 -58.5t12.5 -57t27 -52t43.5 -28.5q27 0 52.5 19.5t25.5 55.5q0 12 -14 21 q-12 8 -19.5 20.5t-7.5 40.5q0 43 33 60.5t61 17.5q59 0 93 -89t34 -224q0 -25 -3 -59.5t-9 -67.5t-13.5 -52.5t-15.5 -19.5q-6 0 -24 19l-9 8q-45 45 -90 45q-31 0 -57.5 -26.5t-26.5 -65.5q0 -16 7 -17q16 8 36 8q18 0 49 -16t31 -31q-2 -12 -20.5 -19t-34.5 -7 q-43 0 -79 41t-62.5 106.5t-41 140t-14.5 140.5z" />
<glyph unicode="r" horiz-adv-x="634" d="M18 909q0 -14 23 -20q33 -6 53.5 -37t20.5 -127v-584q0 -29 -7.5 -44t-19.5 -29q-12 -12 -17 -23.5t-5 -32.5q0 -12 12 -12h213q12 0 12 23q0 20 -18 43q-12 16 -19.5 32.5t-7.5 44.5v326q0 61 25 61t52 -66.5t32 -170.5q4 -143 35.5 -228t93.5 -85q33 0 54 19t36 50 q16 31 22 61.5t6 53.5q0 20 -6 25.5t-18 5.5q-20 0 -33.5 25.5t-36.5 88.5q-18 53 -26 72q-20 53 -72 104q-29 27 -29 43q4 14 37 15q61 0 102 71.5t41 178.5q0 141 -77.5 220t-231.5 79q-70 0 -130 -36t-101 -98q-15 -24 -15 -49zM195 1001q0 10 30 11q76 0 126 -59.5 t50 -174.5q0 -90 -29.5 -151.5t-80.5 -61.5q-23 0 -28 17.5t-5 101.5v131q0 37 6 78q6 35 6 61q0 14 -11 21.5t-36 13.5q-20 8 -28 12z" />
<glyph unicode="s" horiz-adv-x="573" d="M18 68q0 -47 11 -48q12 0 34 17q23 16 35 16q29 0 78 -26q51 -27 82 -27q49 0 101.5 26.5t98.5 73.5t72.5 107.5t26.5 126.5q0 129 -36 217t-99 117q-20 10 -68 28q-82 33 -120.5 67t-38.5 109q0 72 23.5 108t51.5 36q14 0 34 -24.5t40 -61.5l8 -17q27 -51 44.5 -76.5 t37.5 -25.5q16 0 31.5 24.5t29 63.5t20.5 83t7 77q0 18 -6 18q-14 0 -41 -16q-23 -14 -37 -14q-29 0 -86 18q-57 20 -90 20q-102 0 -170.5 -90t-68.5 -221q0 -70 21.5 -119t56 -77.5t73.5 -45t92 -32.5q49 -12 81 -79t32 -142q0 -94 -34 -145.5t-83 -51.5q-45 0 -84 75.5 t-39 194.5q0 6 2 17q2 12 2 18q0 27 -8 27q-12 -4 -30.5 -40t-38 -91.5t-33 -111.5t-15.5 -103z" />
<glyph unicode="t" horiz-adv-x="581" d="M18 1069q0 -47 2.5 -107.5t7.5 -112.5t13 -86t20 -34q8 0 17 53q6 41 13 72t20.5 61.5t38 50t57.5 19.5q18 -23 18 -59v-785q0 -29 -7 -44t-19 -29q-12 -12 -17.5 -23.5t-5.5 -32.5q0 -12 12 -12h213q12 0 13 23q0 20 -19 43q-12 16 -19 32.5t-7 44.5v795q0 25 4 45 q63 0 88.5 -47t40.5 -127q6 -37 11 -52.5t15 -15.5q8 0 14.5 36t11.5 92.5t8 113.5t3 94q0 35 -12 35t-23 -16q-10 -18 -22 -23q-8 -4 -35 -7t-113 -3h-143q-127 0 -149 10q-6 2 -15 14q-10 14 -24 15q-11 0 -11 -33z" />
<glyph unicode="u" horiz-adv-x="538" d="M18 987q0 -23 21 -49q12 -18 19.5 -34.5t7.5 -45.5v-551q0 -57 12 -115.5t37.5 -109.5t63.5 -82t87 -31q68 0 116 53.5t79 146.5t45 215t14 263q0 88 -3 149.5t-9 109.5t-16.5 92t-28.5 96q-6 6 -10 6q-10 0 -25.5 -18.5t-31 -46t-26 -52.5t-10.5 -37q0 -31 9.5 -54.5 t25.5 -55.5q16 -29 23 -45q20 -51 30.5 -114t10.5 -161q0 -166 -33 -258t-102 -92q-53 0 -82 74.5t-29 205.5v525q0 25 3 36t7 23q10 18 10 47q0 23 -16 23q-37 0 -61.5 -11.5t-55.5 -35.5q-41 -29 -63 -33q-12 -2 -15.5 -10.5t-3.5 -22.5z" />
<glyph unicode="v" horiz-adv-x="589" d="M18 1083q0 -20 6.5 -32.5t20.5 -28.5q16 -16 25.5 -32.5t13.5 -43.5l152 -840q2 -6 2 -20v-27q-2 -23 -2 -24q0 -47 24 -47q23 0 52.5 25.5t68.5 68.5l20 20q8 8 9 35q0 4 -9 25q-10 25 -10 33q0 10 8 26q6 12 9 21l2 4q78 182 120.5 328.5t42.5 326.5q0 78 -8 132 t-33 91q-2 4 -6 4q-10 0 -28.5 -18t-39 -46t-33.5 -53.5t-13 -37.5l2 -4v-2q29 -39 42 -91.5t13 -138.5q0 -113 -20.5 -226.5t-55.5 -207.5q-2 -6 -6 -14q-8 -18 -10 -19q-6 0 -12 35l-115 580q-4 33 -4 53v33q0 25 5 34t13 15q10 4 14.5 11t4.5 30q0 18 -6.5 27.5 t-28.5 9.5h-221q-9 -1 -9 -15z" />
<glyph unicode="w" horiz-adv-x="901" d="M18 1083q0 -20 6.5 -32.5t20.5 -28.5q16 -16 25.5 -32.5t13.5 -43.5l152 -840q2 -6 2 -20v-27q-2 -23 -2 -24q0 -47 24 -47q23 0 52.5 25.5t68.5 68.5l20 20q8 8 9 35q0 4 -9 25q-10 25 -10 33t13.5 42.5t25.5 61.5t29.5 65.5t23.5 51.5q6 0 13 -27l49 -283q4 -12 4 -20 q0 -6 -2 -27q-2 -16 -2 -24q0 -47 24 -47q23 0 53.5 26.5t69.5 67.5l21 20q8 8 8 35q0 4 -8 25q-12 25 -13 33q0 10 9 26q6 12 8 21l2 4q78 182 121 328.5t43 326.5q0 78 -7.5 132t-31.5 91q-2 4 -6 4q-10 0 -28.5 -18t-39 -46t-34 -53.5t-13.5 -37.5l2 -4v-2 q27 -41 41 -93.5t14 -136.5q0 -113 -20.5 -224.5t-54.5 -209.5q-2 -6 -7 -14q-8 -18 -10 -19q-6 0 -12 35l-115 580q-4 16 -4 53v33q0 25 5 34t13 15q10 4 14.5 11t4.5 30q0 18 -7 27.5t-30 9.5h-221q-8 0 -8 -15q0 -20 7 -32.5t19 -28.5q16 -18 25.5 -33.5t13.5 -42.5 l56 -301q10 -45 10 -72t-10.5 -77t-23.5 -102t-26.5 -88t-21.5 -36q-6 0 -12 35l-115 580q-4 33 -4 53v33q0 25 5 34t13 15q10 4 14.5 11t4.5 30q0 18 -6.5 27.5t-28.5 9.5h-221q-9 -1 -9 -15z" />
<glyph unicode="x" horiz-adv-x="675" d="M18 27q0 -18 7.5 -22.5t19.5 -4.5h170q16 0 16 18q0 33 -10 62q-8 25 -8 49q0 57 11.5 111.5t31.5 128.5q4 12 10 32q10 25 13 25q4 0 14 -27l76 -215q14 -27 14 -63q0 -12 -8 -27q-14 -23 -15 -53q0 -23 8.5 -32t16.5 -9h246q8 0 16 12.5t8 28.5q0 23 -6 31t-20 16 q-16 8 -28.5 19.5t-22.5 37.5l-189 490q-14 31 -14 51q0 14 12 45q27 63 50.5 114.5t49.5 92.5q20 33 58 86q53 78 53 96q0 12 -14 13q-41 0 -101 -33q-51 -27 -80 -27q-20 0 -20 -26q0 -14 6 -37q4 -23 4 -37q0 -51 -20 -150q-6 -25 -8 -37q-8 -37 -17 -36q-4 0 -12 24 q-2 2 -4 8t-4 11q-57 162 -70 213q-4 25 -6 53q-6 47 -16 47q-20 0 -51 -17.5t-63 -46t-52.5 -60.5t-20.5 -56q0 -16 27 -39q20 -18 33 -31q23 -23 37 -56.5t51 -140.5q10 -25 20 -55l25 -61q2 -6 4 -11q6 -20 8 -30q0 -10 -8 -35l-2 -6q-35 -88 -109 -248q-35 -68 -86 -129 q-31 -37 -31 -57z" />
<glyph unicode="y" horiz-adv-x="622" d="M18 967q0 -14 27 -37q23 -18 37 -33q18 -20 36.5 -60t61.5 -151l29 -72l8 -20q25 -61 25 -141v-312q0 -29 -7.5 -44t-19.5 -29q-12 -12 -17 -23.5t-5 -32.5q0 -12 12 -12h217q12 0 12 23q0 20 -18 43q-12 16 -19.5 32.5t-7.5 44.5v371q0 49 6 84t21 74q20 55 43.5 116.5 t42.5 108.5q20 53 67 143q35 68 35 82q0 8 -4 10.5t-10 2.5q-25 0 -40 -7.5t-32 -19.5q-27 -25 -55 -25q-12 0 -23.5 -8t-11.5 -22q0 -16 4 -47q2 -29 2 -43q0 -29 -6 -77t-16.5 -97.5t-20.5 -82t-18 -32.5q-2 0 -18.5 40t-22.5 58q-41 113 -66 234q-4 23 -8 55 q-6 45 -16 45q-23 0 -61 -12.5t-75.5 -32t-62.5 -44.5t-25 -50z" />
<glyph unicode="z" horiz-adv-x="555" d="M18 -20q0 -8 7 -9q33 0 65 15q27 12 49 16q47 10 111 10q74 0 108.5 -9t59.5 -23q18 -10 31 -11q10 0 18 18.5t8 53.5q4 74 18.5 151.5t41.5 186.5q2 6 2 16q0 16 -21 17q-16 0 -37 -43q-18 -39 -35.5 -59.5t-52.5 -24.5q-14 -2 -43 -5.5t-57 -3.5q-37 0 -61.5 5.5 t-24.5 17.5q0 18 14 53l283 721q6 16 6 27q0 14 -12 14q-20 0 -45 -22q-12 -10 -23.5 -17.5t-32.5 -7.5h-190q-33 0 -82 23q-16 8 -21 8q-14 0 -20 -41q-8 -102 -49 -279q-8 -31 -8 -55q0 -27 8 -27q6 0 22 27q23 33 44.5 55.5t56.5 26.5q57 4 84 4t75 -4q12 -2 13 -14 q0 -6 -6 -25l-3 -6l-290 -740q-11 -30 -11 -40z" />
<glyph unicode="&#xa5;" horiz-adv-x="1028" d="M-2 0h1024v1024h-1024v-1024zM18 20v984h983v-984h-983z" />
<glyph unicode="&#xe01e;" horiz-adv-x="1028" d="M-2 0h1024v1024h-1024v-1024zM18 20v984h983v-984h-983z" />
<glyph unicode="&#x25ca;" horiz-adv-x="1028" d="M-2 0h1024v1024h-1024v-1024zM18 20v984h983v-984h-983z" />
<glyph unicode="&#x2260;" horiz-adv-x="1028" d="M-2 0h1024v1024h-1024v-1024zM18 20v984h983v-984h-983z" />
<glyph unicode="&#x2248;" horiz-adv-x="1028" d="M-2 0h1024v1024h-1024v-1024zM18 20v984h983v-984h-983z" />
<glyph unicode="&#x222b;" horiz-adv-x="1028" d="M-2 0h1024v1024h-1024v-1024zM18 20v984h983v-984h-983z" />
<glyph unicode="&#x221e;" horiz-adv-x="1028" d="M-2 0h1024v1024h-1024v-1024zM18 20v984h983v-984h-983z" />
<glyph unicode="&#x221a;" horiz-adv-x="1028" d="M-2 0h1024v1024h-1024v-1024zM18 20v984h983v-984h-983z" />
<glyph unicode="&#x2211;" horiz-adv-x="1028" d="M-2 0h1024v1024h-1024v-1024zM18 20v984h983v-984h-983z" />
<glyph unicode="&#x220f;" horiz-adv-x="1028" d="M-2 0h1024v1024h-1024v-1024zM18 20v984h983v-984h-983z" />
<glyph unicode="&#x2202;" horiz-adv-x="1028" d="M-2 0h1024v1024h-1024v-1024zM18 20v984h983v-984h-983z" />
<glyph unicode="&#x2122;" horiz-adv-x="1028" d="M-2 0h1024v1024h-1024v-1024zM18 20v984h983v-984h-983z" />
<glyph unicode="&#x20ac;" horiz-adv-x="1028" d="M-2 0h1024v1024h-1024v-1024zM18 20v984h983v-984h-983z" />
<glyph unicode="&#x2044;" horiz-adv-x="1028" d="M-2 0h1024v1024h-1024v-1024zM18 20v984h983v-984h-983z" />
<glyph unicode="&#x2030;" horiz-adv-x="1028" d="M-2 0h1024v1024h-1024v-1024zM18 20v984h983v-984h-983z" />
<glyph unicode="&#x2026;" horiz-adv-x="1028" d="M-2 0h1024v1024h-1024v-1024zM18 20v984h983v-984h-983z" />
<glyph unicode="&#x3c0;" horiz-adv-x="1028" d="M-2 0h1024v1024h-1024v-1024zM18 20v984h983v-984h-983z" />
<glyph unicode="&#x3a9;" horiz-adv-x="1028" d="M-2 0h1024v1024h-1024v-1024zM18 20v984h983v-984h-983z" />
<glyph unicode="&#x394;" horiz-adv-x="1028" d="M-2 0h1024v1024h-1024v-1024zM18 20v984h983v-984h-983z" />
<glyph unicode="&#x192;" horiz-adv-x="1028" d="M-2 0h1024v1024h-1024v-1024zM18 20v984h983v-984h-983z" />
<glyph unicode="&#x178;" horiz-adv-x="1028" d="M-2 0h1024v1024h-1024v-1024zM18 20v984h983v-984h-983z" />
<glyph unicode="&#x131;" horiz-adv-x="1028" d="M-2 0h1024v1024h-1024v-1024zM18 20v984h983v-984h-983z" />
<glyph unicode="&#xff;" horiz-adv-x="1028" d="M-2 0h1024v1024h-1024v-1024zM18 20v984h983v-984h-983z" />
<glyph unicode="&#xaa;" horiz-adv-x="651" d="M18 27q0 -27 15 -27h123q14 0 14 23q0 20 -5 29t-13 18q-10 10 -15.5 22t-5.5 37q0 27 8 44t29 32l168 123q6 6 12 6q12 0 14 -23l31 -155q4 -20 4 -29q0 -25 -18 -47q-18 -27 -19 -55q0 -16 16.5 -20.5t35.5 -4.5h206q16 0 17 23q0 33 -11.5 50t-31.5 33q-25 20 -29 37 l-166 803q-6 43 -6 60v55q0 31 -22 31q-16 0 -38 -11.5t-43.5 -28t-39 -32.5t-25.5 -25l-4 -4q-10 -12 -10 -28q0 -18 20 -56l13 -26q-23 -111 -57.5 -262.5t-73.5 -321.5l-33 -141q-10 -39 -37 -74q-23 -28 -23 -55zM195 428q0 10 6 41l57 248q6 27 12 26q6 0 9 -20 l36 -180l2 -6q2 -8 2 -13q0 -18 -12 -28l-90 -70l-4 -4q-8 -6 -12 -6q-6 0 -6 12z" />
<glyph unicode="&#xad;" horiz-adv-x="419" d="M25 557q0 -14 12 -14q6 0 12 2q49 14 152 14q37 0 110 -10q10 -2 33 -4q4 0 10 -4q4 -4 6 -4q6 0 13 36q2 16 12 48q2 10 6 24q2 10 2 23q0 12 -6 12q-4 0 -10 -4l-12 -6q-43 -16 -140 -17q-84 0 -147 17q-18 6 -25 6q-2 -2 -6 -19q0 -8 -2 -16q-6 -29 -14 -59 q0 -6 -4 -13q-2 -10 -2 -12z" />
<glyph unicode="&#xb2;" horiz-adv-x="589" d="M25 37q0 -25 9 -31t19 -6h471q25 0 25 53v137q0 59 4 154q4 80 4 111q0 29 -3 46t-13 17q-12 0 -22.5 -19.5t-24.5 -60.5q-18 -55 -36 -84.5t-44 -29.5h-103q-20 0 -20 14q0 8 10 19.5t27 27.5l4 4q102 98 167.5 204.5t65.5 242.5q0 199 -74.5 287.5t-197.5 88.5 q-23 0 -60.5 -9t-76.5 -32.5t-67 -68.5t-28 -113q0 -35 19.5 -72.5t44.5 -37.5t39 24.5t35 75.5q18 53 36.5 82t47.5 29q20 0 35.5 -25t24.5 -64.5t13 -85t4 -90.5q0 -106 -20.5 -191t-53 -146.5t-70.5 -105.5t-95 -103q-39 -39 -51 -54q-8 -8 -11 -12q-18 -16 -26 -30.5 t-8 -41.5v-104z" />
<glyph unicode="&#xb3;" horiz-adv-x="532" d="M25 -530q0 -20 20 -21q8 0 21 6q80 37 154.5 108.5t134 173t95 229.5t35.5 272q0 123 -26.5 193.5t-77.5 96.5q-20 10 -21 23q0 20 9.5 36.5t31.5 43.5q49 57 78 124.5t29 194.5q0 125 -50 193.5t-124 68.5q-45 0 -95.5 -19t-95.5 -55t-71.5 -84t-26.5 -104 q0 -74 17.5 -101.5t52.5 -27.5q29 0 43 33t28 96q12 53 23.5 81t32.5 28q39 0 58 -60.5t19 -150.5q0 -147 -39.5 -247.5t-107.5 -184.5q-12 -16 -12 -47q0 -35 20 -35q68 0 99.5 -66.5t31.5 -183.5q0 -236 -68.5 -377t-187.5 -196q-2 -2 -8 -3q-10 -4 -16 -11t-6 -27z" />
<glyph unicode="&#xb9;" horiz-adv-x="395" d="M25 18q0 -18 20 -18h307q16 0 17 33q0 20 -6.5 32.5t-20.5 30.5q-18 23 -27.5 45.5t-9.5 63.5v983q0 14 -6 20t-12 6q-23 0 -47.5 -20t-63.5 -61q-41 -41 -67.5 -62.5t-51.5 -21.5q-33 0 -32 -41q0 -18 28 -62q23 -33 34 -56.5t11 -51.5v-637q0 -41 -10 -61.5t-29 -41.5 q-18 -18 -26 -34.5t-8 -45.5z" />
<glyph unicode="&#xba;" d="M18 504q0 -115 19.5 -212t54.5 -169t84 -112t107 -40q57 0 110 44t96 123t68 181.5t25 215.5q0 115 -19.5 216t-55.5 178t-85 120t-107 43q-29 0 -64.5 -28t-41.5 -52q-8 -25 -13.5 -32t-11.5 -7q-25 0 -53.5 -35t-55 -99.5t-42 -150.5t-15.5 -184zM143 662q0 61 6.5 114 t20.5 53q2 0 4 -20q2 -31 5 -57.5t12.5 -56t27 -52t43.5 -29.5q29 0 53.5 18.5t24.5 55.5q0 12 -14 21q-12 8 -19.5 20t-7.5 41q0 45 33 61.5t61 16.5q59 0 93 -89t34 -224t-47 -218.5t-133 -83.5q-43 0 -79 41t-62.5 106.5t-41 140.5t-14.5 141z" />
<glyph unicode="&#xbc;" horiz-adv-x="2043" d="M1448 47q0 -33 20 -33h201q12 0 12 -30v-101q0 -43 -10 -67.5t-29 -51.5q-14 -18 -21.5 -33.5t-7.5 -35.5q0 -47 15 -47h297q23 0 22 47q0 29 -9 44t-26 32q-20 18 -31.5 38.5t-11.5 59.5v111q0 16 3.5 24t15.5 8q43 0 63.5 -27.5t34.5 -70.5q8 -27 15 -27q16 0 16 60 v329q0 31 -16 31h-127q-8 0 -9 29v10q4 152 4 471v361q0 39 -16 39l-4 -3l-4 -2q-16 -14 -60 -59q-63 -66 -108 -100.5t-98 -46.5q-33 -6 -33 -43q0 -31 20 -31q8 0 17 14q8 16 18 17q6 0 6 -9q0 -4 -4 -16q-4 -14 -4 -23l-2 -18q-90 -561 -145 -827q-4 -17 -4 -23z M1579 436q0 27 8 107t20.5 168t24.5 148.5t22 60.5q8 0 14.5 -40t11.5 -101.5t8 -122t3 -97.5v-213q0 -39 -18 -39h-45q-29 0 -39 23.5t-10 105.5zM393 0h1024v1024h-1024v-1024zM413 20v984h983v-984h-983zM25 18q0 -18 20 -18h307q16 0 17 33q0 20 -6.5 32.5t-20.5 30.5 q-18 23 -27.5 45.5t-9.5 63.5v983q0 14 -6 20t-12 6q-23 0 -47.5 -20t-63.5 -61q-41 -41 -67.5 -62.5t-51.5 -21.5q-33 0 -32 -41q0 -18 28 -62q23 -33 34 -56.5t11 -51.5v-637q0 -41 -10 -61.5t-29 -41.5q-18 -18 -26 -34.5t-8 -45.5z" />
<glyph unicode="&#xbd;" horiz-adv-x="2013" d="M1448 37q0 -25 9 -31t19 -6h471q25 0 25 53v137q0 59 4 154q4 80 4 111q0 29 -3 46t-13 17q-12 0 -22.5 -19.5t-24.5 -60.5q-18 -55 -36 -84.5t-44 -29.5h-103q-20 0 -20 14q0 8 10 19.5t27 27.5l4 4q102 98 167.5 204.5t65.5 242.5q0 199 -74.5 287.5t-197.5 88.5 q-23 0 -60.5 -9t-76.5 -32.5t-67 -68.5t-28 -113q0 -35 19.5 -72.5t44.5 -37.5t39 24.5t35 75.5q18 53 36.5 82t47.5 29q20 0 35.5 -25t24.5 -64.5t13 -85t4 -90.5q0 -106 -20.5 -191t-53 -146.5t-70.5 -105.5t-95 -103q-39 -39 -51 -54q-8 -8 -11 -12q-18 -16 -26 -30.5 t-8 -41.5v-104zM393 0h1024v1024h-1024v-1024zM413 20v984h983v-984h-983zM25 18q0 -18 20 -18h307q16 0 17 33q0 20 -6.5 32.5t-20.5 30.5q-18 23 -27.5 45.5t-9.5 63.5v983q0 14 -6 20t-12 6q-23 0 -47.5 -20t-63.5 -61q-41 -41 -67.5 -62.5t-51.5 -21.5q-33 0 -32 -41 q0 -18 28 -62q23 -33 34 -56.5t11 -51.5v-637q0 -41 -10 -61.5t-29 -41.5q-18 -18 -26 -34.5t-8 -45.5z" />
<glyph unicode="&#xbe;" horiz-adv-x="2181" d="M1586 47q0 -33 20 -33h201q12 0 12 -30v-101q0 -43 -10 -67.5t-29 -51.5q-14 -18 -21.5 -33.5t-7.5 -35.5q0 -47 15 -47h297q23 0 22 47q0 29 -9 44t-26 32q-20 18 -31.5 38.5t-11.5 59.5v111q0 16 3.5 24t15.5 8q43 0 63.5 -27.5t34.5 -70.5q8 -27 15 -27q16 0 16 60 v329q0 31 -16 31h-127q-8 0 -9 29v10q4 152 4 471v361q0 39 -16 39l-4 -3l-4 -2q-16 -14 -60 -59q-63 -66 -108 -100.5t-98 -46.5q-33 -6 -33 -43q0 -31 20 -31q8 0 17 14q8 16 18 17q6 0 6 -9q0 -4 -4 -16q-4 -14 -4 -23l-2 -18q-90 -561 -145 -827q-4 -17 -4 -23z M1717 436q0 27 8 107t20.5 168t24.5 148.5t22 60.5q8 0 14.5 -40t11.5 -101.5t8 -122t3 -97.5v-213q0 -39 -18 -39h-45q-29 0 -39 23.5t-10 105.5zM530 0h1024v1024h-1024v-1024zM550 20v984h983v-984h-983zM25 -530q0 -20 20 -21q8 0 21 6q80 37 154.5 108.5t134 173 t95 229.5t35.5 272q0 123 -26.5 193.5t-77.5 96.5q-20 10 -21 23q0 20 9.5 36.5t31.5 43.5q49 57 78 124.5t29 194.5q0 125 -50 193.5t-124 68.5q-45 0 -95.5 -19t-95.5 -55t-71.5 -84t-26.5 -104q0 -74 17.5 -101.5t52.5 -27.5q29 0 43 33t28 96q12 53 23.5 81t32.5 28 q39 0 58 -60.5t19 -150.5q0 -147 -39.5 -247.5t-107.5 -184.5q-12 -16 -12 -47q0 -35 20 -35q68 0 99.5 -66.5t31.5 -183.5q0 -236 -68.5 -377t-187.5 -196q-2 -2 -8 -3q-10 -4 -16 -11t-6 -27z" />
<glyph unicode="&#xc0;" horiz-adv-x="929" d="M355 2064q0 -14 8 -36l67 -213h4q20 -55 46 -93.5t45 -38.5q20 0 20 46q0 35 -12 86l-74 225q-6 25 -10 24l-2 -4q-2 -6 -4 -8q-12 -33 -29 -33q-29 4 -49 35q-8 10 -10 10zM25 39q0 -39 24 -39h172q20 0 21 33q0 27 -6.5 40t-18.5 25q-14 16 -21.5 32.5t-7.5 53.5 q0 39 10.5 62.5t41.5 46.5l239 176q10 8 17 8q14 0 20 -33l45 -221q6 -25 6 -41q0 -23 -6 -37t-18 -30q-14 -20 -21.5 -36t-7.5 -44q0 -23 24.5 -29t49.5 -6h297q20 0 20 33q0 49 -15.5 73.5t-45.5 47.5q-35 27 -41 51l-234 1147q-12 61 -12 86q0 6 2 37v41q0 45 -35 45 q-20 0 -51 -16.5t-61.5 -40t-56 -47t-36.5 -36.5q-20 -20 -20 -45q0 -27 27 -80q12 -25 18 -39q-25 -119 -54.5 -256t-58 -261t-63.5 -271t-57 -246q-10 -37 -22.5 -59.5t-31.5 -46.5q-18 -23 -25 -38t-7 -40zM279 610q0 12 10 56v4l80 354q12 39 16 39q8 0 14 -31l52 -258 q4 -10 4 -26q0 -27 -17 -39l-127 -101l-6 -4q-16 -10 -18 -10q-8 0 -8 16z" />
<glyph unicode="&#xc8;" horiz-adv-x="745" d="M461 2076q0 -14 8 -36l67 -213h4q20 -55 46 -93.5t45 -38.5q20 0 20 46q0 35 -12 86l-74 225q-6 25 -10 24l-2 -4q-2 -6 -4 -8q-12 -33 -29 -33q-29 4 -49 35q-8 10 -10 10zM25 18q0 -18 18 -18h307q55 0 133 -5t119 -11q18 -2 35 -23l6 -4q16 0 24.5 53t16.5 162l6 66 q2 27 12 75q6 37 10.5 68t4.5 72t-3 58t-14 17q-8 0 -26 -57q-12 -41 -27.5 -79t-36.5 -73q-51 -92 -129 -158.5t-149 -66.5q-18 0 -23.5 23.5t-5.5 87.5v381q0 31 4 50t17 40q14 27 32.5 44t36.5 17q23 0 35 -23.5t25 -64.5q8 -27 13 -39t13 -12t15.5 18.5t23.5 65.5 q14 49 23 70q8 20 24 51q25 45 25 71q0 55 -37 105.5t-90 50.5q-51 0 -78 -48t-47 -126q-14 -51 -21 -51q-14 0 -14 53v483q0 47 8 62.5t33 15.5q57 0 108.5 -38t100.5 -107q14 -20 28.5 -53t34.5 -86q25 -63 38.5 -91t25.5 -28q20 0 20 41q0 25 -6 71q-6 41 -10 80t-10 113 q-2 31 -4 43q-8 111 -15.5 160t-23.5 49q-10 0 -29 -21q-12 -14 -23.5 -22t-29.5 -8h-506q-18 0 -18 -37q0 -20 7 -32.5t23 -27.5q20 -23 30.5 -43t10.5 -61v-1120q0 -41 -10 -61.5t-29 -41.5q-16 -18 -24 -34.5t-8 -45.5z" />
<glyph unicode="&#xcc;" horiz-adv-x="399" d="M31 2064q0 -14 8 -36l67 -213h4q20 -55 46 -93.5t45 -38.5q20 0 20 46q0 35 -12 86l-74 225q-6 25 -10 24l-2 -4q-2 -6 -4 -8q-12 -33 -29 -33q-29 4 -49 35q-8 10 -10 10zM25 18q0 -18 18 -18h307q18 0 19 33q0 20 -6.5 32.5t-20.5 30.5q-18 23 -28.5 45.5t-10.5 63.5 v119v895v122q0 35 9.5 52.5t27.5 33.5q16 14 24.5 27.5t8.5 38.5q0 29 -13 29h-317q-18 0 -18 -37q0 -20 7 -32.5t23 -27.5q20 -23 30.5 -43t10.5 -61v-107v-890v-123q0 -41 -10 -61.5t-29 -41.5q-16 -18 -24 -34.5t-8 -45.5z" />
<glyph unicode="&#xd2;" horiz-adv-x="856" d="M281 2064q0 -14 8 -36l67 -213h4q20 -55 46 -93.5t45 -38.5q20 0 20 46q0 35 -12 86l-74 225q-6 25 -10 24l-2 -4q-2 -6 -4 -8q-12 -33 -29 -33q-29 4 -49 35q-8 10 -10 10zM25 721q0 -162 28.5 -302t78.5 -242.5t121 -160t150 -57.5q80 0 158 63.5t138.5 175t95 259 t34.5 307.5q0 164 -27.5 308.5t-78.5 255t-121 172t-151 61.5q-41 0 -91.5 -40t-62.5 -75q-10 -33 -17.5 -44t-15.5 -11q-35 0 -77 -50.5t-78.5 -142.5t-60 -215t-23.5 -262zM207 944q0 35 1 76t4 78t10 62.5t20 25.5q2 0 6 -35q2 -41 8 -80t19.5 -81t39 -73.5t62.5 -39.5 q37 0 71.5 27.5t36.5 78.5q0 16 -20 31q-16 12 -26.5 29.5t-10.5 56.5q0 35 15.5 57.5t39 34.5t45 16t33.5 4q86 0 133 -127t47 -321q0 -193 -66.5 -311.5t-189.5 -118.5q-61 0 -112 58.5t-88 151.5t-57.5 199.5t-20.5 200.5z" />
<glyph unicode="&#xd9;" horiz-adv-x="770" d="M310 2074q0 -14 8 -36l67 -213h4q20 -55 46 -93.5t45 -38.5q20 0 20 46q0 35 -12 86l-74 225q-6 25 -10 24l-2 -4q-2 -6 -4 -8q-12 -33 -29 -33q-29 4 -49 35q-8 10 -10 10zM25 1409q0 -20 7 -35.5t21 -34.5q20 -27 30.5 -49t10.5 -63v-787q0 -80 17.5 -165t54.5 -157.5 t91 -116.5t124 -44q94 0 163.5 76t113.5 209t64.5 306t20.5 376q0 125 -4 215t-13 157.5t-24.5 129t-42.5 137.5q-6 8 -12 8q-14 0 -36.5 -25.5t-45 -64.5t-38 -76t-15.5 -53q0 -39 12.5 -71t36.5 -79q25 -47 33 -72q31 -74 46 -161.5t15 -231.5q0 -236 -47 -367.5 t-145 -131.5q-76 0 -118 107.5t-42 293.5v747q0 35 4 51.5t15 35.5q6 14 10 27t4 38q0 18 -8.5 25.5t-18.5 7.5q-51 0 -87 -16.5t-79 -49.5q-55 -41 -90 -47q-18 -2 -23 -14t-5 -35z" />
<glyph unicode="&#xe0;" horiz-adv-x="651" d="M199 1595q0 -14 8 -36l67 -213h4q20 -55 46 -93.5t45 -38.5q20 0 20 46q0 35 -12 86l-74 225q-6 25 -10 24l-2 -4q-2 -6 -4 -8q-12 -33 -29 -33q-29 4 -49 35q-8 10 -10 10zM18 27q0 -27 15 -27h123q14 0 14 23q0 20 -5 29t-13 18q-10 10 -15.5 22t-5.5 37q0 27 8 44 t29 32l168 123q6 6 12 6q12 0 14 -23l31 -155q4 -20 4 -29q0 -25 -18 -47q-18 -27 -19 -55q0 -16 16.5 -20.5t35.5 -4.5h206q16 0 17 23q0 33 -11.5 50t-31.5 33q-25 20 -29 37l-166 803q-6 43 -6 60v55q0 31 -22 31q-16 0 -38 -11.5t-43.5 -28t-39 -32.5t-25.5 -25l-4 -4 q-10 -12 -10 -28q0 -18 20 -56l13 -26q-23 -111 -57.5 -262.5t-73.5 -321.5l-33 -141q-10 -39 -37 -74q-23 -28 -23 -55zM195 428q0 10 6 41l57 248q6 27 12 26q6 0 9 -20l36 -180l2 -6q2 -8 2 -13q0 -18 -12 -28l-90 -70l-4 -4q-8 -6 -12 -6q-6 0 -6 12z" />
<glyph unicode="&#xe8;" horiz-adv-x="520" d="M273 1605q0 -14 8 -36l67 -213h4q20 -55 46 -93.5t45 -38.5q20 0 20 46q0 35 -12 86l-74 225q-6 25 -10 24l-2 -4q-2 -6 -4 -8q-12 -33 -29 -33q-29 4 -49 35q-8 10 -10 10zM18 12q0 -12 11 -12h217q37 0 92 -4t84 -8q12 -2 24 -15q2 -4 5 -4q12 0 17 35t11 117l4 45 q2 23 11 57q10 53 10 94q0 29 -2 41.5t-10 12.5q-6 0 -21 -43q-23 -68 -45 -105q-35 -63 -90 -110t-103 -47q-12 0 -16 15t-4 62v267q0 25 2 37t10 26q25 43 51 43q14 0 22.5 -15.5t18.5 -45.5q10 -37 19 -37q6 0 12 15.5t17 49.5q8 27 14 43t18 39q16 29 17 47q0 39 -27 74 t-63 35q-35 0 -53.5 -34t-32.5 -87q-10 -37 -17 -37q-8 0 -8 37v338q0 35 5 45t24 10q39 0 74.5 -26.5t72.5 -75.5q14 -20 45 -98q14 -41 24.5 -61.5t16.5 -20.5q16 0 17 28q0 18 -5 54q-8 55 -16 133q-6 88 -12 132t-17 44q-8 0 -20 -15q-20 -23 -39 -22h-354 q-10 0 -11 -25q0 -23 21 -43q14 -14 21.5 -28.5t7.5 -42.5v-785q0 -29 -7.5 -44t-19.5 -29q-12 -12 -17.5 -24t-5.5 -32z" />
<glyph unicode="&#xec;" horiz-adv-x="1028" d="M340 1595q0 -14 8 -36l67 -213h4q20 -55 46 -93.5t45 -38.5q20 0 20 46q0 35 -12 86l-74 225q-6 25 -10 24l-2 -4q-2 -6 -4 -8q-12 -33 -29 -33q-29 4 -49 35q-8 10 -10 10zM-2 0h1024v1024h-1024v-1024zM18 20v984h983v-984h-983z" />
<glyph unicode="&#xf2;" d="M146 1595q0 -14 8 -36l67 -213h4q20 -55 46 -93.5t45 -38.5q20 0 20 46q0 35 -12 86l-74 225q-6 25 -10 24l-2 -4q-2 -6 -4 -8q-12 -33 -29 -33q-29 4 -49 35q-8 10 -10 10zM18 504q0 -115 19.5 -212t54.5 -169t84 -112t107 -40q57 0 110 44t96 123t68 181.5t25 215.5 q0 115 -19.5 216t-55.5 178t-85 120t-107 43q-29 0 -64.5 -28t-41.5 -52q-8 -25 -13.5 -32t-11.5 -7q-25 0 -53.5 -35t-55 -99.5t-42 -150.5t-15.5 -184zM143 662q0 61 6.5 114t20.5 53q2 0 4 -20q2 -31 5 -57.5t12.5 -56t27 -52t43.5 -29.5q29 0 53.5 18.5t24.5 55.5 q0 12 -14 21q-12 8 -19.5 20t-7.5 41q0 45 33 61.5t61 16.5q59 0 93 -89t34 -224t-47 -218.5t-133 -83.5q-43 0 -79 41t-62.5 106.5t-41 140.5t-14.5 141z" />
<glyph unicode="&#xf9;" horiz-adv-x="538" d="M166 1603q0 -14 8 -36l67 -213h4q20 -55 46 -93.5t45 -38.5q20 0 20 46q0 35 -12 86l-74 225q-6 25 -10 24l-2 -4q-2 -6 -4 -8q-12 -33 -29 -33q-29 4 -49 35q-8 10 -10 10zM18 987q0 -23 21 -49q12 -18 19.5 -34.5t7.5 -45.5v-551q0 -57 12 -115.5t37.5 -109.5t63.5 -82 t87 -31q68 0 116 53.5t79 146.5t45 215t14 263q0 88 -3 149.5t-9 109.5t-16.5 92t-28.5 96q-6 6 -10 6q-10 0 -25.5 -18.5t-31 -46t-26 -52.5t-10.5 -37q0 -31 9.5 -54.5t25.5 -55.5q16 -29 23 -45q20 -51 30.5 -114t10.5 -161q0 -166 -33 -258t-102 -92q-53 0 -82 74.5 t-29 205.5v525q0 25 3 36t7 23q10 18 10 47q0 23 -16 23q-37 0 -61.5 -11.5t-55.5 -35.5q-41 -29 -63 -33q-12 -2 -15.5 -10.5t-3.5 -22.5z" />
<glyph unicode="&#x152;" horiz-adv-x="1601" d="M881 18q0 -18 18 -18h307q55 0 133 -5t119 -11q18 -2 35 -23l6 -4q16 0 24.5 53t16.5 162l6 66q2 27 12 75q6 37 10.5 68t4.5 72t-3 58t-14 17q-8 0 -26 -57q-12 -41 -27.5 -79t-36.5 -73q-51 -92 -129 -158.5t-149 -66.5q-18 0 -23.5 23.5t-5.5 87.5v381q0 31 4 50 t17 40q14 27 32.5 44t36.5 17q23 0 35 -23.5t25 -64.5q8 -27 13 -39t13 -12t15.5 18.5t23.5 65.5q14 49 23 70q8 20 24 51q25 45 25 71q0 55 -37 105.5t-90 50.5q-51 0 -78 -48t-47 -126q-14 -51 -21 -51q-14 0 -14 53v483q0 47 8 62.5t33 15.5q57 0 108.5 -38t100.5 -107 q14 -20 28.5 -53t34.5 -86q25 -63 38.5 -91t25.5 -28q20 0 20 41q0 25 -6 71q-6 41 -10 80t-10 113q-2 31 -4 43q-8 111 -15.5 160t-23.5 49q-10 0 -29 -21q-12 -14 -23.5 -22t-29.5 -8h-506q-18 0 -18 -37q0 -20 7 -32.5t23 -27.5q20 -23 30.5 -43t10.5 -61v-1120 q0 -41 -10 -61.5t-29 -41.5q-16 -18 -24 -34.5t-8 -45.5zM25 721q0 -162 28.5 -302t78.5 -242.5t121 -160t150 -57.5q80 0 158 63.5t138.5 175t95 259t34.5 307.5q0 164 -27.5 308.5t-78.5 255t-121 172t-151 61.5q-41 0 -91.5 -40t-62.5 -75q-10 -33 -17.5 -44t-15.5 -11 q-35 0 -77 -50.5t-78.5 -142.5t-60 -215t-23.5 -262zM207 944q0 35 1 76t4 78t10 62.5t20 25.5q2 0 6 -35q2 -41 8 -80t19.5 -81t39 -73.5t62.5 -39.5q37 0 71.5 27.5t36.5 78.5q0 16 -20 31q-16 12 -26.5 29.5t-10.5 56.5q0 35 15.5 57.5t39 34.5t45 16t33.5 4 q86 0 133 -127t47 -321q0 -193 -66.5 -311.5t-189.5 -118.5q-61 0 -112 58.5t-88 151.5t-57.5 199.5t-20.5 200.5z" />
<glyph unicode="&#x153;" horiz-adv-x="1118" d="M616 12q0 -12 11 -12h217q37 0 92 -4t84 -8q12 -2 24 -15q2 -4 5 -4q12 0 17 35t11 117l4 45q2 23 11 57q10 53 10 94q0 29 -2 41.5t-10 12.5q-6 0 -21 -43q-23 -68 -45 -105q-35 -63 -90 -110t-103 -47q-12 0 -16 15t-4 62v267q0 25 2 37t10 26q25 43 51 43 q14 0 22.5 -15.5t18.5 -45.5q10 -37 19 -37q6 0 12 15.5t17 49.5q8 27 14 43t18 39q16 29 17 47q0 39 -27 74t-63 35q-35 0 -53.5 -34t-32.5 -87q-10 -37 -17 -37q-8 0 -8 37v338q0 35 5 45t24 10q39 0 74.5 -26.5t72.5 -75.5q14 -20 45 -98q14 -41 24.5 -61.5t16.5 -20.5 q16 0 17 28q0 18 -5 54q-8 55 -16 133q-6 88 -12 132t-17 44q-8 0 -20 -15q-20 -23 -39 -22h-354q-10 0 -11 -25q0 -23 21 -43q14 -14 21.5 -28.5t7.5 -42.5v-785q0 -29 -7.5 -44t-19.5 -29q-12 -12 -17.5 -24t-5.5 -32zM18 504q0 -115 19.5 -212t54.5 -169t84 -112t107 -40 q57 0 110 44t96 123t68 181.5t25 215.5q0 115 -19.5 216t-55.5 178t-85 120t-107 43q-29 0 -64.5 -28t-41.5 -52q-8 -25 -13.5 -32t-11.5 -7q-25 0 -53.5 -35t-55 -99.5t-42 -150.5t-15.5 -184zM143 662q0 61 6.5 114t20.5 53q2 0 4 -20q2 -31 5 -57.5t12.5 -56t27 -52 t43.5 -29.5q29 0 53.5 18.5t24.5 55.5q0 12 -14 21q-12 8 -19.5 20t-7.5 41q0 45 33 61.5t61 16.5q59 0 93 -89t34 -224t-47 -218.5t-133 -83.5q-43 0 -79 41t-62.5 106.5t-41 140.5t-14.5 141z" />
<glyph unicode="&#x2000;" horiz-adv-x="1038" />
<glyph unicode="&#x2001;" horiz-adv-x="2076" />
<glyph unicode="&#x2002;" horiz-adv-x="1038" />
<glyph unicode="&#x2003;" horiz-adv-x="2076" />
<glyph unicode="&#x2004;" horiz-adv-x="692" />
<glyph unicode="&#x2005;" horiz-adv-x="518" />
<glyph unicode="&#x2006;" horiz-adv-x="346" />
<glyph unicode="&#x2007;" horiz-adv-x="346" />
<glyph unicode="&#x2008;" horiz-adv-x="258" />
<glyph unicode="&#x2009;" horiz-adv-x="413" />
<glyph unicode="&#x200a;" horiz-adv-x="114" />
<glyph unicode="&#x2010;" horiz-adv-x="419" d="M25 557q0 -14 12 -14q6 0 12 2q49 14 152 14q37 0 110 -10q10 -2 33 -4q4 0 10 -4q4 -4 6 -4q6 0 13 36q2 16 12 48q2 10 6 24q2 10 2 23q0 12 -6 12q-4 0 -10 -4l-12 -6q-43 -16 -140 -17q-84 0 -147 17q-18 6 -25 6q-2 -2 -6 -19q0 -8 -2 -16q-6 -29 -14 -59 q0 -6 -4 -13q-2 -10 -2 -12z" />
<glyph unicode="&#x2011;" horiz-adv-x="419" d="M25 557q0 -14 12 -14q6 0 12 2q49 14 152 14q37 0 110 -10q10 -2 33 -4q4 0 10 -4q4 -4 6 -4q6 0 13 36q2 16 12 48q2 10 6 24q2 10 2 23q0 12 -6 12q-4 0 -10 -4l-12 -6q-43 -16 -140 -17q-84 0 -147 17q-18 6 -25 6q-2 -2 -6 -19q0 -8 -2 -16q-6 -29 -14 -59 q0 -6 -4 -13q-2 -10 -2 -12z" />
<glyph unicode="&#x2012;" horiz-adv-x="419" d="M25 557q0 -14 12 -14q6 0 12 2q49 14 152 14q37 0 110 -10q10 -2 33 -4q4 0 10 -4q4 -4 6 -4q6 0 13 36q2 16 12 48q2 10 6 24q2 10 2 23q0 12 -6 12q-4 0 -10 -4l-12 -6q-43 -16 -140 -17q-84 0 -147 17q-18 6 -25 6q-2 -2 -6 -19q0 -8 -2 -16q-6 -29 -14 -59 q0 -6 -4 -13q-2 -10 -2 -12z" />
<glyph unicode="&#x2013;" horiz-adv-x="1024" d="M25 537v143h972v-143h-972z" />
<glyph unicode="&#x2014;" horiz-adv-x="2048" d="M25 537v143h1996v-143h-1996z" />
<glyph unicode="&#x2018;" horiz-adv-x="241" d="M27 1511q0 -14 8 -36l67 -213h4q20 -55 46 -93.5t45 -38.5q20 0 20 46q0 35 -12 86l-74 225q-6 25 -10 24l-2 -4q-2 -6 -4 -8q-12 -33 -29 -33q-29 4 -49 35q-8 10 -10 10z" />
<glyph unicode="&#x2019;" horiz-adv-x="151" d="M25 1262h4q4 -57 17 -94.5t32 -37.5q18 0 32.5 37t16.5 95v225q0 25 -4 24q-4 -4 -8 -12q-25 -33 -41 -33q-12 2 -21.5 9.5t-15.5 25.5q-4 10 -8 10q-4 -4 -4 -36v-213z" />
<glyph unicode="&#x201c;" horiz-adv-x="294" d="M25 1257h4q4 -57 17 -94t32 -37q18 0 32.5 37t16.5 94v226q0 25 -4 24q-4 -4 -8 -12q-25 -33 -41 -33q-12 2 -21.5 9.5t-15.5 25.5q-4 10 -8 10q-4 -4 -4 -37v-213zM168 1260q4 -57 17.5 -94.5t31.5 -37.5t32.5 37t16.5 95h2v225q0 18 -2 24q-4 0 -8 -8l-4 -4 q-18 -33 -41 -33q-23 4 -37 35q-2 8 -4 10q-4 -2 -4 -36v-213z" />
<glyph unicode="&#x201d;" horiz-adv-x="294" d="M25 1257h4q4 -57 17 -94t32 -37q18 0 32.5 37t16.5 94v226q0 25 -4 24q-4 -4 -8 -12q-25 -33 -41 -33q-12 2 -21.5 9.5t-15.5 25.5q-4 10 -8 10q-4 -4 -4 -37v-213zM168 1260q4 -57 17.5 -94.5t31.5 -37.5t32.5 37t16.5 95h2v225q0 18 -2 24q-4 0 -8 -8l-4 -4 q-18 -33 -41 -33q-23 4 -37 35q-2 8 -4 10q-4 -2 -4 -36v-213z" />
<glyph unicode="&#x202f;" horiz-adv-x="413" />
<glyph unicode="&#x205f;" horiz-adv-x="518" />
<glyph unicode="&#xe000;" horiz-adv-x="1135" d="M0 1135h1135v-1135h-1135v1135z" />
<glyph unicode="&#xfb01;" horiz-adv-x="786" d="M526 12q0 -12 11 -12h217q12 0 12 23q0 20 -18 43q-12 16 -19.5 32.5t-7.5 44.5v84v625v86q0 25 7 37t20 24q12 10 17 19.5t5 25.5q0 20 -10 21h-223q-10 0 -11 -25q0 -23 21 -43q14 -14 21.5 -28.5t7.5 -42.5v-76v-623v-86q0 -29 -7.5 -44t-19.5 -29q-12 -12 -17.5 -24 t-5.5 -32zM18 1036q0 -20 21 -43q14 -12 21.5 -27.5t7.5 -43.5v-785q0 -127 -10.5 -196.5t-24.5 -126.5q-12 -43 -13 -64q0 -12 7 -12q8 0 16 7t14 15q31 27 84 103q29 43 48.5 65.5t39.5 32.5q6 0 15.5 8t9.5 35q0 18 -12 25q-8 4 -13 8q-10 6 -13 26.5t-3 77.5v267 q0 43 18.5 74.5t44.5 31.5q14 0 22.5 -15.5t18.5 -45.5q10 -37 19 -37q2 0 13 25.5t28.5 67.5t27 68.5t9.5 32.5q0 39 -27 74t-63 35q-35 0 -53.5 -34t-32.5 -87q-10 -37 -17 -37q-8 0 -8 37v338q0 35 5 45t24 10q39 0 74.5 -26.5t72.5 -75.5q14 -20 45 -98 q14 -41 24.5 -61.5t16.5 -20.5q16 0 17 28q0 18 -5 54q-8 53 -16 131q-6 88 -12 132t-17 44q-8 0 -20 -15q-20 -20 -39 -20h-354q-11 0 -11 -27z" />
<glyph unicode="&#xfb02;" horiz-adv-x="1003" d="M526 12q0 -12 11 -12h217q41 0 83 -3t68 -7q12 -2 25 -15q2 -4 4 -4q12 0 17.5 36t11.5 118q2 14 4 43q2 23 10 57q10 51 10 92q0 23 -3 29t-13 6q-8 0 -43 -71q-47 -96 -89 -155.5t-98 -59.5q-12 0 -16 15t-4 62v795q0 25 7 37t20 24q12 10 17 19.5t5 25.5q0 20 -10 21 h-223q-10 0 -11 -25q0 -23 21 -43q14 -14 21.5 -28.5t7.5 -42.5v-785q0 -29 -7.5 -44t-19.5 -29q-12 -12 -17.5 -24t-5.5 -32zM18 1036q0 -20 21 -43q14 -12 21.5 -27.5t7.5 -43.5v-785q0 -127 -10.5 -196.5t-24.5 -126.5q-12 -43 -13 -64q0 -12 7 -12q8 0 16 7t14 15 q31 27 84 103q29 43 48.5 65.5t39.5 32.5q6 0 15.5 8t9.5 35q0 18 -12 25q-8 4 -13 8q-10 6 -13 26.5t-3 77.5v267q0 43 18.5 74.5t44.5 31.5q14 0 22.5 -15.5t18.5 -45.5q10 -37 19 -37q2 0 13 25.5t28.5 67.5t27 68.5t9.5 32.5q0 39 -27 74t-63 35q-35 0 -53.5 -34 t-32.5 -87q-10 -37 -17 -37q-8 0 -8 37v338q0 35 5 45t24 10q39 0 74.5 -26.5t72.5 -75.5q14 -20 45 -98q14 -41 24.5 -61.5t16.5 -20.5q16 0 17 28q0 18 -5 54q-8 53 -16 131q-6 88 -12 132t-17 44q-8 0 -20 -15q-20 -20 -39 -20h-354q-11 0 -11 -27z" />
<glyph unicode="&#xfb03;" horiz-adv-x="1294" d="M1034 12q0 -12 11 -12h217q12 0 12 23q0 20 -18 43q-12 16 -19.5 32.5t-7.5 44.5v84v625v86q0 25 7 37t20 24q12 10 17 19.5t5 25.5q0 20 -10 21h-223q-10 0 -11 -25q0 -23 21 -43q14 -14 21.5 -28.5t7.5 -42.5v-76v-623v-86q0 -29 -7.5 -44t-19.5 -29q-12 -12 -17.5 -24 t-5.5 -32zM526 1036q0 -20 21 -43q14 -12 21.5 -27.5t7.5 -43.5v-785q0 -127 -10.5 -196.5t-24.5 -126.5q-12 -43 -13 -64q0 -12 7 -12q8 0 16 7t14 15q31 27 84 103q29 43 48.5 65.5t39.5 32.5q6 0 15.5 8t9.5 35q0 18 -12 25q-8 4 -13 8q-10 6 -13 26.5t-3 77.5v267 q0 43 18.5 74.5t44.5 31.5q14 0 22.5 -15.5t18.5 -45.5q10 -37 19 -37q2 0 13 25.5t28.5 67.5t27 68.5t9.5 32.5q0 39 -27 74t-63 35q-35 0 -53.5 -34t-32.5 -87q-10 -37 -17 -37q-8 0 -8 37v338q0 35 5 45t24 10q39 0 74.5 -26.5t72.5 -75.5q14 -20 45 -98 q14 -41 24.5 -61.5t16.5 -20.5q16 0 17 28q0 18 -5 54q-8 53 -16 131q-6 88 -12 132t-17 44q-8 0 -20 -15q-20 -20 -39 -20h-354q-11 0 -11 -27zM18 1036q0 -20 21 -43q14 -12 21.5 -27.5t7.5 -43.5v-785q0 -127 -10.5 -196.5t-24.5 -126.5q-12 -43 -13 -64q0 -12 7 -12 q8 0 16 7t14 15q31 27 84 103q29 43 48.5 65.5t39.5 32.5q6 0 15.5 8t9.5 35q0 18 -12 25q-8 4 -13 8q-10 6 -13 26.5t-3 77.5v267q0 43 18.5 74.5t44.5 31.5q14 0 22.5 -15.5t18.5 -45.5q10 -37 19 -37q2 0 13 25.5t28.5 67.5t27 68.5t9.5 32.5q0 39 -27 74t-63 35 q-35 0 -53.5 -34t-32.5 -87q-10 -37 -17 -37q-8 0 -8 37v338q0 35 5 45t24 10q39 0 74.5 -26.5t72.5 -75.5q14 -20 45 -98q14 -41 24.5 -61.5t16.5 -20.5q16 0 17 28q0 18 -5 54q-8 53 -16 131q-6 88 -12 132t-17 44q-8 0 -20 -15q-20 -20 -39 -20h-354q-11 0 -11 -27z" />
<glyph unicode="&#xfb04;" horiz-adv-x="1511" d="M1034 12q0 -12 11 -12h217q41 0 83 -3t68 -7q12 -2 25 -15q2 -4 4 -4q12 0 17.5 36t11.5 118q2 14 4 43q2 23 10 57q10 51 10 92q0 23 -3 29t-13 6q-8 0 -43 -71q-47 -96 -89 -155.5t-98 -59.5q-12 0 -16 15t-4 62v795q0 25 7 37t20 24q12 10 17 19.5t5 25.5q0 20 -10 21 h-223q-10 0 -11 -25q0 -23 21 -43q14 -14 21.5 -28.5t7.5 -42.5v-785q0 -29 -7.5 -44t-19.5 -29q-12 -12 -17.5 -24t-5.5 -32zM526 1036q0 -20 21 -43q14 -12 21.5 -27.5t7.5 -43.5v-785q0 -127 -10.5 -196.5t-24.5 -126.5q-12 -43 -13 -64q0 -12 7 -12q8 0 16 7t14 15 q31 27 84 103q29 43 48.5 65.5t39.5 32.5q6 0 15.5 8t9.5 35q0 18 -12 25q-8 4 -13 8q-10 6 -13 26.5t-3 77.5v267q0 43 18.5 74.5t44.5 31.5q14 0 22.5 -15.5t18.5 -45.5q10 -37 19 -37q2 0 13 25.5t28.5 67.5t27 68.5t9.5 32.5q0 39 -27 74t-63 35q-35 0 -53.5 -34 t-32.5 -87q-10 -37 -17 -37q-8 0 -8 37v338q0 35 5 45t24 10q39 0 74.5 -26.5t72.5 -75.5q14 -20 45 -98q14 -41 24.5 -61.5t16.5 -20.5q16 0 17 28q0 18 -5 54q-8 53 -16 131q-6 88 -12 132t-17 44q-8 0 -20 -15q-20 -20 -39 -20h-354q-11 0 -11 -27zM18 1036q0 -20 21 -43 q14 -12 21.5 -27.5t7.5 -43.5v-785q0 -127 -10.5 -196.5t-24.5 -126.5q-12 -43 -13 -64q0 -12 7 -12q8 0 16 7t14 15q31 27 84 103q29 43 48.5 65.5t39.5 32.5q6 0 15.5 8t9.5 35q0 18 -12 25q-8 4 -13 8q-10 6 -13 26.5t-3 77.5v267q0 43 18.5 74.5t44.5 31.5 q14 0 22.5 -15.5t18.5 -45.5q10 -37 19 -37q2 0 13 25.5t28.5 67.5t27 68.5t9.5 32.5q0 39 -27 74t-63 35q-35 0 -53.5 -34t-32.5 -87q-10 -37 -17 -37q-8 0 -8 37v338q0 35 5 45t24 10q39 0 74.5 -26.5t72.5 -75.5q14 -20 45 -98q14 -41 24.5 -61.5t16.5 -20.5q16 0 17 28 q0 18 -5 54q-8 53 -16 131q-6 88 -12 132t-17 44q-8 0 -20 -15q-20 -20 -39 -20h-354q-11 0 -11 -27z" />
</font>
</defs>
</svg>
